<svg width="121" height="121" viewBox="0 0 121 121" fill="none" xmlns="http://www.w3.org/2000/svg">
<mask id="mask0_4246_40863" style="mask-type:alpha" maskUnits="userSpaceOnUse" x="9" y="-3" width="103" height="97">
<path d="M70.4876 67.2481L17.6909 62.8298L10.0105 69.3L9.36133 24.7545L49.4715 -2.79492L99.3208 11.7595L111.367 67.2481L85.6641 93.5014L75.6136 88.6898L70.4876 67.2481Z" fill="#D9D9D9"/>
</mask>
<g mask="url(#mask0_4246_40863)">
<ellipse cx="57.9155" cy="52.3692" rx="47.0059" ry="45.7588" fill="url(#paint0_linear_4246_40863)"/>
</g>
<path d="M44.7342 20.7174C34.7346 20.0825 32.2343 38.8385 32.2341 48.2958C22.8277 52.788 8.09443 63.6393 11.0114 71.9042C13.3451 78.5161 23.1331 78.8931 27.7355 78.2552C27.0355 81.0801 27.4438 85.3754 27.7355 87.1699L29.5424 92.615L43.9735 91.6427L66.9207 92.615L90.4668 93.5324C94.435 90.2786 89.8055 81.9918 86.9947 78.2552C92.3517 76.9655 103.423 72.2434 104.851 63.6723C106.28 55.1011 85.5397 48.395 74.9911 46.1133C69.072 37.9125 54.7339 21.3523 44.7342 20.7174Z" fill="white"/>
<g style="mix-blend-mode:plus-lighter" filter="url(#filter0_f_4246_40863)">
<path d="M44.7342 20.7174C34.7346 20.0825 32.2343 38.8385 32.2341 48.2958C22.8277 52.788 8.09443 63.6393 11.0114 71.9042C13.3451 78.5161 23.1331 78.8931 27.7355 78.2552C27.0355 81.0801 27.4438 85.3754 27.7355 87.1699L29.5424 92.615L43.9735 91.6427L66.9207 92.615L90.4668 93.5324C94.435 90.2786 89.8055 81.9918 86.9947 78.2552C92.3517 76.9655 103.423 72.2434 104.851 63.6723C106.28 55.1011 85.5397 48.395 74.9911 46.1133C69.072 37.9125 54.7339 21.3523 44.7342 20.7174Z" fill="white"/>
</g>
<g filter="url(#filter1_f_4246_40863)">
<path d="M36.3537 104.127C39.8787 105.533 43.9157 106.138 46.9566 106.844C49.6183 107.462 52.3292 107.809 54.9971 108.377C55.4268 108.468 55.7707 108.915 55.5828 109.348C55.1563 110.33 53.0981 110.527 52.2347 110.718C50.7356 111.05 49.1949 111.349 47.6534 111.388C44.2784 111.471 40.8374 111.111 37.4734 110.887C36.0417 110.791 34.613 110.598 33.1942 110.392C32.3672 110.272 31.4829 109.994 30.6414 109.994C30.2022 109.994 30.2844 110.531 30.3578 110.802C30.4805 111.256 31.0393 111.469 31.4307 111.635C32.2448 111.981 33.1138 112.3 33.9649 112.546C34.5412 112.713 35.1532 112.898 35.0193 113.602C34.8959 114.251 33.5705 114.092 33.1572 114.115C31.3282 114.217 29.545 114.326 27.7126 114.326C26.2065 114.326 24.2687 114.645 22.8353 114.061C21.5976 113.556 20.1531 113.058 18.8151 112.92C18.2811 112.865 17.5176 112.746 17.064 112.48" stroke="url(#paint1_linear_4246_40863)" stroke-width="2.67163" stroke-linecap="round"/>
</g>
<path d="M36.5256 100.977C35.4413 100.35 33.7702 98.1875 33.0702 97.1846C32.9522 95.7368 38.3224 92.9476 38.3823 96.1226C38.4422 99.2975 37.881 101.761 36.5256 100.977Z" fill="#CBCBCB"/>
<path d="M37.9076 100.204C37.4058 99.7604 36.7797 100.316 36.5294 100.649C36.4448 102.39 37.3343 103.375 38.0751 103.137C38.816 102.898 38.5348 100.759 37.9076 100.204Z" fill="#12253C"/>
<path d="M30.5922 68.6117C28.0765 68.6325 26.3113 69.7534 25.7432 70.3113C27.8598 78.1204 32.176 94.0666 32.5079 95.3786C32.8398 96.6905 32.6547 97.6252 33.8146 97.015C36.2328 95.7428 37.7933 95.9297 38.1431 95.665C38.4928 95.4002 38.4614 94.9225 38.4019 94.7168L30.5922 68.6117Z" fill="#7FB0ED"/>
<path d="M38.8456 89.7095C37.0911 95.1644 26.4924 95.7254 26.4917 88.3212C26.4915 86.2251 26.5962 85.1145 27.3489 83.9854C28.206 82.6996 29.4026 82.2782 30.1993 81.9109C31.5496 81.2885 33.3287 81.0722 34.206 80.9854C37.3825 80.9853 40.4391 84.7551 38.8456 89.7095Z" fill="white"/>
<g style="mix-blend-mode:plus-lighter" filter="url(#filter2_f_4246_40863)">
<path d="M69.7603 88.1659C72.8806 82.1035 79.7792 83.2987 82.8385 84.6541C85.5921 89.435 91.7273 90.7728 90.58 93.422C89.0514 95.1611 81.0673 97.74 76.919 98.085C71.7336 98.5163 65.8599 95.7438 69.7603 88.1659Z" fill="white"/>
</g>
<path d="M69.7603 88.1659C72.8806 82.1035 79.7792 83.2987 82.8385 84.6541C85.5921 89.435 91.7273 90.7728 90.58 93.422C89.0514 95.1611 81.0673 97.74 76.919 98.085C71.7336 98.5163 65.8599 95.7438 69.7603 88.1659Z" fill="white"/>
<g style="mix-blend-mode:plus-lighter" filter="url(#filter3_f_4246_40863)">
<path d="M38.8456 89.7095C37.0911 95.1644 26.4924 95.7254 26.4917 88.3212C26.4915 86.2251 26.5962 85.1145 27.3489 83.9854C28.206 82.6996 29.4026 82.2782 30.1993 81.9109C31.5496 81.2885 33.3287 81.0722 34.206 80.9854C37.3825 80.9853 40.4391 84.7551 38.8456 89.7095Z" fill="white"/>
</g>
<path d="M82.838 84.6541C79.7787 83.2987 72.8801 82.1035 69.7598 88.1659" stroke="#D5DCE4" stroke-width="1.71429" stroke-linecap="round"/>
<path d="M38.8464 89.7092C40.0921 85.8363 38.8829 83.2111 36.7783 82.2495" stroke="#D5DCE4" stroke-width="1.71429" stroke-linecap="round"/>
<path d="M46.4087 73.9136C46.8667 74.2015 46.747 74.4188 47.7829 74.6605C48.0243 74.7513 48.2709 74.7232 48.5125 74.7218C49.0795 74.7185 49.6532 74.7194 50.2065 74.5782C50.6509 74.4649 51.0233 74.2428 51.4282 74.0001C51.4947 73.9602 51.6443 73.8157 51.6684 73.7096" stroke="#424139" stroke-width="1.71429" stroke-linecap="round"/>
<path d="M40.5698 72.3501C40.2565 71.9654 39.7817 71.7483 39.2841 71.7623L37.2741 71.8192C36.8515 71.8311 36.4535 72.0238 36.1814 72.3483C35.7539 72.8581 35.7196 73.589 36.0976 74.1325L36.1108 74.1514C36.3712 74.5259 36.7889 74.7606 37.2454 74.7891L39.2892 74.9167C39.7336 74.9444 40.1696 74.7801 40.4861 74.4655C41.0527 73.9022 41.102 73.004 40.6002 72.3875L40.5698 72.3501Z" fill="#CEE4FF"/>
<path d="M58.7972 70.8952C59.1355 70.5318 59.6235 70.346 60.1187 70.3922L62.1217 70.5791C62.5422 70.6183 62.9261 70.8363 63.1756 71.1775C63.5679 71.714 63.5529 72.4457 63.139 72.9637L63.1245 72.9818C62.8396 73.3384 62.4073 73.5455 61.9502 73.5444L59.9012 73.5394C59.4562 73.5383 59.0326 73.3462 58.7381 73.0119C58.2106 72.4132 58.2219 71.5134 58.7642 70.9307L58.7972 70.8952Z" fill="#CEE4FF"/>
<path d="M57.8174 67.1213C57.5612 65.9867 56.156 65.8253 55.4854 65.8864C54.5494 65.9982 54.5294 66.8329 54.4357 68.0713C54.3421 69.3098 53.9671 68.7819 54.8113 70.8693C55.6555 72.9568 57.4655 72.5292 58.1112 71.7237C58.7568 70.9182 58.0885 70.6771 58.3077 69.146C58.5269 67.6149 58.1376 68.5395 57.8174 67.1213Z" fill="#424139"/>
<path d="M42.2568 68.0256C42.0006 66.891 40.5954 66.7296 39.9249 66.7907C38.9888 66.9025 38.9688 67.7372 38.8752 68.9756C38.7816 70.2141 38.4065 69.6862 39.2507 71.7736C40.095 73.8611 41.905 73.4335 42.5506 72.628C43.1963 71.8225 42.5279 71.5814 42.7471 70.0503C42.9663 68.5192 42.5771 69.4437 42.2568 68.0256Z" fill="#424139"/>
<path d="M83.2538 15.119L83.5952 11.4468C83.6501 10.8573 84.3592 10.589 84.7905 10.9947L87.0181 13.0902C87.1996 13.261 87.4572 13.3242 87.6971 13.257L91.013 12.3283C91.5866 12.1677 92.0917 12.7412 91.8598 13.2899L90.7465 15.9243C90.6584 16.1327 90.6748 16.3707 90.7907 16.5651L92.6015 19.604C92.8665 20.0488 92.5825 20.6187 92.0677 20.6748L88.0714 21.1108C87.9269 21.1266 87.7908 21.1862 87.6813 21.2817L85.1672 23.4731C84.7758 23.8142 84.1626 23.6345 84.0173 23.1361L83.2197 20.4003C83.1585 20.1905 83.0043 20.0205 82.8014 19.9393L79.9109 18.7813C79.3642 18.5624 79.3054 17.8119 79.8113 17.5104L82.9098 15.664C83.105 15.5477 83.2328 15.3452 83.2538 15.119Z" fill="#FFF8B7"/>
<g style="mix-blend-mode:plus-lighter" filter="url(#filter4_f_4246_40863)">
<path d="M81.95 9.6311C81.0177 9.69645 81.0341 12.62 81.1589 14.0737C79.6285 14.3536 76.8835 16.964 77.316 17.7282C77.662 18.3396 80.3404 18.449 81.6363 18.4273C81.7383 19.8826 82.1311 22.8351 82.8869 23.0032C83.6427 23.1713 85.1012 20.6833 85.7359 19.4182C87.2494 19.7152 90.3246 20.1123 90.5174 19.325C90.7103 18.5377 89.0268 16.8962 88.161 16.1738C88.8721 15.1798 90.1756 12.9721 89.7007 12.0934C89.2258 11.2147 86.5224 11.7979 85.2301 12.1993C84.5252 11.316 82.8823 9.56575 81.95 9.6311Z" fill="#FFE500" fill-opacity="0.6"/>
</g>
<defs>
<filter id="filter0_f_4246_40863" x="5.49289" y="15.5588" width="104.571" height="83.1163" filterUnits="userSpaceOnUse" color-interpolation-filters="sRGB">
<feFlood flood-opacity="0" result="BackgroundImageFix"/>
<feBlend mode="normal" in="SourceGraphic" in2="BackgroundImageFix" result="shape"/>
<feGaussianBlur stdDeviation="2.57143" result="effect1_foregroundBlur_4246_40863"/>
</filter>
<filter id="filter1_f_4246_40863" x="14.3922" y="101.456" width="43.9153" height="15.6291" filterUnits="userSpaceOnUse" color-interpolation-filters="sRGB">
<feFlood flood-opacity="0" result="BackgroundImageFix"/>
<feBlend mode="normal" in="SourceGraphic" in2="BackgroundImageFix" result="shape"/>
<feGaussianBlur stdDeviation="0.667907" result="effect1_foregroundBlur_4246_40863"/>
</filter>
<filter id="filter2_f_4246_40863" x="66.7784" y="81.8424" width="25.6571" height="17.9999" filterUnits="userSpaceOnUse" color-interpolation-filters="sRGB">
<feFlood flood-opacity="0" result="BackgroundImageFix"/>
<feBlend mode="normal" in="SourceGraphic" in2="BackgroundImageFix" result="shape"/>
<feGaussianBlur stdDeviation="0.857143" result="effect1_foregroundBlur_4246_40863"/>
</filter>
<filter id="filter3_f_4246_40863" x="24.7774" y="79.2711" width="16.2181" height="16.2855" filterUnits="userSpaceOnUse" color-interpolation-filters="sRGB">
<feFlood flood-opacity="0" result="BackgroundImageFix"/>
<feBlend mode="normal" in="SourceGraphic" in2="BackgroundImageFix" result="shape"/>
<feGaussianBlur stdDeviation="0.857143" result="effect1_foregroundBlur_4246_40863"/>
</filter>
<filter id="filter4_f_4246_40863" x="72.0826" y="4.4415" width="23.638" height="23.7576" filterUnits="userSpaceOnUse" color-interpolation-filters="sRGB">
<feFlood flood-opacity="0" result="BackgroundImageFix"/>
<feBlend mode="normal" in="SourceGraphic" in2="BackgroundImageFix" result="shape"/>
<feGaussianBlur stdDeviation="2.59395" result="effect1_foregroundBlur_4246_40863"/>
</filter>
<linearGradient id="paint0_linear_4246_40863" x1="57.9155" y1="6.61035" x2="57.9155" y2="98.128" gradientUnits="userSpaceOnUse">
<stop stop-color="#18335C"/>
<stop offset="1" stop-color="#173C72"/>
</linearGradient>
<linearGradient id="paint1_linear_4246_40863" x1="20.2968" y1="113.643" x2="55.6354" y2="109.27" gradientUnits="userSpaceOnUse">
<stop stop-color="#557194" stop-opacity="0"/>
<stop offset="1" stop-color="#5487C5"/>
</linearGradient>
</defs>
</svg>
