<svg width="12" height="12" viewBox="0 0 12 12" fill="none" xmlns="http://www.w3.org/2000/svg">
<path fill-rule="evenodd" clip-rule="evenodd" d="M7.85175 2.60632C7.65272 2.4643 7.44187 2.38072 7.23725 2.35071C6.86147 2.29559 6.45687 2.41258 6.1074 2.77C5.91435 2.96745 5.59777 2.97102 5.40032 2.77795C5.2029 2.5849 5.19933 2.26834 5.39237 2.0709C5.95385 1.49666 6.67367 1.25734 7.38237 1.36129C7.77755 1.41926 8.1531 1.58122 8.48493 1.83073C8.45267 1.54749 8.31187 1.3065 8.0973 1.18261C7.85815 1.04454 7.7762 0.738742 7.91428 0.499595C8.05235 0.26045 8.35815 0.178511 8.5973 0.316582C9.38375 0.770645 9.6021 1.65078 9.43528 2.42649C10.5894 2.7296 11.4999 3.77765 11.4999 5.0877C11.4999 5.36385 11.276 5.5877 10.9999 5.5877C10.7238 5.5877 10.4999 5.36385 10.4999 5.0877C10.4999 4.46505 10.172 3.9307 9.69648 3.62158C9.84857 4.3345 9.67905 5.10892 9.15168 5.67767C8.96393 5.88015 8.64758 5.8921 8.44508 5.70433C8.2426 5.51658 8.23065 5.20022 8.41842 4.99773C8.82342 4.56095 8.85747 3.8617 8.51927 3.35072C8.24842 3.50635 7.97788 3.79692 7.73845 4.23952C7.41715 4.83343 7.19015 5.64135 7.1264 6.5596C7.96868 6.66552 8.6699 6.91085 9.2375 7.2817C10.023 7.79493 10.512 8.5222 10.7692 9.35198C10.8509 9.61575 10.7034 9.89583 10.4396 9.97758C10.1758 10.0594 9.89575 9.91177 9.814 9.64802C9.61683 9.01187 9.25733 8.48917 8.69055 8.11885C8.1175 7.74447 7.29247 7.5 6.12502 7.5C4.95832 7.5 4.0904 7.74423 3.4664 8.1266C2.8474 8.50593 2.44094 9.03745 2.21562 9.6682C2.12272 9.92825 1.83661 10.0638 1.57656 9.97085C1.31651 9.87795 1.18101 9.59185 1.27391 9.3318C1.57226 8.49663 2.12112 7.77815 2.9439 7.27395C3.36287 7.01723 3.8455 6.8204 4.3918 6.6895C4.56065 4.70937 5.9771 3.08518 7.85175 2.60632ZM4.32955 10.7507C3.69717 10.7507 3.17018 10.3278 3.15948 10.3192C2.877 10.0829 2.47945 10.0844 2.19817 10.2815C2.14429 10.3134 1.94341 10.4286 1.6742 10.5376C1.38217 10.6558 1.04828 10.7507 0.75 10.7507C0.473857 10.7507 0.25 10.9746 0.25 11.2507C0.25 11.5269 0.473857 11.7507 0.75 11.7507H11.25C11.5261 11.7507 11.75 11.5269 11.75 11.2507C11.75 10.9746 11.5261 10.7507 11.25 10.7507C10.9517 10.7507 10.6178 10.6558 10.3258 10.5376C10.0566 10.4286 9.85572 10.3134 9.80182 10.2815C9.52055 10.0844 9.12305 10.0829 8.84058 10.3192C8.82987 10.3278 8.30282 10.7507 7.67045 10.7507C7.0381 10.7507 6.51108 10.3278 6.50037 10.3192C6.2118 10.0778 5.78827 10.0777 5.49967 10.3192C5.489 10.3278 4.96192 10.7507 4.32955 10.7507ZM9.8066 10.2848C9.80727 10.2853 9.80732 10.2853 9.8066 10.2848V10.2848Z" fill="#A5B2C5"/>
</svg>
