<svg width="120" height="121" viewBox="0 0 120 121" fill="none" xmlns="http://www.w3.org/2000/svg">
<mask id="mask0_3285_46445" style="mask-type:alpha" maskUnits="userSpaceOnUse" x="8" y="-3" width="104" height="97">
<path d="M70.1233 67.2784L17.3266 62.8601L9.64624 69.3302L8.99707 24.7847L49.1072 -2.76465L98.9566 11.7898L111.002 67.2784L85.2998 93.5317L75.2493 88.72L70.1233 67.2784Z" fill="#D9D9D9"/>
</mask>
<g mask="url(#mask0_3285_46445)">
<ellipse cx="57.5513" cy="52.3994" rx="47.0059" ry="45.7588" fill="#1C3450"/>
</g>
<path d="M44.37 20.7477C34.3703 20.1128 31.87 38.8688 31.8699 48.3261C22.4634 52.8183 7.73018 63.6696 10.6472 71.9345C12.9808 78.5464 22.7689 78.9234 27.3712 78.2854C26.6713 81.1104 27.0796 85.4057 27.3712 87.2002L29.1781 92.6453L43.6092 91.673L66.5564 92.6453L90.1026 93.5627C94.0707 90.3089 89.4412 82.0221 86.6305 78.2854C91.9874 76.9958 103.059 72.2737 104.487 63.7026C105.916 55.1314 85.1755 48.4253 74.6269 46.1436C68.7078 37.9428 54.3696 21.3825 44.37 20.7477Z" fill="white"/>
<g style="mix-blend-mode:plus-lighter" filter="url(#filter0_f_3285_46445)">
<path d="M44.37 20.7477C34.3703 20.1128 31.87 38.8688 31.8699 48.3261C22.4634 52.8183 7.73018 63.6696 10.6472 71.9345C12.9808 78.5464 22.7689 78.9234 27.3712 78.2854C26.6713 81.1104 27.0796 85.4057 27.3712 87.2002L29.1781 92.6453L43.6092 91.673L66.5564 92.6453L90.1026 93.5627C94.0707 90.3089 89.4412 82.0221 86.6305 78.2854C91.9874 76.9958 103.059 72.2737 104.487 63.7026C105.916 55.1314 85.1755 48.4253 74.6269 46.1436C68.7078 37.9428 54.3696 21.3825 44.37 20.7477Z" fill="white"/>
</g>
<g filter="url(#filter1_f_3285_46445)">
<path d="M35.9895 104.158C39.5144 105.563 43.5514 106.168 46.5924 106.874C49.254 107.492 51.9649 107.839 54.6328 108.407C55.0625 108.498 55.4064 108.946 55.2186 109.378C54.792 110.361 52.7339 110.557 51.8704 110.748C50.3713 111.08 48.8306 111.38 47.2891 111.418C43.9141 111.502 40.4731 111.142 37.1091 110.917C35.6775 110.821 34.2488 110.629 32.8299 110.422C32.0029 110.302 31.1187 110.024 30.2772 110.024C29.838 110.024 29.9202 110.561 29.9936 110.833C30.1163 111.286 30.675 111.499 31.0664 111.665C31.8805 112.011 32.7496 112.33 33.6007 112.576C34.1769 112.743 34.7889 112.928 34.655 113.632C34.5316 114.282 33.2063 114.122 32.7929 114.145C30.9639 114.248 29.1808 114.357 27.3484 114.357C25.8423 114.357 23.9044 114.676 22.4711 114.091C21.2333 113.586 19.7888 113.088 18.4508 112.951C17.9168 112.896 17.1533 112.776 16.6997 112.51" stroke="url(#paint0_linear_3285_46445)" stroke-width="2.67163" stroke-linecap="round"/>
</g>
<path d="M36.1614 101.008C35.077 100.38 33.4059 98.2178 32.7059 97.2149C32.588 95.7671 37.9582 92.9779 38.018 96.1528C38.0779 99.3277 37.5168 101.791 36.1614 101.008Z" fill="#CBCBCB"/>
<path d="M37.5433 100.234C37.0415 99.7907 36.4154 100.346 36.1651 100.679C36.0805 102.421 36.97 103.406 37.7109 103.167C38.4518 102.928 38.1706 100.789 37.5433 100.234Z" fill="#12253C"/>
<path d="M30.2279 68.642C27.7122 68.6627 25.947 69.7837 25.3789 70.3416C27.4955 78.1507 31.8117 94.0969 32.1436 95.4088C32.4755 96.7208 32.2905 97.6555 33.4503 97.0453C35.8686 95.7731 37.4291 95.96 37.7788 95.6952C38.1286 95.4305 38.0971 94.9528 38.0376 94.7471L30.2279 68.642Z" fill="#7FB0ED"/>
<path d="M38.4813 89.7397C36.7268 95.1947 26.1282 95.7557 26.1274 88.3514C26.1272 86.2553 26.232 85.1447 26.9847 84.0156C27.8417 82.7299 29.0383 82.3085 29.8351 81.9412C31.1853 81.3188 32.9644 81.1025 33.8417 81.0156C37.0182 81.0156 40.0749 84.7854 38.4813 89.7397Z" fill="white"/>
<g style="mix-blend-mode:plus-lighter" filter="url(#filter2_f_3285_46445)">
<path d="M69.396 88.1961C72.5164 82.1337 79.415 83.3289 82.4742 84.6843C85.2278 89.4653 91.363 90.8031 90.2157 93.4523C88.6871 95.1913 80.7031 97.7703 76.5548 98.1153C71.3693 98.5465 65.4956 95.7741 69.396 88.1961Z" fill="white"/>
</g>
<path d="M69.396 88.1961C72.5164 82.1337 79.415 83.3289 82.4742 84.6843C85.2278 89.4653 91.363 90.8031 90.2157 93.4523C88.6871 95.1913 80.7031 97.7703 76.5548 98.1153C71.3693 98.5465 65.4956 95.7741 69.396 88.1961Z" fill="white"/>
<g style="mix-blend-mode:plus-lighter" filter="url(#filter3_f_3285_46445)">
<path d="M38.4813 89.7397C36.7268 95.1947 26.1282 95.7557 26.1274 88.3514C26.1272 86.2553 26.232 85.1447 26.9847 84.0156C27.8417 82.7299 29.0383 82.3085 29.8351 81.9412C31.1853 81.3188 32.9644 81.1025 33.8417 81.0156C37.0182 81.0156 40.0749 84.7854 38.4813 89.7397Z" fill="white"/>
</g>
<path d="M82.4737 84.6843C79.4144 83.3289 72.5158 82.1337 69.3955 88.1961" stroke="#D5DCE4" stroke-width="1.71429" stroke-linecap="round"/>
<path d="M38.4821 89.7395C39.7278 85.8666 38.5187 83.2414 36.4141 82.2798" stroke="#D5DCE4" stroke-width="1.71429" stroke-linecap="round"/>
<path d="M46.0444 73.9438C46.5024 74.2318 46.3828 74.4491 47.4186 74.6907C47.6601 74.7816 47.9066 74.7534 48.1483 74.752C48.7152 74.7487 49.2889 74.7497 49.8422 74.6085C50.2866 74.4951 50.659 74.273 51.0639 74.0303C51.1304 73.9905 51.28 73.846 51.3041 73.7398" stroke="#424139" stroke-width="1.71429" stroke-linecap="round"/>
<path d="M40.2055 72.3804C39.8923 71.9956 39.4174 71.7785 38.9198 71.7926L36.9098 71.8494C36.4872 71.8614 36.0892 72.0541 35.8171 72.3786C35.3896 72.8884 35.3553 73.6192 35.7334 74.1628L35.7465 74.1817C36.007 74.5562 36.4246 74.7909 36.8812 74.8194L38.9249 74.947C39.3694 74.9747 39.8053 74.8104 40.1218 74.4957C40.6884 73.9325 40.7377 73.0343 40.2359 72.4178L40.2055 72.3804Z" fill="#CEE4FF"/>
<path d="M58.4329 70.9255C58.7712 70.562 59.2593 70.3762 59.7545 70.4225L61.7574 70.6094C62.178 70.6486 62.5619 70.8666 62.8114 71.2078C63.2037 71.7443 63.1887 72.476 62.7748 72.994L62.7603 73.0121C62.4753 73.3687 62.0431 73.5758 61.586 73.5746L59.5369 73.5697C59.0919 73.5686 58.6683 73.3765 58.3738 73.0422C57.8463 72.4435 57.8576 71.5437 58.3999 70.961L58.4329 70.9255Z" fill="#CEE4FF"/>
<path d="M57.4531 67.1515C57.1969 66.017 55.7917 65.8556 55.1211 65.9167C54.1851 66.0284 54.1651 66.8632 54.0715 68.1016C53.9778 69.3401 53.6028 68.8121 54.447 70.8996C55.2912 72.987 57.1013 72.5595 57.7469 71.754C58.3926 70.9485 57.7242 70.7074 57.9434 69.1763C58.1626 67.6452 57.7734 68.5697 57.4531 67.1515Z" fill="#424139"/>
<path d="M41.8926 68.0558C41.6364 66.9213 40.2312 66.7599 39.5606 66.821C38.6246 66.9327 38.6045 67.7675 38.5109 69.0059C38.4173 70.2444 38.0422 69.7164 38.8865 71.8039C39.7307 73.8913 41.5407 73.4638 42.1864 72.6583C42.832 71.8528 42.1637 71.6117 42.3828 70.0806C42.602 68.5495 42.2128 69.474 41.8926 68.0558Z" fill="#424139"/>
<path d="M82.8896 15.1493L83.231 11.4771C83.2858 10.8875 83.995 10.6193 84.4262 11.025L86.6539 13.1205C86.8353 13.2912 87.0929 13.3545 87.3328 13.2873L90.6488 12.3586C91.2223 12.198 91.7274 12.7715 91.4956 13.3201L90.3823 15.9546C90.2942 16.163 90.3106 16.401 90.4264 16.5954L92.2372 19.6342C92.5023 20.079 92.2182 20.649 91.7035 20.7051L87.7071 21.1411C87.5627 21.1568 87.4265 21.2165 87.317 21.3119L84.8029 23.5033C84.4115 23.8445 83.7983 23.6648 83.653 23.1663L82.8554 20.4306C82.7943 20.2208 82.64 20.0508 82.4372 19.9695L79.5466 18.8116C79 18.5926 78.9412 17.8421 79.447 17.5407L82.5456 15.6943C82.7407 15.578 82.8686 15.3755 82.8896 15.1493Z" fill="#FFF8B7"/>
<g style="mix-blend-mode:plus-lighter" filter="url(#filter4_f_3285_46445)">
<path d="M81.5857 9.66137C80.6534 9.72672 80.6698 12.6503 80.7946 14.1039C79.2642 14.3839 76.5193 16.9943 76.9517 17.7585C77.2977 18.3699 79.9761 18.4793 81.272 18.4576C81.374 19.9128 81.7669 22.8653 82.5227 23.0335C83.2785 23.2016 84.7369 20.7135 85.3717 19.4485C86.8852 19.7455 89.9603 20.1426 90.1532 19.3553C90.346 18.568 88.6626 16.9265 87.7967 16.2041C88.5079 15.2101 89.8114 13.0023 89.3365 12.1236C88.8615 11.2449 86.1582 11.8282 84.8659 12.2296C84.161 11.3463 82.5181 9.59602 81.5857 9.66137Z" fill="#FFE500" fill-opacity="0.6"/>
</g>
<defs>
<filter id="filter0_f_3285_46445" x="5.12863" y="15.5891" width="104.571" height="83.1163" filterUnits="userSpaceOnUse" color-interpolation-filters="sRGB">
<feFlood flood-opacity="0" result="BackgroundImageFix"/>
<feBlend mode="normal" in="SourceGraphic" in2="BackgroundImageFix" result="shape"/>
<feGaussianBlur stdDeviation="2.57143" result="effect1_foregroundBlur_3285_46445"/>
</filter>
<filter id="filter1_f_3285_46445" x="14.028" y="101.486" width="43.9153" height="15.6291" filterUnits="userSpaceOnUse" color-interpolation-filters="sRGB">
<feFlood flood-opacity="0" result="BackgroundImageFix"/>
<feBlend mode="normal" in="SourceGraphic" in2="BackgroundImageFix" result="shape"/>
<feGaussianBlur stdDeviation="0.667907" result="effect1_foregroundBlur_3285_46445"/>
</filter>
<filter id="filter2_f_3285_46445" x="66.4141" y="81.8726" width="25.6571" height="17.9999" filterUnits="userSpaceOnUse" color-interpolation-filters="sRGB">
<feFlood flood-opacity="0" result="BackgroundImageFix"/>
<feBlend mode="normal" in="SourceGraphic" in2="BackgroundImageFix" result="shape"/>
<feGaussianBlur stdDeviation="0.857143" result="effect1_foregroundBlur_3285_46445"/>
</filter>
<filter id="filter3_f_3285_46445" x="24.4132" y="79.3013" width="16.2181" height="16.2855" filterUnits="userSpaceOnUse" color-interpolation-filters="sRGB">
<feFlood flood-opacity="0" result="BackgroundImageFix"/>
<feBlend mode="normal" in="SourceGraphic" in2="BackgroundImageFix" result="shape"/>
<feGaussianBlur stdDeviation="0.857143" result="effect1_foregroundBlur_3285_46445"/>
</filter>
<filter id="filter4_f_3285_46445" x="71.7184" y="4.47177" width="23.638" height="23.7576" filterUnits="userSpaceOnUse" color-interpolation-filters="sRGB">
<feFlood flood-opacity="0" result="BackgroundImageFix"/>
<feBlend mode="normal" in="SourceGraphic" in2="BackgroundImageFix" result="shape"/>
<feGaussianBlur stdDeviation="2.59395" result="effect1_foregroundBlur_3285_46445"/>
</filter>
<linearGradient id="paint0_linear_3285_46445" x1="19.9326" y1="113.673" x2="55.2711" y2="109.301" gradientUnits="userSpaceOnUse">
<stop stop-color="#557194" stop-opacity="0"/>
<stop offset="1" stop-color="#5487C5"/>
</linearGradient>
</defs>
</svg>
