<svg width="54" height="54" viewBox="0 0 54 54" fill="none" xmlns="http://www.w3.org/2000/svg">
<path d="M10.1326 11.8561C11.4753 9.84199 14.3699 8.37248 15.8462 7.63617C17.0774 7.88071 20.1824 8.64301 20.4189 9.51598C20.7144 10.6072 21.8862 12.0674 25.1371 12.613C28.388 13.1586 29.8133 10.8895 30.3134 10.071C30.8135 9.25264 31.6414 8.04502 33.0509 7.63582C34.4604 7.22661 36.5292 7.81769 37.5522 8.04502C38.5752 8.27236 40.7121 10.0228 41.8715 11.9325C42.7991 13.4601 45.1679 15.2364 46.2364 15.9335C47.1533 16.4564 49.0371 17.6931 49.2372 18.457C49.4873 19.4118 47.5322 22.2989 46.7365 22.6627C45.9408 23.0264 44.0994 25.2543 43.8266 25.5726C43.5538 25.8908 41.9852 27.1639 41.6897 26.4137C41.3941 25.6635 38.4815 23.3166 39.1683 24.8275C39.8551 26.3384 40.0611 30.3905 39.9925 31.7641C39.9238 33.1377 39.8551 36.1596 40.8166 37.6018C41.7781 39.0441 40.954 42.6841 40.8166 45.0879C40.6792 47.4917 36.5585 46.4615 35.2536 46.4615C33.9487 46.4615 33.1932 47.0796 27.6302 46.4615C22.0672 45.8434 24.4023 45.0879 20.4189 45.912C16.4355 46.7362 13.1389 45.706 12.063 45.0879C10.9871 44.4698 12.063 43.3266 11.4755 41.3964C10.8881 39.4662 12.6196 37.4667 12.063 33.9772C11.4755 30.2946 12.7343 23.1855 12.063 24.0247C11.3916 24.8639 8.87394 27.0458 7.61512 26.6262C6.3563 26.2066 4.17445 21.3392 3.25131 19.3251C2.32818 17.311 4.42585 17.8145 5.68467 15.8843C6.94349 13.9541 8.45408 14.3737 10.1326 11.8561Z" fill="#C3DCFB" stroke="#89ABD4"/>
<path d="M10.3082 41.5248C10.3788 41.0735 10.7855 40.753 11.2408 40.7899L18.2173 41.3558L25.3173 41.4779H32.5173L40.8636 40.9715C40.9162 40.9683 40.9682 40.9579 41.018 40.9406C41.348 40.8255 41.7035 41.0291 41.7711 41.372L42.0682 42.8766C42.1028 43.0517 42.1126 43.2308 42.0973 43.4087L41.7772 47.1462C41.6984 48.0659 41.0005 48.8122 40.0882 48.9523L33.8616 49.9088C33.7611 49.9243 33.6596 49.932 33.5579 49.932H25.4475L17.0173 49.0443L12.1116 48.6941C11.0649 48.6194 10.254 47.7484 10.254 46.699L10.2543 43.0457L10.3082 41.5248Z" fill="#637B98"/>
</svg>
