<svg width="309" height="246" viewBox="0 0 309 246" fill="none" xmlns="http://www.w3.org/2000/svg">
<rect x="0.412109" width="308" height="184" rx="20" fill="#2A2F38"/>
<path d="M36.1804 30.6289L37.575 25.9805H39.1521L38.2888 30.6289H36.1804ZM46.9343 25.3164C50.155 25.3247 52.5373 26.9268 52.529 29.3672C52.5373 31.6167 50.6032 33.1191 47.8473 33.3931V36.1406H53.8239V37.6514H40.111V36.1406H46.0212V33.3931C43.2985 33.1191 41.3644 31.6167 41.3727 29.3672C41.3644 26.9268 43.7385 25.3247 46.9343 25.3164ZM43.1823 29.3672C43.174 30.9858 44.7428 31.957 46.9343 31.957C49.1589 31.957 50.7194 30.9858 50.7194 29.3672C50.7194 27.7983 49.1589 26.8022 46.9343 26.8105C44.7428 26.8022 43.174 27.7983 43.1823 29.3672ZM68.3463 36.1904V37.7012H54.6334V36.1904H68.3463ZM56.2271 27.0264V25.5322H66.7193V30.3633H58.1031V32.3223H67.068V33.7832H56.2603V28.8857H64.8932V27.0264H56.2271ZM81.6402 24.4697V39.4941H79.7808V24.4697H81.6402ZM69.9527 35.958V25.6982H71.7954V29.4502H75.4312V25.6982H77.2573V35.958H69.9527ZM71.7954 34.4473H75.4312V30.8945H71.7954V34.4473ZM86.7827 25.9971L85.3881 30.6455H83.811L84.6743 25.9971H86.7827ZM100.691 24.4697V39.4775H98.9144V24.4697H100.691ZM87.891 30.9609C87.891 27.6572 89.1693 25.6069 91.1283 25.6152C92.9462 25.6069 94.183 27.3086 94.3988 30.1143H95.8431V24.7354H97.6029V38.7471H95.8431V31.6084H94.4154C94.2411 34.5386 92.9877 36.3315 91.1283 36.3232C89.1693 36.3315 87.891 34.2729 87.891 30.9609ZM89.6009 30.9609C89.5926 33.3101 90.1737 34.5718 91.1283 34.5635C92.1244 34.5718 92.7137 33.3101 92.722 30.9609C92.7137 28.6201 92.1244 27.3501 91.1283 27.3584C90.1737 27.3501 89.5926 28.6201 89.6009 30.9609ZM107.809 28.0723C107.801 30.8613 109.137 33.6006 111.528 34.6465L110.415 36.124C108.722 35.2939 107.527 33.7002 106.887 31.7329C106.232 33.8081 105.003 35.5347 103.277 36.4062L102.115 34.9121C104.563 33.7666 105.925 30.8779 105.933 28.0723V25.6816H107.809V28.0723ZM109.867 30.8115V29.3174H113.022V24.4697H114.848V39.4941H113.022V30.8115H109.867ZM132.487 24.4697V27.4912H134.579V29.0186H132.487V32.0068H130.645V24.4697H132.487ZM120.817 28.3379C120.808 26.3374 122.518 24.9678 124.801 24.9678C127.084 24.9678 128.777 26.3374 128.785 28.3379C128.777 30.2969 127.084 31.6997 124.801 31.6914C122.518 31.6997 120.808 30.2969 120.817 28.3379ZM122.626 28.3379C122.609 29.4751 123.531 30.2305 124.801 30.2305C126.063 30.2305 126.984 29.4751 126.992 28.3379C126.984 27.2007 126.063 26.4619 124.801 26.4619C123.531 26.4619 122.609 27.2007 122.626 28.3379ZM122.676 34.082V32.6543H132.487V36.5889H124.519V37.834H132.952V39.2949H122.692V35.2441H130.645V34.082H122.676ZM147.674 24.4863V33.3848H145.814V24.4863H147.674ZM135.937 26.8271V25.3662H142.859V29.7158H137.779V31.2764C140.344 31.2764 142.179 31.2017 144.32 30.8447L144.553 32.3389C142.187 32.7124 140.153 32.7954 137.248 32.7871H135.97V28.3047H141.033V26.8271H135.937ZM137.713 39.2949V34.082H147.674V39.2949H137.713ZM139.539 37.8008H145.864V35.5596H139.539V37.8008ZM156.519 24.7021C159.938 24.7104 161.922 25.6152 161.931 27.2754C161.922 28.9521 159.938 29.8569 156.519 29.8652C153.107 29.8569 151.106 28.9521 151.106 27.2754C151.106 25.6152 153.107 24.7104 156.519 24.7021ZM149.695 32.1396V30.6621H163.375V32.1396H149.695ZM151.306 34.5137V33.1523H161.665V36.8213H153.132V37.9336H162.08V39.3447H151.322V35.5098H159.855V34.5137H151.306ZM153.049 27.2754C153.04 28.1055 154.236 28.4873 156.519 28.4873C158.834 28.4873 160.021 28.1055 160.021 27.2754C160.021 26.5034 158.834 26.0635 156.519 26.0635C154.236 26.0635 153.04 26.5034 153.049 27.2754ZM181.795 36.1572V37.668H168.082V36.1572H173.992V33.2354H169.593V25.4658H171.435V27.9229H178.391V25.4658H180.234V33.2354H175.818V36.1572H181.795ZM171.435 31.7412H178.391V29.4004H171.435V31.7412ZM195.487 24.4697V39.4775H193.711V31.8906H192.051V38.7139H190.324V24.752H192.051V30.3799H193.711V24.4697H195.487ZM183.252 35.7422V26.1963H185.111V34.1152C186.406 34.0903 187.817 33.9741 189.394 33.667L189.577 35.2773C187.551 35.6343 185.833 35.7422 184.248 35.7422H183.252ZM209.379 25.8477V27.292C209.362 29.1597 209.362 31.2432 208.781 34.3809L206.922 34.1816C207.511 31.2598 207.511 29.1265 207.519 27.3252H198.554V25.8477H209.379ZM197.127 37.5352V36.0244H202.173V30.8115H204V36.0244H210.806V37.5352H197.127ZM217.028 28.7363C217.02 31.0522 218.414 33.6919 220.78 34.7959L219.751 36.2568C218.057 35.46 216.804 33.8496 216.131 31.9736C215.451 34.0322 214.139 35.792 212.413 36.6221L211.334 35.1777C213.724 34.0405 215.177 31.2349 215.185 28.7363V27.4746H211.915V25.9473H220.166V27.4746H217.028V28.7363ZM221.56 39.4775V24.4697H223.403V30.3135H225.711V31.8574H223.403V39.4775H221.56ZM241.872 24.4697V28.1719H243.964V29.6992H241.872V33.2354H240.03V24.4697H241.872ZM230.052 27.3418V25.8643H233.588V24.3535H235.431V25.8643H238.951V27.3418H230.052ZM230.816 30.4961C230.816 28.9023 232.31 27.8564 234.501 27.8564C236.668 27.8564 238.162 28.9023 238.17 30.4961C238.162 32.0898 236.668 33.144 234.501 33.1357C232.31 33.144 230.816 32.0898 230.816 30.4961ZM232.177 39.2949V33.833H234.003V35.1279H240.03V33.833H241.872V39.2949H232.177ZM232.609 30.4961C232.6 31.3096 233.364 31.7744 234.501 31.7744C235.639 31.7744 236.411 31.3096 236.411 30.4961C236.411 29.7075 235.639 29.2178 234.501 29.2178C233.364 29.2178 232.6 29.7075 232.609 30.4961ZM234.003 37.834H240.03V36.5557H234.003V37.834ZM257.076 24.4697V39.4775H255.249V24.4697H257.076ZM245.421 35.709V25.9307H247.247V34.1318C249.347 34.0986 251.589 33.916 253.905 33.4512L254.137 34.9951C251.497 35.543 249.049 35.7173 246.716 35.709H245.421ZM270.834 24.4697V30.1641H273.142V31.6748H270.834V39.4941H268.991V24.4697H270.834ZM259.695 35.8252V25.8975H266.717V27.3916H261.537V34.2812C263.87 34.2729 265.721 34.1567 267.78 33.7998L267.995 35.3604C265.663 35.7588 263.646 35.8252 260.94 35.8252H259.695Z" fill="#E6EDF8"/>
<path d="M104.968 55.7422V58.1924H106.669V59.0303H104.968V61.4932H103.978V55.7422H104.968ZM104.968 62.0264V64.7812H98.7726V66.0762H105.387V66.876H97.7951V64.0195H103.978V62.8262H97.7697V62.0264H104.968ZM99.2931 56.1611C100.994 56.1738 102.226 57.1895 102.226 58.6621C102.226 60.1475 100.994 61.1758 99.2931 61.1758C97.6046 61.1758 96.3478 60.1475 96.3605 58.6621C96.3478 57.1895 97.6046 56.1738 99.2931 56.1611ZM99.2931 56.999C98.1632 56.9863 97.3253 57.6846 97.338 58.6621C97.3253 59.6523 98.1632 60.3633 99.2931 60.3633C100.423 60.3633 101.248 59.6523 101.248 58.6621C101.248 57.6846 100.423 56.9863 99.2931 56.999ZM116.568 55.7549V62.4453H115.578V55.7549H116.568ZM112.976 56.4404V59.5H108.812V61.0615C110.83 61.0742 112.341 61.0107 114.169 60.7061L114.283 61.5439C112.392 61.8359 110.843 61.8994 108.761 61.8994H107.847V58.7129H111.985V57.2402H107.821V56.4404H112.976ZM116.568 63.0547V66.876H109.231V63.0547H116.568ZM110.208 63.8672V66.0635H115.591V63.8672H110.208ZM130.819 55.7422V67.0283H129.816V55.7422H130.819ZM127.48 56.9736C127.468 60.2236 125.957 63.0928 122.174 64.9082L121.628 64.0957C124.681 62.6484 126.236 60.4839 126.465 57.7861H122.148V56.9736H127.48ZM141.709 58.9033V59.7285H134.003V55.9707H134.993V58.9033H141.709ZM142.889 61.0488V61.874H132.593V61.0488H142.889ZM137.735 62.8896C140.16 62.8896 141.607 63.626 141.62 64.9336C141.607 66.2412 140.16 66.9775 137.735 66.9775C135.298 66.9775 133.838 66.2412 133.838 64.9336C133.838 63.626 135.298 62.8896 137.735 62.8896ZM137.735 63.6768C135.92 63.6895 134.84 64.1338 134.853 64.9336C134.84 65.7207 135.92 66.2031 137.735 66.2031C139.525 66.2031 140.617 65.7207 140.617 64.9336C140.617 64.1338 139.525 63.6895 137.735 63.6768ZM153.004 55.7422V67.0537H152.002V55.7422H153.004ZM147 56.6182C148.675 56.6309 149.881 58.1543 149.881 60.5537C149.881 62.9531 148.675 64.4766 147 64.4766C145.311 64.4766 144.118 62.9531 144.118 60.5537C144.118 58.1543 145.311 56.6309 147 56.6182ZM147 57.5068C145.87 57.5195 145.083 58.7129 145.083 60.5537C145.083 62.3945 145.87 63.5879 147 63.5879C148.129 63.5879 148.917 62.3945 148.917 60.5537C148.917 58.7129 148.129 57.5195 147 57.5068ZM167.242 55.7422V67.0283H166.265V60.998H164.018C163.656 62.4834 163.021 63.9434 161.923 65.2256L161.111 64.667C162.875 62.6738 163.409 60.1665 163.497 57.8115H161.695V56.9736H164.437C164.43 57.9956 164.373 59.0811 164.183 60.1729H166.265V55.7422H167.242ZM161.365 56.9736C161.352 59.665 160.742 62.3057 158.699 64.4766L157.899 63.9053C159.606 62.1597 160.292 60.0586 160.425 57.8115H158.254V56.9736H161.365ZM178.399 55.7422V67.0283H177.396V62.166H175.085V61.3281H177.396V59.7666H175.085V58.9287H177.396V55.7422H178.399ZM172.952 59.0938C172.952 60.8584 174.298 62.9912 175.91 63.8037L175.314 64.5654C174.082 63.9243 172.997 62.5278 172.483 60.9727C171.975 62.6802 170.87 64.1528 169.626 64.8447L168.966 64.083C170.578 63.2832 171.937 61.1123 171.949 59.0938V57.7354H169.372V56.9102H175.529V57.7354H172.952V59.0938ZM183.969 63.3213C183.969 64.3179 184.502 65.3779 185.581 65.9873C186.648 65.3208 187.219 64.1973 187.219 63.3213V62.6992H188.196V63.3213C188.196 64.4766 189.047 65.6445 190.494 66.1396L189.999 66.876C188.869 66.4761 188.076 65.689 187.689 64.7432C187.339 65.6572 186.648 66.5205 185.607 66.9648C184.508 66.5459 183.81 65.7144 183.474 64.7686C183.074 65.6826 182.293 66.4697 181.214 66.876L180.706 66.1396C182.128 65.6064 182.991 64.4004 183.004 63.3213V62.6992H183.969V63.3213ZM189.466 55.7549V62.2041H188.476V55.7549H189.466ZM183.372 56.415C185.086 56.415 186.33 57.4814 186.33 59.0557C186.33 60.6045 185.086 61.6709 183.372 61.6709C181.658 61.6709 180.414 60.6045 180.414 59.0557C180.414 57.4814 181.658 56.415 183.372 56.415ZM183.372 57.2656C182.217 57.2529 181.379 58.002 181.392 59.0557C181.379 60.0967 182.217 60.833 183.372 60.8457C184.515 60.833 185.353 60.0967 185.353 59.0557C185.353 58.002 184.515 57.2529 183.372 57.2656ZM196.394 56.4785C198.756 56.4785 200.52 57.71 200.52 59.5762C200.52 61.4551 198.756 62.6865 196.394 62.6738C194.033 62.6865 192.269 61.4551 192.269 59.5762C192.269 57.71 194.033 56.4785 196.394 56.4785ZM196.394 57.291C194.579 57.2783 193.208 58.2305 193.221 59.5762C193.208 60.9473 194.579 61.8613 196.394 61.8613C198.197 61.8613 199.556 60.9473 199.556 59.5762C199.556 58.2305 198.197 57.2783 196.394 57.291ZM201.587 64.6924V65.5303H191.253V64.6924H201.587ZM208.071 56.7324V57.7354H210.712V55.7549H211.715V63.9941H210.712V60.9854H208.071V62.001H202.891V56.7324H208.071ZM203.882 57.5576V61.2012H207.094V57.5576H203.882ZM211.969 65.9492V66.7871H204.415V63.2578H205.418V65.9492H211.969ZM208.071 60.1602H210.712V58.5732H208.071V60.1602ZM66.9528 73.7422V76.1924H68.654V77.0303H66.9528V79.4932H65.9626V73.7422H66.9528ZM66.9528 80.0264V82.7812H60.7575V84.0762H67.3718V84.876H59.78V82.0195H65.9626V80.8262H59.7546V80.0264H66.9528ZM61.278 74.1611C62.9792 74.1738 64.2106 75.1895 64.2106 76.6621C64.2106 78.1475 62.9792 79.1758 61.278 79.1758C59.5896 79.1758 58.3327 78.1475 58.3454 76.6621C58.3327 75.1895 59.5896 74.1738 61.278 74.1611ZM61.278 74.999C60.1481 74.9863 59.3103 75.6846 59.323 76.6621C59.3103 77.6523 60.1481 78.3633 61.278 78.3633C62.4079 78.3633 63.2331 77.6523 63.2331 76.6621C63.2331 75.6846 62.4079 74.9863 61.278 74.999ZM78.0582 73.7549V76.6494H79.7721V77.5H78.0582V80.4834H77.068V73.7549H78.0582ZM78.0582 81.042V84.876H70.9107V81.042H78.0582ZM71.8883 81.8164V84.0635H77.0933V81.8164H71.8883ZM74.8336 74.3643V77.4492H70.7203V79.0488C72.7262 79.0488 74.1798 78.9917 75.9381 78.7061L76.0396 79.5059C74.2242 79.8232 72.7135 79.8867 70.6187 79.8867H69.7428V76.6748H73.856V75.1895H69.7174V74.3643H74.8336ZM89.646 73.7422V85.0537H88.643V73.7422H89.646ZM83.6411 74.6182C85.3169 74.6309 86.5229 76.1543 86.5229 78.5537C86.5229 80.9531 85.3169 82.4766 83.6411 82.4766C81.9526 82.4766 80.7592 80.9531 80.7592 78.5537C80.7592 76.1543 81.9526 74.6309 83.6411 74.6182ZM83.6411 75.5068C82.5112 75.5195 81.7241 76.7129 81.7241 78.5537C81.7241 80.3945 82.5112 81.5879 83.6411 81.5879C84.771 81.5879 85.5581 80.3945 85.5581 78.5537C85.5581 76.7129 84.771 75.5195 83.6411 75.5068ZM99.7199 73.8818C102.234 73.8818 103.706 74.5801 103.706 75.8369C103.706 77.1064 102.234 77.792 99.7199 77.8047C97.2063 77.792 95.7209 77.1064 95.7209 75.8369C95.7209 74.5801 97.2063 73.8818 99.7199 73.8818ZM99.7199 74.6436C97.841 74.6562 96.7492 75.0879 96.7619 75.8369C96.7492 76.6113 97.841 77.0303 99.7199 77.043C101.586 77.0303 102.691 76.6113 102.691 75.8369C102.691 75.0879 101.586 74.6562 99.7199 74.6436ZM104.862 78.5537V79.3535H100.202V80.4199H103.541V82.9463H96.8381V84.1143H103.884V84.9014H95.8479V82.21H102.564V81.1816H95.8225V80.4199H99.2121V79.3535H94.5783V78.5537H104.862ZM111.435 74.3008V77.0557H107.245V78.4521C109.384 78.4521 110.832 78.395 112.603 78.1221L112.692 78.8965C110.876 79.1885 109.391 79.252 107.169 79.252H106.255V76.3193H110.457V75.0752H106.217V74.3008H111.435ZM115.002 80.1914V82.8447H108.68V84.1016H115.408V84.9014H107.69V82.0957H113.986V80.9785H107.664V80.1914H115.002ZM115.002 73.7422V79.6963H114.012V73.7422H115.002ZM127.399 73.9961V78.3633H128.77V73.7422H129.723V85.0283H128.77V79.1885H127.399V84.4697H126.473V73.9961H127.399ZM122.715 75.1768V76.002H121.191V81.2324C121.617 81.2197 122.175 81.1689 122.791 81.0166L122.88 81.8672C121.928 82.083 121.191 82.083 120.709 82.083H120.265V75.1768H122.715ZM125.711 75.1768V76.002H124.111V81.2324C124.638 81.2261 125.266 81.1753 125.952 80.9785L126.041 81.8291C125.101 82.083 124.327 82.083 123.667 82.083H123.21V75.1768H125.711ZM142.97 73.7549V77.1699H144.659V78.0078H142.97V81.3213H141.967V73.7549H142.97ZM134.109 80.166C135.01 80.166 136.064 80.166 137.169 80.1279V79.3027C135.855 79.1885 135.01 78.5728 135.01 77.6396C135.01 76.6113 136.064 75.9766 137.651 75.9766C139.251 75.9766 140.292 76.6113 140.304 77.6396C140.292 78.5664 139.466 79.1821 138.159 79.3027V80.0898C139.213 80.0391 140.279 79.9565 141.269 79.8105L141.358 80.5342C138.908 80.9658 136.204 80.9785 134.223 80.9785L134.109 80.166ZM142.97 81.8799V85.0283H141.967V82.6797H135.493V81.8799H142.97ZM140.926 74.7832V75.5449H134.388V74.7832H137.169V73.6533H138.159V74.7832H140.926ZM137.651 76.6875C136.61 76.6748 135.963 77.043 135.963 77.6396C135.963 78.2236 136.61 78.6299 137.651 78.6172C138.692 78.6299 139.352 78.2236 139.352 77.6396C139.352 77.043 138.692 76.6748 137.651 76.6875ZM154.583 73.7549V82.0068H153.593V73.7549H154.583ZM154.939 83.9492V84.7871H147.296V81.1689H148.287V83.9492H154.939ZM148.49 74.542C150.178 74.542 151.448 75.6846 151.448 77.3096C151.448 78.96 150.178 80.0898 148.49 80.0898C146.801 80.0898 145.532 78.96 145.532 77.3096C145.532 75.6846 146.801 74.542 148.49 74.542ZM148.49 75.418C147.347 75.418 146.497 76.2051 146.509 77.3096C146.497 78.4395 147.347 79.2139 148.49 79.2139C149.607 79.2139 150.47 78.4395 150.47 77.3096C150.47 76.2051 149.607 75.418 148.49 75.418ZM166.044 73.7422V85.0283H165.079V73.7422H166.044ZM163.772 73.9834V84.457H162.82V78.9727H161.372C161.265 81.1689 160.331 82.54 158.935 82.54C157.462 82.54 156.51 81.0166 156.51 78.6172C156.51 76.2178 157.462 74.6943 158.935 74.6943C160.306 74.6943 161.233 76.021 161.36 78.1475H162.82V73.9834H163.772ZM158.935 75.6338C158.021 75.6338 157.437 76.7764 157.45 78.6172C157.437 80.4453 158.021 81.6006 158.935 81.5879C159.849 81.6006 160.433 80.4453 160.433 78.6172C160.433 76.7764 159.849 75.6338 158.935 75.6338ZM173.643 74.6182C175.179 74.6309 176.283 75.9448 176.448 78.0586H178.975V73.7422H179.965V85.0537H178.975V78.8838H176.461C176.34 81.0928 175.217 82.4766 173.643 82.4766C171.98 82.4766 170.812 80.9531 170.812 78.5537C170.812 76.1543 171.98 74.6309 173.643 74.6182ZM173.643 75.5068C172.526 75.5195 171.764 76.7129 171.764 78.5537C171.764 80.3945 172.526 81.5879 173.643 81.5879C174.747 81.5879 175.522 80.3945 175.522 78.5537C175.522 76.7129 174.747 75.5195 173.643 75.5068ZM191.058 73.7422V85.0537H190.067V80.2422H187.719V79.4043H190.067V77.1572H187.808V76.3193H190.067V73.7422H191.058ZM187.071 74.7705V78.7822H183.136V81.5625C184.831 81.5562 186.233 81.4927 187.947 81.2324L188.036 82.0703C186.233 82.3496 184.786 82.4131 182.983 82.4131H182.146V77.9697H186.094V75.5957H182.107V74.7705H187.071ZM197.961 73.958C200.411 73.958 201.947 74.7451 201.947 76.0908C201.947 77.4111 200.411 78.1855 197.961 78.1855C195.511 78.1855 193.962 77.4111 193.962 76.0908C193.962 74.7451 195.511 73.958 197.961 73.958ZM197.961 74.7451C196.133 74.7451 194.977 75.2402 194.99 76.0908C194.977 76.916 196.133 77.3984 197.961 77.3984C199.764 77.3984 200.932 76.916 200.932 76.0908C200.932 75.2402 199.764 74.7451 197.961 74.7451ZM201.846 81.1689V84.876H194.076V81.1689H197.466V79.874H192.819V79.0488H203.102V79.874H198.443V81.1689H201.846ZM195.066 81.9688V84.0635H200.868V81.9688H195.066ZM213.23 73.7422V85.0537H212.227V73.7422H213.23ZM207.225 74.6182C208.901 74.6309 210.107 76.1543 210.107 78.5537C210.107 80.9531 208.901 82.4766 207.225 82.4766C205.537 82.4766 204.344 80.9531 204.344 78.5537C204.344 76.1543 205.537 74.6309 207.225 74.6182ZM207.225 75.5068C206.095 75.5195 205.308 76.7129 205.308 78.5537C205.308 80.3945 206.095 81.5879 207.225 81.5879C208.355 81.5879 209.142 80.3945 209.142 78.5537C209.142 76.7129 208.355 75.5195 207.225 75.5068ZM221.984 81.3213C221.984 82.3179 222.517 83.3779 223.596 83.9873C224.663 83.3208 225.234 82.1973 225.234 81.3213V80.6992H226.211V81.3213C226.211 82.4766 227.062 83.6445 228.509 84.1396L228.014 84.876C226.884 84.4761 226.091 83.689 225.704 82.7432C225.355 83.6572 224.663 84.5205 223.622 84.9648C222.523 84.5459 221.825 83.7144 221.489 82.7686C221.089 83.6826 220.308 84.4697 219.229 84.876L218.721 84.1396C220.143 83.6064 221.006 82.4004 221.019 81.3213V80.6992H221.984V81.3213ZM227.481 73.7549V80.2041H226.491V73.7549H227.481ZM221.387 74.415C223.101 74.415 224.345 75.4814 224.345 77.0557C224.345 78.6045 223.101 79.6709 221.387 79.6709C219.673 79.6709 218.429 78.6045 218.429 77.0557C218.429 75.4814 219.673 74.415 221.387 74.415ZM221.387 75.2656C220.232 75.2529 219.394 76.002 219.407 77.0557C219.394 78.0967 220.232 78.833 221.387 78.8457C222.53 78.833 223.368 78.0967 223.368 77.0557C223.368 76.002 222.53 75.2529 221.387 75.2656ZM232.302 74.6182C233.838 74.6309 234.943 75.9448 235.108 78.0586H237.634V73.7422H238.624V85.0537H237.634V78.8838H235.121C235 81.0928 233.876 82.4766 232.302 82.4766C230.639 82.4766 229.471 80.9531 229.471 78.5537C229.471 76.1543 230.639 74.6309 232.302 74.6182ZM232.302 75.5068C231.185 75.5195 230.423 76.7129 230.423 78.5537C230.423 80.3945 231.185 81.5879 232.302 81.5879C233.407 81.5879 234.181 80.3945 234.181 78.5537C234.181 76.7129 233.407 75.5195 232.302 75.5068ZM250.707 82.7432V83.5811H240.373V82.7432H242.938V79.6963C241.973 79.1948 241.389 78.3823 241.389 77.3604C241.389 75.6084 243.103 74.4658 245.515 74.4531C247.927 74.4658 249.641 75.6084 249.641 77.3604C249.641 78.3633 249.076 79.1694 248.143 79.6709V82.7432H250.707ZM245.515 75.2783C243.661 75.2656 242.354 76.1035 242.354 77.3604C242.354 78.6172 243.661 79.4678 245.515 79.4678C247.356 79.4678 248.676 78.6172 248.676 77.3604C248.676 76.1035 247.356 75.2656 245.515 75.2783ZM243.915 82.7432H247.14V80.0518C246.651 80.1851 246.105 80.2549 245.515 80.2549C244.937 80.2549 244.398 80.1914 243.915 80.0645V82.7432Z" fill="#7B8696"/>
<rect x="20.4121" y="108" width="130" height="54" rx="16" fill="#3D424B"/>
<path d="M62.3262 129.117V130.682H52.9746V129.117H56.6484V126.902H58.6172V129.117H62.3262ZM57.6504 131.719C59.8125 131.719 61.4121 133.283 61.4297 135.463C61.4121 137.607 59.8125 139.189 57.6504 139.189C55.4531 139.189 53.8359 137.607 53.8359 135.463C53.8359 133.283 55.4531 131.719 57.6504 131.719ZM57.6504 133.371C56.5078 133.371 55.6465 134.197 55.6641 135.463C55.6465 136.729 56.5078 137.537 57.6504 137.52C58.7754 137.537 59.6367 136.729 59.6367 135.463C59.6367 134.197 58.7754 133.371 57.6504 133.371ZM66.2637 126.674V142.564H64.3301V134.689H61.9922V133.09H64.3301V126.674H66.2637ZM82.7645 134.32V135.885H68.2801V134.32H71.6551V132.299C70.4598 131.798 69.7742 130.998 69.7742 129.961C69.7742 128.062 72.0067 126.938 75.5047 126.938C79.0028 126.938 81.2176 128.062 81.2352 129.961C81.2264 131.007 80.5408 131.807 79.3367 132.299V134.32H82.7645ZM75.5047 136.852C78.9324 136.834 80.9891 137.854 81.0067 139.682C80.9891 141.527 78.9324 142.529 75.5047 142.529C72.0418 142.529 69.9676 141.527 69.9676 139.682C69.9676 137.854 72.0418 136.834 75.5047 136.852ZM75.5047 138.328C73.1844 138.328 71.9363 138.785 71.9539 139.682C71.9363 140.578 73.1844 141.053 75.5047 141.053C77.7723 141.053 79.0379 140.578 79.0555 139.682C79.0379 138.785 77.7723 138.328 75.5047 138.328ZM75.5047 128.449C73.1492 128.449 71.7957 128.977 71.8133 129.961C71.7957 130.928 73.1492 131.438 75.5047 131.438C77.8426 131.438 79.2137 130.928 79.2137 129.961C79.2137 128.977 77.8426 128.449 75.5047 128.449ZM73.6238 134.32H77.3856V132.809C76.8143 132.888 76.1815 132.932 75.5047 132.932C74.8279 132.932 74.1951 132.888 73.6238 132.809V134.32ZM100.209 126.674V131.332H102.424V132.949H100.209V138.293H98.2583V126.674H100.209ZM100.842 140.666V142.248H90.0317V137.08H91.9829V140.666H100.842ZM92.1411 127.729C94.5493 127.729 96.4125 129.398 96.4301 131.736C96.4125 134.039 94.5493 135.727 92.1411 135.727C89.7329 135.727 87.8344 134.039 87.852 131.736C87.8344 129.398 89.7329 127.729 92.1411 127.729ZM92.1411 129.434C90.8051 129.434 89.7504 130.33 89.768 131.736C89.7504 133.107 90.8051 134.004 92.1411 134.004C93.477 134.004 94.5141 133.107 94.5141 131.736C94.5141 130.33 93.477 129.434 92.1411 129.434ZM115.55 126.674V130.699H117.765V132.334H115.55V136.254H113.599V126.674H115.55ZM115.55 137.01V142.371H105.284V137.01H115.55ZM107.218 138.557V140.789H113.616V138.557H107.218ZM112.456 128.203V129.768H103.034V128.203H106.779V126.568H108.73V128.203H112.456ZM107.745 130.348C110.048 130.348 111.613 131.508 111.63 133.195C111.613 134.9 110.048 136.043 107.745 136.043C105.425 136.043 103.843 134.9 103.843 133.195C103.843 131.508 105.425 130.348 107.745 130.348ZM107.745 131.824C106.532 131.824 105.741 132.334 105.741 133.195C105.741 134.074 106.532 134.584 107.745 134.584C108.958 134.584 109.767 134.074 109.767 133.195C109.767 132.334 108.958 131.824 107.745 131.824Z" fill="white"/>
<rect x="158.412" y="108" width="130" height="56" rx="16" fill="#3D424B"/>
<rect x="158.912" y="108.5" width="129" height="55" rx="15.5" stroke="#FEFF65" stroke-opacity="0.4"/>
<path d="M217.826 130.117V131.682H208.475V130.117H212.148V127.902H214.117V130.117H217.826ZM213.15 132.719C215.312 132.719 216.912 134.283 216.93 136.463C216.912 138.607 215.312 140.189 213.15 140.189C210.953 140.189 209.336 138.607 209.336 136.463C209.336 134.283 210.953 132.719 213.15 132.719ZM213.15 134.371C212.008 134.371 211.146 135.197 211.164 136.463C211.146 137.729 212.008 138.537 213.15 138.52C214.275 138.537 215.137 137.729 215.137 136.463C215.137 135.197 214.275 134.371 213.15 134.371ZM221.764 127.674V143.564H219.83V135.689H217.492V134.09H219.83V127.674H221.764ZM238.264 135.32V136.885H223.78V135.32H227.155V133.299C225.96 132.798 225.274 131.998 225.274 130.961C225.274 129.062 227.507 127.938 231.005 127.938C234.503 127.938 236.718 129.062 236.735 130.961C236.726 132.007 236.041 132.807 234.837 133.299V135.32H238.264ZM231.005 137.852C234.432 137.834 236.489 138.854 236.507 140.682C236.489 142.527 234.432 143.529 231.005 143.529C227.542 143.529 225.468 142.527 225.468 140.682C225.468 138.854 227.542 137.834 231.005 137.852ZM231.005 139.328C228.684 139.328 227.436 139.785 227.454 140.682C227.436 141.578 228.684 142.053 231.005 142.053C233.272 142.053 234.538 141.578 234.555 140.682C234.538 139.785 233.272 139.328 231.005 139.328ZM231.005 129.449C228.649 129.449 227.296 129.977 227.313 130.961C227.296 131.928 228.649 132.438 231.005 132.438C233.343 132.438 234.714 131.928 234.714 130.961C234.714 129.977 233.343 129.449 231.005 129.449ZM229.124 135.32H232.886V133.809C232.314 133.888 231.681 133.932 231.005 133.932C230.328 133.932 229.695 133.888 229.124 133.809V135.32Z" fill="#FDFE96"/>
<g clip-path="url(#clip0_1324_57760)">
<path d="M227.092 187.125C221.804 172.577 234.247 157.759 249.49 160.453C256.559 161.702 262.426 166.625 264.884 173.37C265.43 174.875 264.141 176.407 262.565 176.127C261.835 175.997 261.229 175.489 260.974 174.792C256.776 163.256 241.663 160.591 233.771 169.996C230.109 174.36 229.053 180.348 231.002 185.702C231.548 187.207 230.259 188.739 228.683 188.459C227.953 188.329 227.347 187.821 227.092 187.125ZM277.506 185.747C275.81 186.363 274.339 187.475 273.285 188.94C269.934 183.63 262.317 183.286 258.502 188.273L254.459 177.164C252.085 170.643 243.543 169.137 239.083 174.453C237.013 176.92 236.416 180.304 237.518 183.33L247.834 211.674L243.946 208.625C238.615 204.174 230.466 207.163 229.278 214.005C228.726 217.18 229.91 220.408 232.384 222.473L247.865 235.286C249.122 236.279 250.981 235.538 251.212 233.954C251.314 233.257 251.057 232.557 250.528 232.092L235.057 219.276C232.195 216.874 233.006 212.274 236.517 210.996C238.147 210.403 239.969 210.724 241.297 211.839C241.313 211.855 241.331 211.87 241.35 211.883L250.993 219.441C252.251 220.432 254.11 219.689 254.339 218.104C254.388 217.763 254.352 217.416 254.233 217.092L241.427 181.907C240.152 178.395 243.157 174.819 246.836 175.471C248.541 175.773 249.956 176.96 250.549 178.587L258.612 200.741C259.162 202.245 261.134 202.59 262.161 201.362C262.637 200.794 262.775 200.015 262.522 199.318L261.099 195.408C259.824 191.896 262.829 188.321 266.508 188.972C268.213 189.274 269.628 190.462 270.221 192.088L272.593 198.604C273.142 200.108 275.114 200.453 276.142 199.225C276.618 198.657 276.755 197.878 276.502 197.181L276.028 195.878C274.753 192.366 277.758 188.79 281.437 189.442C283.142 189.744 284.557 190.931 285.15 192.558L289.419 204.286C292.043 211.496 291.449 217.264 291.443 217.318C291.322 218.452 292.136 219.472 293.268 219.606C293.589 219.651 293.916 219.618 294.222 219.509C294.965 219.241 295.491 218.575 295.581 217.79C295.612 217.52 296.311 211.049 293.332 202.862L289.063 191.133C287.36 186.454 282.185 184.042 277.506 185.747Z" fill="white"/>
</g>
<defs>
<clipPath id="clip0_1324_57760">
<rect width="80" height="80" fill="white" transform="translate(204.314 170.558) rotate(-20)"/>
</clipPath>
</defs>
</svg>
