<svg width="18" height="18" viewBox="0 0 18 18" fill="none" xmlns="http://www.w3.org/2000/svg">
<rect width="18" height="18" rx="9" fill="#F2544A"/>
<path d="M8.99839 4.5C9.57191 4.5 10.0368 4.96492 10.0368 5.53843V8.99987C10.0368 9.57339 9.57191 10.0383 8.99839 10.0383C8.42488 10.0383 7.95996 9.57339 7.95996 8.99987V5.53843C7.95996 4.96492 8.42488 4.5 8.99839 4.5Z" fill="white"/>
<path d="M8.99839 11.4229C8.42488 11.4229 7.95996 11.8878 7.95996 12.4613C7.95996 13.0348 8.42488 13.4998 8.99839 13.4998H9.00705C9.58056 13.4998 10.0455 13.0348 10.0455 12.4613C10.0455 11.8878 9.58056 11.4229 9.00705 11.4229H8.99839Z" fill="white"/>
</svg>
