<svg width="20" height="20" viewBox="0 0 20 20" fill="none" xmlns="http://www.w3.org/2000/svg">
<g clip-path="url(#clip0_1432_30193)">
<path fill-rule="evenodd" clip-rule="evenodd" d="M1.66602 7.13158L3.4458 4.40851L6.51466 3.33301L9.57081 4.48987L9.73607 4.70344L9.91914 4.51021L12.96 3.37877L16.0492 4.38562L17.8061 7.13412L17.6307 10.2894L16.0747 13.0634L13.8499 15.1635L11.4167 17.017V17.0374L8.07325 17.0272V17.0094L5.59934 15.1991L3.43309 13.0405L1.79314 10.3072L1.6711 7.13412L1.66602 7.13158ZM12.5685 6.51882L11.6125 6.10693L11.2463 6.55188L9.70556 10.7039L8.4114 7.61212L7.44778 7.23582L7.06894 7.5155L6.03412 9.35631L4.26705 9.37665L3.51445 10.0886L4.26705 10.7903L6.45364 10.831L7.08674 10.4572L7.63593 9.51904L9.0623 12.9261L10.0234 13.3252L10.387 12.8854L11.9888 8.73847L12.749 10.3708L13.3821 10.8081L15.2051 10.8132L15.945 10.0886L15.2051 9.33851L13.8525 9.3614L12.5685 6.51882Z" fill="#4DCC71"/>
</g>
<defs>
<clipPath id="clip0_1432_30193">
<rect width="20" height="20" fill="white"/>
</clipPath>
</defs>
</svg>
