<svg width="215" height="332" viewBox="0 0 215 332" fill="none" xmlns="http://www.w3.org/2000/svg">
<g filter="url(#filter0_d_2544_40833)">
<path d="M184.735 310.609L181.756 310.96L178.779 311.395L175.8 310.645L172.823 310.588L169.843 310.686L166.864 311.118L163.887 310.631L160.908 310.994L157.928 310.872L154.949 311.161L151.972 310.686L148.993 310.738L146.013 310.915L143.034 311.144L140.055 311.438L137.075 311.383L134.099 310.65L131.119 311.087L128.14 310.559L125.16 310.951L122.181 311.106L119.202 310.561L116.222 311.292L113.243 311.342L110.264 310.604L107.284 310.834L104.305 311.321L101.326 310.526L98.3462 310.755L95.3669 311.381L92.3875 310.614L89.4082 311.261L86.4288 310.936L83.4494 310.862L80.4701 311.357L77.4907 310.87L74.5114 310.569L71.532 310.645L68.5527 311.357L65.5733 311.383L62.5939 311.175L59.6146 310.922L56.6328 310.877L53.6534 310.8L50.674 310.764L47.6947 310.877L44.7153 311.297L41.7335 310.987L38.7542 311.19L35.7723 310.557L32.7905 311.288L29.8087 310.538L26.849 310.717L24.0913 309.675L21.0971 309.076L19.1421 306.771L16.8226 305.008L15.2936 302.567L13.4518 300.214L12.9372 297.324L13.1021 294.439L13.2425 291.561L12.7525 288.682L12.6515 285.804L12.3019 282.926L13.1735 280.048L12.3117 277.17L13.0652 274.292L12.5727 271.413L12.3142 268.535L12.6195 265.657L12.8116 262.779L12.3684 259.901L13.2228 257.022L12.7008 254.144L12.361 251.266L13.0381 248.388L12.3905 245.51L13.0947 242.631L12.7303 239.753L12.7746 236.875L12.6811 233.997L12.3216 231.119L12.9913 228.241L12.3413 225.362L13.0898 222.484L13.2228 219.606L12.9224 216.728L13.2523 213.85L12.6688 210.969L12.5949 208.091L13.1538 205.213L13.1957 202.334L12.8436 199.456L13.1563 196.58L12.5333 193.702L12.7648 190.826L12.7082 187.948L12.6195 185.07L12.7648 182.192L12.7377 179.314L12.9642 176.436L12.7968 173.56L12.3043 170.682L13.0159 167.801L12.2871 164.925L12.4102 162.047L12.425 159.169L13.112 156.291L12.7697 153.412L12.7426 150.534L12.4619 147.656L12.5087 144.778L12.3093 141.9L12.5703 139.022L13.2179 136.143L12.7574 133.265L12.425 130.387L12.6835 127.506L12.4718 124.628L12.7549 121.75L12.457 118.872L12.3585 115.994L12.4767 113.115L12.8067 110.235L12.7328 107.357L13.1021 104.479L12.6417 101.6L13.0652 98.7198L12.4127 95.8416L13.0726 92.9634L13.1711 90.0828L13.048 87.2047L12.819 84.3265L12.4176 81.4459L12.6368 78.5677L12.5974 75.6895L12.9076 72.8089L12.9002 69.9308L12.5456 67.0526L13.1538 64.1744L12.6195 61.2962L12.3881 58.4156L12.8263 55.5374L12.75 52.6569V49.7787L13.0086 46.8981L13.2375 44.0199L12.3388 41.1393L12.2945 38.2588L13.043 35.3806L12.5555 32.5024L13.0701 29.6218L12.5949 26.7412L13.1489 23.8607L12.6269 20.9777L12.5703 18.0303L13.5379 15.2333L15.1704 12.7803L17.1083 10.6401L18.6299 8.05573L21.2547 6.60589L23.9066 5.24682L26.8466 4.68073L29.8087 4.41083L32.788 4.24841L35.7649 4.2508L38.7443 4.0836L41.7212 4.18869L44.7006 4.22452L47.6799 4.87182L50.6593 4.04538L53.6362 4.64013L56.6155 4.18392L59.5949 4.32723L62.5742 4.15048L65.5511 4.56131L68.5305 4.84076L71.5099 4.26035L74.4892 4.28662L77.4686 4.85032L80.4455 4.55414L83.4248 4.87659L86.4042 4.2914L89.3835 4.00955L92.3629 4.41322L95.3423 4.24841L98.3216 4.52548L101.301 4.57325L104.28 4.36067L107.26 4.18869L110.239 4L113.218 4.03583L116.198 4.17675L119.177 4.67834L122.156 4.80733L125.136 4.50398L128.115 4.53025L131.095 4.61147L134.074 4.51115L137.053 4.17197L140.033 4.69745L143.012 4.13615L145.991 4.3535L148.971 4.84554L151.95 4.59713L154.929 4.42277L157.911 4.36783L160.891 4.31529L163.87 4.87182L166.852 4.90764L169.831 4.7285L172.81 4.00955L175.792 4.04299L178.772 4.37022L181.753 4.43949L184.735 4.55414L187.658 4.89809L190.411 5.85589L193.341 6.51752L195.754 8.23965L197.768 10.3702L199.832 12.5247L200.984 15.2428L201.563 18.0995L201.444 20.9777L202.038 23.8559L201.316 26.7341L201.311 29.6123L202.203 32.4905L201.713 35.3686L201.57 38.2468L201.9 41.125L201.799 44.0032L201.742 46.8814L201.971 49.7596L202.242 52.6378L202.121 55.5159L202.05 58.3941L201.979 61.2723L201.513 64.1505L201.607 67.0287L201.393 69.9069L201.922 72.7851L202.025 75.6632L201.74 78.5414L202.003 81.4196L201.666 84.2978L201.984 87.176L201.614 90.0542L201.629 92.9324L202.008 95.8105L202.03 98.6887L202.195 101.567L201.888 104.447L202.225 107.326L201.732 110.204L202.144 113.082L201.368 115.96L201.427 118.836L201.831 121.714L201.934 124.592L201.427 127.468L202.008 130.346L202.109 133.225L202.035 136.103L201.952 138.981L202.213 141.857L201.917 144.735L202.097 147.616L202.245 150.491L201.678 153.369L202.03 156.248L201.622 159.126L202.053 162.004L202.06 164.882L202.075 167.76L202.19 170.639L202.092 173.517L201.998 176.395L202.08 179.273L201.907 182.154L202.072 185.03L201.998 187.91L201.368 190.788L201.777 193.666L201.508 196.545L201.735 199.423L201.378 202.301L201.897 205.182L202.24 208.06L201.425 210.938L201.713 213.816L201.306 216.697L202.252 219.575L201.607 222.453L201.92 225.334L201.952 228.212L201.351 231.09L202.109 233.971L202.19 236.849L202.102 239.729L201.402 242.608L201.464 245.486L201.745 248.364L201.358 251.242L202.008 254.12L201.481 257.001L201.87 259.879L201.523 262.76L201.851 265.638L201.503 268.518L201.508 271.397L201.937 274.277L201.723 277.158L201.809 280.036L202.262 282.914L202.043 285.795L201.718 288.675L201.681 291.556L201.819 294.439L201.663 297.334L200.368 299.959L199.492 302.703L197.593 304.905L195.678 307.089L193.442 309.069L190.706 310.349L187.766 311.108L184.735 310.609Z" fill="white"/>
</g>
<mask id="mask0_2544_40833" style="mask-type:luminance" maskUnits="userSpaceOnUse" x="15" y="6" width="184" height="305">
<path d="M181.902 6.19922L32.4326 6.19922C23.3512 6.19922 15.9893 13.5598 15.9893 22.6396L15.9893 294.561C15.9893 303.64 23.3512 311.001 32.4326 311.001H181.902C190.984 311.001 198.346 303.64 198.346 294.561V22.6396C198.346 13.5598 190.984 6.19922 181.902 6.19922Z" fill="white"/>
</mask>
<g mask="url(#mask0_2544_40833)">
<path d="M53.7041 27.2678L51.8288 25.0091L49.7431 23.0211L48.0689 20.6698L45.9248 18.7389L44.2529 16.3851L42.4642 14.1359L40.2873 12.2264L38.5383 9.94154L36.8898 7.56408L34.8719 5.69727L32.9031 7.60446L30.9203 9.68266L29.3724 12.148L27.2469 14.0956L25.5985 16.4707L23.7022 18.6249L21.6749 20.6651L20.0288 23.0425L18.1068 25.1801L16.2549 27.2678L18.2354 29.2415L19.8207 31.6712L21.7264 33.8183L23.4964 36.0841L25.3155 38.3048L27.621 40.098L29.1479 42.5823L31.1027 44.6843L33.2328 46.6366L34.8719 49.2492L36.9927 47.0665L38.7955 44.8292L40.6497 42.6393L42.4782 40.4234L44.0074 37.9438L46.355 36.1886L48.1858 33.975L49.708 31.4883L51.9434 29.6357L53.7041 27.2678Z" fill="#ECF4FE"/>
<path d="M90.6981 27.2668L89.1058 25.0105L86.9593 23.0795L85.1121 20.8802L83.3607 18.6001L81.5767 16.3438L79.8113 14.0732L77.7747 12.0425L75.9766 9.80045L73.8418 7.85525L72.1512 5.20703L70.0749 7.50849L68.5457 9.98808L66.488 11.9974L64.4888 14.0613L62.831 16.4269L61.075 18.707L59.0197 20.7211L57.1234 22.8753L55.4703 25.2504L53.7119 27.2668L55.3136 29.421L57.2754 31.5158L58.9168 33.8957L61.1405 35.7601L62.81 38.1138L64.5356 40.4224L66.5488 42.4745L68.3235 44.7356L70.1567 46.9515L72.1512 49.2316L74.0452 46.8613L76.0561 44.8116L77.7069 42.4389L79.657 40.3322L81.7357 38.3395L83.3046 35.8931L85.3903 33.9052L87.0131 31.5087L88.8018 29.2643L90.6981 27.2668Z" fill="#ECF4FE"/>
<path d="M128.235 27.2658L126.388 25.0071L124.597 22.7579L122.619 20.6797L120.788 18.4661L118.707 16.4758L117.162 14.0105L115.2 11.9109L113.252 9.80181L111.307 7.68798L109.431 5.51953L107.757 7.86374L105.629 9.81368L103.792 12.0201L102.087 14.3453L99.861 16.2027L98.0606 18.4447L96.508 20.9053L94.2118 22.708L92.4348 24.9715L90.7793 27.2658L92.3459 29.6385L94.2305 31.8022L96.2952 33.8092L98.0699 36.0702L100.17 38.0416L102.159 40.115L103.663 42.6207L105.435 44.8842L107.608 46.7961L109.431 48.6938L111.056 46.6227L113.194 44.6847L114.917 42.3761L117.084 40.4618L118.908 38.2458L120.536 35.8494L122.331 33.6049L124.258 31.4768L126.197 29.3535L128.235 27.2658Z" fill="#ECF4FE"/>
<path d="M165.76 27.267L163.59 25.0795L161.623 22.9871L159.863 20.7118L158.184 18.3652L156.22 16.2704L154.281 14.1542L152.326 12.0498L150.566 9.77213L148.742 7.55142L146.71 5.37109L144.664 7.5348L143.182 10.0571L141.063 12.0142L139.272 14.261L137.327 16.3725L135.458 18.5504L133.417 20.5764L131.614 22.8185L129.889 25.1271L127.742 27.267L129.942 29.3571L131.483 31.8272L133.555 33.827L135.421 36.0073L137.097 38.3563L139.001 40.5057L141.168 42.42L142.77 44.8355L144.949 46.7427L146.71 48.79L148.688 46.9375L150.245 44.4816L152.518 42.6623L153.961 40.1067L155.997 38.076L157.999 36.0144L160.045 33.9909L161.504 31.4495L163.604 29.4735L165.76 27.267Z" fill="#ECF4FE"/>
<path d="M202.686 27.2667L200.78 25.1576L199.031 22.8728L197.076 20.7708L195.119 18.6712L193.525 16.2486L191.677 14.0517L189.405 12.23L187.943 9.68629L186.016 7.55821L183.992 5.60352L182.186 7.74822L180.302 9.91429L178.399 12.0614L176.416 14.1396L174.671 16.4268L172.976 18.7615L170.657 20.5404L168.891 22.8134L167.341 25.2787L165.342 27.2667L166.997 29.5586L168.933 31.6772L170.795 33.8623L172.504 36.1827L174.8 37.983L176.537 40.2774L178.134 42.7L180.318 44.6L182.098 46.8587L183.992 49.1673L185.79 46.778L187.723 44.657L189.557 42.4482L191.708 40.5196L193.508 38.2799L195.115 35.8668L196.91 33.6224L199.104 31.7318L200.977 29.5515L202.686 27.2667Z" fill="#ECF4FE"/>
<path d="M53.8051 70.9134L51.8269 68.6547L50.0849 66.3651L48.032 64.3511L45.8691 62.432L44.0172 60.2398L42.2285 57.9882L40.5426 55.6464L38.5036 53.618L36.605 51.4615L34.8724 48.875L32.941 51.2833L30.9582 53.3615L29.1834 55.6226L27.2941 57.7839L25.3978 59.9381L23.8312 62.3869L21.7221 64.3534L19.6949 66.3912L17.9131 68.65L16.1992 70.9134L18.0909 73.0154L20.0316 75.1316L21.7128 77.4758L23.6161 79.6229L25.3698 81.9029L27.2684 84.0548L29.4243 85.9833L30.8787 88.5294L32.8825 90.591L34.8724 92.9091L36.9394 90.6646L38.8123 88.4914L40.2713 85.9477L42.4389 84.0334L44.3305 81.8768L46.1216 79.6276L48.0764 77.5233L50.0896 75.4712L51.8199 73.1697L53.8051 70.9134Z" fill="#ECF4FE"/>
<path d="M90.6233 70.9135L89.2157 68.5598L86.9687 66.7168L85.3226 64.3417L83.473 62.1447L81.4434 60.1116L79.7505 57.7746L77.7747 55.6892L76.1497 53.2928L73.9891 51.3689L72.1513 49.2812L70.1381 51.2098L68.3236 53.4376L66.3899 55.5562L64.4281 57.6534L62.6627 59.924L60.9465 62.2397L58.9426 64.3013L57.2006 66.5932L55.1383 68.6026L53.6465 70.9135L55.2318 73.139L57.2941 75.1459L59.146 77.3381L60.9184 79.604L62.9854 81.6038L64.8279 83.8079L66.4647 86.1948L68.2721 88.4298L70.1989 90.5602L72.1513 92.4888L74.1972 90.6457L76.0281 88.4322L77.6672 86.0499L79.8628 84.1617L81.7614 82.0099L83.3865 79.6135L85.063 77.2621L86.9827 75.1269L89.031 73.1033L90.6233 70.9135Z" fill="#ECF4FE"/>
<path d="M127.908 70.9138L126.054 68.9519L124.371 66.6101L122.322 64.5913L120.709 62.1853L118.927 59.929L116.989 57.8128L115.277 55.4923L113.234 53.4664L111.213 51.4191L109.432 49.1152L107.753 51.5069L105.688 53.5115L103.663 55.5541L101.952 57.8698L100.172 60.1285L98.1918 62.2091L96.5504 64.5913L94.5792 66.6814L92.5777 68.7429L90.6533 70.9138L92.3766 73.2603L94.3735 75.3219L96.389 77.3716L98.3648 79.4546L99.9057 81.9247L102.139 83.782L103.775 86.1689L105.627 88.3611L107.482 90.5581L109.432 92.774L111.534 90.6958L113.273 88.4015L115.266 86.3328L117.136 84.1572L118.71 81.718L120.63 79.5828L122.542 77.4405L124.534 75.3718L126.358 73.144L127.908 70.9138Z" fill="#ECF4FE"/>
<path d="M165.528 70.9144L163.765 68.5702L161.532 66.7153L159.832 64.3877L158.015 62.1622L156.214 59.9225L154.061 57.9963L152.326 55.6949L150.614 53.3768L148.648 51.282L146.71 49.332L145.019 51.4981L142.91 53.4647L141.245 55.8231L139.073 57.7303L137.382 60.0674L135.689 62.4021L133.557 64.3497L131.541 66.3994L129.748 68.6486L128.153 70.9144L129.781 73.1494L131.705 75.2775L133.347 77.6573L135.696 79.4077L137.284 81.8374L139.152 84.0178L140.841 86.3596L142.714 88.5352L144.996 90.3497L146.71 92.7652L148.449 90.3735L150.371 88.2407L152.562 86.3501L154.136 83.9085L156.102 81.8161L158.111 79.7616L159.827 77.4459L161.934 75.4793L163.606 73.1209L165.528 70.9144Z" fill="#ECF4FE"/>
<path d="M202.857 70.9145L200.982 68.6249L199.202 66.3662L196.918 64.5587L195.356 62.1077L193.57 59.8561L191.332 58.0035L189.401 55.8778L187.68 53.5669L185.933 51.2749L183.99 48.9141L182.229 51.4364L180.464 53.707L178.184 55.5215L176.582 57.937L174.52 59.944L172.699 62.1647L170.945 64.4471L168.946 66.5111L167.358 68.9432L165.48 70.9145L167.171 73.0497L169.191 75.0946L170.982 77.3415L172.512 79.821L174.815 81.6142L176.646 83.8278L178.282 86.2148L180.342 88.2241L181.932 90.6538L183.99 92.9149L185.769 90.4092L187.511 88.1172L189.653 86.1839L191.683 84.1461L193.462 81.8874L195.22 79.6097L197.028 77.3771L198.917 75.2158L201.001 73.2278L202.857 70.9145Z" fill="#ECF4FE"/>
<path d="M53.7563 114.56L51.6122 112.494L50.0619 110.033L47.9365 108.081L46.0168 105.95L44.3894 103.556L42.2312 101.635L40.4892 99.3405L38.8057 96.9963L36.6218 95.0939L34.8728 93.0703L32.8455 94.8469L31.0076 97.0533L29.3779 99.4427L27.4372 101.556L25.4286 103.611L23.5393 105.772L21.6851 107.964L19.9665 110.278L17.8644 112.254L16.1973 114.56L18.2058 116.56L19.9829 118.819L21.6033 121.22L23.869 123.044L25.6578 125.295L27.5681 127.438L29.3545 129.689L31.3444 131.763L32.8198 134.295L34.8728 136.261L36.6521 134.055L38.6396 131.984L40.5593 129.848L42.2031 127.471L44.193 125.4L46.0425 123.203L47.9107 121.023L49.8351 118.892L51.7431 116.743L53.7563 114.56Z" fill="#ECF4FE"/>
<path d="M90.8089 114.56L89.0856 112.323L87.0396 110.301L85.2415 108.059L83.3312 105.919L81.484 103.722L79.4895 101.654L77.5792 99.509L75.7343 97.3073L73.9783 95.0272L72.1521 92.5215L70.4241 95.1103L68.5489 97.2835L66.4141 99.224L64.8685 101.692L62.6893 103.592L61.0806 106.002L59.0252 108.019L57.3183 110.342L55.3191 112.408L53.334 114.56L55.2607 116.759L57.2809 118.804L58.92 121.189L60.987 123.189L62.6939 125.511L64.4593 127.782L66.7391 129.599L68.5769 131.805L70.2371 134.173L72.1521 135.997L74.2542 134.34L75.7927 131.87L77.7218 129.744L79.8075 127.758L81.5261 125.445L83.3265 123.205L85.4239 121.227L87.1495 118.923L89.2282 116.923L90.8089 114.56Z" fill="#ECF4FE"/>
<path d="M128.144 114.559L126.313 112.369L124.618 110.035L122.586 108.002L120.865 105.693L118.557 103.905L116.841 101.589L114.844 99.5226L113.415 96.9504L111.505 94.8057L109.433 92.7773L107.361 94.8057L105.662 97.1332L103.739 99.2661L102.121 101.667L100.094 103.703L98.3218 105.969L96.1472 107.878L94.5619 110.31L92.5627 112.377L90.7529 114.559L92.53 116.768L94.2416 119.086L96.4629 120.953L97.9851 123.44L100.104 125.397L101.941 127.603L103.655 129.921L105.535 132.09L107.361 134.31L109.433 136.025L111.107 133.961L113.357 132.121L115.211 129.931L116.838 127.534L118.683 125.337L120.921 123.485L122.436 120.991L124.379 118.877L126.507 116.925L128.144 114.559Z" fill="#ECF4FE"/>
<path d="M165.517 114.56L163.82 112.169L161.547 110.349L159.709 108.143L158.021 105.803L155.874 103.873L154.142 101.571L152.507 99.1818L150.27 97.3292L148.64 94.9351L146.711 92.9258L144.938 95.0705L142.75 96.9658L141.134 99.3694L139.189 101.478L137.416 103.742L135.494 105.875L133.596 108.029L131.947 110.404L129.712 112.261L127.886 114.56L129.941 116.653L131.919 118.733L133.78 120.921L135.691 123.063L137.234 125.529L139.25 127.578L141.298 129.599L142.991 131.934L144.815 134.157L146.711 136.333L148.67 134.214L150.277 131.801L152.117 129.597L154.327 127.723L156.206 125.555L158.128 123.422L159.653 120.935L161.472 118.712L163.399 116.579L165.517 114.56Z" fill="#ECF4FE"/>
<path d="M202.956 114.56L201.062 112.202L198.995 110.2L197.11 108.036L195.09 105.991L193.116 103.906L191.44 101.554L189.406 99.5238L187.888 97.03L185.632 95.194L183.992 92.8047L182.19 95.0444L180.413 97.3055L178.491 99.4359L176.648 101.638L174.492 103.561L172.757 105.858L171.039 108.174L168.845 110.064L166.954 112.226L165.242 114.56L167.375 116.518L168.787 119.102L170.964 121.006L172.516 123.465L174.803 125.274L176.353 127.735L178.572 129.604L180.219 131.982L182.323 133.955L183.992 136.487L186.076 134.326L187.694 131.925L189.595 129.775L191.421 127.557L193.486 125.555L195.006 123.066L197.211 121.182L199.114 119.033L200.781 116.667L202.956 114.56Z" fill="#ECF4FE"/>
<path d="M53.3332 158.206L51.9303 155.855L49.6458 154.045L48.002 151.668L46.2203 149.414L44.4012 147.191L42.4604 145.075L40.7044 142.794L38.6701 140.761L36.5985 138.759L34.8705 136.256L33.0701 138.695L31.3187 140.975L29.4061 143.115L27.5378 145.293L25.6041 147.416L23.4342 149.326L21.8208 151.734L19.7094 153.698L18.1568 156.161L15.9893 158.206L18.1919 160.216L19.7866 162.638L21.9634 164.543L23.3851 167.118L25.3843 169.182L27.5986 171.053L29.1301 173.535L31.2533 175.488L33.18 177.618L34.8705 179.76L36.5517 177.613L38.5275 175.53L40.6459 173.573L42.1939 171.11L44.4596 169.284L46.0847 166.89L47.9693 164.724L49.9802 162.669L51.5772 160.256L53.3332 158.206Z" fill="#ECF4FE"/>
<path d="M90.8491 158.207L88.9599 156.079L87.2366 153.771L85.4759 151.495L83.3621 149.533L81.5406 147.315L79.5648 145.23L77.8719 142.893L75.9148 140.793L73.8198 138.812L72.1479 136.197L70.4621 138.796L68.194 140.617L66.6157 143.054L64.8246 145.301L62.7085 147.263L60.8332 149.434L58.8644 151.526L57.1388 153.835L55.3126 156.053L53.6338 158.207L55.1022 160.544L57.0008 162.698L59.2596 164.53L60.742 167.052L62.7506 169.104L64.4739 171.413L66.7606 173.222L68.2641 175.726L70.0505 177.982L72.1479 180.241L74.0419 177.804L75.9897 175.695L77.5586 173.249L79.4596 171.099L81.5289 169.099L83.5702 167.073L85.4946 164.941L86.9396 162.385L88.9926 160.366L90.8491 158.207Z" fill="#ECF4FE"/>
<path d="M128.122 158.206L126.195 156.119L124.517 153.77L122.33 151.874L120.619 149.556L118.928 147.219L117.107 144.999L115.257 142.799L113.328 140.674L111.149 138.769L109.43 136.256L107.457 138.541L105.834 140.937L103.69 142.87L101.901 145.12L99.9393 147.217L98.1155 149.433L96.3431 151.701L94.4819 153.888L92.7609 156.199L90.4414 158.206L92.8007 160.173L94.3276 162.657L96.3034 164.74L98.0921 166.989L99.9814 169.148L101.875 171.305L104.045 173.219L105.928 175.388L107.555 177.782L109.43 179.623L111.523 177.979L113.038 175.488L115.028 173.416L116.98 171.312L118.634 168.942L120.429 166.697L122.711 164.885L124.647 162.764L126.294 160.384L128.122 158.206Z" fill="#ECF4FE"/>
<path d="M165.148 158.207L163.769 155.855L161.655 153.894L159.576 151.901L158.026 149.443L156.151 147.269L154.25 145.118L152.412 142.909L150.471 140.795L148.659 138.562L146.707 136.705L144.972 138.75L143.204 141.021L141.081 142.971L139.157 145.101L137.438 147.412L135.71 149.718L133.688 151.761L131.485 153.644L129.734 155.931L127.912 158.207L129.958 160.28L131.742 162.534L133.776 164.565L135.635 166.752L137.408 169.018L138.967 171.472L140.847 173.642L142.896 175.664L144.68 177.92L146.707 180.226L148.477 177.692L150.261 175.438L152.492 173.583L154.107 171.177L156.025 169.042L157.935 166.902L159.761 164.681L161.636 162.508L163.421 160.261L165.148 158.207Z" fill="#ECF4FE"/>
<path d="M202.897 158.207L200.675 156.191L199.099 153.752L197.187 151.612L195.321 149.429L193.284 147.403L191.734 144.938L189.588 143.005L187.666 140.874L185.975 138.532L183.99 136.68L182.196 138.699L180.094 140.67L178.481 143.076L176.638 145.28L174.52 147.235L172.853 149.593L170.917 151.714L169.046 153.892L167.248 156.136L165.422 158.207L167 160.495L169.147 162.426L170.709 164.877L172.958 166.717L174.382 169.292L176.62 171.142L178.133 173.638L180.344 175.515L182.014 177.873L183.99 180.011L186.085 177.982L187.724 175.6L189.641 173.465L191.407 171.194L193.24 168.983L195.181 166.869L197.049 164.687L198.812 162.414L200.748 160.288L202.897 158.207Z" fill="#ECF4FE"/>
<path d="M53.4603 201.854L51.6856 199.724L49.8384 197.527L47.9608 195.356L46.0879 193.181L44.3576 190.879L42.5407 188.654L40.4013 186.713L38.8066 184.291L36.7583 182.267L34.8737 179.852L32.7973 182.096L31.3125 184.616L29.4583 186.808L27.2253 188.661L25.6096 191.064L23.5987 193.119L21.7492 195.316L19.9978 197.601L18.2488 199.89L16.1748 201.854L18.2021 203.857L19.7266 206.343L21.8333 208.31L23.7577 210.44L25.3243 212.887L27.3633 214.915L29.0585 217.25L31.0413 219.325L32.7669 221.636L34.8737 223.653L36.597 221.299L38.7131 219.34L40.5953 217.174L42.1596 214.725L44.2336 212.727L45.9663 210.428L47.9561 208.355L49.8711 206.217L51.9405 204.206L53.4603 201.854Z" fill="#ECF4FE"/>
<path d="M90.7677 201.853L89.0023 199.692L87.1224 197.521L85.1209 195.461L83.3695 193.177L81.5247 190.98L79.5255 188.916L77.711 186.686L76.1374 184.244L73.9184 182.372L72.153 179.936L70.4952 182.465L68.4913 184.524L66.4547 186.553L64.8881 188.999L63.0152 191.174L60.9646 193.193L59.0542 195.336L56.9615 197.316L55.1166 199.521L53.3115 201.853L55.1049 204.192L57.4058 205.985L58.8134 208.577L60.6629 210.769L62.6083 212.883L64.4439 215.092L66.408 217.186L68.5077 219.16L70.1211 221.568L72.153 223.889L73.8646 221.286L75.9503 219.3L77.8045 217.108L79.8482 215.087L81.7187 212.909L83.1731 210.36L85.2612 208.375L87.2019 206.261L89.138 204.133L90.7677 201.853Z" fill="#ECF4FE"/>
<path d="M127.946 201.853L126.074 199.874L124.638 197.312L122.594 195.288L120.731 193.105L118.919 190.878L116.985 188.754L115.177 186.519L112.956 184.652L111.492 182.111L109.432 180.057L107.421 182.151L105.909 184.648L104.052 186.835L102.043 188.892L100.019 190.932L98.1222 193.086L96.1067 195.136L94.2665 197.34L92.4614 199.577L90.7451 201.853L92.7303 203.883L94.3834 206.254L96.2633 208.422L98.1129 210.617L100.259 212.55L101.931 214.904L103.837 217.051L105.736 219.205L107.407 221.564L109.432 223.917L111.113 221.262L113.237 219.307L115.11 217.132L117.062 215.027L118.701 212.645L120.567 210.465L122.746 208.558L124.184 205.997L126.233 203.976L127.946 201.853Z" fill="#ECF4FE"/>
<path d="M165.203 201.854L163.613 199.645L161.592 197.602L159.977 195.199L157.732 193.353L156.191 190.883L154.166 188.843L152.499 186.484L150.25 184.641L148.72 182.157L146.712 179.768L144.799 182.238L142.91 184.399L141.091 186.622L139.421 188.978L137.275 190.909L135.633 193.291L133.653 195.372L131.944 197.692L129.746 199.583L128.09 201.854L129.64 204.214L131.686 206.236L133.587 208.385L135.287 210.713L137.466 212.617L139.393 214.745L140.927 217.22L142.966 219.251L145.061 221.232L146.712 223.272L148.365 221.234L150.532 219.32L152.515 217.246L154.339 215.028L156.184 212.826L158.036 210.634L159.986 208.523L161.945 206.426L163.374 203.863L165.203 201.854Z" fill="#ECF4FE"/>
<path d="M202.972 201.854L200.771 199.754L199.231 197.282L197.159 195.284L195.349 193.054L193.235 191.092L191.68 188.634L189.838 186.43L187.773 184.425L185.797 182.34L183.992 180.383L181.916 182.093L180.34 184.534L178.561 186.791L176.508 188.805L174.499 190.859L172.755 193.151L170.788 195.246L169.25 197.719L167.201 199.74L164.982 201.854L167.246 203.925L168.803 206.378L171.099 208.178L172.591 210.694L174.868 212.506L176.606 214.803L178.528 216.935L180.022 219.448L181.914 221.612L183.992 223.863L186.034 221.581L187.956 219.448L189.62 217.09L191.449 214.876L193.563 212.914L195.244 210.568L197.316 208.568L199.043 206.264L200.652 203.839L202.972 201.854Z" fill="#ECF4FE"/>
<path d="M53.6778 245.5L51.5406 243.498L49.8337 241.175L48.1923 238.795L46.3427 236.6L44.098 234.755L42.4051 232.42L40.4527 230.313L38.5728 228.145L36.8167 225.863L34.8737 223.668L32.9423 225.87L31.1138 228.086L29.3367 230.344L27.569 232.613L25.502 234.615L23.8208 236.961L21.6533 238.876L19.7874 241.058L18.0735 243.379L16.1748 245.5L18.0033 247.68L19.902 249.832L21.5107 252.243L23.7226 254.114L25.7171 256.18L27.3703 258.553L29.4583 260.539L31.2167 262.817L32.7926 265.258L34.8737 267.172L36.7583 265.089L38.7575 263.026L40.254 260.517L42.6086 258.769L44.2173 256.361L46.2539 254.328L48.0052 252.045L50.0956 250.062L51.903 247.827L53.6778 245.5Z" fill="#ECF4FE"/>
<path d="M90.6993 245.5L88.817 243.5L87.0961 241.191L85.2863 238.961L83.5443 236.669L81.5872 234.569L79.7704 232.344L77.9793 230.092L75.9263 228.076L73.9107 226.026L72.1524 223.834L70.0386 225.706L68.2662 227.971L66.7043 230.422L64.7262 232.503L63.0192 234.826L60.674 236.581L58.925 238.868L57.162 241.141L55.1628 243.208L53.374 245.5L55.3662 247.606L57.0778 249.924L59.1728 251.903L60.8026 254.292L62.7971 256.358L64.8501 258.375L66.4775 260.771L68.32 262.973L70.4244 264.947L72.1524 267.281L73.8827 264.949L75.7065 262.731L77.7992 260.752L79.6394 258.548L81.2809 256.166L83.57 254.361L85.1039 251.881L87.3369 250.026L88.8755 247.559L90.6993 245.5Z" fill="#ECF4FE"/>
<path d="M127.944 245.501L126.158 243.449L124.486 241.093L122.536 238.988L120.6 236.87L118.559 234.844L117.034 232.359L114.953 230.367L113.251 228.039L111.067 226.137L109.432 223.949L107.777 226.115L105.633 228.051L103.718 230.186L102.086 232.576L99.8597 234.438L98.1458 236.753L96.1513 238.822L94.2199 240.948L92.7001 243.439L90.4951 245.501L92.5832 247.664L94.6782 249.641L96.1794 252.146L98.0429 254.329L100.187 256.262L101.997 258.492L103.592 260.917L105.579 262.993L107.667 264.979L109.432 267.473L111.13 264.922L113.4 263.102L115.201 260.86L117.064 258.68L118.601 256.205L120.63 254.17L122.482 251.973L124.624 250.035L126.389 247.757L127.944 245.501Z" fill="#ECF4FE"/>
<path d="M165.054 245.948L163.425 243.635L161.227 241.749L159.513 239.433L157.832 237.089L155.594 235.239L154.147 232.685L152.154 230.612L150.115 228.586L148.334 226.325L146.407 224.496L144.586 226.413L142.75 228.622L140.552 230.507L139.137 233.089L137.049 235.072L135.345 237.398L133.067 239.217L131.541 241.699L129.714 243.922L127.357 245.948L129.478 248.18L131.398 250.316L133.451 252.33L135.198 254.617L137.028 256.828L138.735 259.151L140.872 261.096L142.514 263.476L144.74 265.34L146.407 267.488L148.179 265.435L150.263 263.445L151.86 261.027L153.84 258.949L155.596 256.669L157.418 254.448L159.761 252.688L161.57 250.458L163.476 248.302L165.054 245.948Z" fill="#ECF4FE"/>
<path d="M202.971 245.5L200.943 243.246L199.021 241.116L196.875 239.183L195.376 236.675L193.176 234.791L191.408 232.521L189.528 230.352L187.524 228.293L186.039 225.768L183.991 223.533L182.308 226.091L180.149 228.013L178.489 230.376L176.539 232.483L174.626 234.62L172.765 236.805L171.054 239.128L168.802 240.966L167.044 243.246L165.297 245.5L166.899 247.878L169.234 249.643L170.96 251.949L172.894 254.07L174.416 256.556L176.509 258.535L178.386 260.708L180.086 263.038L182.085 265.104L183.991 267.56L185.735 264.962L187.728 262.893L189.528 260.656L191.331 258.418L193.597 256.592L195.339 254.3L197.237 252.146L198.944 249.823L201.03 247.842L202.971 245.5Z" fill="#ECF4FE"/>
<path d="M53.5662 289.149L51.7681 286.943L49.6754 284.962L48.083 282.537L46.1797 280.39L44.0075 278.48L42.4876 275.991L40.6638 273.771L38.5921 271.773L36.6233 269.678L34.8697 267.686L33.0412 269.609L31.1682 271.785L29.1807 273.861L27.4013 276.115L25.6874 278.433L23.4474 280.281L21.8621 282.713L19.6711 284.608L18.0858 287.04L16.29 289.149L17.88 291.436L19.9657 293.42L21.7124 295.709L23.4567 297.999L25.5471 299.98L27.3616 302.207L29.4099 304.229L30.8713 306.77L32.9921 308.727L34.8697 311.036L36.7239 308.71L38.3677 306.331L40.3505 304.255L42.1907 302.051L44.3348 300.117L45.9833 297.742L47.9474 295.645L49.9256 293.562L51.5904 291.201L53.5662 289.149Z" fill="#ECF4FE"/>
<path d="M90.5784 289.149L89.2479 286.765L87.2441 284.706L85.4366 282.473L83.5403 280.319L81.5902 278.212L79.4648 276.26L77.6152 274.063L75.7212 271.906L74.2645 269.358L72.1484 267.277L70.3386 269.626L68.3839 271.728L66.7728 274.137L64.7082 276.141L62.8235 278.305L60.7659 280.317L59.211 282.775L57.3147 284.931L55.4698 287.133L53.5898 289.149L55.2406 291.365L57.2749 293.396L59.1221 295.593L60.8875 297.864L62.7838 300.018L64.6403 302.208L66.5109 304.386L68.3792 306.566L70.1165 308.865L72.1484 311.136L73.7782 308.509L76.0042 306.649L77.6526 304.274L79.743 302.293L81.7001 300.194L83.407 297.868L85.5068 295.895L86.9214 293.311L88.8224 291.171L90.5784 289.149Z" fill="#ECF4FE"/>
<path d="M127.917 289.148L126.193 287.061L124.521 284.705L122.66 282.52L120.486 280.612L118.928 278.159L116.74 276.264L115.274 273.725L113.153 271.77L111.107 269.746L109.428 267.535L107.686 269.685L105.561 271.639L103.793 273.905L101.754 275.933L100.293 278.472L98.2069 280.458L96.1469 282.472L94.4307 284.785L92.4455 286.864L90.5352 289.148L92.3894 291.478L94.3441 293.58L96.1329 295.832L98.3402 297.708L99.9278 300.136L101.7 302.401L103.893 304.294L105.876 306.373L107.731 308.567L109.428 310.743L111.313 308.736L113.202 306.574L114.872 304.221L116.735 302.036L118.613 299.867L120.766 297.939L122.55 295.685L124.21 293.319L126.238 291.281L127.917 289.148Z" fill="#ECF4FE"/>
<path d="M165.705 289.149L163.563 286.983L161.833 284.682L159.583 282.841L157.965 280.44L156.254 278.122L154.229 276.079L152.328 273.93L150.298 271.892L148.507 269.64L146.709 267.246L144.604 269.365L142.989 271.768L141.193 274.01L139.46 276.309L137.363 278.285L135.56 280.523L133.552 282.58L131.653 284.734L129.937 287.052L127.938 289.149L129.813 291.353L131.884 293.353L133.481 295.773L135.488 297.83L137.174 300.17L139.018 302.369L140.882 304.556L143.089 306.433L144.649 308.891L146.709 311.019L148.664 308.798L150.53 306.616L152.496 304.525L154.371 302.352L155.917 299.887L157.752 297.678L159.716 295.581L161.889 293.674L163.801 291.543L165.705 289.149Z" fill="#ECF4FE"/>
<path d="M202.603 289.15L201.029 286.817L198.92 284.851L197.127 282.606L195.118 280.552L193.112 278.495L191.655 275.949L189.523 274.001L187.673 271.807L185.679 269.736L183.988 267.629L182.26 269.698L180.055 271.579L178.362 273.916L176.436 276.041L174.63 278.276L172.828 280.516L171.121 282.839L169.213 284.984L167.085 286.936L165.259 289.15L167.019 291.418L168.871 293.61L170.957 295.596L172.624 297.954L174.521 300.108L176.522 302.17L178.397 304.345L180.167 306.611L182.106 308.732L183.988 311.212L186.041 308.886L187.94 306.735L189.378 304.174L191.461 302.184L193.145 299.842L195.113 297.752L196.979 295.567L198.922 293.456L201.062 291.508L202.603 289.15Z" fill="#ECF4FE"/>
</g>
<path d="M106.884 221.674C141.733 221.674 169.984 193.363 169.984 158.439C169.984 123.516 141.733 95.2051 106.884 95.2051C72.0349 95.2051 43.7842 123.516 43.7842 158.439C43.7842 193.363 72.0349 221.674 106.884 221.674Z" fill="#92B3DB"/>
<path d="M107.084 46.9145L106.945 46.0743L105.796 46.9599L106.305 45.7631L104.593 44.382L103.274 43.7573L100.876 42.1727L98.3729 38.4483L96.4907 34.4749L92.7384 27.622L93.6866 23.8903L94.4987 23.2106L95.0911 23.8329L97.1547 26.8249L99.4883 30.6044L104.841 26.6215L100.692 23.426L96.2447 20.9893L92.0935 18.9858L86.9773 19.1271L81.8611 18.7489L76.7449 19.8236L76.8094 18.6148L75.2568 16.2811L76.7449 15.7186L82.205 15.2925L87.6652 15.9723L93.1253 15.2207L98.1078 16.755L102.89 19.0241L107.084 23.7707L112.198 19.9457L115.928 16.4367L121.042 15.642L121.969 15.7928L120.992 16.2476L120.342 19.2228L119.757 19.151L114.204 22.2435L108.928 26.5736L114.28 31.3512L117.725 27.2605L119.315 24.1943L119.674 23.5529L120.498 23.8712L121.145 27.5717L118.152 34.7047L116.492 38.9485L112.78 41.6437L110.779 43.5897L110.478 45.4448L108.455 46.6272L108.309 46.8762L107.593 46.4621L107.086 46.9169L107.084 46.9145ZM101.062 33.0028L103.181 36.7225L107.084 38.0868L110.929 36.6698L113.686 32.4978L107.079 28.1869L101.06 33.0004L101.062 33.0028Z" fill="#92B3DB"/>
<path d="M121.043 16.8772L116.421 17.6264L111.892 19.6371L107.084 24.5416L101.794 20.1206L97.7141 17.7102L93.1281 16.0658L87.668 16.9945L82.2078 15.6445L76.5494 15.8193L76.4658 19.2278L81.8615 18.8496L86.9777 19.369L92.0939 19.2182L97.1217 19.7735L100.946 23.7541L105.477 26.49L99.5795 32.1126L97.3868 28.3091L94.9577 24.0341L93.9545 27.4283L96.2356 34.5995L99.1018 37.9218L101.643 41.3854L104.607 44.3654L106.726 45.1553L107.082 46.4527L107.851 45.7561L109.781 44.6287L112.279 41.1365L115.394 38.1612L117.04 34.1663L119.684 27.3421L119.065 23.8163L116.743 28.2876L114.579 32.1221L108.701 26.5115L114.066 22.6793L119.868 19.1943L119.98 18.086M114.699 32.3782L111.467 37.0314L107.084 39.1522L103.423 36.3947L99.7706 32.5697L103.229 29.7094L107.087 27.7705L111.023 29.5251L114.701 32.3782H114.699Z" fill="#92B3DB"/>
<path d="M107.082 46.7687L106.456 46.5724L106.002 46.6155L106.356 45.6532L104.433 44.557L103.196 43.8198L101.127 41.9001L98.6 38.2714L95.7314 34.8318L92.772 27.6055L93.7322 23.9121L94.4965 24.1922L94.8906 24.1299L96.6343 27.1339L100.162 31.8493L105.18 26.5666L99.7322 22.5478L94.3915 19.1512L94.2816 18.9023L92.2561 16.8677L92.1462 15.7571L93.1231 16.2071L97.9121 17.2148L101.932 19.9722L107.079 23.3831L112.155 19.898L115.802 16.1353L121.038 15.2161L126.498 15.027L131.958 16.0826L137.418 14.8164L137.829 16.2717L137.929 18.6055L137.421 19.2661L132.304 18.4786L127.188 18.8209L122.072 19.8071L117.806 20.8244L113.543 23.5172L109.993 26.5571L114.147 31.5717L116.827 26.7078L118.9 23.5531L119.667 23.8331L119.843 24.422L120.001 27.3876L118.544 34.8892L115.649 38.336L113.516 42.3956L111.288 44.2434L109.821 44.6671L108.579 46.8046L107.691 45.7729L108.109 46.9937L107.079 46.7687H107.082ZM100.957 32.9025L103.704 36.244L107.082 38.4724L111.011 36.7371L113.5 32.6488L107.082 28.2852L100.957 32.9049V32.9025Z" fill="#92B3DB"/>
<path d="M95.2579 19.1519L94.7038 18.6133L100.443 22.1846L105.76 26.5099L99.4474 31.905L97.5605 28.1902L94.5199 24.6955L94.3551 27.3476L95.6473 34.8683L98.1051 38.6215L101.069 41.9534L105.103 43.7582L106.061 46.1015L107.081 46.7023L107.707 45.5319L109.157 43.8803L113.06 41.9247L115.252 38.047L118.271 34.7534L120.017 27.3835L119.805 24.9492L117.445 28.7L113.984 33.0061L109.15 26.4021L112.825 23.1971L116.922 19.5923L122.071 18.7594L127.188 19.195L132.304 18.1203L137.377 18.508L137.339 16.4615L131.96 16.2532L126.5 16.9665L121.04 15.8535L116.177 17.0312L111.97 19.7072L107.083 24.4825L102.306 19.5971L97.6775 17.7828L93.125 15.9229M107.081 28.3218L110.628 30.1314L114.574 32.446L111.232 36.8167L107.081 38.9997L103.286 36.5008L99.6504 32.4867L103.422 29.9543L107.079 28.3218H107.081Z" fill="#92B3DB"/>
<path d="M121.041 303.184L115.877 302.993L111.176 300.383L107.082 295.45L101.99 299.383L98.2495 302.902L93.1238 304.089L87.6637 302.911L82.2035 302.882L76.7434 304.307L76.409 303.026L76.0244 300.692L76.741 299.689L81.8572 300.369L86.9734 299.924L92.0896 299.376L96.7543 299.029L100.855 296.113L104.006 292.757L99.8307 288.066L97.0863 292.446L95.2973 295.802L94.4972 295.508L93.4295 295.637L92.9088 291.711L95.2352 284.224L98.2018 280.739L101.08 277.35L102.644 274.774L103.898 274.111L105.991 273.092L106.445 273.479L106.925 273.218L107.077 273.001V272.639L107.971 272.445L107.93 273.072L107.878 273.537L110.321 274.035L110.804 275.677L113.218 277.204L116.531 280.325L118.941 284.217L120.518 291.831L119.844 294.881L119.665 295.276L119.042 295.522L116.918 292.525L114.105 287.638L109.554 292.702L114.895 296.104L119.935 299.914L119.612 300.58L121.678 302.586L121.595 303.32L121.036 303.179L121.041 303.184ZM107.082 291.439L113.032 286.242L110.006 283.461L107.082 280.663L103.105 282.522L101.078 286.307L107.082 291.441V291.439Z" fill="#92B3DB"/>
<path d="M119.697 300.937L119.814 300.193L113.787 297.019L107.821 292.761L114.148 286.53L116.897 290.93L119.245 295.217L120.769 291.794L117.616 284.864L116.052 280.678L112.218 278.239L109.744 274.73L107.412 274.194L107.085 273.418L106.677 274.079L104.367 274.655L101.948 278.234L98.766 281.142L95.7278 284.46L93.7788 291.851L94.985 295.31L96.7167 290.592L99.719 286.992L106.264 292.691L101.183 295.88L96.5638 298.757L92.0949 300.435L86.9787 300.119L81.8625 301.406L76.7559 300.719L76.8848 302.701L82.2041 303.175L87.6642 302.467L93.1244 302.862L97.7151 301.607L101.594 298.989L107.085 293.658L111.666 299.901L116.205 302.208L121.044 302.395M107.083 292.095L103.889 288.675L99.6856 286.789L102.494 282.092L107.083 279.266L111.134 282.569L113.895 286.413L110.164 288.56L107.083 292.095Z" fill="#92B3DB"/>
<path d="M26.2645 160.462L26.2311 159.653L25.1801 153.952L24.8744 148.25L25.9516 142.549L25.6769 136.847L25.1371 131.146L25.8298 125.444L26.1666 119.74L25.0249 114.036L25.087 110.905L25.1801 104.952L26.0161 98.9994L26.3863 93.0465L24.9293 87.0936L25.2112 81.1407L24.8242 75.1878L25.7032 69.2349L24.8935 63.2796L25.1634 57.3267L25.1586 51.3738L25.9874 45.4233L26.0949 44.9924L25.739 38.4962L25.9707 32.0023L25.8776 25.5085L25.7868 25.4486L26.8927 20.659L25.3521 17.4947L26.1928 16.5923L26.4795 15.2447L26.7374 16.3529L30.2151 16.8316L36.6402 16.1159L37.1848 15.7617L44.2333 16.4127L50.41 15.5295L56.5915 16.2643L62.7682 16.1327L68.9377 15.0508L76.0364 15.6779L82.2728 15.9221L82.5045 15.6181L88.7051 16.9178L89.4503 17.3726L88.5785 17.6119L88.8173 18.3061L85.4591 19.1199L82.7385 18.804L82.3014 20.063L76.0483 19.0026L70.5571 18.9931L65.0635 19.1486L59.5723 18.5048L54.0811 19.8548L48.1409 20.0726L42.4897 22.1598L37.512 25.6066L33.6044 30.2478L31.032 35.6885L29.6395 41.481L28.7533 46.115L28.4786 51.7711L28.8154 57.4272L28.3783 63.0857L28.4261 68.7442L29.5391 74.4003L28.4715 80.0588L28.665 85.7173L28.5097 91.3757L29.6084 97.0342L29.9094 102.693L29.2884 108.351L29.5606 114.01L29.1188 119.709L28.5909 125.408L29.3672 131.107L29.2263 136.806L29.0519 142.508L28.8489 148.207L29.9189 153.909L28.5957 159.606L28.7915 159.658L28.4285 160.565L26.2669 160.465L26.2645 160.462ZM29.2788 25.81L28.4786 31.1622L28.8345 30.8342L32.3552 25.3816L30.8672 24.496L29.1785 25.2069L29.2788 25.8077V25.81ZM35.1545 19.4718L35.317 23.9574L40.7078 19.0314L36.7763 19.9577L36.762 18.8782L36.5136 19.1486L35.1545 19.4718Z" fill="#92B3DB"/>
<path d="M82.2465 16.7817L76.0364 16.0277L70.4807 16.0684L64.9322 16.6836L59.3812 17.0091L53.8232 16.4753L48.2675 15.7285L42.7142 16.157L37.1346 17.2341L30.6904 18.3974L26.6801 16.4298L25.4189 17.4471L28.3998 21.071L26.6275 25.5351L26.5153 32.0122L26.1713 38.5061L26.8497 45.0047L26.1976 45.4308L26.6419 51.1491L25.7175 56.8651L25.4213 62.5834L26.083 68.2993L26.4078 74.0177L25.7271 79.7336L25.9468 85.4519L25.6841 91.1702L26.5057 96.8886L26.6419 102.607L25.9611 108.325L26.4269 114.044L26.5296 119.748L26.9906 125.449L25.8584 131.153L26.8616 136.855L27.0216 142.556L26.3385 148.258L25.954 153.959L26.2 159.687L27.7286 160.456L27.9102 160.417L28.3162 159.211L28.3855 159.225L28.4094 159.261L27.8266 159.656L28.2422 159.606L27.9938 153.907L29.2406 148.208L28.1562 142.508L28.1705 136.809L28.2876 131.11L28.9922 125.411L28.0415 119.712L27.9675 114.01L28.1968 108.354L28.0105 102.695L29.1737 97.037L29.2071 91.3785L28.075 85.72L28.9372 80.0615L28.739 74.403L28.3067 68.7445L29.1188 63.0884L27.6665 57.4323L28.2732 51.7762L29.2071 46.1178L27.9627 41.2492L30.2581 35.3968L33.0813 29.9059L37.6314 25.7793L42.6736 22.5168L47.7946 18.8019L54.0668 18.7564L59.558 18.3184L65.054 17.9211L70.5404 18.7445L76.0316 18.2538L82.2465 18.4117L85.471 19.2902L88.3778 17.483L88.4208 17.4735L82.2393 16.7865L82.2465 16.7817ZM28.02 34.2503L28.7151 25.7745L28.7653 25.0181L34.4428 25.3652L30.3345 31.6604L28.0177 34.2503H28.02ZM34.9921 24.7764L34.7819 18.9551L36.7739 18.7995L44.293 18.2897L39.6784 21.5809L34.9921 24.774V24.7764Z" fill="#92B3DB"/>
<path d="M185.75 159.737L184.983 159.643L184.274 154.002L184.334 148.36L185.8 142.718L185.707 137.077L184.828 131.435L184.809 125.793L185.112 120.151L185.573 114.51L185.607 108.868L185.631 103.226L184.458 97.5844L185.53 91.9426L184.981 86.2985L184.835 80.6568L185.812 74.443L184.838 68.2292V62.0154L185.693 60.3997L185.447 55.3252L184.243 50.2484L185.423 45.1716L183.987 41.5476L183.156 36.1788L180.901 31.1594L177.596 26.7001L172.914 23.7488L168.297 20.7161L164.022 19.8975L159.741 18.9568L154.336 19.1411L148.929 18.7006L143.533 19.6126L138.13 18.6025L131.903 18.4637L125.514 17.9467L124.912 17.5972L125.825 17.3578L125.461 16.8911L130.308 15.048L138.118 15.7876L144.937 15.802L151.253 15.3592L157.566 15.2323L163.876 15.4693L170.186 15.3903L176.979 15.5052L177.5 15.0312L183.646 17.6307L187.384 16.2759L187.687 15.5866L188.086 16.5201L187.931 16.8911L186.156 20.8142L186.837 22.1881L188.635 27.2027L189.115 33.2035L188.991 39.2067L188.361 45.2099L188.012 46.0357L188.291 51.7157L188.69 57.3957L189.053 63.0757L188.884 68.7558L188.951 74.4358L188.363 80.1158L188.43 85.7959L188.736 91.4759L187.859 97.1559L189.063 102.836L187.838 108.516L189.273 114.196L188.776 119.876L187.749 125.556L188.755 131.236L189.326 136.916L187.787 142.596L188.296 148.276L188.65 153.959L189.108 159.641L188.583 160.321L187.83 160.62L185.755 159.734L185.75 159.737ZM180.543 25.7283L184.993 31.1426L184.271 27.1836L184.346 25.7379L183.297 24.127L180.543 25.7307V25.7283ZM172.601 19.5528L178.869 23.2317L178.487 19.8951L177.448 19.9645L176.996 18.5068V18.6001L172.601 19.5528Z" fill="#92B3DB"/>
<path d="M131.91 18.3134L138.123 19.4504L143.528 18.3517L148.94 19.3474L154.346 18.9836L159.748 18.998L164.287 18.4738L168.529 20.0775L173.939 22.1528L177.624 26.6647L180.815 31.2126L184.011 35.8514L186.261 41.2202L186.476 45.1697L186.058 50.2465L185.203 55.3234L184.926 60.4002L185.669 65.4651L186.533 70.53L185.532 75.5948L186.299 80.6573L185.915 86.299L185.788 91.9408L186.237 97.5825L185.427 103.224L185.372 108.866L185.248 114.508L186.278 120.149L185.284 125.791L185.585 131.433L185.874 137.075L186.096 142.716L185.611 148.358L186.01 154.002L186.321 159.424L187.137 159.644L188.358 153.801L187.357 147.958L187.821 142.116L187.388 136.273L187.892 130.43L188.68 124.585L188.415 118.74L187.809 113.124L188.27 107.509L187.565 101.891L187.317 96.2732L187.809 90.6554L188.215 85.0376L188.074 79.4198L187.988 73.802L187.866 68.1842L187.816 62.5664L187.981 56.9486L187.911 51.3332L188.504 46.0314L187.319 45.2128L187.747 39.2024L187.606 33.1945L187.825 27.1841L186.285 22.4543L186.347 20.92L187.99 16.9347L187.56 16.5469L183.442 18.4474L177.001 16.6714L171.44 17.1693L165.884 17.0615L160.334 16.1137L154.783 15.6445L149.227 15.9677L143.671 16.1903L138.118 16.2836L130.339 16.207L125.54 17.1381L125.55 17.861L131.903 18.311L131.91 18.3134ZM179.767 25.3147L185.036 25.3865L186.053 27.1889L185.133 33.7929L183.624 29.3168L179.769 25.3147H179.767ZM179.802 18.627L178.766 23.6799L174.657 21.3102L170.609 19.0554L177.005 18.9477L179.802 18.627Z" fill="#92B3DB"/>
<path d="M69.243 303.278L62.9254 302.953L56.5982 304.312H50.2806L43.963 303.431L37.1796 303.338L36.6613 303.992L30.6231 301.385L27.3079 303.814L26.4767 304.317L26.0682 302.78L24.905 301.514L27.2434 298.513L26.9687 297.282L25.1295 292.086L26.0228 286.087L25.8795 280.084L25.9034 274.081L25.4424 273.255L26.3166 267.575L26.3071 261.895L25.4998 256.215L25.3684 250.535L25.0913 244.855L25.3302 239.175L24.8692 233.495L25.2466 227.815L25.2752 222.135L24.8692 216.455L25.2155 210.775L25.6741 205.095L25.0053 199.415L25.5666 193.735L25.9058 188.055L26.0205 182.375L26.0539 176.695L25.5189 171.015L24.7832 165.332L25.7912 159.65L25.9201 159.303L26.2665 159.542L28.4161 159.805L29.1924 159.65L29.3883 165.292L28.2919 170.933L29.2497 176.575L28.6454 182.217L28.9989 187.858L29.2569 193.5L29.9209 199.142L29.6056 204.784L29.8325 210.425L29.2043 216.067L28.6669 221.709L28.7195 227.351L29.4002 232.995L28.3301 238.639L29.682 244.764L28.7314 250.889L29.4217 257.017L29.8922 258.894V263.968L28.4854 269.045L29.2664 274.119L29.3023 277.868L30.5754 283.277L33.7664 287.804L37.1796 291.98L40.7671 296.284L46.0505 298.072L50.2066 299.049L54.4223 300.265L59.8275 300.368L65.2327 300.535L70.6284 299.571L76.0336 299.116L82.2724 300.159L88.7882 301.062L89.918 301.701L88.7835 301.94L88.5781 302.151L83.8249 303.295L76.0455 304.358L76.0383 303.81L69.243 303.281V303.278ZM34.7361 300.143L36.7138 300.755L37.0888 299.35L37.1653 299.324L41.1827 300.001L35.307 295.741L34.7338 300.145L34.7361 300.143ZM28.9368 294.281L30.8644 295.123L32.3691 293.924L29.7394 288.467L28.9607 292.11L28.9368 294.281Z" fill="#92B3DB"/>
<path d="M82.2463 301.211L76.0361 300.093L70.6285 300.512L65.2281 301.515L59.8133 300.179L54.4034 301.417L50.0204 300.038L45.7808 298.812L40.7864 296.268L35.9234 293.245L32.9115 288.367L30.6496 283.256L28.0509 278.055L29.2356 274.12L28.4211 269.048L28.7149 263.971L28.3685 258.894L27.7189 253.829L29.1544 248.767L28.8319 243.702L27.6448 238.639L27.6974 232.998L28.3542 227.356L28.9872 221.714L28.4378 216.073L29.0445 210.431L28.9633 204.789L28.7674 199.147L28.1703 193.506L28.5859 187.864L28.5931 182.222L29.1544 176.58L28.4736 170.939L28.0628 165.295L27.7332 159.909L26.2523 159.65L25.7173 165.493L25.7698 171.336L26.9378 177.179L25.82 183.022L26.9115 188.864L26.2499 194.71L26.035 200.555L26.0588 206.17L25.4307 211.786L26.7682 217.403L26.4291 223.021L26.1329 228.639L26.8948 234.257L26.0899 239.875L26.7037 245.492L26.6058 251.11L26.4553 256.728L27.0166 262.346L25.4713 267.961L26.1162 273.265L26.0182 274.086L25.7364 280.097L26.8972 286.105L26.5604 292.117L26.5748 297.481L28.1512 298.348L26.4697 302.57L26.4243 302.503L30.843 300.495L37.1631 303.147L42.7092 302.53L48.2601 303.365L53.8158 302.491L59.3691 302.647L64.9176 303.741L70.4804 302.329L76.029 302.532L83.8227 303.549L88.079 301.328L88.5735 301.486L82.2391 301.211H82.2463ZM34.6073 294.059L28.9728 294.099L28.5453 292.11L27.7045 284.676L30.425 290.052L34.6073 294.056V294.059ZM34.187 300.816L35.3143 295.387L39.2673 298.35L44.6678 301.338L37.1559 300.213L34.187 300.816Z" fill="#92B3DB"/>
<path d="M138.12 303.705L131.877 304.052L131.681 302.879L125.189 302.965L124.752 301.953L124.852 301.714L125.469 301.266L128.805 300.933L131.428 300.857L131.879 299.813L138.118 299.729L143.612 300.048L149.108 299.519L154.601 299.815L160.09 299.629L165.887 298.743L171.488 296.819L176.052 293.042L180.251 288.862L183.896 283.946L185.212 277.947L185.019 273.218L184.312 267.562L185.265 261.906L185.201 256.249L185.597 250.593L185.184 244.937L184.513 239.279L185.597 233.62L185.119 227.964L184.553 222.308L184.431 216.652L184.355 210.996L185.798 205.34L184.302 199.638L184.491 193.937L185.704 188.233L184.728 182.531L185.645 176.827L184.357 171.126L184.885 165.424L185.413 159.725L185.394 159.672L185.752 158.609L187.902 158.937L188.845 159.672L188.614 165.374L189.38 171.075L188.217 176.777L188.695 182.478L188.774 188.18L188.554 193.882L188.75 199.586L188.986 205.29L187.847 208.741L188.012 214.663L188.363 220.587L188.63 226.509L189.388 232.433L187.959 238.357L187.799 244.281L188.953 250.206L188.64 256.13L188.793 262.054L188.212 267.978L188.537 273.9L188.599 274.333L189.218 280.832L189.376 287.328L188.829 293.82L188.325 293.867L187.032 298.588L189.266 301.529L189.015 303.291L187.687 303.846V303.169L187.212 303.296L183.872 302.293L177.524 303.025L176.984 303.107L169.931 303.7L163.761 303.633L157.589 302.853L151.429 304.375L145.257 303.954L138.128 303.935L138.123 303.964L138.118 303.71L138.12 303.705ZM178.873 295.981L173.459 300.289L177.388 300.826L177.426 299.624L177.646 299.82L178.983 299.827L178.873 295.979V295.981ZM181.099 293.74L183.297 294.037L185.368 294.648L184.565 293.501L184.787 288.161L185.112 288.362L181.102 293.74H181.099Z" fill="#92B3DB"/>
<path d="M185.614 298.206L187.355 293.777L187.076 287.307L188.043 280.818L188.471 274.322L187.895 273.894L188.277 268.178L187.869 262.459L188.451 256.741L187.126 251.025L187.202 245.307L188.614 239.591L187.756 233.873L188.74 228.154L187.078 222.436L187.386 216.718L187.403 210.999L187.224 205.281L187.637 199.577L188.459 193.875L187.389 188.171L187.888 182.47L187.341 176.768L187.503 171.067L188.079 165.365L187.797 159.716L186.433 159.515L186.252 160.14L185.846 159.221L185.776 159.915L185.752 160.439L185.351 159.661L185.392 159.716L185.208 165.418L185.963 171.119L185.449 176.821L185.289 182.522L186.318 188.224L185.084 193.926L186.015 199.627L185.363 205.331L186.498 210.987L185.313 216.643L185.783 222.299L186.557 227.956L186.416 233.612L185.583 239.268L186.524 244.924L185.963 250.58L185.769 256.236L184.936 261.892L185.115 267.546L185.881 273.2L185.033 277.905L183.689 283.837L181.575 289.761L176.609 293.627L172.267 298.222L166.026 299.264L160.095 300.319L154.611 300.214L149.113 301.121L143.619 301.413L138.133 300.994L131.927 301.322L128.832 301.092L126.104 302.282L125.598 302.136L131.908 303.021L138.13 303.242L143.679 302.339L149.239 303.481L154.788 302.923L160.343 303.385L165.897 302.947L171.45 302.287L177.018 302.394L183.765 301.681L187.821 302.373L187.756 302.526L185.614 298.198V298.206ZM186.264 285.048L186.158 293.56L185.951 295.168L180.209 293.883L184.876 288.234L186.261 285.05L186.264 285.048ZM177.385 301.296L169.788 301.126L174.397 297.602L178.979 295.082L179.129 300.161L177.388 301.296H177.385Z" fill="#92B3DB"/>
<path d="M121.039 303.94L116.281 302.023L111.568 300.003L107.08 294.897L102.059 299.469L98.362 303.189L93.124 304.338L92.8183 303.205L92.042 302.303L93.7068 300.022L94.4854 300.28L99.0284 295.783L104.627 292.724L99.5539 288.592L97.0531 292.432L94.9703 295.314L94.495 295.448L93.7569 295.378L93.8501 291.886L95.866 284.55L98.6821 281.105L101.558 277.86L103.526 275.909L104.565 274.92L105.974 273.084L106.335 273.283L106.516 272.807L107.075 272.096V272.428L107.4 273.053L108.236 272.579L108.009 273.333L109.414 275.121L111.067 275.339L113.488 276.943L115.865 280.82L118.889 284.258L120.086 291.917L120.167 295.175L119.663 295.132L119.445 294.912L116.656 292.712L113.895 287.283L110.219 292.781L113.837 295.39L117.654 298.701L122.068 300.575L127.184 299.981L132.3 299.371L137.417 300.73L138.721 300.714L137.326 303.047L137.417 302.94L131.956 303.294L126.511 304.522L121.034 303.945L121.039 303.94ZM107.08 290.706L113.818 286.941L110.417 283.102L107.078 280.107L103.177 282.601L101.271 286.12L107.078 290.708L107.08 290.706Z" fill="#92B3DB"/>
<path d="M93.1221 303.255L98.2239 302.853L102.452 299.861L107.081 293.417L112.139 299.428L116.324 301.917L121.039 303.597L126.499 302.908L131.959 302.975L137.515 303.257L137.169 301.256L132.303 300.888L127.187 300.974L122.071 300.364L117.583 298.793L113.205 295.579L107.754 292.673L114.065 286.421L116.842 290.964L119.625 294.629L120.635 291.818L117.664 284.843L115.202 281.291L112.228 278.228L109.032 275.566L107.933 273.436L107.078 274.096L106.364 273.641L105.203 275.662L101.422 277.708L98.372 280.87L96.3872 284.791L94.7104 292.008L94.2972 294.265L97.3712 290.997L99.5376 287.254L105.282 292.809L99.7215 296.12L94.6077 300.565L95.1093 300.289M100.149 286.502L103.639 283.122L107.081 280.425L111.757 282.029L114.12 286.574L110.74 289.339L107.078 291.206L103.443 289.296L100.147 286.505L100.149 286.502Z" fill="#92B3DB"/>
<path d="M173.736 154.639L171.753 153.763L171.357 150.893L171.512 147.999L170.423 145.318L170.499 142.377L169.548 139.677L168.08 137.175L167.461 134.375L166.281 131.787L164.963 129.272L163.076 127.084L162.285 124.255L160.919 121.737L158.927 119.666L156.854 117.701L154.895 115.669L153.089 113.491L151.071 111.542L149.201 109.41L147.104 107.514L144.729 105.977L142.09 104.874L140.177 102.602L137.456 101.69L135.02 100.264L132.364 99.3085L129.837 98.0327L126.968 97.7479L124.327 96.8096L121.683 95.7947L118.819 95.8163L116.098 95.0814L113.325 94.5884L110.531 94.0977L107.703 95.0144L104.884 94.2987L102.054 94.2676L99.2593 94.7128L96.4743 95.1628L93.7657 95.9814L91.0308 96.6253L88.468 97.8413L85.628 98.1931L83.144 99.5551L80.5859 100.692L78.2188 102.21L75.3335 102.786L73.2603 104.79L71.0199 106.468L68.3686 107.602L66.0947 109.283L64.4037 111.621L62.0462 113.223L60.0924 115.221L58.8241 117.809L56.5144 119.515L54.5296 121.536L53.6171 124.293L51.7398 126.414L50.1538 128.745L49.5447 131.567L48.2955 134.059L46.8529 136.498L46.0145 139.176L45.1928 141.86L44.825 144.653L44.8585 147.497L43.829 150.149L43.4421 152.844L40.5352 154.852L39.1093 156.772L38.29 158.979L38.3259 161.609L40.6165 162.945L44.0129 164.714L43.6379 167.835L44.0846 170.6L45.3577 173.182L45.7112 175.954L45.9237 178.807L47.4787 181.227L48.3529 183.872L49.7454 186.292L50.2016 189.184L51.52 191.666L53.2541 193.892L54.5128 196.427L56.9252 198.117L58.1649 200.699L60.5295 202.329L62.5478 204.228L63.7922 206.997L66.0064 208.773L68.3017 210.434L70.8574 211.712L73.2245 213.213L75.2953 215.226L77.7555 216.624L80.4449 217.553L83.175 218.314L85.843 219.152L88.2817 220.688L90.8851 221.852L93.866 221.485L96.4981 222.608L99.2831 223.01L102.061 223.532L104.887 223.465L107.698 223.807L110.509 223.463L113.347 223.664L116.067 222.656L118.824 222.187L121.621 221.897L124.377 221.344L127.011 220.351L129.796 219.817L132.297 218.489L135.099 217.862L137.604 216.547L140.084 215.19L142.456 213.651L144.608 211.803L147.003 210.31L148.952 208.246L151.513 206.892L153.366 204.74L155.33 202.684L157.131 200.484L159.323 198.591L160.202 195.711L162.058 193.552L163.606 191.173L165.342 188.877L166.474 186.252L167.831 183.726L168.087 180.777L169.494 178.255L170.404 175.547L170.97 172.747L171.364 169.922L171.383 167.057L171.779 164.199L173.776 163.402L175.295 161.315L176.148 158.976L175.302 156.633L173.728 154.646L173.736 154.639ZM162.65 171.402L162.08 174.243L161.117 176.974L160.334 179.772L158.659 182.197L158.203 185.194L156.932 187.829L155.313 190.263L153.13 192.279L151.656 194.802L149.626 196.882L148.066 199.416L145.434 200.96L143.294 203.012L140.767 204.575L138.572 206.602L135.837 207.801L133.577 209.853L130.726 210.781L127.84 211.526L125.285 213.175L122.457 214.12L119.547 214.774L116.54 214.819L113.593 215.037L110.657 215.279L107.712 216.114L104.743 215.714L101.825 215.083L98.9225 214.563L95.8724 214.786L93.0682 213.737L90.3764 212.438L87.5221 211.679L84.9138 210.286L81.8518 209.831L79.4895 207.959L76.8884 206.54L74.2587 205.118L72.238 202.878L70.0095 200.939L68.0629 198.708L66.0446 196.585L63.8113 194.627L62.3925 192.008L59.8273 190.191L58.3225 187.616L57.637 184.617L55.7286 182.254L54.4173 179.573L53.4929 176.737L52.7143 173.862L52.1028 170.916L52.3441 167.835L51.0758 164.987L51.6084 161.944L50.6984 158.974L50.8274 155.963L51.1665 152.971L52.1171 150.079L51.9189 146.996L52.9507 144.15L54.1139 141.414L55.2437 138.695L56.235 135.924L57.6896 133.362L58.3368 130.346L59.9992 127.876L62.3424 125.909L64.0072 123.489L65.715 121.071L67.9817 119.166L69.7301 116.708L72.1353 114.951L74.5883 113.29L76.7523 111.202L79.2316 109.541L82.0906 108.586L84.7825 107.37L87.503 106.226L90.2785 105.218L93.0515 104.156L95.9416 103.497L98.8269 102.779L101.758 102.219L104.765 102.638L107.712 102.305L110.674 102.339L113.614 102.707L116.531 103.189L119.514 103.344L122.328 104.323L125.089 105.391L127.828 106.468L130.546 107.583L133.618 108.028L136.202 109.527L138.326 111.736L140.915 113.182L143.662 114.494L145.15 117.311L147.469 119.14L149.755 120.959L151.532 123.257L153.342 125.521L154.754 128.063L156.667 130.284L158.43 132.644L159.185 135.519L160.348 138.178L161.547 140.835L162.557 143.578L163.111 146.448L163.749 149.541L163.458 152.751L164.516 155.817L163.699 158.979L164.65 162.148L164.27 165.296L163.245 168.333L162.655 171.409L162.65 171.402Z" fill="#4678B7"/>
<path d="M173.736 154.639L171.753 153.763L171.357 150.893L171.512 147.999L170.423 145.318L170.499 142.377L169.548 139.677L168.08 137.175L167.461 134.375L166.281 131.787L164.963 129.272L163.076 127.084L162.285 124.255L160.919 121.737L158.927 119.666L156.854 117.701L154.895 115.669L153.089 113.491L151.071 111.542L149.201 109.41L147.104 107.514L144.729 105.977L142.09 104.874L140.177 102.602L137.456 101.69L135.02 100.264L132.364 99.3085L129.837 98.0327L126.968 97.7479L124.327 96.8096L121.683 95.7947L118.819 95.8163L116.098 95.0814L113.325 94.5884L110.531 94.0977L107.703 95.0144L104.884 94.2987L102.054 94.2676L99.2593 94.7128L96.4743 95.1628L93.7657 95.9814L91.0308 96.6253L88.468 97.8413L85.628 98.1931L83.144 99.5551L80.5859 100.692L78.2188 102.21L75.3335 102.786L73.2603 104.79L71.0199 106.468L68.3686 107.602L66.0947 109.283L64.4037 111.621L62.0462 113.223L60.0924 115.221L58.8241 117.809L56.5144 119.515L54.5296 121.536L53.6171 124.293L51.7398 126.414L50.1538 128.745L49.5447 131.567L48.2955 134.059L46.8529 136.498L46.0145 139.176L45.1928 141.86L44.825 144.653L44.8585 147.497L43.829 150.149L43.4421 152.844L40.5352 154.852L39.1093 156.772L38.29 158.979L38.3259 161.609L40.6165 162.945L44.0129 164.714L43.6379 167.835L44.0846 170.6L45.3577 173.182L45.7112 175.954L45.9237 178.807L47.4787 181.227L48.3529 183.872L49.7454 186.292L50.2016 189.184L51.52 191.666L53.2541 193.892L54.5128 196.427L56.9252 198.117L58.1649 200.699L60.5295 202.329L62.5478 204.228L63.7922 206.997L66.0064 208.773L68.3017 210.434L70.8574 211.712L73.2245 213.213L75.2953 215.226L77.7555 216.624L80.4449 217.553L83.175 218.314L85.843 219.152L88.2817 220.688L90.8851 221.852L93.866 221.485L96.4981 222.608L99.2831 223.01L102.061 223.532L104.887 223.465L107.698 223.807L110.509 223.463L113.347 223.664L116.067 222.656L118.824 222.187L121.621 221.897L124.377 221.344L127.011 220.351L129.796 219.817L132.297 218.489L135.099 217.862L137.604 216.547L140.084 215.19L142.456 213.651L144.608 211.803L147.003 210.31L148.952 208.246L151.513 206.892L153.366 204.74L155.33 202.684L157.131 200.484L159.323 198.591L160.202 195.711L162.058 193.552L163.606 191.173L165.342 188.877L166.474 186.252L167.831 183.726L168.087 180.777L169.494 178.255L170.404 175.547L170.97 172.747L171.364 169.922L171.383 167.057L171.779 164.199L173.776 163.402L175.295 161.315L176.148 158.976L175.302 156.633L173.728 154.646L173.736 154.639ZM162.65 171.402L162.08 174.243L161.117 176.974L160.334 179.772L158.659 182.197L158.203 185.194L156.932 187.829L155.313 190.263L153.13 192.279L151.656 194.802L149.626 196.882L148.066 199.416L145.434 200.96L143.294 203.012L140.767 204.575L138.572 206.602L135.837 207.801L133.577 209.853L130.726 210.781L127.84 211.526L125.285 213.175L122.457 214.12L119.547 214.774L116.54 214.819L113.593 215.037L110.657 215.279L107.712 216.114L104.743 215.714L101.825 215.083L98.9225 214.563L95.8724 214.786L93.0682 213.737L90.3764 212.438L87.5221 211.679L84.9138 210.286L81.8518 209.831L79.4895 207.959L76.8884 206.54L74.2587 205.118L72.238 202.878L70.0095 200.939L68.0629 198.708L66.0446 196.585L63.8113 194.627L62.3925 192.008L59.8273 190.191L58.3225 187.616L57.637 184.617L55.7286 182.254L54.4173 179.573L53.4929 176.737L52.7143 173.862L52.1028 170.916L52.3441 167.835L51.0758 164.987L51.6084 161.944L50.6984 158.974L50.8274 155.963L51.1665 152.971L52.1171 150.079L51.9189 146.996L52.9507 144.15L54.1139 141.414L55.2437 138.695L56.235 135.924L57.6896 133.362L58.3368 130.346L59.9992 127.876L62.3424 125.909L64.0072 123.489L65.715 121.071L67.9817 119.166L69.7301 116.708L72.1353 114.951L74.5883 113.29L76.7523 111.202L79.2316 109.541L82.0906 108.586L84.7825 107.37L87.503 106.226L90.2785 105.218L93.0515 104.156L95.9416 103.497L98.8269 102.779L101.758 102.219L104.765 102.638L107.712 102.305L110.674 102.339L113.614 102.707L116.531 103.189L119.514 103.344L122.328 104.323L125.089 105.391L127.828 106.468L130.546 107.583L133.618 108.028L136.202 109.527L138.326 111.736L140.915 113.182L143.662 114.494L145.15 117.311L147.469 119.14L149.755 120.959L151.532 123.257L153.342 125.521L154.754 128.063L156.667 130.284L158.43 132.644L159.185 135.519L160.348 138.178L161.547 140.835L162.557 143.578L163.111 146.448L163.749 149.541L163.458 152.751L164.516 155.817L163.699 158.979L164.65 162.148L164.27 165.296L163.245 168.333L162.655 171.409L162.65 171.402Z" fill="#C3DCFB" stroke="#A2BFE2" stroke-width="1.91489" stroke-miterlimit="10"/>
<mask id="mask1_2544_40833" style="mask-type:luminance" maskUnits="userSpaceOnUse" x="47" y="83" width="122" height="132">
<mask id="mask2_2544_40833" style="mask-type:luminance" maskUnits="userSpaceOnUse" x="38" y="83" width="138" height="138">
<path d="M106.882 221C144.708 221 175.372 190.27 175.372 152.363C175.372 114.456 144.708 83.7266 106.882 83.7266C69.0552 83.7266 38.3909 114.456 38.3909 152.363C38.3909 190.27 69.0552 221 106.882 221Z" fill="white"/>
</mask>
<g mask="url(#mask2_2544_40833)">
<path d="M107.81 214.788C141.211 214.788 168.288 185.262 168.288 148.839C168.288 112.417 141.211 82.8906 107.81 82.8906C74.4098 82.8906 47.3333 112.417 47.3333 148.839C47.3333 185.262 74.4098 214.788 107.81 214.788Z" fill="white"/>
</g>
</mask>
<g mask="url(#mask1_2544_40833)">
<path d="M156.992 152.811L154.71 151.124L151.975 150.232L149.359 149.132L147.291 147.073L144.337 146.562L141.823 145.282L139.481 143.703L136.808 142.696L134.68 140.734L132.201 139.93L130.982 137.728L129.42 135.863L127.872 133.296L126.385 130.701L126.082 127.581L123.851 125.315L123.066 122.412L121.876 120.034L120.35 117.804L119.417 115.315L117.975 113.051L117.274 110.458L116.48 107.897L114.604 105.538L112.029 103.97L109.447 102.685L106.733 101.199L103.948 102.708L101.407 103.99L98.6736 105.41L97.7042 108.215L96.2262 110.627L94.5922 112.971L93.4932 115.552L92.8478 118.332L90.7747 120.484L90.3452 123.362L88.2792 125.516L87.1011 128.065L86.1773 130.724L85.3543 133.426L83.9986 135.893L82.0983 137.532L80.8194 139.561L78.9046 141.138L76.2293 142.137L73.825 143.611L71.3632 144.981L68.7622 146.104L66.1492 147.208L63.8721 148.908L61.5015 150.44L58.7253 151.266L56.2515 152.619L53.8257 154.075L51.7526 156.033L50.2097 158.459L49.917 161.278L50.0274 164.048L50.56 166.81L52.0141 169.277L54.3752 170.968L56.8922 172.223L59.0757 173.62L61.5591 174.419L64.0281 175.245L66.2428 176.582L68.4647 177.91L71.0897 178.999L72.7861 181.194L73.5227 183.81L74.5904 186.243L74.6552 188.913L75.2455 191.46L75.4014 194.068L74.8736 196.579L74.744 199.402L74.1129 202.118L73.8826 204.927L72.3302 207.43L72.4717 210.327L71.7567 213.024L70.9865 215.71L69.494 218.225L69.6908 221.137L68.1431 223.641L68.0016 226.471L67.5985 229.241L66.7083 231.898L65.7485 234.538L64.7575 237.172L64.6496 240.013L63.7066 242.549L66.4611 243.103L69.3333 242.704L72.2054 242.855L75.0775 242.544L77.9497 242.893L80.8218 242.204L83.6939 242.524L86.566 242.772L89.4382 242.672L92.3103 243.042L95.1824 242.955L98.0546 243.051L100.929 243.101L103.801 242.702L106.676 242.38L109.548 243.062L112.42 243.035L115.292 242.081L118.164 242.877L121.036 242.129L123.909 242.745L126.781 242.791L129.653 242.334L132.525 243.199L135.397 242.104L138.269 243.094L141.144 242.914L144.016 242.405L146.89 242.521L150.18 242.937L148.817 239.99L148.678 237.161L147.685 234.527L146.492 231.941L146.156 229.155L145.647 226.411L144.517 223.81L144.546 220.939L143.879 218.23L142.718 215.635L141.7 213.008L141.748 210.133L140.947 207.456L140.191 204.767L138.912 202.2L138.679 199.388L137.818 196.72L137.864 194.068L137.626 191.421L138.029 188.799L138.703 186.227L140.167 183.942L141.336 181.63L142.173 178.915L144.688 177.504L147.248 176.863L149.71 176.021L152.107 175.053L154.456 173.98L156.39 172.079L158.799 170.758L161.045 169.069L162.799 166.81L162.861 163.982L163.674 161.257L162.95 158.523L161.304 156.218L159.855 153.733L156.992 152.811Z" fill="url(#paint0_linear_2544_40833)"/>
<path d="M120.408 156.199C120.06 154.655 118.151 154.435 117.241 154.518C115.969 154.671 115.942 155.807 115.815 157.492C115.688 159.178 115.178 158.46 116.325 161.301C117.472 164.142 119.93 163.56 120.807 162.464C121.684 161.367 120.776 161.039 121.074 158.955C121.372 156.871 120.843 158.13 120.408 156.199Z" fill="#A2BFE2"/>
<path d="M98.4548 156.43C98.1068 154.885 96.1983 154.666 95.2875 154.749C94.0162 154.901 93.989 156.037 93.8618 157.723C93.7346 159.409 93.2252 158.69 94.3719 161.531C95.5185 164.372 97.9769 163.791 98.8539 162.694C99.7308 161.598 98.823 161.27 99.1207 159.186C99.4184 157.102 98.8898 158.36 98.4548 156.43Z" fill="#A2BFE2"/>
<path d="M104.093 164.445C104.715 164.837 104.553 165.133 105.959 165.462C106.287 165.586 106.622 165.547 106.95 165.545C107.721 165.541 108.5 165.542 109.251 165.35C109.855 165.196 110.361 164.893 110.911 164.563C111.001 164.509 111.204 164.312 111.237 164.168" stroke="#A2BFE2" stroke-width="2.91404" stroke-linecap="round"/>
<path d="M155.497 148.49L153.008 147.085L150.423 145.865L147.903 144.523L145.337 143.267L142.694 142.156L140.444 140.295L137.723 139.33L135.404 137.596L134.294 136.355L133.512 133.602L131.69 131.347L130.635 128.722L129.916 125.936L127.967 123.74L127.424 121.232L126.307 118.999L125.147 115.769L123.751 112.648L122.18 109.614L120.877 106.801L119.083 104.258L116.912 102.712L114.554 101.596L112.598 99.5986L109.877 99.1992L107.201 99.2488L107.048 99.5639L104.509 99.807L101.859 99.9782L99.4654 101.149L97.3061 102.73L95.001 104.223L93.1716 106.788L92.1793 109.803L90.7374 112.358L89.4341 114.978L88.4848 117.769L86.8085 120.21L85.644 122.899L84.9816 125.832L83.3317 128.288L82.6095 131.19L81.335 133.827L80.5435 136.695L78.9533 138.008L76.0551 138.628L74.044 140.945L71.1817 141.635L68.745 143.138L66.4184 144.855L64.0391 146.47L61.3752 147.547L58.7903 148.77L56.7003 150.792L54.4023 152.481L52.7715 154.863L51.748 157.56L50.2439 160.043L49.1894 162.839L48.9192 165.838L49.6461 168.761L50.1937 171.681L52.0732 174.005L53.245 176.658L55.3516 178.58L57.1546 180.915L59.8807 181.86L62.2098 183.584L64.7182 184.911L67.3892 185.889L69.9144 187.177L71.1841 190.27L72.3606 193.552L71.4232 196.919L71.8034 199.926L70.4452 202.57L69.9981 205.411L69.4122 208.222L69.1061 211.095L69.142 214.042L67.4585 216.741L66.9253 219.686L66.3394 222.621L66.3634 225.687L65.811 228.63L65.4475 231.612L64.8066 234.534L64.2304 237.472L62.8386 240.233L63.0395 243.336L62.6713 246.321L61.8056 249.199L61.478 252.657L63.5489 255.361L65.7871 257.783L69.0105 258.309L71.8297 259.16L74.649 258.606L77.4683 258.586L80.2876 259.018L83.1069 258.5L85.9262 258.844L88.7454 258.693L91.5647 259.199L94.3816 258.527L97.1985 259.189L100.018 258.003L102.835 258.988L105.654 258.604L108.473 259.075L111.293 259.142L114.112 258.316L116.931 258.624L119.75 258.567L122.57 258.452L125.389 258.832L128.208 258.006L131.028 259.105L133.847 258.343L136.666 259.145L139.485 258.668L142.307 259.035L145.129 258.517L148.343 257.763L150.669 255.428L152.611 252.645L152.919 249.075L152.104 246.189L150.927 243.381L150.767 240.354L150.602 237.33L149.44 234.519L148.725 231.612L148.211 228.662L147.879 225.672L147.331 222.728L146.487 219.85L146.238 216.841L145.11 214.02L145.287 211.045L144.273 208.326L143.859 205.478L143.706 202.573L142.262 199.946L142.166 197.028L142.252 193.609L142.448 190.116L144.297 187.298L146.647 185.656L149.407 184.877L151.599 182.855L154.352 182.056L156.724 180.513L159.314 179.158L161.191 176.893L162.879 174.464L163.587 171.549L164.617 168.786L164.299 165.814L164.672 162.876L163.558 160.145L162.432 157.537L161.107 155.049L159.947 152.275L157.96 150.085L155.497 148.49ZM151.37 175.534L148.744 176.747L145.722 177.092L143.431 179.042L140.834 180.322L138.251 181.622L137.207 184.418L135.509 186.824L134.657 189.643L134.574 192.6L134.942 195.507L134.519 198.432L135.683 201.422L135.549 204.692L136.948 207.631L137.204 210.817L137.537 213.987L138.73 216.684L138.388 219.711L138.945 222.544L140.361 225.194L140.138 228.193L141.331 230.89L142.08 233.681L142.489 236.544L142.996 239.387L143.713 242.185L144.103 245.056L144.598 247.904L145.562 251.114L142.312 250.367L139.493 251.144L136.673 251.216L133.854 250.325L131.035 251.104L128.215 250.764L125.396 251.345L122.577 250.791L119.76 251.102L116.943 250.494L114.124 251.007L111.307 250.31L108.488 251.126L105.668 250.514L102.849 251.077L100.03 251.032L97.2105 251.054L94.3912 250.861L91.5719 250.402L88.7526 250.258L85.9333 251.273L83.1141 251.293L80.2948 251.092L77.4755 250.494L74.6562 250.174L71.8345 251.164L68.9029 250.844L70.0291 248.013L70.5456 245.172L70.8111 242.277L71.4758 239.466L71.7939 236.581L72.528 233.785L73.5084 231.041L73.3051 228.044L73.9604 225.233L74.8116 222.462L75.211 219.594L75.3162 216.662L76.6864 214L77.3583 210.906L77.6955 207.738L77.7146 204.503L78.982 201.533L78.9437 198.291L79.4602 195.505L79.3789 192.622L78.9676 189.762L77.9848 187.057L76.8729 184.452L75.871 181.642L73.3841 180.166L70.5743 179.354L68.0133 178.002L65.8373 175.797L63.1017 174.822L60.5741 173.477L59.2159 170.885L58.0968 168.349L56.7864 165.618L57.9366 162.814L58.092 159.721L60.4809 157.909L62.7143 156.275L64.833 154.161L67.2457 152.61L69.8761 151.481L72.3917 150.129L74.7088 148.395L77.6142 147.785L80.0198 146.215L82.2484 144.307L84.8908 142.429L86.622 139.618L87.9181 136.993L89.7498 134.626L90.3882 131.684L91.2921 128.871L92.911 126.402L93.5686 123.47L95.3238 121.066L96.6892 118.476L97.2152 115.479L98.4778 112.834L99.9987 110.448L102.266 108.87L104.645 107.786L107.125 107.049L109.793 107.121L112.228 108.478L114.066 110.594L115.15 113.152L116.821 115.697L118.177 118.401L118.913 121.401L119.918 124.271L121.24 126.99L122.57 129.483L124.31 131.778L124.748 134.698L126.353 137.058L126.869 139.94L129.227 142.466L131.556 144.977L134.32 145.852L136.963 146.959L139.246 148.753L141.886 149.869L143.95 152.089L146.535 153.312L149.364 154.069L151.64 155.883L153.544 158.046L156.028 159.74L157.293 162.539L157.102 165.613L156.372 168.453L154.954 170.902L153.295 173.145L151.372 175.539L151.37 175.534Z" fill="#C3DCFB" stroke="#A2BFE2" stroke-width="1.91489" stroke-miterlimit="10"/>
</g>
<path d="M120.382 220.223L118.176 222.687L114.881 223.54L112.53 225.802L111.159 228.782L110.293 231.88L106.867 233.967L104.344 231.419L101.856 229.246L100.374 226.513L98.9217 223.459L96.1379 221.782L92.9727 220.968L91.7002 217.816L93.2877 215.285L95.781 213.292L98.3088 211.452L99.9997 208.795L101.715 206.294L104.056 204.062L106.867 202.854L109.092 204.361L110.591 207.212L113.165 209.281L114.827 212.152L118.447 212.52L120.32 215.532L123.503 217.816L120.382 220.223Z" fill="#4678B7"/>
<path d="M120.382 220.223L118.176 222.687L114.881 223.54L112.53 225.802L111.159 228.782L110.293 231.88L106.867 233.967L104.344 231.419L101.856 229.246L100.374 226.513L98.9217 223.459L96.1379 221.782L92.9727 220.968L91.7002 217.816L93.2877 215.285L95.781 213.292L98.3088 211.452L99.9997 208.795L101.715 206.294L104.056 204.062L106.867 202.854L109.092 204.361L110.591 207.212L113.165 209.281L114.827 212.152L118.447 212.52L120.32 215.532L123.503 217.816L120.382 220.223Z" fill="#C3DCFB" stroke="#A2BFE2" stroke-width="1.91489" stroke-miterlimit="10"/>
<path d="M112.488 219.016C110.376 220.091 109.146 221.324 108.074 223.44C107.579 224.416 106.189 224.416 105.695 223.44C104.622 221.324 103.392 220.091 101.281 219.016C100.306 218.521 100.306 217.128 101.281 216.632C103.392 215.558 104.622 214.325 105.695 212.209C106.189 211.232 107.579 211.232 108.074 212.209C109.146 214.325 110.376 215.558 112.488 216.632C113.462 217.128 113.462 218.521 112.488 219.016Z" fill="#286BA8"/>
<path d="M112.488 219.016C110.376 220.091 109.146 221.324 108.074 223.44C107.579 224.416 106.189 224.416 105.695 223.44C104.622 221.324 103.392 220.091 101.281 219.016C100.306 218.521 100.306 217.128 101.281 216.632C103.392 215.558 104.622 214.325 105.695 212.209C106.189 211.232 107.579 211.232 108.074 212.209C109.146 214.325 110.376 215.558 112.488 216.632C113.462 217.128 113.462 218.521 112.488 219.016Z" fill="#A2BFE2"/>
<defs>
<filter id="filter0_d_2544_40833" x="0.287109" y="0" width="213.975" height="331.438" filterUnits="userSpaceOnUse" color-interpolation-filters="sRGB">
<feFlood flood-opacity="0" result="BackgroundImageFix"/>
<feColorMatrix in="SourceAlpha" type="matrix" values="0 0 0 0 0 0 0 0 0 0 0 0 0 0 0 0 0 0 127 0" result="hardAlpha"/>
<feOffset dy="8"/>
<feGaussianBlur stdDeviation="6"/>
<feComposite in2="hardAlpha" operator="out"/>
<feColorMatrix type="matrix" values="0 0 0 0 0.123511 0 0 0 0 0.195372 0 0 0 0 0.35376 0 0 0 0.4 0"/>
<feBlend mode="normal" in2="BackgroundImageFix" result="effect1_dropShadow_2544_40833"/>
<feBlend mode="normal" in="SourceGraphic" in2="effect1_dropShadow_2544_40833" result="shape"/>
</filter>
<linearGradient id="paint0_linear_2544_40833" x1="106.796" y1="97.4878" x2="106.796" y2="210.776" gradientUnits="userSpaceOnUse">
<stop stop-color="#C3DCFB"/>
<stop offset="1" stop-color="white"/>
</linearGradient>
</defs>
</svg>
