<svg width="506" height="191" viewBox="0 0 506 191" fill="none" xmlns="http://www.w3.org/2000/svg">
<g opacity="0.6" filter="url(#filter0_f_1393_38979)">
<path d="M121.958 109.069L123.896 107.329C124.611 106.687 125.732 107.325 125.545 108.268L125.008 110.974C124.94 111.318 125.058 111.673 125.318 111.909L127.079 113.505C127.639 114.012 127.456 114.932 126.746 115.187L124.378 116.037C124.121 116.13 123.913 116.323 123.802 116.573L122.861 118.693C122.508 119.489 121.377 119.485 121.03 118.686L120.203 116.783C120.046 116.421 119.691 116.186 119.296 116.182L116.497 116.153C115.734 116.145 115.261 115.321 115.638 114.658L117.129 112.039C117.221 111.876 117.267 111.69 117.259 111.503L117.151 108.879C117.119 108.095 117.962 107.581 118.645 107.969L120.796 109.194C121.17 109.407 121.638 109.356 121.958 109.069Z" fill="#2548A7"/>
</g>
<g filter="url(#filter1_f_1393_38979)">
<path d="M476.803 29.2429L486.083 26.0531L493.912 33.3027L494.637 43.1621L499.422 52.2966L501.597 61.8661L501.017 72.8855L489.417 70.5656L478.108 73.7554L467.669 65.9258L456.359 69.4056L445.34 67.5207L435.335 65.6359L425.186 64.1859L415.182 65.7808L405.032 66.0708L395.028 64.1859L384.878 67.3758L374.729 70.2756L364.724 67.2308L354.575 70.8556L344.57 66.2158L334.421 67.6657L324.272 70.1306L314.267 66.9408L312.237 58.3863L321.227 52.8766L325.577 44.902L336.016 42.7271L347.325 41.7122L357.33 35.9125L365.159 29.6779L374.729 30.6928L384.443 31.1278L387.198 20.8334L398.942 17.6435L408.512 13.4388L417.501 7.49411L428.666 7.34912L440.99 4.73926L450.125 13.1488L453.894 27.213L467.814 19.8184L476.803 29.2429Z" fill="white" fill-opacity="0.05"/>
</g>
<g style="mix-blend-mode:soft-light" filter="url(#filter2_f_1393_38979)">
<path d="M191.608 145.244L190.831 143.397C190.485 142.576 191.304 141.747 192.129 142.083L193.749 142.742C193.935 142.818 194.141 142.836 194.338 142.794L197.074 142.201C197.886 142.025 198.546 142.859 198.188 143.609L197.583 144.875C197.481 145.088 197.459 145.331 197.519 145.56L198.087 147.724C198.29 148.496 197.55 149.183 196.794 148.923L195.091 148.337C194.87 148.262 194.63 148.265 194.412 148.348L192.509 149.067C191.761 149.351 190.999 148.683 191.182 147.904L191.661 145.86C191.709 145.655 191.691 145.439 191.608 145.244Z" fill="#F0F0F0"/>
</g>
<g style="mix-blend-mode:soft-light" filter="url(#filter3_f_1393_38979)">
<path d="M357.752 145.295L357.642 143.294C357.593 142.404 358.645 141.9 359.308 142.494L360.61 143.661C360.76 143.796 360.948 143.882 361.147 143.908L363.923 144.273C364.747 144.381 365.087 145.389 364.497 145.974L363.501 146.962C363.334 147.128 363.23 147.349 363.21 147.585L363.015 149.814C362.945 150.609 362.017 151.006 361.394 150.507L359.987 149.381C359.805 149.235 359.578 149.158 359.344 149.162L357.311 149.198C356.511 149.212 356.019 148.327 356.453 147.655L357.593 145.893C357.708 145.715 357.764 145.506 357.752 145.295Z" fill="#7CA7E8"/>
</g>
<g filter="url(#filter4_f_1393_38979)">
<path d="M35.6967 155.601L29.2967 153.401L23.8967 158.401L23.3967 165.201L14.0967 171.501L4.59668 178.101L4.99668 185.701L26.9967 184.101L34.7967 186.301L41.9967 180.901L49.7967 183.301L57.3967 182.001L64.2967 180.701L71.2967 179.701L78.1967 180.801L85.1967 181.001L92.0967 179.701L99.0967 181.901L106.097 183.901L112.997 181.801L119.997 184.301L126.897 181.101L133.897 182.101L140.897 183.801L147.797 181.601L149.197 175.701L142.997 171.901L139.997 166.401L132.797 164.901L124.997 164.201L118.097 160.201L112.697 155.901L106.097 156.601L99.3967 156.901L97.4967 149.801L89.3967 147.601L82.7967 144.701L76.5967 140.601L68.8967 140.501L60.3967 138.701L54.0967 144.501L51.4967 154.201L41.8967 149.101L35.6967 155.601Z" fill="white" fill-opacity="0.05"/>
</g>
<g filter="url(#filter5_f_1393_38979)">
<path d="M326.05 162.02L328.036 159.649C328.543 159.043 329.519 159.237 329.756 159.99L330.434 162.144C330.539 162.476 330.809 162.73 331.147 162.814L333.761 163.461C334.614 163.672 334.799 164.802 334.059 165.275L332.458 166.298C332.173 166.48 331.999 166.794 331.997 167.133L331.976 169.787C331.971 170.496 331.25 170.974 330.594 170.703L327.096 169.257C326.927 169.187 326.743 169.165 326.563 169.192L323.541 169.654C322.814 169.765 322.22 169.08 322.432 168.377L322.991 166.523C323.089 166.198 323.015 165.845 322.795 165.587L321.448 164.002C320.894 163.35 321.362 162.348 322.218 162.354L325.276 162.378C325.574 162.38 325.859 162.249 326.05 162.02Z" fill="#F3EFBF" fill-opacity="0.3"/>
</g>
<defs>
<filter id="filter0_f_1393_38979" x="113.505" y="105.069" width="15.9028" height="16.2178" filterUnits="userSpaceOnUse" color-interpolation-filters="sRGB">
<feFlood flood-opacity="0" result="BackgroundImageFix"/>
<feBlend mode="normal" in="SourceGraphic" in2="BackgroundImageFix" result="shape"/>
<feGaussianBlur stdDeviation="1" result="effect1_foregroundBlur_1393_38979"/>
</filter>
<filter id="filter1_f_1393_38979" x="308.237" y="0.739258" width="197.359" height="77.0166" filterUnits="userSpaceOnUse" color-interpolation-filters="sRGB">
<feFlood flood-opacity="0" result="BackgroundImageFix"/>
<feBlend mode="normal" in="SourceGraphic" in2="BackgroundImageFix" result="shape"/>
<feGaussianBlur stdDeviation="2" result="effect1_foregroundBlur_1393_38979"/>
</filter>
<filter id="filter2_f_1393_38979" x="188.75" y="140.006" width="11.5381" height="11.1279" filterUnits="userSpaceOnUse" color-interpolation-filters="sRGB">
<feFlood flood-opacity="0" result="BackgroundImageFix"/>
<feBlend mode="normal" in="SourceGraphic" in2="BackgroundImageFix" result="shape"/>
<feGaussianBlur stdDeviation="1" result="effect1_foregroundBlur_1393_38979"/>
</filter>
<filter id="filter3_f_1393_38979" x="354.292" y="140.236" width="12.5024" height="12.4912" filterUnits="userSpaceOnUse" color-interpolation-filters="sRGB">
<feFlood flood-opacity="0" result="BackgroundImageFix"/>
<feBlend mode="normal" in="SourceGraphic" in2="BackgroundImageFix" result="shape"/>
<feGaussianBlur stdDeviation="1" result="effect1_foregroundBlur_1393_38979"/>
</filter>
<filter id="filter4_f_1393_38979" x="0.59668" y="134.701" width="152.6" height="55.5996" filterUnits="userSpaceOnUse" color-interpolation-filters="sRGB">
<feFlood flood-opacity="0" result="BackgroundImageFix"/>
<feBlend mode="normal" in="SourceGraphic" in2="BackgroundImageFix" result="shape"/>
<feGaussianBlur stdDeviation="2" result="effect1_foregroundBlur_1393_38979"/>
</filter>
<filter id="filter5_f_1393_38979" x="319.208" y="157.29" width="17.313" height="15.4902" filterUnits="userSpaceOnUse" color-interpolation-filters="sRGB">
<feFlood flood-opacity="0" result="BackgroundImageFix"/>
<feBlend mode="normal" in="SourceGraphic" in2="BackgroundImageFix" result="shape"/>
<feGaussianBlur stdDeviation="1" result="effect1_foregroundBlur_1393_38979"/>
</filter>
</defs>
</svg>
