<svg width="41" height="34" viewBox="0 0 41 34" fill="none" xmlns="http://www.w3.org/2000/svg">
<path opacity="0.6" d="M14.7243 9.85014L22.4783 0.588336C22.9855 -0.0174481 23.9618 0.176454 24.199 0.930073L27.2011 10.4695C27.3058 10.8021 27.5762 11.0562 27.9146 11.14L39.5606 14.024C40.4133 14.2352 40.5989 15.3643 39.8588 15.8373L31.5566 21.1431C31.2714 21.3254 31.0978 21.6396 31.0952 21.978L31.0146 32.4334C31.0091 33.1425 30.2878 33.6207 29.6325 33.3498L17.5879 28.3701C17.4194 28.3004 17.2351 28.2781 17.0549 28.3056L5.92623 30.0049C5.19971 30.1158 4.60573 29.4314 4.81784 28.7277L7.33174 20.3878C7.42972 20.0628 7.35609 19.7102 7.13621 19.4516L0.596946 11.7588C0.0425058 11.1066 0.51055 10.1046 1.36658 10.1112L13.9498 10.2082C14.2485 10.2105 14.5326 10.0792 14.7243 9.85014Z" fill="#FFF68A" fill-opacity="0.07"/>
</svg>
