<svg width="24" height="24" viewBox="0 0 24 24" fill="none" xmlns="http://www.w3.org/2000/svg">
<path fill-rule="evenodd" clip-rule="evenodd" d="M2 9.25714C2 6.3537 4.3537 4 7.25714 4H16.4C19.3034 4 21.6571 6.3537 21.6571 9.25714V14.7429C21.6571 17.6463 19.3034 20 16.4 20H7.25714C4.3537 20 2 17.6463 2 14.7429V9.25714ZM6.79326 8.65732C6.46189 8.4088 5.99179 8.47595 5.74326 8.80732C5.49473 9.1387 5.56189 9.6088 5.89326 9.85732L10.179 13.0716C11.1568 13.8049 12.5012 13.8049 13.479 13.0716L17.7647 9.85732C18.0961 9.6088 18.1632 9.1387 17.9147 8.80732C17.6662 8.47595 17.1961 8.4088 16.8647 8.65732L12.579 11.8716C12.1345 12.2049 11.5234 12.2049 11.079 11.8716L6.79326 8.65732Z" fill="white"/>
</svg>
