<svg width="215" height="332" viewBox="0 0 215 332" fill="none" xmlns="http://www.w3.org/2000/svg">
<g filter="url(#filter0_d_1710_32625)">
<path d="M184.735 310.609L181.756 310.96L178.779 311.395L175.8 310.645L172.823 310.588L169.844 310.686L166.864 311.118L163.887 310.631L160.908 310.994L157.929 310.872L154.949 311.161L151.972 310.686L148.993 310.738L146.014 310.915L143.034 311.144L140.055 311.438L137.076 311.383L134.099 310.65L131.119 311.087L128.14 310.559L125.161 310.951L122.181 311.106L119.202 310.561L116.223 311.292L113.243 311.342L110.264 310.604L107.284 310.834L104.305 311.321L101.326 310.526L98.3464 310.755L95.367 311.381L92.3876 310.614L89.4083 311.261L86.4289 310.936L83.4496 310.862L80.4702 311.357L77.4909 310.87L74.5115 310.569L71.5321 310.645L68.5528 311.357L65.5734 311.383L62.5941 311.175L59.6147 310.922L56.6329 310.877L53.6535 310.8L50.6742 310.764L47.6948 310.877L44.7155 311.297L41.7336 310.987L38.7543 311.19L35.7725 310.557L32.7906 311.288L29.8088 310.538L26.8492 310.717L24.0914 309.675L21.0973 309.076L19.1422 306.771L16.8228 305.008L15.2937 302.567L13.4519 300.214L12.9373 297.324L13.1022 294.439L13.2426 291.561L12.7526 288.682L12.6516 285.804L12.302 282.926L13.1737 280.048L12.3119 277.17L13.0653 274.292L12.5729 271.413L12.3143 268.535L12.6196 265.657L12.8117 262.779L12.3685 259.901L13.2229 257.022L12.7009 254.144L12.3611 251.266L13.0382 248.388L12.3906 245.51L13.0949 242.631L12.7304 239.753L12.7748 236.875L12.6812 233.997L12.3217 231.119L12.9914 228.241L12.3414 225.362L13.0899 222.484L13.2229 219.606L12.9225 216.728L13.2524 213.85L12.6689 210.969L12.595 208.091L13.154 205.213L13.1958 202.334L12.8437 199.456L13.1564 196.58L12.5335 193.702L12.7649 190.826L12.7083 187.948L12.6196 185.07L12.7649 182.192L12.7378 179.314L12.9644 176.436L12.7969 173.56L12.3045 170.682L13.0161 167.801L12.2872 164.925L12.4103 162.047L12.4251 159.169L13.1121 156.291L12.7698 153.412L12.7428 150.534L12.4621 147.656L12.5088 144.778L12.3094 141.9L12.5704 139.022L13.218 136.143L12.7575 133.265L12.4251 130.387L12.6837 127.506L12.4719 124.628L12.7551 121.75L12.4571 118.872L12.3586 115.994L12.4768 113.115L12.8068 110.235L12.7329 107.357L13.1022 104.479L12.6418 101.6L13.0653 98.7198L12.4128 95.8416L13.0727 92.9634L13.1712 90.0828L13.0481 87.2047L12.8191 84.3265L12.4177 81.4459L12.6369 78.5677L12.5975 75.6895L12.9077 72.8089L12.9003 69.9308L12.5458 67.0526L13.154 64.1744L12.6196 61.2962L12.3882 58.4156L12.8265 55.5374L12.7501 52.6569V49.7787L13.0087 46.8981L13.2377 44.0199L12.3389 41.1393L12.2946 38.2588L13.0432 35.3806L12.5556 32.5024L13.0702 29.6218L12.595 26.7412L13.149 23.8607L12.627 20.9777L12.5704 18.0303L13.5381 15.2333L15.1706 12.7803L17.1084 10.6401L18.6301 8.05573L21.2549 6.60589L23.9067 5.24682L26.8467 4.68073L29.8088 4.41083L32.7882 4.24841L35.7651 4.2508L38.7444 4.0836L41.7213 4.18869L44.7007 4.22452L47.68 4.87182L50.6594 4.04538L53.6363 4.64013L56.6156 4.18392L59.595 4.32723L62.5744 4.15048L65.5513 4.56131L68.5306 4.84076L71.51 4.26035L74.4893 4.28662L77.4687 4.85032L80.4456 4.55414L83.4249 4.87659L86.4043 4.2914L89.3837 4.00955L92.363 4.41322L95.3424 4.24841L98.3217 4.52548L101.301 4.57325L104.28 4.36067L107.26 4.18869L110.239 4L113.219 4.03583L116.198 4.17675L119.177 4.67834L122.157 4.80733L125.136 4.50398L128.115 4.53025L131.095 4.61147L134.074 4.51115L137.053 4.17197L140.033 4.69745L143.012 4.13615L145.991 4.3535L148.971 4.84554L151.95 4.59713L154.93 4.42277L157.911 4.36783L160.891 4.31529L163.87 4.87182L166.852 4.90764L169.831 4.7285L172.811 4.00955L175.792 4.04299L178.772 4.37022L181.754 4.43949L184.735 4.55414L187.658 4.89809L190.411 5.85589L193.341 6.51752L195.754 8.23965L197.768 10.3702L199.832 12.5247L200.984 15.2428L201.563 18.0995L201.444 20.9777L202.038 23.8559L201.316 26.7341L201.311 29.6123L202.203 32.4905L201.713 35.3686L201.57 38.2468L201.9 41.125L201.799 44.0032L201.742 46.8814L201.971 49.7596L202.242 52.6378L202.122 55.5159L202.05 58.3941L201.979 61.2723L201.513 64.1505L201.607 67.0287L201.393 69.9069L201.922 72.7851L202.026 75.6632L201.74 78.5414L202.003 81.4196L201.666 84.2978L201.984 87.176L201.614 90.0542L201.629 92.9324L202.008 95.8105L202.03 98.6887L202.195 101.567L201.888 104.447L202.225 107.326L201.733 110.204L202.144 113.082L201.368 115.96L201.427 118.836L201.831 121.714L201.934 124.592L201.427 127.468L202.008 130.346L202.109 133.225L202.035 136.103L201.952 138.981L202.213 141.857L201.917 144.735L202.097 147.616L202.245 150.491L201.678 153.369L202.03 156.248L201.622 159.126L202.053 162.004L202.06 164.882L202.075 167.76L202.191 170.639L202.092 173.517L201.998 176.395L202.08 179.273L201.907 182.154L202.072 185.03L201.998 187.91L201.368 190.788L201.777 193.666L201.508 196.545L201.735 199.423L201.378 202.301L201.898 205.182L202.24 208.06L201.425 210.938L201.713 213.816L201.307 216.697L202.252 219.575L201.607 222.453L201.92 225.334L201.952 228.212L201.351 231.09L202.109 233.971L202.191 236.849L202.102 239.729L201.403 242.608L201.464 245.486L201.745 248.364L201.358 251.242L202.008 254.12L201.481 257.001L201.87 259.879L201.523 262.76L201.851 265.638L201.504 268.518L201.508 271.397L201.937 274.277L201.723 277.158L201.809 280.036L202.262 282.914L202.043 285.795L201.718 288.675L201.681 291.556L201.819 294.439L201.664 297.334L200.368 299.959L199.492 302.703L197.593 304.905L195.678 307.089L193.442 309.069L190.706 310.349L187.766 311.108L184.735 310.609Z" fill="#92B3DB"/>
</g>
<path d="M106.884 221.674C141.733 221.674 169.984 193.363 169.984 158.439C169.984 123.516 141.733 95.2051 106.884 95.2051C72.0349 95.2051 43.7842 123.516 43.7842 158.439C43.7842 193.363 72.0349 221.674 106.884 221.674Z" fill="#92B3DB"/>
<path d="M173.736 154.639L171.753 153.763L171.357 150.893L171.512 147.999L170.423 145.318L170.499 142.377L169.548 139.677L168.08 137.175L167.461 134.375L166.281 131.787L164.963 129.272L163.076 127.084L162.285 124.255L160.919 121.737L158.927 119.666L156.854 117.701L154.895 115.669L153.089 113.491L151.071 111.542L149.201 109.41L147.104 107.514L144.729 105.977L142.09 104.874L140.177 102.602L137.456 101.69L135.02 100.264L132.364 99.3085L129.837 98.0327L126.968 97.7479L124.327 96.8096L121.683 95.7947L118.819 95.8163L116.098 95.0814L113.325 94.5884L110.531 94.0977L107.703 95.0144L104.884 94.2987L102.054 94.2676L99.2593 94.7128L96.4743 95.1628L93.7657 95.9814L91.0308 96.6253L88.468 97.8413L85.628 98.1931L83.144 99.5551L80.5859 100.692L78.2188 102.21L75.3335 102.786L73.2603 104.79L71.0199 106.468L68.3686 107.602L66.0947 109.283L64.4037 111.621L62.0462 113.223L60.0924 115.221L58.8241 117.809L56.5144 119.515L54.5296 121.536L53.6171 124.293L51.7398 126.414L50.1538 128.745L49.5447 131.567L48.2955 134.059L46.8529 136.498L46.0145 139.176L45.1928 141.86L44.825 144.653L44.8585 147.497L43.829 150.149L43.4421 152.844L40.5352 154.852L39.1093 156.772L38.29 158.979L38.3259 161.609L40.6165 162.945L44.0129 164.714L43.6379 167.835L44.0846 170.6L45.3577 173.182L45.7112 175.954L45.9237 178.807L47.4787 181.227L48.3529 183.872L49.7454 186.292L50.2016 189.184L51.52 191.666L53.2541 193.892L54.5128 196.427L56.9252 198.117L58.1649 200.699L60.5295 202.329L62.5478 204.228L63.7922 206.997L66.0064 208.773L68.3017 210.434L70.8574 211.712L73.2245 213.213L75.2953 215.226L77.7555 216.624L80.4449 217.553L83.175 218.314L85.843 219.152L88.2817 220.688L90.8851 221.852L93.866 221.485L96.4981 222.608L99.2831 223.01L102.061 223.532L104.887 223.465L107.698 223.807L110.509 223.463L113.347 223.664L116.067 222.656L118.824 222.187L121.621 221.897L124.377 221.344L127.011 220.351L129.796 219.817L132.297 218.489L135.099 217.862L137.604 216.547L140.084 215.19L142.456 213.651L144.608 211.803L147.003 210.31L148.952 208.246L151.513 206.892L153.366 204.74L155.33 202.684L157.131 200.484L159.323 198.591L160.202 195.711L162.058 193.552L163.606 191.173L165.342 188.877L166.474 186.252L167.831 183.726L168.087 180.777L169.494 178.255L170.404 175.547L170.97 172.747L171.364 169.922L171.383 167.057L171.779 164.199L173.776 163.402L175.295 161.315L176.148 158.976L175.302 156.633L173.728 154.646L173.736 154.639ZM162.65 171.402L162.08 174.243L161.117 176.974L160.334 179.772L158.659 182.197L158.203 185.194L156.932 187.829L155.313 190.263L153.13 192.279L151.656 194.802L149.626 196.882L148.066 199.416L145.434 200.96L143.294 203.012L140.767 204.575L138.572 206.602L135.837 207.801L133.577 209.853L130.726 210.781L127.84 211.526L125.285 213.175L122.457 214.12L119.547 214.774L116.54 214.819L113.593 215.037L110.657 215.279L107.712 216.114L104.743 215.714L101.825 215.083L98.9225 214.563L95.8724 214.786L93.0682 213.737L90.3764 212.438L87.5221 211.679L84.9138 210.286L81.8518 209.831L79.4895 207.959L76.8884 206.54L74.2587 205.118L72.238 202.878L70.0095 200.939L68.0629 198.708L66.0446 196.585L63.8113 194.627L62.3925 192.008L59.8273 190.191L58.3225 187.616L57.637 184.617L55.7286 182.254L54.4173 179.573L53.4929 176.737L52.7143 173.862L52.1028 170.916L52.3441 167.835L51.0758 164.987L51.6084 161.944L50.6984 158.974L50.8274 155.963L51.1665 152.971L52.1171 150.079L51.9189 146.996L52.9507 144.15L54.1139 141.414L55.2437 138.695L56.235 135.924L57.6896 133.362L58.3368 130.346L59.9992 127.876L62.3424 125.909L64.0072 123.489L65.715 121.071L67.9817 119.166L69.7301 116.708L72.1353 114.951L74.5883 113.29L76.7523 111.202L79.2316 109.541L82.0906 108.586L84.7825 107.37L87.503 106.226L90.2785 105.218L93.0515 104.156L95.9416 103.497L98.8269 102.779L101.758 102.219L104.765 102.638L107.712 102.305L110.674 102.339L113.614 102.707L116.531 103.189L119.514 103.344L122.328 104.323L125.089 105.391L127.828 106.468L130.546 107.583L133.618 108.028L136.202 109.527L138.326 111.736L140.915 113.182L143.662 114.494L145.15 117.311L147.469 119.14L149.755 120.959L151.532 123.257L153.342 125.521L154.754 128.063L156.667 130.284L158.43 132.644L159.185 135.519L160.348 138.178L161.547 140.835L162.557 143.578L163.111 146.448L163.749 149.541L163.458 152.751L164.516 155.817L163.699 158.979L164.65 162.148L164.27 165.296L163.245 168.333L162.655 171.409L162.65 171.402Z" fill="#4678B7"/>
<path d="M173.736 154.639L171.753 153.763L171.357 150.893L171.512 147.999L170.423 145.318L170.499 142.377L169.548 139.677L168.08 137.175L167.461 134.375L166.281 131.787L164.963 129.272L163.076 127.084L162.285 124.255L160.919 121.737L158.927 119.666L156.854 117.701L154.895 115.669L153.089 113.491L151.071 111.542L149.201 109.41L147.104 107.514L144.729 105.977L142.09 104.874L140.177 102.602L137.456 101.69L135.02 100.264L132.364 99.3085L129.837 98.0327L126.968 97.7479L124.327 96.8096L121.683 95.7947L118.819 95.8163L116.098 95.0814L113.325 94.5884L110.531 94.0977L107.703 95.0144L104.884 94.2987L102.054 94.2676L99.2593 94.7128L96.4743 95.1628L93.7657 95.9814L91.0308 96.6253L88.468 97.8413L85.628 98.1931L83.144 99.5551L80.5859 100.692L78.2188 102.21L75.3335 102.786L73.2603 104.79L71.0199 106.468L68.3686 107.602L66.0947 109.283L64.4037 111.621L62.0462 113.223L60.0924 115.221L58.8241 117.809L56.5144 119.515L54.5296 121.536L53.6171 124.293L51.7398 126.414L50.1538 128.745L49.5447 131.567L48.2955 134.059L46.8529 136.498L46.0145 139.176L45.1928 141.86L44.825 144.653L44.8585 147.497L43.829 150.149L43.4421 152.844L40.5352 154.852L39.1093 156.772L38.29 158.979L38.3259 161.609L40.6165 162.945L44.0129 164.714L43.6379 167.835L44.0846 170.6L45.3577 173.182L45.7112 175.954L45.9237 178.807L47.4787 181.227L48.3529 183.872L49.7454 186.292L50.2016 189.184L51.52 191.666L53.2541 193.892L54.5128 196.427L56.9252 198.117L58.1649 200.699L60.5295 202.329L62.5478 204.228L63.7922 206.997L66.0064 208.773L68.3017 210.434L70.8574 211.712L73.2245 213.213L75.2953 215.226L77.7555 216.624L80.4449 217.553L83.175 218.314L85.843 219.152L88.2817 220.688L90.8851 221.852L93.866 221.485L96.4981 222.608L99.2831 223.01L102.061 223.532L104.887 223.465L107.698 223.807L110.509 223.463L113.347 223.664L116.067 222.656L118.824 222.187L121.621 221.897L124.377 221.344L127.011 220.351L129.796 219.817L132.297 218.489L135.099 217.862L137.604 216.547L140.084 215.19L142.456 213.651L144.608 211.803L147.003 210.31L148.952 208.246L151.513 206.892L153.366 204.74L155.33 202.684L157.131 200.484L159.323 198.591L160.202 195.711L162.058 193.552L163.606 191.173L165.342 188.877L166.474 186.252L167.831 183.726L168.087 180.777L169.494 178.255L170.404 175.547L170.97 172.747L171.364 169.922L171.383 167.057L171.779 164.199L173.776 163.402L175.295 161.315L176.148 158.976L175.302 156.633L173.728 154.646L173.736 154.639ZM162.65 171.402L162.08 174.243L161.117 176.974L160.334 179.772L158.659 182.197L158.203 185.194L156.932 187.829L155.313 190.263L153.13 192.279L151.656 194.802L149.626 196.882L148.066 199.416L145.434 200.96L143.294 203.012L140.767 204.575L138.572 206.602L135.837 207.801L133.577 209.853L130.726 210.781L127.84 211.526L125.285 213.175L122.457 214.12L119.547 214.774L116.54 214.819L113.593 215.037L110.657 215.279L107.712 216.114L104.743 215.714L101.825 215.083L98.9225 214.563L95.8724 214.786L93.0682 213.737L90.3764 212.438L87.5221 211.679L84.9138 210.286L81.8518 209.831L79.4895 207.959L76.8884 206.54L74.2587 205.118L72.238 202.878L70.0095 200.939L68.0629 198.708L66.0446 196.585L63.8113 194.627L62.3925 192.008L59.8273 190.191L58.3225 187.616L57.637 184.617L55.7286 182.254L54.4173 179.573L53.4929 176.737L52.7143 173.862L52.1028 170.916L52.3441 167.835L51.0758 164.987L51.6084 161.944L50.6984 158.974L50.8274 155.963L51.1665 152.971L52.1171 150.079L51.9189 146.996L52.9507 144.15L54.1139 141.414L55.2437 138.695L56.235 135.924L57.6896 133.362L58.3368 130.346L59.9992 127.876L62.3424 125.909L64.0072 123.489L65.715 121.071L67.9817 119.166L69.7301 116.708L72.1353 114.951L74.5883 113.29L76.7523 111.202L79.2316 109.541L82.0906 108.586L84.7825 107.37L87.503 106.226L90.2785 105.218L93.0515 104.156L95.9416 103.497L98.8269 102.779L101.758 102.219L104.765 102.638L107.712 102.305L110.674 102.339L113.614 102.707L116.531 103.189L119.514 103.344L122.328 104.323L125.089 105.391L127.828 106.468L130.546 107.583L133.618 108.028L136.202 109.527L138.326 111.736L140.915 113.182L143.662 114.494L145.15 117.311L147.469 119.14L149.755 120.959L151.532 123.257L153.342 125.521L154.754 128.063L156.667 130.284L158.43 132.644L159.185 135.519L160.348 138.178L161.547 140.835L162.557 143.578L163.111 146.448L163.749 149.541L163.458 152.751L164.516 155.817L163.699 158.979L164.65 162.148L164.27 165.296L163.245 168.333L162.655 171.409L162.65 171.402Z" fill="#C3DCFB" stroke="#A2BFE2" stroke-width="1.91489" stroke-miterlimit="10"/>
<path d="M112.488 219.016C110.376 220.091 109.146 221.324 108.074 223.44C107.579 224.416 106.189 224.416 105.695 223.44C104.622 221.324 103.392 220.091 101.281 219.016C100.306 218.521 100.306 217.128 101.281 216.632C103.392 215.558 104.622 214.325 105.695 212.209C106.189 211.232 107.579 211.232 108.074 212.209C109.146 214.325 110.376 215.558 112.488 216.632C113.462 217.128 113.462 218.521 112.488 219.016Z" fill="#286BA8"/>
<path d="M109.813 107C102.313 107 94.5048 121.482 91.5379 128.723C81.9813 131.686 62.8679 137.778 62.8679 145.698C62.8679 155.598 77.6606 159.549 76.4267 160.387C75.4395 161.057 75.1384 164.133 75.1112 165.587L73.1974 164.837C68.7388 163.796 63.9235 164.896 63.7749 172.847C63.656 179.208 72.2787 184.595 77.0584 187.401C78.6691 191.623 83.3871 201.313 85.5447 204.27C83.909 209.393 95.3099 212.321 102.867 210.414C108.912 208.888 110.518 207.33 110.565 206.741C111.483 213.521 133.509 208.719 139.167 204.27C143.694 200.71 140.483 196.101 138.311 194.242C138.893 192.133 134.449 181.703 133.509 179.746C132.757 178.179 133.196 172.62 133.509 170.036C138.915 168.345 149.291 163.479 151.175 157.544C153.059 151.609 134.956 140.552 125.215 134.858C123.206 125.572 117.313 107 109.813 107Z" fill="white"/>
<g style="mix-blend-mode:plus-lighter" filter="url(#filter1_f_1710_32625)">
<path d="M109.813 107C102.313 107 94.5048 121.482 91.5379 128.723C81.9813 131.686 62.8679 137.778 62.8679 145.698C62.8679 155.598 77.6606 159.549 76.4267 160.387C75.4395 161.057 75.1384 164.133 75.1112 165.587L73.1974 164.837C68.7388 163.796 63.9235 164.896 63.7749 172.847C63.656 179.208 72.2787 184.595 77.0584 187.401C78.6691 191.623 83.3871 201.313 85.5447 204.27C83.909 209.393 95.3099 212.321 102.867 210.414C108.912 208.888 110.518 207.33 110.565 206.741C111.483 213.521 133.509 208.719 139.167 204.27C143.694 200.71 140.483 196.101 138.311 194.242C138.893 192.133 134.449 181.703 133.509 179.746C132.757 178.179 133.196 172.62 133.509 170.036C138.915 168.345 149.291 163.479 151.175 157.544C153.059 151.609 134.956 140.552 125.215 134.858C123.206 125.572 117.313 107 109.813 107Z" fill="white"/>
</g>
<path fill-rule="evenodd" clip-rule="evenodd" d="M70.329 171.715C69.9031 171.806 69.4728 171.581 69.3039 171.18L62.5672 155.173C62.3465 154.648 62.6576 154.053 63.214 153.934L63.9378 153.78C64.3636 153.689 64.7939 153.913 64.9628 154.315L71.6995 170.322C71.9202 170.846 71.6091 171.442 71.0527 171.561L70.329 171.715Z" fill="#96CA56"/>
<path d="M64.683 132.158C73.0682 134.096 69.8447 140.781 67.1848 143.882C68.6535 142.73 77.7577 141.923 75.6203 151.63C73.9104 159.396 66.7804 157.12 63.4292 155.011C64.5313 158.398 61.5229 165.013 54.1045 162.406C48.1698 160.322 49.7707 154.443 51.313 151.765C47.5087 151.827 40.4936 146.856 46.4698 140.418C50.6133 135.955 55.2138 138.36 57.158 141.467C56.291 138.095 56.2986 130.221 64.683 132.158Z" fill="#BBEC9A"/>
<path d="M56.9987 146.44L50.5847 144.174" stroke="#9DD875" stroke-width="1.36041" stroke-linecap="round"/>
<path d="M70.4019 150.031L63.8628 148.156" stroke="#9DD875" stroke-width="1.36041" stroke-linecap="round"/>
<path d="M63.3707 137.573L61.4325 144.094" stroke="#9DD875" stroke-width="1.36041" stroke-linecap="round"/>
<path d="M58.8785 150.241L56.9403 156.762" stroke="#9DD875" stroke-width="1.36041" stroke-linecap="round"/>
<path d="M65.4761 170.98L70.0108 169.529L72.2781 169.983L74.5454 171.464L74.012 175.334L71.3445 176.785L66.5431 174.366L65.4761 170.98Z" fill="white"/>
<path d="M67.7434 170.437C68.8015 169.53 70.7363 168.351 73.6385 170.89C73.6385 170.89 76.7221 174.065 74.5454 175.878" stroke="#D5E1E4" stroke-width="1.36041" stroke-linecap="round"/>
<path d="M115.372 169.821C111.509 167.598 108.619 168.756 107.031 170.186C105.867 171.031 103.96 173.487 105.644 176.556C107.328 179.626 110.029 180.873 111.169 181.112" stroke="#D5E1E4" stroke-width="1.36041" stroke-linecap="round"/>
<path d="M87.4966 151.138C87.1506 150.665 86.6021 150.381 86.0158 150.373L83.7688 150.343C83.271 150.336 82.7945 150.545 82.4624 150.916C81.952 151.486 81.8846 152.334 82.2885 152.984C82.5728 153.442 83.0561 153.749 83.5918 153.806L85.8686 154.048C86.391 154.104 86.9118 153.93 87.2962 153.572C87.9678 152.946 88.0657 151.917 87.5241 151.176L87.4966 151.138Z" fill="#CEE4FF"/>
<path d="M109.13 150.613C109.544 150.197 110.128 149.999 110.709 150.079L112.935 150.387C113.429 150.455 113.868 150.733 114.141 151.15C114.56 151.79 114.499 152.639 114.002 153.22C113.652 153.63 113.128 153.861 112.59 153.837L110.303 153.734C109.778 153.711 109.289 153.461 108.963 153.049C108.393 152.329 108.451 151.297 109.098 150.646L109.13 150.613Z" fill="#CEE4FF"/>
<path d="M107.071 145.473C106.979 144.193 105.403 144.111 104.726 144.315C103.684 144.551 103.588 145.546 103.279 146.99C103.057 148.442 102.682 147.871 103.283 150.204C103.884 152.537 105.935 151.86 106.742 150.865C107.548 149.87 106.892 149.674 107.308 147.839C107.81 146.012 107.228 147.162 107.053 145.538L107.071 145.473Z" fill="#424139"/>
<path d="M92.1027 145.235C92.011 143.954 90.4353 143.873 89.7576 144.076C88.7159 144.313 88.6197 145.308 88.3113 146.752C88.0029 148.195 87.7138 147.633 88.3151 149.966C88.9163 152.299 90.9672 151.622 91.7737 150.627C92.5802 149.632 91.9237 149.436 92.3398 147.601C92.8424 145.773 92.2597 146.923 92.0847 145.3L92.1027 145.235Z" fill="#424139"/>
<path d="M94.4167 150.568C94.874 150.873 95.1821 151.127 95.7616 151.184C96.0247 151.21 96.2462 151.195 96.5056 151.161C96.9085 151.109 97.3017 151.105 97.7036 151.053C98.1338 150.996 98.641 150.858 98.9998 150.642" stroke="#424139" stroke-width="1.49171" stroke-linecap="round"/>
<path d="M120.382 220.223L118.176 222.687L114.881 223.54L112.53 225.802L111.159 228.782L110.293 231.88L106.867 233.967L104.344 231.419L101.856 229.246L100.374 226.513L98.9217 223.459L96.1379 221.782L92.9727 220.968L91.7002 217.816L93.2877 215.285L95.781 213.292L98.3088 211.452L99.9997 208.795L101.715 206.294L104.056 204.062L106.867 202.854L109.092 204.361L110.591 207.212L113.165 209.281L114.827 212.152L118.447 212.52L120.32 215.532L123.503 217.816L120.382 220.223Z" fill="#4678B7"/>
<path d="M120.382 220.223L118.176 222.687L114.881 223.54L112.53 225.802L111.159 228.782L110.293 231.88L106.867 233.967L104.344 231.419L101.856 229.246L100.374 226.513L98.9217 223.459L96.1379 221.782L92.9727 220.968L91.7002 217.816L93.2877 215.285L95.781 213.292L98.3088 211.452L99.9997 208.795L101.715 206.294L104.056 204.062L106.867 202.854L109.092 204.361L110.591 207.212L113.165 209.281L114.827 212.152L118.447 212.52L120.32 215.532L123.503 217.816L120.382 220.223Z" fill="#C3DCFB" stroke="#A2BFE2" stroke-width="1.91489" stroke-miterlimit="10"/>
<path d="M112.488 219.016C110.376 220.091 109.146 221.324 108.074 223.44C107.579 224.416 106.189 224.416 105.695 223.44C104.622 221.324 103.392 220.091 101.281 219.016C100.306 218.521 100.306 217.128 101.281 216.632C103.392 215.558 104.622 214.325 105.695 212.209C106.189 211.232 107.579 211.232 108.074 212.209C109.146 214.325 110.376 215.558 112.488 216.632C113.462 217.128 113.462 218.521 112.488 219.016Z" fill="#286BA8"/>
<path d="M112.488 219.016C110.376 220.091 109.146 221.324 108.074 223.44C107.579 224.416 106.189 224.416 105.695 223.44C104.622 221.324 103.392 220.091 101.281 219.016C100.306 218.521 100.306 217.128 101.281 216.632C103.392 215.558 104.622 214.325 105.695 212.209C106.189 211.232 107.579 211.232 108.074 212.209C109.146 214.325 110.376 215.558 112.488 216.632C113.462 217.128 113.462 218.521 112.488 219.016Z" fill="#A2BFE2"/>
<defs>
<filter id="filter0_d_1710_32625" x="0.287231" y="0" width="213.975" height="331.438" filterUnits="userSpaceOnUse" color-interpolation-filters="sRGB">
<feFlood flood-opacity="0" result="BackgroundImageFix"/>
<feColorMatrix in="SourceAlpha" type="matrix" values="0 0 0 0 0 0 0 0 0 0 0 0 0 0 0 0 0 0 127 0" result="hardAlpha"/>
<feOffset dy="8"/>
<feGaussianBlur stdDeviation="6"/>
<feComposite in2="hardAlpha" operator="out"/>
<feColorMatrix type="matrix" values="0 0 0 0 0.123511 0 0 0 0 0.195372 0 0 0 0 0.35376 0 0 0 0.4 0"/>
<feBlend mode="normal" in2="BackgroundImageFix" result="effect1_dropShadow_1710_32625"/>
<feBlend mode="normal" in="SourceGraphic" in2="effect1_dropShadow_1710_32625" result="shape"/>
</filter>
<filter id="filter1_f_1710_32625" x="57.4263" y="101.558" width="99.3268" height="114.883" filterUnits="userSpaceOnUse" color-interpolation-filters="sRGB">
<feFlood flood-opacity="0" result="BackgroundImageFix"/>
<feBlend mode="normal" in="SourceGraphic" in2="BackgroundImageFix" result="shape"/>
<feGaussianBlur stdDeviation="2.72081" result="effect1_foregroundBlur_1710_32625"/>
</filter>
</defs>
</svg>
