<svg width="20" height="20" viewBox="0 0 20 20" fill="none" xmlns="http://www.w3.org/2000/svg">
<g clip-path="url(#clip0_1432_30191)">
<path fill-rule="evenodd" clip-rule="evenodd" d="M4.76432 17.8992L4.05397 17.9642L3.99894 17.5765L3.93641 16.0607L2.42065 16.0307L1.90039 15.558L2.09049 15.2253L3.62375 13.7271L3.93641 13.5895L5.74981 13.537L7.34561 11.9962L8.83886 10.3529L9.56172 10.4379L9.58673 11.1008L8.07598 12.7266L6.41014 14.2248L6.50769 16.0607L6.33511 16.4384L4.76432 17.8992ZM18.0335 5.45293L17.5782 6.00071L17.2631 5.76559L16.06 4.65003L15.0169 5.65053L15.6623 6.51347L16.0074 8.60201L15.3771 10.6255L13.9889 12.619L12.2506 14.3374L10.2521 15.7531L9.99444 16.0357L9.74431 15.7406L7.78833 14.3699L8.99394 13.0492L10.3471 11.8636L10.2746 9.71006L8.18353 9.70006L6.87538 10.9507L5.62976 12.2939L4.60924 10.6255L3.96642 8.60201L4.3291 6.51096L5.82735 4.92017L7.95842 4.47244L9.99444 5.22532L12.093 4.3874L14.2291 4.97269L15.2971 3.93468L14.194 2.76659L14.1715 2.04873L14.5417 1.94868L17.5732 1.84863L18.0109 2.41642L18.031 5.44793L18.0335 5.45293Z" fill="#E682D7"/>
</g>
<defs>
<clipPath id="clip0_1432_30191">
<rect width="20" height="20" fill="white"/>
</clipPath>
</defs>
</svg>
