<svg width="299" height="296" viewBox="0 0 299 296" fill="none" xmlns="http://www.w3.org/2000/svg">
<path d="M153.027 234.024L163.518 236.613L174.049 238.948L184.682 240.808L195.285 242.77L205.903 244.753L216.437 247.07L226.935 249.669L237.706 250.817L248.041 251.197L255.722 244.343L260.214 235.545L262.676 225.147L264.065 214.531L267.664 204.353L268.92 193.721L270.959 183.231L272.337 172.622L274.367 162.13L277.898 151.931L279.797 141.423L281.22 130.814L283.448 120.37L285.218 109.828L286.658 99.2216L288.774 88.7558L290.563 78.2086L293.73 67.9382L293.02 57.5535L287.094 49.0362L277.894 44.0694L267.225 42.4457L256.617 40.4559L246.17 37.6869L235.309 37.0072L224.656 35.2517L214.096 33.0189L203.574 30.5415L192.975 28.5083L183.056 29.6055L174.677 34.9552L168.999 43.693L167.734 54.324L165.419 64.7511L164.1 75.3807L162.184 85.8853L158.88 96.1201L157.31 106.701L154.915 117.121L153.086 127.643L151.42 138.205L149.305 148.671L146.546 159.02L144.821 169.562L143.155 180.124L141.489 190.687L138.895 201.068L136.342 211.467L138.706 221.588L143.981 229.979L153.027 234.024Z" fill="url(#paint0_linear_1925_35079)"/>
<path d="M153.027 234.024L163.518 236.613L174.049 238.948L184.682 240.808L195.285 242.77L205.903 244.753L216.437 247.07L226.935 249.669L237.706 250.817L248.041 251.197L255.722 244.343L260.214 235.545L262.676 225.147L264.065 214.531L267.664 204.353L268.92 193.721L270.959 183.231L272.337 172.622L274.367 162.13L277.898 151.931L279.797 141.423L281.22 130.814L283.448 120.37L285.218 109.828L286.658 99.2216L288.774 88.7558L290.563 78.2086L293.73 67.9382L293.02 57.5535L287.094 49.0362L277.894 44.0694L267.225 42.4457L256.617 40.4559L246.17 37.6869L235.309 37.0072L224.656 35.2517L214.096 33.0189L203.574 30.5415L192.975 28.5083L183.056 29.6055L174.677 34.9552L168.999 43.693L167.734 54.324L165.419 64.7511L164.1 75.3807L162.184 85.8853L158.88 96.1201L157.31 106.701L154.915 117.121L153.086 127.643L151.411 138.203L149.305 148.671L146.546 159.02L144.821 169.562L143.155 180.124L141.489 190.687L138.895 201.068L136.342 211.467L138.706 221.588L143.981 229.979L153.027 234.024Z" stroke="#5078A8" stroke-width="1.76774" stroke-linecap="round" stroke-linejoin="round" stroke-dasharray="10.62 10.62"/>
<path d="M146.787 234.024L136.296 236.613L125.765 238.948L115.132 240.808L104.529 242.77L93.911 244.753L83.3765 247.07L72.8786 249.669L62.1077 250.817L51.7726 251.197L44.0924 244.343L39.6002 235.545L37.1377 225.147L35.7495 214.531L32.1504 204.353L30.894 193.721L28.855 183.231L27.4771 172.622L25.4468 162.13L21.9155 151.931L20.017 141.423L18.594 130.814L16.3659 120.37L14.5958 109.828L13.1555 99.2216L11.0401 88.7558L9.25108 78.2086L6.08418 67.9382L6.79386 57.5535L12.7198 49.0362L21.92 44.0694L32.5894 42.4457L43.1967 40.4559L53.6435 37.6869L64.5054 37.0072L75.1583 35.2517L85.7183 33.0189L96.2398 30.5415L106.839 28.5083L116.758 29.6055L125.137 34.9552L130.815 43.693L132.08 54.324L134.395 64.7511L135.714 75.3807L137.63 85.8853L140.934 96.1201L142.504 106.701L144.899 117.121L146.728 127.643L148.394 138.205L150.509 148.671L153.268 159.02L154.993 169.562L156.659 180.124L158.325 190.687L160.919 201.068L163.472 211.467L161.108 221.588L155.833 229.979L146.787 234.024Z" fill="url(#paint1_linear_1925_35079)"/>
<path d="M146.787 234.024L136.296 236.613L125.765 238.948L115.132 240.808L104.529 242.77L93.911 244.753L83.3765 247.07L72.8786 249.669L62.1077 250.817L51.7726 251.197L44.0924 244.343L39.6002 235.545L37.1377 225.147L35.7495 214.531L32.1504 204.353L30.894 193.721L28.855 183.231L27.4771 172.622L25.4468 162.13L21.9155 151.931L20.017 141.423L18.594 130.814L16.3659 120.37L14.5958 109.828L13.1555 99.2216L11.0401 88.7558L9.25108 78.2086L6.08418 67.9382L6.79386 57.5535L12.7198 49.0362L21.92 44.0694L32.5894 42.4457L43.1967 40.4559L53.6435 37.6869L64.5054 37.0072L75.1583 35.2517L85.7183 33.0189L96.2398 30.5415L106.839 28.5083L116.758 29.6055L125.137 34.9552L130.815 43.693L132.08 54.324L134.395 64.7511L135.714 75.3807L137.63 85.8853L140.934 96.1201L142.504 106.701L144.899 117.121L146.728 127.643L148.403 138.203L150.509 148.671L153.268 159.02L154.993 169.562L156.659 180.124L158.325 190.687L160.919 201.068L163.472 211.467L161.108 221.588L155.833 229.979L146.787 234.024Z" stroke="#5078A8" stroke-width="1.76774" stroke-linecap="round" stroke-linejoin="round" stroke-dasharray="10.62 10.62"/>
<g filter="url(#filter0_d_1925_35079)">
<path d="M217.591 277.261L214.99 277.574L212.392 277.962L209.792 277.293L207.193 277.242L204.593 277.329L201.993 277.715L199.394 277.28L196.794 277.604L194.193 277.495L191.593 277.753L188.995 277.329L186.394 277.376L183.794 277.534L181.193 277.738L178.593 278L175.992 277.951L173.394 277.298L170.794 277.687L168.193 277.217L165.593 277.566L162.992 277.704L160.392 277.219L157.791 277.87L155.191 277.915L152.59 277.257L149.99 277.461L147.389 277.896L144.789 277.187L142.189 277.391L139.588 277.949L136.988 277.266L134.387 277.842L131.787 277.553L129.186 277.487L126.586 277.928L123.985 277.493L121.385 277.225L118.785 277.293L116.184 277.928L113.584 277.951L110.983 277.766L108.383 277.54L105.78 277.5L103.18 277.432L100.579 277.4L97.9788 277.5L95.3783 277.874L92.7757 277.598L90.1752 277.779L87.5726 277.214L84.97 277.866L82.3675 277.197L79.7842 277.357L77.3772 276.429L74.7638 275.895L73.0574 273.84L71.0329 272.269L69.6983 270.094L68.0908 267.997L67.6416 265.421L67.7856 262.85L67.9081 260.285L67.4804 257.719L67.3923 255.154L67.0871 252.589L67.8479 250.024L67.0957 247.459L67.7533 244.894L67.3235 242.329L67.0979 239.763L67.3644 237.198L67.532 234.633L67.1451 232.068L67.8909 229.503L67.4353 226.938L67.1387 224.373L67.7297 221.807L67.1645 219.242L67.7791 216.677L67.4611 214.112L67.4997 211.547L67.4181 208.982L67.1043 206.417L67.6889 203.851L67.1215 201.286L67.7748 198.721L67.8909 196.156L67.6287 193.591L67.9167 191.026L67.4073 188.458L67.3429 185.893L67.8307 183.328L67.8672 180.763L67.5599 178.198L67.8329 175.635L67.2891 173.07L67.4912 170.507L67.4417 167.941L67.3644 165.376L67.4912 162.811L67.4675 160.246L67.6652 157.681L67.5191 155.118L67.0893 152.553L67.7104 149.985L67.0742 147.422L67.1817 144.857L67.1946 142.292L67.7942 139.727L67.4954 137.162L67.4718 134.597L67.2268 132.032L67.2676 129.466L67.0936 126.901L67.3214 124.336L67.8866 121.771L67.4847 119.206L67.1946 116.641L67.4202 114.073L67.2354 111.508L67.4826 108.943L67.2225 106.378L67.1365 103.813L67.2397 101.248L67.5277 98.6804L67.4632 96.1153L67.7856 93.5501L67.3837 90.985L67.7533 88.4177L67.1838 85.8526L67.7598 83.2874L67.8458 80.7202L67.7383 78.155L67.5384 75.5899L67.1881 73.0226L67.3794 70.4575L67.345 67.8923L67.6158 65.325L67.6094 62.7599L67.2999 60.1948L67.8307 57.6296L67.3644 55.0645L67.1623 52.4972L67.5449 49.9321L67.4783 47.3648V44.7996L67.7039 42.2324L67.9038 39.6672L67.1194 37.0999L67.0807 34.5327L67.734 31.9675L67.3085 29.4024L67.7576 26.8351L67.3429 24.2678L67.8264 21.7006L67.3708 19.1312L67.3214 16.5043L68.166 14.0115L69.5909 11.8253L71.2822 9.91793L72.6104 7.61462L74.9014 6.32247L77.216 5.11121L79.782 4.60669L82.3675 4.36615L84.9679 4.22139L87.5662 4.22352L90.1667 4.07451L92.765 4.16817L95.3654 4.2001L97.9659 4.77699L100.566 4.04045L103.165 4.57051L105.765 4.16391L108.366 4.29164L110.966 4.13411L113.564 4.50026L116.165 4.74932L118.765 4.23203L121.366 4.25545L123.966 4.75784L126.564 4.49387L129.165 4.78125L131.765 4.25971L134.366 4.00852L136.966 4.36827L139.567 4.22139L142.167 4.46833L144.768 4.5109L147.368 4.32144L149.968 4.16817L152.569 4L155.169 4.03193L157.77 4.15753L160.37 4.60457L162.971 4.71952L165.571 4.44917L168.172 4.47258L170.772 4.54496L173.372 4.45555L175.973 4.15327L178.573 4.6216L181.174 4.12134L183.774 4.31506L186.375 4.75358L188.975 4.53219L191.576 4.37679L194.178 4.32783L196.779 4.281L199.379 4.77699L201.982 4.80893L204.582 4.64927L207.183 4.00852L209.785 4.03832L212.386 4.32996L214.988 4.39169L217.591 4.49387L220.142 4.80041L222.545 5.65404L225.102 6.2437L227.208 7.77853L228.966 9.67738L230.767 11.5975L231.773 14.02L232.278 16.566L232.175 19.1312L232.693 21.6963L232.063 24.2614L232.059 26.8266L232.837 29.3917L232.409 31.9569L232.285 34.522L232.573 37.0872L232.484 39.6523L232.435 42.2175L232.635 44.7826L232.871 47.3477L232.766 49.9129L232.704 52.478L232.641 55.0432L232.235 57.6083L232.317 60.1735L232.13 62.7386L232.592 65.3038L232.682 67.8689L232.433 70.434L232.663 72.9992L232.368 75.5643L232.646 78.1295L232.323 80.6946L232.336 83.2598L232.667 85.8249L232.686 88.3901L232.83 90.9552L232.562 93.5225L232.856 96.0876L232.426 98.6528L232.785 101.218L232.108 103.783L232.16 106.346L232.512 108.911L232.603 111.476L232.16 114.039L232.667 116.605L232.755 119.17L232.691 121.735L232.618 124.3L232.845 126.863L232.588 129.428L232.744 131.995L232.873 134.558L232.379 137.124L232.686 139.689L232.33 142.254L232.706 144.819L232.712 147.384L232.725 149.949L232.826 152.514L232.74 155.08L232.658 157.645L232.729 160.21L232.579 162.777L232.723 165.34L232.658 167.907L232.108 170.473L232.465 173.038L232.231 175.603L232.429 178.168L232.117 180.733L232.57 183.3L232.869 185.866L232.158 188.431L232.409 190.996L232.055 193.563L232.88 196.128L232.317 198.693L232.59 201.261L232.618 203.826L232.093 206.391L232.755 208.958L232.826 211.523L232.749 214.091L232.138 216.656L232.192 219.221L232.437 221.786L232.1 224.351L232.667 226.916L232.207 229.484L232.547 232.049L232.244 234.616L232.53 237.181L232.227 239.748L232.231 242.314L232.605 244.881L232.418 247.448L232.493 250.013L232.888 252.578L232.697 255.146L232.413 257.713L232.381 260.28L232.502 262.85L232.366 265.43L231.236 267.769L230.471 270.215L228.814 272.178L227.142 274.124L225.19 275.888L222.803 277.029L220.236 277.706L217.591 277.261Z" fill="white"/>
</g>
<g clip-path="url(#clip0_1925_35079)">
<mask id="mask0_1925_35079" style="mask-type:luminance" maskUnits="userSpaceOnUse" x="69" y="5" width="162" height="273">
<path d="M216.365 5.76758H84.253C76.2262 5.76758 69.7192 12.3241 69.7192 20.412V262.63C69.7192 270.717 76.2262 277.274 84.253 277.274H216.365C224.392 277.274 230.899 270.717 230.899 262.63V20.412C230.899 12.3241 224.392 5.76758 216.365 5.76758Z" fill="white"/>
</mask>
<g mask="url(#mask0_1925_35079)">
<path d="M103.054 24.5365L101.396 22.5245L99.5529 20.7537L98.0731 18.6593L96.1779 16.9392L94.7003 14.8426L93.1192 12.8391L91.1951 11.1382L89.6493 9.10292L88.1922 6.98516L86.4087 5.32227L84.6685 7.02112L82.9159 8.87231L81.5478 11.0683L79.6692 12.8032L78.2121 14.9188L76.536 16.8377L74.7442 18.655L73.2893 20.7728L71.5904 22.6769L69.9536 24.5365L71.7041 26.2946L73.1053 28.4589L74.7897 30.3714L76.3542 32.3898L77.9621 34.3679L79.9998 35.9652L81.3494 38.1782L83.0771 40.0505L84.9599 41.7896L86.4087 44.1168L88.2832 42.1725L89.8766 40.1796L91.5155 38.2289L93.1316 36.255L94.4833 34.0463L96.5582 32.4829L98.1764 30.5111L99.5219 28.296L101.498 26.6458L103.054 24.5365Z" fill="#ECF4FE"/>
<path d="M135.752 24.5348L134.345 22.525L132.447 20.805L130.815 18.8459L129.267 16.8149L127.69 14.805L126.13 12.7825L124.329 10.9736L122.74 8.97641L120.853 7.2437L119.359 4.88477L117.524 6.93482L116.172 9.14355L114.353 10.9334L112.586 12.7719L111.121 14.8791L109.569 16.9101L107.752 18.7041L106.076 20.623L104.615 22.7387L103.061 24.5348L104.477 26.4537L106.211 28.3197L107.662 30.4396L109.627 32.1004L111.103 34.197L112.628 36.2534L114.407 38.0813L115.976 40.0954L117.596 42.0693L119.359 44.1003L121.033 41.9889L122.81 40.1631L124.269 38.0495L125.993 36.173L127.83 34.3979L129.217 32.2188L131.061 30.448L132.495 28.3134L134.076 26.3141L135.752 24.5348Z" fill="#ECF4FE"/>
<path d="M168.93 24.5349L167.297 22.5229L165.714 20.5194L163.966 18.6682L162.348 16.6964L160.508 14.9235L159.142 12.7275L157.408 10.8573L155.687 8.97856L153.967 7.09564L152.31 5.16406L150.83 7.2522L148.949 8.98914L147.325 10.9546L145.818 13.0258L143.851 14.6802L142.259 16.6774L140.887 18.8692L138.858 20.475L137.287 22.4912L135.824 24.5349L137.208 26.6484L138.874 28.5757L140.699 30.3635L142.268 32.3775L144.124 34.1335L145.882 35.9805L147.211 38.2125L148.778 40.2287L150.698 41.9318L152.31 43.6222L153.746 41.7773L155.635 40.051L157.158 37.9946L159.074 36.2894L160.686 34.3155L162.125 32.1808L163.712 30.1815L165.415 28.2859L167.128 26.3945L168.93 24.5349Z" fill="#ECF4FE"/>
<path d="M202.097 24.5353L200.179 22.5868L198.441 20.723L196.884 18.6962L195.4 16.6059L193.664 14.7399L191.951 12.8549L190.223 10.9804L188.667 8.95153L187.055 6.97341L185.259 5.03125L183.451 6.9586L182.141 9.20541L180.268 10.9487L178.685 12.9501L176.966 14.8309L175.314 16.7709L173.51 18.5756L171.917 20.5727L170.391 22.6291L168.494 24.5353L170.439 26.3971L171.801 28.5974L173.632 30.3787L175.281 32.3209L176.763 34.4133L178.445 36.3279L180.361 38.0331L181.777 40.1847L183.703 41.8836L185.259 43.7073L187.008 42.0571L188.384 39.8695L190.393 38.2489L191.668 35.9725L193.468 34.1636L195.237 32.3272L197.046 30.5247L198.335 28.261L200.191 26.5008L202.097 24.5353Z" fill="#ECF4FE"/>
<path d="M234.735 24.535L233.05 22.6563L231.505 20.6211L229.777 18.7488L228.047 16.8785L226.637 14.7206L225.005 12.7636L222.996 11.1409L221.704 8.87507L220.001 6.97945L218.212 5.23828L216.616 7.1487L214.95 9.07817L213.268 10.9907L211.515 12.8419L209.974 14.8793L208.475 16.9589L206.425 18.5435L204.865 20.5682L203.495 22.7642L201.728 24.535L203.191 26.5766L204.902 28.4638L206.547 30.4102L208.058 32.4771L210.087 34.0808L211.623 36.1245L213.034 38.2825L214.965 39.975L216.538 41.9869L218.212 44.0434L219.801 41.915L221.51 40.0258L223.13 38.0582L225.032 36.3403L226.623 34.3453L228.043 32.1958L229.63 30.1965L231.569 28.5124L233.224 26.5703L234.735 24.535Z" fill="#ECF4FE"/>
<path d="M103.143 63.4123L101.395 61.4003L99.8554 59.3608L98.0408 57.5668L96.1291 55.8573L94.4923 53.9046L92.9113 51.899L91.4212 49.8129L89.619 48.0062L87.9409 46.0852L86.4094 43.7812L84.7023 45.9265L82.9498 47.7777L81.3812 49.7918L79.7113 51.717L78.0352 53.6359L76.6505 55.8171L74.7863 57.5689L72.9945 59.3841L71.4197 61.3961L69.9048 63.4123L71.5767 65.2846L73.2921 67.1697L74.7781 69.2578L76.4604 71.1703L78.0104 73.2013L79.6885 75.1181L81.594 76.836L82.8795 79.104L84.6507 80.9404L86.4094 83.0052L88.2364 81.0059L89.8918 79.0701L91.1814 76.8043L93.0973 75.0991L94.7692 73.1781L96.3523 71.1746L98.0801 69.3001L99.8595 67.4722L101.389 65.4221L103.143 63.4123Z" fill="#ECF4FE"/>
<path d="M135.686 63.4118L134.442 61.3152L132.456 59.6735L131.001 57.5579L129.366 55.6009L127.572 53.7899L126.076 51.7081L124.33 49.8506L122.893 47.7159L120.984 46.0022L119.359 44.1426L117.58 45.8605L115.976 47.8449L114.267 49.7321L112.533 51.6002L110.973 53.6228L109.456 55.6855L107.684 57.5219L106.145 59.5635L104.322 61.3533L103.003 63.4118L104.405 65.3942L106.227 67.1819L107.864 69.1346L109.431 71.153L111.258 72.9343L112.886 74.8976L114.333 77.0239L115.931 79.0147L117.634 80.9124L119.359 82.6303L121.168 80.9886L122.786 79.0168L124.235 76.8948L126.175 75.2129L127.853 73.2961L129.29 71.1614L130.772 69.0669L132.468 67.165L134.279 65.3624L135.686 63.4118Z" fill="#ECF4FE"/>
<path d="M168.642 63.4115L167.003 61.664L165.515 59.5779L163.704 57.7797L162.278 55.6365L160.703 53.6267L158.99 51.7416L157.477 49.6746L155.671 47.87L153.885 46.0463L152.311 43.9941L150.827 46.1246L149.002 47.9102L147.212 49.7296L145.699 51.7924L144.126 53.8044L142.376 55.6577L140.925 57.7797L139.183 59.6414L137.414 61.4778L135.713 63.4115L137.236 65.5017L139.001 67.3381L140.783 69.1639L142.529 71.0193L143.891 73.2196L145.865 74.874L147.311 77.0003L148.948 78.953L150.587 80.91L152.311 82.8838L154.169 81.0327L155.706 78.989L157.467 77.1462L159.12 75.2083L160.511 73.0355L162.208 71.1336L163.899 69.2253L165.659 67.3825L167.271 65.3981L168.642 63.4115Z" fill="#ECF4FE"/>
<path d="M201.892 63.4123L200.334 61.3242L198.36 59.6719L196.858 57.5985L195.252 55.6162L193.66 53.6211L191.757 51.9054L190.223 49.8553L188.711 47.7904L186.973 45.9244L185.259 44.1875L183.765 46.117L181.901 47.8687L180.429 49.9695L178.509 51.6684L177.015 53.7502L175.519 55.8299L173.634 57.5647L171.853 59.3905L170.267 61.394L168.858 63.4123L170.296 65.4031L171.997 67.2987L173.448 69.4186L175.525 70.9778L176.928 73.1422L178.58 75.0843L180.072 77.1703L181.727 79.1083L183.744 80.7246L185.259 82.8762L186.797 80.7458L188.496 78.8459L190.432 77.1619L191.823 74.987L193.561 73.1231L195.336 71.2931L196.853 69.2303L198.715 67.4786L200.193 65.3778L201.892 63.4123Z" fill="#ECF4FE"/>
<path d="M234.887 63.4136L233.229 61.3741L231.657 59.3621L229.637 57.7521L228.257 55.5688L226.678 53.5632L224.7 51.913L222.993 50.0195L221.472 47.9609L219.928 45.9194L218.211 43.8164L216.654 46.0632L215.094 48.0858L213.079 49.7021L211.663 51.8537L209.84 53.6414L208.23 55.6196L206.68 57.6527L204.913 59.4912L203.51 61.6576L201.851 63.4136L203.345 65.3155L205.13 67.1371L206.714 69.1385L208.065 71.3472L210.101 72.9445L211.719 74.9163L213.166 77.0425L214.987 78.8324L216.392 80.9967L218.211 83.0108L219.783 80.7788L221.323 78.7372L223.216 77.015L225.01 75.1998L226.583 73.1878L228.137 71.1589L229.734 69.1702L231.404 67.245L233.246 65.4742L234.887 63.4136Z" fill="#ECF4FE"/>
<path d="M103.101 102.291L101.206 100.45L99.8353 98.2583L97.9567 96.5193L96.2599 94.6216L94.8215 92.489L92.9139 90.7774L91.3742 88.7337L89.8862 86.6456L87.9559 84.951L86.41 83.1484L84.6182 84.7309L82.9938 86.6964L81.5533 88.8247L79.8379 90.7076L78.0626 92.5377L76.3928 94.4629L74.7539 96.4156L73.2348 98.4763L71.3769 100.236L69.9033 102.291L71.6786 104.072L73.2493 106.084L74.6815 108.223L76.6842 109.848L78.2652 111.853L79.9537 113.762L81.5326 115.767L83.2914 117.614L84.5955 119.87L86.41 121.621L87.9828 119.656L89.7395 117.811L91.4362 115.909L92.8891 113.791L94.6479 111.947L96.2827 109.99L97.9339 108.047L99.6348 106.15L101.321 104.235L103.101 102.291Z" fill="#ECF4FE"/>
<path d="M135.851 102.291L134.327 100.298L132.519 98.4978L130.93 96.5007L129.241 94.5945L127.609 92.6375L125.846 90.7948L124.157 88.8844L122.527 86.9232L120.974 84.8922L119.36 82.6602L117.833 84.9662L116.176 86.902L114.289 88.6305L112.923 90.8286L110.996 92.5212L109.575 94.6685L107.758 96.4647L106.249 98.5338L104.482 100.374L102.728 102.291L104.43 104.25L106.216 106.072L107.665 108.196L109.492 109.977L111.001 112.046L112.561 114.069L114.576 115.687L116.2 117.653L117.668 119.762L119.36 121.387L121.218 119.91L122.578 117.71L124.283 115.816L126.127 114.048L127.646 111.987L129.237 109.992L131.091 108.23L132.616 106.178L134.453 104.396L135.851 102.291Z" fill="#ECF4FE"/>
<path d="M168.85 102.289L167.232 100.339L165.733 98.259L163.937 96.448L162.416 94.3916L160.376 92.7985L158.859 90.7357L157.094 88.8951L155.832 86.6039L154.143 84.6935L152.312 82.8867L150.481 84.6935L148.979 86.7668L147.28 88.6666L145.85 90.8056L144.058 92.6187L142.491 94.637L140.569 96.338L139.168 98.5044L137.401 100.345L135.801 102.289L137.372 104.257L138.885 106.322L140.848 107.985L142.194 110.2L144.066 111.943L145.69 113.908L147.205 115.973L148.867 117.905L150.481 119.883L152.312 121.41L153.792 119.572L155.78 117.932L157.419 115.982L158.857 113.847L160.488 111.89L162.466 110.24L163.805 108.018L165.522 106.135L167.403 104.396L168.85 102.289Z" fill="#ECF4FE"/>
<path d="M201.883 102.291L200.383 100.16L198.374 98.5399L196.749 96.5744L195.257 94.4905L193.36 92.7705L191.829 90.7205L190.384 88.5921L188.406 86.9419L186.966 84.8094L185.261 83.0195L183.694 84.93L181.76 86.6182L180.331 88.7593L178.612 90.638L177.045 92.6542L175.347 94.554L173.668 96.4729L172.211 98.5885L170.236 100.243L168.622 102.291L170.438 104.155L172.187 106.008L173.832 107.957L175.52 109.865L176.884 112.061L178.666 113.887L180.476 115.687L181.972 117.767L183.584 119.747L185.261 121.685L186.992 119.798L188.412 117.648L190.039 115.685L191.992 114.016L193.653 112.084L195.352 110.184L196.7 107.969L198.308 105.989L200.011 104.089L201.883 102.291Z" fill="#ECF4FE"/>
<path d="M234.973 102.291L233.299 100.191L231.472 98.4071L229.807 96.4797L228.021 94.6581L226.277 92.8006L224.795 90.7061L222.997 88.8973L221.656 86.6758L219.661 85.0404L218.213 82.9121L216.619 84.9072L215.048 86.9212L213.35 88.819L211.721 90.7802L209.816 92.4938L208.282 94.5397L206.763 96.6024L204.824 98.2865L203.152 100.212L201.64 102.291L203.524 104.035L204.773 106.336L206.697 108.033L208.069 110.223L210.09 111.835L211.461 114.027L213.422 115.692L214.877 117.81L216.737 119.568L218.213 121.823L220.054 119.898L221.484 117.759L223.164 115.844L224.778 113.868L226.603 112.085L227.947 109.867L229.896 108.19L231.578 106.275L233.051 104.168L234.973 102.291Z" fill="#ECF4FE"/>
<path d="M102.726 141.172L101.486 139.077L99.4668 137.465L98.0139 135.348L96.4391 133.34L94.8312 131.36L93.1158 129.475L91.5638 127.443L89.7657 125.633L87.9346 123.849L86.4073 121.619L84.816 123.792L83.268 125.823L81.5775 127.729L79.9262 129.669L78.217 131.561L76.2991 133.262L74.8731 135.407L73.0069 137.156L71.6346 139.35L69.7188 141.172L71.6656 142.962L73.0751 145.12L74.9992 146.816L76.2557 149.11L78.0227 150.948L79.9799 152.615L81.3336 154.826L83.2102 156.565L84.9131 158.463L86.4073 160.371L87.8933 158.459L89.6397 156.603L91.5121 154.86L92.8802 152.666L94.8829 151.039L96.3192 148.907L97.985 146.977L99.7623 145.147L101.174 142.998L102.726 141.172Z" fill="#ECF4FE"/>
<path d="M135.885 141.172L134.215 139.276L132.692 137.22L131.136 135.193L129.268 133.446L127.658 131.47L125.911 129.612L124.415 127.53L122.685 125.66L120.834 123.896L119.356 121.566L117.866 123.881L115.861 125.504L114.466 127.674L112.883 129.676L111.013 131.423L109.355 133.357L107.615 135.221L106.09 137.277L104.476 139.253L102.992 141.172L104.29 143.254L105.968 145.173L107.964 146.804L109.274 149.051L111.05 150.879L112.573 152.935L114.594 154.547L115.923 156.777L117.502 158.787L119.356 160.799L121.03 158.628L122.751 156.75L124.138 154.57L125.818 152.656L127.647 150.874L129.452 149.07L131.153 147.17L132.43 144.893L134.244 143.095L135.885 141.172Z" fill="#ECF4FE"/>
<path d="M168.83 141.172L167.127 139.312L165.643 137.22L163.711 135.532L162.198 133.467L160.703 131.385L159.094 129.407L157.459 127.448L155.754 125.554L153.828 123.857L152.309 121.619L150.564 123.654L149.13 125.789L147.235 127.511L145.654 129.515L143.92 131.383L142.308 133.357L140.741 135.377L139.096 137.326L137.575 139.384L135.525 141.172L137.61 142.924L138.96 145.137L140.706 146.992L142.287 148.996L143.957 150.919L145.631 152.84L147.549 154.545L149.213 156.476L150.651 158.609L152.309 160.249L154.158 158.785L155.497 156.565L157.256 154.72L158.982 152.846L160.443 150.735L162.03 148.735L164.047 147.121L165.759 145.232L167.214 143.112L168.83 141.172Z" fill="#ECF4FE"/>
<path d="M201.556 141.172L200.337 139.078L198.469 137.33L196.631 135.555L195.261 133.366L193.604 131.43L191.923 129.513L190.299 127.546L188.584 125.663L186.982 123.674L185.256 122.02L183.723 123.841L182.16 125.864L180.284 127.601L178.583 129.498L177.064 131.557L175.536 133.611L173.749 135.431L171.802 137.108L170.254 139.146L168.644 141.172L170.452 143.019L172.029 145.027L173.827 146.836L175.47 148.784L177.037 150.803L178.415 152.988L180.077 154.922L181.887 156.722L183.464 158.732L185.256 160.787L186.821 158.529L188.398 156.521L190.369 154.869L191.797 152.726L193.492 150.824L195.18 148.918L196.795 146.94L198.452 145.004L200.029 143.002L201.556 141.172Z" fill="#ECF4FE"/>
<path d="M234.921 141.17L232.957 139.374L231.565 137.201L229.874 135.295L228.225 133.351L226.425 131.546L225.054 129.35L223.157 127.628L221.458 125.73L219.964 123.644L218.209 121.994L216.624 123.792L214.766 125.548L213.34 127.692L211.712 129.655L209.839 131.396L208.366 133.497L206.655 135.386L205.001 137.326L203.412 139.325L201.798 141.17L203.193 143.208L205.09 144.928L206.471 147.111L208.459 148.751L209.717 151.044L211.695 152.692L213.032 154.916L214.988 156.587L216.463 158.688L218.209 160.592L220.061 158.785L221.51 156.663L223.205 154.761L224.765 152.739L226.385 150.769L228.101 148.886L229.752 146.942L231.31 144.917L233.022 143.024L234.921 141.17Z" fill="#ECF4FE"/>
<path d="M102.838 180.05L101.27 178.153L99.6371 176.196L97.9775 174.262L96.3221 172.324L94.7927 170.274L93.1869 168.292L91.2959 166.563L89.8864 164.405L88.076 162.603L86.4102 160.451L84.575 162.45L83.2626 164.695L81.6237 166.648L79.65 168.298L78.2219 170.439L76.4446 172.269L74.8098 174.226L73.2619 176.261L71.716 178.301L69.8828 180.05L71.6746 181.834L73.0221 184.049L74.8842 185.801L76.5851 187.698L77.9698 189.878L79.772 191.684L81.2703 193.764L83.0229 195.613L84.5481 197.672L86.4102 199.468L87.9334 197.371L89.8037 195.626L91.4674 193.696L92.85 191.515L94.6832 189.736L96.2146 187.688L97.9734 185.841L99.666 183.937L101.495 182.145L102.838 180.05Z" fill="#ECF4FE"/>
<path d="M135.813 180.05L134.253 178.125L132.591 176.192L130.822 174.357L129.274 172.322L127.644 170.365L125.877 168.527L124.273 166.54L122.882 164.365L120.921 162.698L119.36 160.527L117.895 162.781L116.124 164.615L114.324 166.422L112.939 168.601L111.284 170.539L109.471 172.337L107.783 174.245L105.933 176.01L104.303 177.973L102.707 180.05L104.292 182.134L106.326 183.732L107.57 186.04L109.205 187.993L110.924 189.876L112.547 191.843L114.283 193.709L116.139 195.467L117.565 197.612L119.36 199.679L120.873 197.361L122.717 195.592L124.356 193.639L126.162 191.839L127.815 189.899L129.101 187.629L130.946 185.86L132.662 183.977L134.373 182.081L135.813 180.05Z" fill="#ECF4FE"/>
<path d="M168.675 180.05L167.019 178.288L165.75 176.005L163.944 174.202L162.297 172.258L160.695 170.274L158.986 168.382L157.388 166.391L155.425 164.729L154.131 162.465L152.311 160.635L150.533 162.501L149.196 164.724L147.555 166.673L145.78 168.505L143.99 170.322L142.314 172.241L140.532 174.067L138.906 176.03L137.31 178.023L135.793 180.05L137.548 181.859L139.009 183.97L140.671 185.902L142.306 187.857L144.203 189.579L145.681 191.675L147.365 193.588L149.043 195.507L150.521 197.608L152.311 199.704L153.796 197.339L155.673 195.598L157.328 193.66L159.054 191.785L160.503 189.663L162.152 187.721L164.078 186.022L165.349 183.742L167.16 181.941L168.675 180.05Z" fill="#ECF4FE"/>
<path d="M201.604 180.05L200.199 178.083L198.413 176.263L196.985 174.122L195.001 172.478L193.639 170.278L191.849 168.461L190.376 166.36L188.387 164.718L187.036 162.505L185.26 160.377L183.57 162.577L181.9 164.502L180.292 166.483L178.816 168.581L176.919 170.301L175.468 172.423L173.718 174.277L172.207 176.344L170.264 178.028L168.801 180.05L170.171 182.153L171.98 183.954L173.66 185.868L175.163 187.942L177.089 189.638L178.792 191.534L180.147 193.738L181.95 195.547L183.801 197.312L185.26 199.129L186.722 197.314L188.637 195.609L190.39 193.762L192.002 191.786L193.633 189.825L195.269 187.872L196.993 185.991L198.725 184.123L199.988 181.84L201.604 180.05Z" fill="#ECF4FE"/>
<path d="M234.987 180.049L233.043 178.179L231.681 175.977L229.849 174.197L228.25 172.211L226.382 170.463L225.007 168.274L223.379 166.31L221.554 164.525L219.807 162.667L218.212 160.924L216.377 162.447L214.984 164.622L213.411 166.632L211.596 168.426L209.821 170.256L208.279 172.298L206.541 174.164L205.181 176.366L203.371 178.166L201.41 180.049L203.41 181.894L204.787 184.08L206.816 185.683L208.135 187.924L210.148 189.538L211.683 191.584L213.382 193.484L214.703 195.722L216.375 197.649L218.212 199.655L220.016 197.622L221.715 195.722L223.186 193.621L224.803 191.649L226.671 189.902L228.157 187.812L229.988 186.03L231.515 183.978L232.937 181.818L234.987 180.049Z" fill="#ECF4FE"/>
<path d="M103.03 218.929L101.141 217.146L99.6324 215.077L98.1816 212.957L96.5469 211.002L94.5628 209.358L93.0665 207.279L91.3409 205.402L89.6792 203.47L88.1271 201.437L86.4097 199.482L84.7026 201.444L83.0865 203.418L81.5158 205.429L79.9533 207.45L78.1264 209.233L76.6404 211.324L74.7246 213.029L73.0754 214.973L71.5605 217.04L69.8823 218.929L71.4985 220.872L73.1766 222.788L74.5985 224.936L76.5536 226.603L78.3165 228.443L79.7777 230.557L81.6232 232.326L83.1774 234.355L84.5703 236.529L86.4097 238.235L88.0755 236.379L89.8425 234.541L91.1652 232.307L93.2463 230.749L94.6682 228.604L96.4683 226.793L98.0163 224.76L99.8639 222.994L101.461 221.003L103.03 218.929Z" fill="#ECF4FE"/>
<path d="M135.752 218.93L134.089 217.148L132.568 215.092L130.968 213.105L129.428 211.064L127.699 209.194L126.093 207.211L124.51 205.206L122.695 203.409L120.914 201.584L119.359 199.631L117.491 201.298L115.925 203.316L114.544 205.5L112.796 207.353L111.287 209.422L109.214 210.985L107.668 213.023L106.11 215.048L104.343 216.888L102.762 218.93L104.523 220.806L106.035 222.871L107.887 224.633L109.328 226.762L111.091 228.602L112.905 230.399L114.344 232.533L115.972 234.495L117.832 236.253L119.359 238.332L120.889 236.255L122.501 234.279L124.35 232.516L125.977 230.553L127.428 228.431L129.451 226.823L130.807 224.614L132.781 222.962L134.14 220.764L135.752 218.93Z" fill="#ECF4FE"/>
<path d="M168.672 218.93L167.093 217.102L165.615 215.003L163.892 213.129L162.181 211.242L160.376 209.437L159.029 207.224L157.189 205.449L155.685 203.376L153.755 201.681L152.31 199.732L150.847 201.662L148.952 203.386L147.259 205.288L145.816 207.416L143.849 209.075L142.334 211.138L140.571 212.981L138.864 214.874L137.521 217.093L135.572 218.93L137.417 220.857L139.269 222.617L140.596 224.849L142.243 226.794L144.138 228.516L145.738 230.502L147.147 232.662L148.904 234.511L150.75 236.28L152.31 238.502L153.81 236.229L155.817 234.609L157.409 232.612L159.056 230.669L160.413 228.465L162.207 226.652L163.844 224.695L165.737 222.968L167.298 220.94L168.672 218.93Z" fill="#ECF4FE"/>
<path d="M201.473 219.327L200.032 217.267L198.089 215.587L196.575 213.524L195.089 211.436L193.111 209.788L191.831 207.513L190.071 205.667L188.268 203.862L186.694 201.848L184.991 200.219L183.381 201.926L181.758 203.894L179.816 205.573L178.565 207.873L176.72 209.64L175.213 211.711L173.2 213.331L171.851 215.542L170.237 217.523L168.153 219.327L170.028 221.316L171.725 223.218L173.539 225.012L175.083 227.049L176.701 229.019L178.21 231.088L180.099 232.821L181.55 234.941L183.517 236.601L184.991 238.514L186.557 236.686L188.399 234.913L189.81 232.759L191.561 230.908L193.113 228.877L194.723 226.899L196.794 225.331L198.393 223.345L200.078 221.424L201.473 219.327Z" fill="#ECF4FE"/>
<path d="M234.986 218.929L233.194 216.921L231.495 215.023L229.598 213.301L228.273 211.067L226.328 209.389L224.766 207.367L223.104 205.435L221.333 203.601L220.021 201.352L218.21 199.361L216.722 201.64L214.815 203.351L213.347 205.456L211.624 207.333L209.933 209.237L208.288 211.184L206.775 213.253L204.785 214.89L203.231 216.921L201.687 218.929L203.103 221.047L205.167 222.619L206.693 224.673L208.402 226.562L209.747 228.777L211.597 230.54L213.256 232.475L214.759 234.551L216.526 236.391L218.21 238.579L219.752 236.264L221.513 234.422L223.104 232.429L224.698 230.436L226.7 228.809L228.24 226.767L229.918 224.848L231.427 222.779L233.27 221.015L234.986 218.929Z" fill="#ECF4FE"/>
<path d="M102.932 257.81L101.343 255.845L99.4932 254.081L98.0858 251.921L96.4035 250.008L94.4835 248.307L93.1402 246.09L91.5281 244.112L89.697 242.332L87.9569 240.466L86.4068 238.691L84.7907 240.405L83.1353 242.343L81.3786 244.192L79.8058 246.2L78.2909 248.265L76.311 249.911L74.9098 252.077L72.9733 253.765L71.5721 255.932L69.9849 257.81L71.3902 259.848L73.2337 261.614L74.7775 263.654L76.3193 265.693L78.1669 267.458L79.7707 269.442L81.5811 271.243L82.8728 273.506L84.7473 275.25L86.4068 277.306L88.0457 275.235L89.4986 273.115L91.2512 271.266L92.8777 269.303L94.7728 267.58L96.2299 265.465L97.9659 263.597L99.7143 261.741L101.186 259.638L102.932 257.81Z" fill="#ECF4FE"/>
<path d="M135.646 257.809L134.47 255.685L132.699 253.851L131.102 251.862L129.425 249.943L127.702 248.067L125.823 246.328L124.188 244.371L122.514 242.45L121.227 240.179L119.357 238.326L117.757 240.419L116.029 242.291L114.605 244.436L112.78 246.222L111.115 248.149L109.296 249.941L107.921 252.131L106.245 254.052L104.615 256.013L102.953 257.809L104.412 259.783L106.21 261.592L107.843 263.549L109.403 265.571L111.079 267.49L112.72 269.441L114.374 271.381L116.025 273.323L117.561 275.371L119.357 277.394L120.797 275.054L122.764 273.397L124.222 271.282L126.069 269.517L127.799 267.647L129.308 265.576L131.164 263.818L132.414 261.516L134.094 259.61L135.646 257.809Z" fill="#ECF4FE"/>
<path d="M168.648 257.809L167.125 255.949L165.647 253.851L164.002 251.904L162.08 250.205L160.704 248.02L158.769 246.332L157.474 244.07L155.599 242.329L153.791 240.526L152.307 238.557L150.767 240.471L148.889 242.212L147.326 244.231L145.524 246.038L144.232 248.299L142.389 250.068L140.568 251.862L139.051 253.923L137.296 255.774L135.608 257.809L137.247 259.884L138.975 261.757L140.556 263.762L142.507 265.434L143.91 267.596L145.476 269.614L147.415 271.3L149.168 273.152L150.806 275.106L152.307 277.044L153.973 275.257L155.642 273.331L157.118 271.235L158.765 269.288L160.425 267.357L162.328 265.639L163.905 263.631L165.372 261.524L167.164 259.709L168.648 257.809Z" fill="#ECF4FE"/>
<path d="M202.048 257.809L200.155 255.88L198.626 253.83L196.638 252.19L195.208 250.051L193.695 247.986L191.905 246.167L190.225 244.252L188.431 242.437L186.848 240.431L185.258 238.299L183.398 240.186L181.97 242.327L180.383 244.324L178.852 246.372L176.998 248.132L175.404 250.125L173.629 251.957L171.951 253.876L170.434 255.941L168.667 257.809L170.324 259.773L172.156 261.554L173.567 263.71L175.34 265.542L176.83 267.626L178.461 269.585L180.108 271.533L182.059 273.205L183.438 275.394L185.258 277.29L186.986 275.312L188.635 273.368L190.374 271.506L192.031 269.57L193.397 267.374L195.019 265.407L196.755 263.538L198.675 261.84L200.366 259.942L202.048 257.809Z" fill="#ECF4FE"/>
<path d="M234.661 257.808L233.27 255.731L231.406 253.979L229.821 251.98L228.046 250.15L226.272 248.318L224.985 246.05L223.1 244.315L221.465 242.36L219.702 240.515L218.208 238.639L216.681 240.481L214.732 242.157L213.236 244.239L211.533 246.132L209.937 248.123L208.344 250.118L206.835 252.187L205.149 254.098L203.268 255.837L201.654 257.808L203.21 259.829L204.847 261.782L206.69 263.55L208.164 265.651L209.84 267.57L211.609 269.406L213.267 271.344L214.831 273.363L216.544 275.252L218.208 277.461L220.023 275.389L221.701 273.473L222.972 271.192L224.813 269.419L226.301 267.333L228.041 265.471L229.691 263.525L231.408 261.644L233.299 259.909L234.661 257.808Z" fill="#ECF4FE"/>
</g>
<path d="M150.059 196.219C180.861 196.219 205.831 171.196 205.831 140.328C205.831 109.461 180.861 84.4375 150.059 84.4375C119.257 84.4375 94.2871 109.461 94.2871 140.328C94.2871 171.196 119.257 196.219 150.059 196.219Z" fill="#92B3DB"/>
<path d="M150.234 41.7554L150.112 41.0128L149.097 41.7956L149.546 40.7378L148.033 39.517L146.867 38.9648L144.748 37.5643L142.535 34.2724L140.872 30.7604L137.555 24.7033L138.393 21.405L139.111 20.8042L139.634 21.3543L141.458 23.9988L143.521 27.3394L148.252 23.819L144.585 20.9946L140.654 18.8409L136.985 17.0701L132.463 17.1949L127.941 16.8606L123.419 17.8106L123.476 16.7422L122.104 14.6794L123.419 14.1822L128.245 13.8057L133.071 14.4065L137.897 13.7422L142.301 15.0983L146.527 17.1039L150.234 21.2993L154.754 17.9185L158.052 14.8169L162.572 14.1145L163.391 14.2478L162.528 14.6498L161.953 17.2795L161.436 17.2161L156.528 19.9495L151.864 23.7767L156.595 27.9995L159.64 24.3839L161.046 21.6737L161.362 21.1067L162.091 21.3881L162.663 24.6589L160.017 30.9635L158.55 34.7145L155.27 37.0967L153.5 38.8168L153.234 40.4564L151.446 41.5015L151.317 41.7215L150.684 41.3555L150.237 41.7575L150.234 41.7554ZM144.912 29.4593L146.785 32.747L150.234 33.9529L153.633 32.7004L156.07 29.0129L150.23 25.2026L144.91 29.4572L144.912 29.4593Z" fill="#92B3DB"/>
<path d="M162.573 15.2067L158.488 15.8689L154.485 17.6461L150.235 21.981L145.559 18.0734L141.953 15.943L137.9 14.4895L133.074 15.3104L128.248 14.1172L123.246 14.2716L123.172 17.2843L127.941 16.95L132.463 17.4091L136.986 17.2758L141.429 17.7667L144.809 21.285L148.814 23.7032L143.602 28.6728L141.664 25.311L139.517 21.5325L138.63 24.5325L140.646 30.8709L143.18 33.8075L145.426 36.8688L148.046 39.5028L149.918 40.2009L150.233 41.3476L150.913 40.7319L152.619 39.7355L154.827 36.6488L157.58 34.019L159.034 30.488L161.371 24.4563L160.825 21.34L158.773 25.292L156.86 28.6813L151.664 23.7222L156.406 20.3351L161.534 17.2547L161.633 16.2751M156.965 28.9076L154.109 33.0204L150.235 34.8949L146.999 32.4577L143.771 29.0769L146.828 26.5487L150.237 24.835L153.716 26.3858L156.967 28.9076H156.965Z" fill="#92B3DB"/>
<path d="M150.233 41.6264L149.68 41.453L149.278 41.491L149.591 40.6406L147.891 39.6716L146.798 39.02L144.97 37.3232L142.736 34.1159L140.201 31.0758L137.585 24.6886L138.434 21.4242L139.109 21.6717L139.457 21.6167L140.999 24.2719L144.117 28.4397L148.552 23.7704L143.737 20.2183L139.016 17.2162L138.919 16.9962L137.129 15.1979L137.032 14.2162L137.895 14.614L142.128 15.5046L145.681 17.9419L150.231 20.9566L154.717 17.8763L157.94 14.5505L162.568 13.7381L167.394 13.5709L172.22 14.5039L177.046 13.3848L177.409 14.6711L177.498 16.7338L177.048 17.3177L172.526 16.6217L168.004 16.9242L163.482 17.7959L159.712 18.695L155.943 21.0751L152.806 23.762L156.477 28.1942L158.846 23.8953L160.679 21.1069L161.356 21.3544L161.513 21.8748L161.652 24.4961L160.364 31.1265L157.805 34.173L155.92 37.7612L153.95 39.3944L152.654 39.7689L151.556 41.6582L150.771 40.7463L151.14 41.8253L150.231 41.6264H150.233ZM144.82 29.3705L147.248 32.324L150.233 34.2936L153.706 32.7598L155.905 29.1463L150.233 25.2895L144.82 29.3727V29.3705Z" fill="#92B3DB"/>
<path d="M139.782 17.2161L139.292 16.7401L144.365 19.8966L149.064 23.7196L143.485 28.4883L141.817 25.2048L139.129 22.116L138.984 24.4601L140.126 31.1074L142.298 34.4248L144.918 37.3697L148.484 38.9649L149.33 41.0361L150.232 41.5672L150.785 40.5326L152.066 39.0728L155.516 37.3443L157.454 33.917L160.123 31.0059L161.666 24.4918L161.478 22.3402L159.392 25.6554L156.333 29.4615L152.06 23.6244L155.309 20.7916L158.93 17.6054L163.481 16.8692L168.003 17.2542L172.526 16.3043L177.01 16.647L176.976 14.8382L172.221 14.6541L167.395 15.2846L162.569 14.3008L158.271 15.3417L154.553 17.707L150.234 21.9277L146.012 17.6096L141.92 16.006L137.896 14.3621M150.232 25.3212L153.367 26.9206L156.855 28.9664L153.901 32.8296L150.232 34.759L146.877 32.5503L143.664 29.0024L146.998 26.764L150.23 25.3212H150.232Z" fill="#92B3DB"/>
<path d="M162.571 268.265L158.007 268.096L153.852 265.789L150.233 261.429L145.732 264.905L142.426 268.015L137.896 269.064L133.07 268.024L128.244 267.998L123.418 269.257L123.122 268.125L122.782 266.062L123.416 265.176L127.938 265.777L132.46 265.383L136.982 264.899L141.105 264.592L144.73 262.015L147.514 259.049L143.824 254.902L141.398 258.774L139.817 261.74L139.11 261.48L138.166 261.594L137.706 258.124L139.762 251.507L142.384 248.426L144.928 245.431L146.311 243.154L147.419 242.568L149.269 241.667L149.67 242.01L150.094 241.779L150.229 241.587V241.267L151.019 241.096L150.983 241.65L150.936 242.06L153.096 242.5L153.523 243.952L155.657 245.302L158.585 248.06L160.715 251.5L162.109 258.23L161.513 260.926L161.355 261.275L160.804 261.493L158.927 258.844L156.44 254.524L152.418 259L157.139 262.007L161.593 265.375L161.308 265.963L163.135 267.736L163.061 268.385L162.567 268.261L162.571 268.265ZM150.233 257.883L155.492 253.29L152.817 250.832L150.233 248.359L146.718 250.003L144.926 253.347L150.233 257.885V257.883Z" fill="#92B3DB"/>
<path d="M161.383 266.281L161.486 265.623L156.16 262.817L150.886 259.054L156.479 253.547L158.909 257.435L160.984 261.224L162.331 258.199L159.544 252.074L158.161 248.374L154.773 246.218L152.586 243.116L150.525 242.643L150.236 241.957L149.875 242.541L147.833 243.051L145.695 246.214L142.883 248.784L140.197 251.716L138.475 258.25L139.541 261.307L141.072 257.137L143.725 253.955L149.51 258.992L145.019 261.81L140.936 264.353L136.986 265.836L132.464 265.557L127.942 266.695L123.429 266.088L123.543 267.84L128.244 268.259L133.07 267.632L137.896 267.982L141.954 266.873L145.382 264.558L150.236 259.847L154.285 265.364L158.296 267.404L162.573 267.569M150.234 258.465L147.411 255.442L143.696 253.775L146.178 249.624L150.234 247.126L153.814 250.045L156.255 253.443L152.957 255.341L150.234 258.465Z" fill="#92B3DB"/>
<path d="M78.8004 142.117L78.7708 141.402L77.8419 136.362L77.5717 131.323L78.5238 126.284L78.281 121.244L77.8039 116.205L78.4161 111.165L78.7138 106.124L77.7047 101.082L77.7596 98.3147L77.8419 93.0531L78.5808 87.7915L78.908 82.5299L77.6202 77.2683L77.8693 72.0067L77.5273 66.7451L78.3042 61.4835L77.5886 56.2198L77.8271 50.9582L77.8229 45.6966L78.5555 40.4372L78.6505 40.0563L78.3359 34.3145L78.5407 28.5748L78.4584 22.835L78.3781 22.7821L79.3556 18.5487L77.9939 15.7519L78.737 14.9543L78.9904 13.7632L79.2184 14.7427L82.2922 15.1658L87.9711 14.5333L88.4525 14.2201L94.6825 14.7956L100.142 14.0149L105.605 14.6644L111.065 14.5481L116.518 13.5918L122.792 14.1461L128.304 14.3619L128.509 14.0932L133.99 15.242L134.648 15.644L133.878 15.8555L134.089 16.4691L131.121 17.1884L128.716 16.9091L128.33 18.0219L122.803 17.0847L117.949 17.0763L113.094 17.2138L108.24 16.6447L103.387 17.8379L98.1363 18.0304L93.1413 19.8752L88.7417 22.9218L85.2879 27.024L83.0142 31.8328L81.7834 36.9527L81.0002 41.0486L80.7574 46.0478L81.0551 51.0471L80.6687 56.0485L80.7109 61.0498L81.6947 66.0491L80.7511 71.0505L80.9221 76.0518L80.7848 81.0532L81.756 86.0546L82.022 91.056L81.4731 96.0573L81.7137 101.059L81.3232 106.096L80.8566 111.133L81.5427 116.171L81.4182 121.208L81.2641 126.248L81.0846 131.285L82.0304 136.324L80.8608 141.36L81.0339 141.406L80.7131 142.208L78.8025 142.119L78.8004 142.117ZM81.4646 23.1016L80.7574 27.8322L81.0719 27.5423L84.1838 22.7229L82.8685 21.9401L81.376 22.5685L81.4646 23.0995V23.1016ZM86.658 17.4994L86.8016 21.4641L91.5664 17.1101L88.0915 17.9289L88.0788 16.9747L87.8593 17.2138L86.658 17.4994Z" fill="#92B3DB"/>
<path d="M128.281 15.1223L122.792 14.4559L117.882 14.4918L112.978 15.0355L108.072 15.3233L103.159 14.8515L98.2484 14.1914L93.34 14.5701L88.4084 15.5221L82.7125 16.5503L79.1679 14.8113L78.0532 15.7104L80.6879 18.9135L79.1215 22.8592L79.0222 28.5841L78.7182 34.3238L79.3178 40.0678L78.7415 40.4444L79.1341 45.4987L78.3171 50.5508L78.0553 55.6051L78.6401 60.6572L78.9272 65.7115L78.3256 70.7636L78.5198 75.8179L78.2876 80.8722L79.0138 85.9264L79.1341 90.9807L78.5325 96.035L78.9441 101.089L79.0349 106.131L79.4424 111.17L78.4417 116.212L79.3284 121.251L79.4698 126.291L78.866 131.33L78.5261 136.37L78.7436 141.432L80.0947 142.111L80.2551 142.078L80.614 141.011L80.6753 141.024L80.6964 141.056L80.1813 141.405L80.5486 141.36L80.329 136.323L81.431 131.286L80.4726 126.248L80.4853 121.211L80.5887 116.174L81.2115 111.136L80.3713 106.099L80.3058 101.06L80.5085 96.0603L80.3438 91.059L81.3719 86.0576L81.4015 81.0562L80.4008 76.0548L81.1629 71.0535L80.9877 66.0521L80.6056 61.0507L81.3234 56.0515L80.0398 51.0522L80.576 46.0529L81.4015 41.0516L80.3016 36.7484L82.3304 31.5756L84.8258 26.7223L88.8475 23.075L93.3041 20.1914L97.8304 16.9079L103.374 16.8677L108.228 16.4805L113.085 16.1293L117.935 16.8571L122.788 16.4234L128.281 16.563L131.131 17.3395L133.701 15.7422L133.739 15.7337L128.275 15.1265L128.281 15.1223ZM80.3523 30.5622L80.9666 23.0707L81.0109 22.4022L86.0291 22.709L82.3979 28.2731L80.3501 30.5622H80.3523ZM86.5147 22.1885L86.3289 17.0433L88.0896 16.9058L94.7354 16.4551L90.6567 19.3641L86.5147 22.1864V22.1885Z" fill="#92B3DB"/>
<path d="M219.765 141.477L219.087 141.395L218.46 136.408L218.513 131.422L219.809 126.435L219.727 121.448L218.95 116.462L218.933 111.475L219.201 106.489L219.609 101.502L219.638 96.5156L219.659 91.5291L218.623 86.5425L219.571 81.5559L219.085 76.5672L218.956 71.5807L219.82 66.0885L218.959 60.5963V55.1041L219.714 53.676L219.497 49.1909L218.433 44.7036L219.476 40.2163L218.207 37.0132L217.472 32.2679L215.479 27.8314L212.558 23.8899L208.42 21.2813L204.339 18.6008L200.56 17.8773L196.777 17.0458L191.999 17.2087L187.22 16.8194L182.451 17.6255L177.675 16.7327L172.171 16.61L166.524 16.153L165.992 15.8441L166.799 15.6326L166.478 15.22L170.761 13.591L177.665 14.2447L183.692 14.2574L189.274 13.866L194.854 13.7539L200.431 13.9633L206.009 13.8935L212.013 13.9951L212.473 13.5762L217.905 15.8738L221.209 14.6763L221.477 14.067L221.83 14.8921L221.692 15.22L220.124 18.6876L220.726 19.9019L222.315 24.3342L222.74 29.6381L222.63 34.9441L222.072 40.2502L221.764 40.9801L222.011 46.0005L222.364 51.0209L222.685 56.0413L222.535 61.0617L222.594 66.0821L222.075 71.1025L222.134 76.123L222.404 81.1434L221.629 86.1638L222.693 91.1842L221.61 96.2046L222.879 101.225L222.44 106.245L221.532 111.266L222.421 116.286L222.925 121.307L221.566 126.327L222.015 131.348L222.328 136.37L222.733 141.393L222.269 141.993L221.604 142.258L219.769 141.475L219.765 141.477ZM215.163 23.031L219.096 27.8165L218.458 24.3173L218.524 23.0394L217.597 21.6156L215.163 23.0331V23.031ZM208.143 17.5726L213.683 20.8244L213.345 17.8752L212.427 17.9365L212.028 16.6481V16.7306L208.143 17.5726Z" fill="#92B3DB"/>
<path d="M172.178 16.4761L177.669 17.4811L182.446 16.51L187.23 17.3901L192.008 17.0685L196.783 17.0812L200.794 16.6179L204.544 18.0354L209.325 19.8696L212.583 23.8576L215.403 27.8773L218.228 31.9774L220.217 36.7228L220.407 40.2136L220.037 44.7009L219.282 49.1882L219.037 53.6754L219.693 58.1521L220.457 62.6288L219.573 67.1055L220.251 71.5801L219.911 76.5667L219.799 81.5532L220.196 86.5398L219.48 91.5264L219.431 96.5129L219.322 101.499L220.232 106.486L219.353 111.473L219.619 116.459L219.875 121.446L220.071 126.432L219.643 131.419L219.995 136.408L220.27 141.199L220.992 141.394L222.07 136.23L221.186 131.066L221.595 125.901L221.213 120.737L221.659 115.573L222.355 110.406L222.121 105.24L221.585 100.277L221.992 95.3133L221.369 90.3479L221.15 85.3825L221.585 80.4171L221.944 75.4517L221.819 70.4863L221.743 65.5209L221.635 60.5555L221.591 55.5901L221.737 50.6247L221.676 45.6614L222.199 40.9752L221.152 40.2517L221.53 34.9393L221.405 29.6291L221.6 24.3167L220.238 20.1362L220.293 18.7801L221.745 15.2575L221.365 14.9148L217.726 16.5946L212.032 15.0248L207.117 15.4649L202.207 15.3696L197.3 14.5319L192.394 14.1172L187.484 14.4028L182.573 14.5996L177.665 14.6821L170.789 14.6144L166.547 15.4373L166.556 16.0763L172.171 16.474L172.178 16.4761ZM214.477 22.6644L219.134 22.7278L220.033 24.3209L219.22 30.158L217.886 26.2017L214.479 22.6644H214.477ZM214.508 16.7533L213.592 21.2194L209.961 19.1249L206.382 17.132L212.036 17.0368L214.508 16.7533Z" fill="#92B3DB"/>
<path d="M116.788 268.35L111.204 268.062L105.612 269.263H100.028L94.4437 268.485L88.448 268.402L87.9899 268.98L82.6529 266.676L79.7227 268.823L78.988 269.268L78.627 267.909L77.5989 266.79L79.6657 264.137L79.4229 263.05L77.7973 258.457L78.5869 253.155L78.4602 247.849L78.4813 242.543L78.0739 241.813L78.8466 236.793L78.8381 231.772L78.1246 226.752L78.0084 221.731L77.7635 216.711L77.9747 211.691L77.5672 206.67L77.9008 201.65L77.9261 196.629L77.5672 191.609L77.8733 186.588L78.2787 181.568L77.6875 176.548L78.1837 171.527L78.4834 166.507L78.5848 161.486L78.6143 156.466L78.1414 151.446L77.4912 146.423L78.3821 141.401L78.4961 141.094L78.8022 141.305L80.7023 141.538L81.3884 141.401L81.5615 146.387L80.5925 151.374L81.439 156.36L80.9049 161.347L81.2174 166.333L81.4454 171.32L82.0323 176.306L81.7536 181.293L81.9542 186.28L81.3989 191.266L80.9239 196.253L80.9704 201.239L81.572 206.228L80.6263 211.217L81.8212 216.631L80.9809 222.044L81.591 227.461L82.0069 229.119V233.604L80.7635 238.092L81.4538 242.577L81.4855 245.89L82.6107 250.671L85.4312 254.672L88.448 258.364L91.619 262.168L96.2888 263.748L99.9622 264.611L103.688 265.686L108.466 265.777L113.243 265.925L118.012 265.072L122.79 264.67L128.304 265.593L134.063 266.39L135.062 266.955L134.059 267.167L133.878 267.353L129.676 268.364L122.8 269.304L122.794 268.819L116.788 268.352V268.35ZM86.2883 265.578L88.0364 266.12L88.3678 264.878L88.4354 264.854L91.9863 265.453L86.7929 261.687L86.2862 265.58L86.2883 265.578ZM81.1625 260.397L82.8662 261.142L84.1962 260.082L81.8718 255.258L81.1836 258.478L81.1625 260.397Z" fill="#92B3DB"/>
<path d="M128.281 266.523L122.792 265.535L118.013 265.906L113.239 266.792L108.453 265.612L103.672 266.705L99.7977 265.487L96.0504 264.404L91.636 262.155L87.3377 259.483L84.6756 255.171L82.6763 250.654L80.3794 246.057L81.4265 242.579L80.7066 238.096L80.9663 233.608L80.6602 229.121L80.0859 224.644L81.3547 220.17L81.0697 215.693L80.0205 211.218L80.0669 206.232L80.6475 201.245L81.207 196.259L80.7214 191.272L81.2576 186.286L81.1859 181.299L81.0127 176.313L80.485 171.326L80.8523 166.339L80.8586 161.353L81.3547 156.366L80.7531 151.38L80.39 146.391L80.0986 141.631L78.7897 141.402L78.3168 146.567L78.3633 151.731L79.3956 156.895L78.4076 162.059L79.3724 167.224L78.7876 172.39L78.5976 177.557L78.6187 182.52L78.0635 187.483L79.2457 192.449L78.9459 197.414L78.6842 202.379L79.3576 207.345L78.6462 212.31L79.1887 217.276L79.1022 222.241L78.9692 227.206L79.4653 232.172L78.0994 237.135L78.6694 241.823L78.5828 242.549L78.3337 247.861L79.3597 253.172L79.062 258.486L79.0747 263.227L80.4681 263.993L78.9818 267.725L78.9417 267.666L82.8473 265.891L88.4334 268.235L93.3355 267.689L98.2417 268.428L103.152 267.655L108.061 267.793L112.965 268.76L117.882 267.511L122.786 267.691L129.674 268.59L133.437 266.627L133.874 266.767L128.275 266.523H128.281ZM86.1745 260.202L81.1943 260.238L80.8164 258.48L80.0733 251.909L82.4779 256.66L86.1745 260.2V260.202ZM85.8029 266.174L86.7994 261.376L90.2933 263.995L95.0666 266.636L88.4271 265.641L85.8029 266.174Z" fill="#92B3DB"/>
<path d="M177.667 268.726L172.149 269.033L171.975 267.996L166.237 268.073L165.851 267.178L165.94 266.966L166.484 266.571L169.434 266.276L171.752 266.209L172.151 265.286L177.665 265.212L182.521 265.494L187.378 265.026L192.234 265.288L197.085 265.123L202.209 264.341L207.16 262.64L211.194 259.301L214.905 255.607L218.127 251.262L219.29 245.96L219.119 241.779L218.494 236.78L219.337 231.781L219.28 226.782L219.63 221.782L219.265 216.783L218.672 211.782L219.63 206.78L219.208 201.781L218.708 196.782L218.6 191.783L218.532 186.783L219.808 181.784L218.486 176.745L218.653 171.705L219.725 166.664L218.862 161.624L219.672 156.583L218.535 151.543L219.001 146.504L219.468 141.466L219.451 141.42L219.767 140.48L221.667 140.77L222.501 141.42L222.297 146.459L222.974 151.499L221.946 156.538L222.368 161.578L222.438 166.617L222.244 171.657L222.417 176.698L222.626 181.74L221.619 184.79L221.765 190.025L222.075 195.261L222.311 200.495L222.981 205.731L221.718 210.967L221.577 216.203L222.596 221.44L222.32 226.676L222.455 231.912L221.942 237.148L222.229 242.382L222.284 242.765L222.831 248.509L222.97 254.251L222.487 259.989L222.041 260.031L220.899 264.203L222.873 266.803L222.651 268.36L221.477 268.851V268.252L221.057 268.365L218.106 267.478L212.495 268.126L212.017 268.197L205.783 268.722L200.33 268.663L194.875 267.973L189.43 269.319L183.975 268.946L177.673 268.929L177.669 268.955L177.665 268.731L177.667 268.726ZM213.687 261.899L208.901 265.707L212.374 266.181L212.408 265.119L212.602 265.293L213.784 265.299L213.687 261.897V261.899ZM215.655 259.919L217.597 260.181L219.428 260.721L218.718 259.707L218.915 254.987L219.202 255.165L215.657 259.919H215.655Z" fill="#92B3DB"/>
<path d="M219.645 263.864L221.184 259.95L220.937 254.232L221.792 248.496L222.17 242.754L221.661 242.376L221.999 237.323L221.638 232.269L222.153 227.215L220.981 222.163L221.049 217.109L222.296 212.056L221.538 207.002L222.408 201.948L220.939 196.894L221.211 191.839L221.226 186.785L221.068 181.731L221.433 176.689L222.159 171.65L221.213 166.608L221.655 161.569L221.171 156.529L221.315 151.49L221.823 146.45L221.574 141.457L220.369 141.28L220.208 141.832L219.85 141.02L219.788 141.633L219.767 142.096L219.413 141.409L219.448 141.457L219.286 146.497L219.953 151.536L219.499 156.576L219.358 161.615L220.268 166.655L219.176 171.694L219.999 176.734L219.423 181.775L220.426 186.774L219.379 191.774L219.795 196.773L220.479 201.772L220.354 206.772L219.617 211.771L220.449 216.77L219.953 221.769L219.782 226.769L219.045 231.768L219.204 236.765L219.881 241.762L219.132 245.921L217.943 251.164L216.075 256.4L211.686 259.817L207.848 263.879L202.331 264.799L197.089 265.732L192.242 265.639L187.382 266.441L182.527 266.699L177.677 266.329L172.193 266.619L169.457 266.416L167.046 267.467L166.598 267.338L172.176 268.121L177.675 268.315L182.579 267.518L187.494 268.527L192.398 268.034L197.309 268.442L202.217 268.055L207.126 267.471L212.047 267.567L218.011 266.936L221.595 267.548L221.538 267.683L219.645 263.858V263.864ZM220.219 252.235L220.126 259.758L219.942 261.179L214.867 260.043L218.992 255.05L220.217 252.237L220.219 252.235ZM212.372 266.595L205.656 266.445L209.731 263.331L213.78 261.103L213.913 265.593L212.374 266.595H212.372Z" fill="#92B3DB"/>
<path d="M162.569 268.934L158.364 267.239L154.199 265.453L150.232 260.941L145.794 264.982L142.526 268.269L137.896 269.285L137.626 268.284L136.94 267.486L138.411 265.47L139.1 265.699L143.115 261.723L148.064 259.02L143.579 255.368L141.369 258.762L139.528 261.309L139.108 261.427L138.456 261.366L138.538 258.279L140.32 251.795L142.809 248.75L145.351 245.882L147.09 244.157L148.009 243.284L149.254 241.661L149.573 241.836L149.733 241.415L150.227 240.787V241.081L150.515 241.633L151.253 241.214L151.053 241.881L152.294 243.461L153.755 243.654L155.896 245.071L157.996 248.499L160.669 251.537L161.727 258.307L161.799 261.186L161.353 261.148L161.161 260.953L158.695 259.009L156.255 254.211L153.006 259.07L156.204 261.377L159.578 264.302L163.479 265.959L168.001 265.434L172.523 264.895L177.045 266.097L178.198 266.082L176.965 268.144L177.045 268.049L172.219 268.362L167.406 269.448L162.565 268.938L162.569 268.934ZM150.232 257.236L156.187 253.908L153.181 250.515L150.23 247.868L146.782 250.073L145.097 253.183L150.23 257.238L150.232 257.236Z" fill="#92B3DB"/>
<path d="M137.895 268.329L142.404 267.974L146.141 265.329L150.232 259.634L154.703 264.946L158.402 267.147L162.57 268.632L167.396 268.023L172.222 268.082L177.132 268.331L176.826 266.563L172.526 266.237L168.004 266.313L163.482 265.774L159.515 264.386L155.645 261.544L150.827 258.976L156.405 253.45L158.86 257.465L161.32 260.705L162.213 258.221L159.586 252.056L157.41 248.916L154.782 246.208L151.957 243.856L150.986 241.973L150.23 242.557L149.599 242.155L148.573 243.94L145.231 245.749L142.535 248.544L140.78 252.009L139.298 258.388L138.933 260.383L141.65 257.495L143.565 254.186L148.642 259.097L143.728 262.023L139.208 265.951L139.651 265.708M144.106 253.522L147.19 250.535L150.232 248.15L154.366 249.568L156.454 253.585L153.466 256.029L150.23 257.679L147.017 255.991L144.103 253.524L144.106 253.522Z" fill="#92B3DB"/>
<path d="M209.148 136.97L207.396 136.196L207.045 133.659L207.183 131.101L206.22 128.732L206.287 126.131L205.447 123.745L204.149 121.534L203.602 119.059L202.559 116.772L201.394 114.548L199.726 112.615L199.027 110.114L197.82 107.888L196.059 106.058L194.226 104.321L192.495 102.525L190.899 100.6L189.115 98.8778L187.462 96.9927L185.609 95.3172L183.51 93.9589L181.178 92.9836L179.486 90.9759L177.082 90.1698L174.929 88.9089L172.581 88.0647L170.347 86.9371L167.812 86.6853L165.477 85.856L163.14 84.959L160.609 84.978L158.204 84.3285L155.753 83.8927L153.283 83.459L150.783 84.2693L148.292 83.6367L145.791 83.6092L143.321 84.0027L140.859 84.4004L138.465 85.124L136.048 85.6931L133.782 86.7678L131.272 87.0788L129.077 88.2826L126.816 89.2876L124.724 90.6289L122.173 91.1388L120.341 92.9096L118.361 94.3926L116.017 95.3954L114.007 96.8806L112.513 98.9476L110.429 100.363L108.702 102.13L107.581 104.417L105.54 105.925L103.785 107.711L102.979 110.148L101.319 112.022L99.9177 114.083L99.3793 116.577L98.2752 118.78L97.0001 120.935L96.2591 123.303L95.5328 125.674L95.2077 128.143L95.2373 130.657L94.3274 133.001L93.9854 135.383L91.4161 137.158L90.1558 138.855L89.4316 140.806L89.4633 143.131L91.4879 144.311L94.4899 145.875L94.1585 148.633L94.5533 151.077L95.6785 153.36L95.9909 155.81L96.1788 158.331L97.5532 160.47L98.3259 162.808L99.5567 164.947L99.9599 167.503L101.125 169.697L102.658 171.664L103.77 173.905L105.903 175.398L106.998 177.681L109.088 179.122L110.872 180.8L111.972 183.247L113.929 184.817L115.958 186.285L118.217 187.415L120.309 188.742L122.14 190.521L124.314 191.756L126.691 192.577L129.104 193.25L131.462 193.991L133.618 195.349L135.919 196.377L138.554 196.053L140.88 197.046L143.342 197.401L145.797 197.862L148.294 197.803L150.779 198.106L153.264 197.801L155.772 197.979L158.177 197.088L160.613 196.673L163.085 196.417L165.521 195.929L167.85 195.051L170.311 194.579L172.522 193.405L174.998 192.85L177.213 191.689L179.404 190.489L181.501 189.129L183.403 187.496L185.52 186.175L187.243 184.352L189.506 183.154L191.144 181.252L192.88 179.435L194.471 177.491L196.409 175.817L197.186 173.272L198.827 171.364L200.195 169.261L201.729 167.232L202.73 164.911L203.929 162.679L204.155 160.073L205.399 157.843L206.203 155.45L206.703 152.975L207.052 150.478L207.069 147.946L207.419 145.42L209.184 144.715L210.527 142.87L211.28 140.803L210.533 138.732L209.142 136.976L209.148 136.97ZM199.35 151.786L198.846 154.297L197.995 156.711L197.302 159.184L195.822 161.327L195.419 163.976L194.296 166.305L192.865 168.457L190.935 170.238L189.633 172.468L187.838 174.307L186.46 176.547L184.133 177.912L182.242 179.725L180.008 181.106L178.068 182.898L175.651 183.958L173.653 185.771L171.133 186.592L168.582 187.25L166.324 188.708L163.824 189.544L161.253 190.121L158.595 190.161L155.99 190.354L153.395 190.567L150.792 191.306L148.168 190.953L145.588 190.394L143.023 189.935L140.327 190.132L137.849 189.205L135.469 188.056L132.946 187.386L130.641 186.154L127.935 185.752L125.847 184.098L123.548 182.843L121.223 181.587L119.437 179.606L117.468 177.893L115.747 175.921L113.963 174.044L111.989 172.314L110.735 169.999L108.468 168.393L107.138 166.117L106.532 163.466L104.845 161.378L103.686 159.008L102.869 156.501L102.181 153.961L101.64 151.356L101.854 148.633L100.733 146.116L101.203 143.427L100.399 140.801L100.513 138.14L100.813 135.495L101.653 132.94L101.478 130.215L102.39 127.699L103.418 125.281L104.417 122.878L105.293 120.428L106.578 118.164L107.15 115.498L108.62 113.315L110.691 111.576L112.162 109.437L113.672 107.3L115.675 105.616L117.221 103.443L119.346 101.89L121.515 100.422L123.427 98.5773L125.619 97.1091L128.146 96.265L130.525 95.1902L132.93 94.1789L135.383 93.2882L137.834 92.3489L140.388 91.7671L142.938 91.1324L145.529 90.6374L148.187 91.0076L150.792 90.7135L153.41 90.7431L156.009 91.0689L158.586 91.4942L161.223 91.6317L163.71 92.497L166.15 93.4406L168.572 94.3926L170.974 95.3785L173.689 95.772L175.974 97.0964L177.85 99.0491L180.139 100.327L182.567 101.486L183.882 103.976L185.932 105.593L187.952 107.201L189.523 109.232L191.123 111.233L192.371 113.48L194.062 115.443L195.62 117.529L196.287 120.07L197.315 122.421L198.375 124.769L199.268 127.194L199.758 129.73L200.321 132.464L200.064 135.301L200.999 138.011L200.277 140.806L201.117 143.607L200.782 146.389L199.876 149.073L199.354 151.792L199.35 151.786Z" fill="#4678B7"/>
<path d="M209.148 136.97L207.396 136.196L207.045 133.659L207.183 131.101L206.22 128.732L206.287 126.131L205.447 123.745L204.149 121.534L203.602 119.059L202.559 116.772L201.394 114.548L199.726 112.615L199.027 110.114L197.82 107.888L196.059 106.058L194.226 104.321L192.495 102.525L190.899 100.6L189.115 98.8778L187.462 96.9927L185.609 95.3172L183.51 93.9589L181.178 92.9836L179.486 90.9759L177.082 90.1698L174.929 88.9089L172.581 88.0647L170.347 86.9371L167.812 86.6853L165.477 85.856L163.14 84.959L160.609 84.978L158.204 84.3285L155.753 83.8927L153.283 83.459L150.783 84.2693L148.292 83.6367L145.791 83.6092L143.321 84.0027L140.859 84.4004L138.465 85.124L136.048 85.6931L133.782 86.7678L131.272 87.0788L129.077 88.2826L126.816 89.2876L124.724 90.6289L122.173 91.1388L120.341 92.9096L118.361 94.3926L116.017 95.3954L114.007 96.8806L112.513 98.9476L110.429 100.363L108.702 102.13L107.581 104.417L105.54 105.925L103.785 107.711L102.979 110.148L101.319 112.022L99.9177 114.083L99.3793 116.577L98.2752 118.78L97.0001 120.935L96.2591 123.303L95.5328 125.674L95.2077 128.143L95.2373 130.657L94.3274 133.001L93.9854 135.383L91.4161 137.158L90.1558 138.855L89.4316 140.806L89.4633 143.131L91.4879 144.311L94.4899 145.875L94.1585 148.633L94.5533 151.077L95.6785 153.36L95.9909 155.81L96.1788 158.331L97.5532 160.47L98.3259 162.808L99.5567 164.947L99.9599 167.503L101.125 169.697L102.658 171.664L103.77 173.905L105.903 175.398L106.998 177.681L109.088 179.122L110.872 180.8L111.972 183.247L113.929 184.817L115.958 186.285L118.217 187.415L120.309 188.742L122.14 190.521L124.314 191.756L126.691 192.577L129.104 193.25L131.462 193.991L133.618 195.349L135.919 196.377L138.554 196.053L140.88 197.046L143.342 197.401L145.797 197.862L148.294 197.803L150.779 198.106L153.264 197.801L155.772 197.979L158.177 197.088L160.613 196.673L163.085 196.417L165.521 195.929L167.85 195.051L170.311 194.579L172.522 193.405L174.998 192.85L177.213 191.689L179.404 190.489L181.501 189.129L183.403 187.496L185.52 186.175L187.243 184.352L189.506 183.154L191.144 181.252L192.88 179.435L194.471 177.491L196.409 175.817L197.186 173.272L198.827 171.364L200.195 169.261L201.729 167.232L202.73 164.911L203.929 162.679L204.155 160.073L205.399 157.843L206.203 155.45L206.703 152.975L207.052 150.478L207.069 147.946L207.419 145.42L209.184 144.715L210.527 142.87L211.28 140.803L210.533 138.732L209.142 136.976L209.148 136.97ZM199.35 151.786L198.846 154.297L197.995 156.711L197.302 159.184L195.822 161.327L195.419 163.976L194.296 166.305L192.865 168.457L190.935 170.238L189.633 172.468L187.838 174.307L186.46 176.547L184.133 177.912L182.242 179.725L180.008 181.106L178.068 182.898L175.651 183.958L173.653 185.771L171.133 186.592L168.582 187.25L166.324 188.708L163.824 189.544L161.253 190.121L158.595 190.161L155.99 190.354L153.395 190.567L150.792 191.306L148.168 190.953L145.588 190.394L143.023 189.935L140.327 190.132L137.849 189.205L135.469 188.056L132.946 187.386L130.641 186.154L127.935 185.752L125.847 184.098L123.548 182.843L121.223 181.587L119.437 179.606L117.468 177.893L115.747 175.921L113.963 174.044L111.989 172.314L110.735 169.999L108.468 168.393L107.138 166.117L106.532 163.466L104.845 161.378L103.686 159.008L102.869 156.501L102.181 153.961L101.64 151.356L101.854 148.633L100.733 146.116L101.203 143.427L100.399 140.801L100.513 138.14L100.813 135.495L101.653 132.94L101.478 130.215L102.39 127.699L103.418 125.281L104.417 122.878L105.293 120.428L106.578 118.164L107.15 115.498L108.62 113.315L110.691 111.576L112.162 109.437L113.672 107.3L115.675 105.616L117.221 103.443L119.346 101.89L121.515 100.422L123.427 98.5773L125.619 97.1091L128.146 96.265L130.525 95.1902L132.93 94.1789L135.383 93.2882L137.834 92.3489L140.388 91.7671L142.938 91.1324L145.529 90.6374L148.187 91.0076L150.792 90.7135L153.41 90.7431L156.009 91.0689L158.586 91.4942L161.223 91.6317L163.71 92.497L166.15 93.4406L168.572 94.3926L170.974 95.3785L173.689 95.772L175.974 97.0964L177.85 99.0491L180.139 100.327L182.567 101.486L183.882 103.976L185.932 105.593L187.952 107.201L189.523 109.232L191.123 111.233L192.371 113.48L194.062 115.443L195.62 117.529L196.287 120.07L197.315 122.421L198.375 124.769L199.268 127.194L199.758 129.73L200.321 132.464L200.064 135.301L200.999 138.011L200.277 140.806L201.117 143.607L200.782 146.389L199.876 149.073L199.354 151.792L199.35 151.786Z" fill="#C3DCFB" stroke="#A2BFE2" stroke-width="1.69251" stroke-miterlimit="10"/>
<mask id="mask1_1925_35079" style="mask-type:luminance" maskUnits="userSpaceOnUse" x="97" y="74" width="108" height="117">
<mask id="mask2_1925_35079" style="mask-type:luminance" maskUnits="userSpaceOnUse" x="89" y="74" width="122" height="122">
<path d="M150.057 195.621C183.491 195.621 210.594 168.46 210.594 134.955C210.594 101.45 183.491 74.2891 150.057 74.2891C116.624 74.2891 89.5205 101.45 89.5205 134.955C89.5205 168.46 116.624 195.621 150.057 195.621Z" fill="white"/>
</mask>
<g mask="url(#mask2_1925_35079)">
<path d="M150.878 190.131C180.4 190.131 204.332 164.034 204.332 131.841C204.332 99.6482 180.4 73.5508 150.878 73.5508C121.356 73.5508 97.4238 99.6482 97.4238 131.841C97.4238 164.034 121.356 190.131 150.878 190.131Z" fill="white"/>
</g>
</mask>
<g mask="url(#mask1_1925_35079)">
<path d="M194.347 135.352L192.33 133.862L189.912 133.073L187.601 132.101L185.773 130.281L183.162 129.829L180.939 128.698L178.869 127.302L176.507 126.412L174.626 124.678L172.435 123.968L171.358 122.021L169.977 120.373L168.609 118.104L167.294 115.81L167.027 113.053L165.055 111.05L164.361 108.484L163.309 106.382L161.96 104.411L161.135 102.211L159.861 100.209L159.242 97.918L158.54 95.6547L156.881 93.569L154.605 92.1832L152.323 91.0475L149.925 89.7344L147.463 91.0677L145.217 92.2014L142.801 93.456L141.944 95.9351L140.638 98.0673L139.194 100.139L138.222 102.42L137.652 104.877L135.819 106.779L135.44 109.323L133.614 111.227L132.573 113.48L131.756 115.83L131.029 118.219L129.83 120.399L128.151 121.848L127.02 123.641L125.328 125.035L122.963 125.918L120.838 127.221L118.662 128.432L116.363 129.424L114.054 130.4L112.041 131.903L109.946 133.257L107.492 133.987L105.305 135.183L103.161 136.47L101.329 138.201L99.9653 140.345L99.7065 142.836L99.8041 145.285L100.275 147.726L101.56 149.906L103.647 151.401L105.872 152.51L107.802 153.745L109.997 154.451L112.179 155.181L114.136 156.363L116.1 157.537L118.42 158.499L119.92 160.44L120.571 162.752L121.515 164.902L121.572 167.262L122.094 169.513L122.232 171.819L121.765 174.038L121.65 176.533L121.093 178.933L120.889 181.416L119.517 183.629L119.642 186.189L119.01 188.573L118.329 190.947L117.01 193.17L117.184 195.744L115.816 197.957L115.691 200.458L115.335 202.907L114.548 205.255L113.7 207.589L112.824 209.917L112.728 212.428L111.895 214.669L114.329 215.159L116.868 214.806L119.407 214.939L121.945 214.665L124.484 214.974L127.022 214.365L129.561 214.647L132.1 214.867L134.638 214.778L137.177 215.105L139.715 215.028L142.254 215.113L144.795 215.157L147.333 214.804L149.874 214.52L152.413 215.123L154.951 215.099L157.49 214.256L160.028 214.96L162.567 214.298L165.106 214.843L167.644 214.883L170.183 214.48L172.721 215.244L175.26 214.276L177.798 215.151L180.339 214.992L182.878 214.542L185.419 214.645L188.326 215.012L187.121 212.408L186.998 209.907L186.12 207.579L185.066 205.293L184.77 202.83L184.32 200.406L183.321 198.106L183.346 195.569L182.757 193.174L181.73 190.881L180.831 188.559L180.874 186.017L180.165 183.651L179.497 181.275L178.367 179.006L178.161 176.521L177.4 174.163L177.44 171.819L177.23 169.479L177.586 167.161L178.182 164.888L179.476 162.868L180.509 160.825L181.249 158.425L183.472 157.178L185.735 156.611L187.91 155.867L190.029 155.012L192.105 154.064L193.815 152.383L195.944 151.215L197.929 149.723L199.479 147.726L199.535 145.226L200.253 142.818L199.613 140.401L198.158 138.364L196.877 136.167L194.347 135.352Z" fill="url(#paint2_linear_1925_35079)"/>
<path d="M147.591 145.635C148.141 145.981 147.997 146.243 149.241 146.533C149.531 146.643 149.827 146.609 150.117 146.607C150.798 146.603 151.486 146.604 152.15 146.434C152.684 146.298 153.131 146.031 153.617 145.739C153.697 145.691 153.877 145.517 153.905 145.389" stroke="#A2BFE2" stroke-width="2.57564" stroke-linecap="round"/>
<path d="M162.012 138.348C161.704 136.983 160.017 136.789 159.212 136.862C158.088 136.997 158.064 138.001 157.952 139.491C157.84 140.981 157.389 140.346 158.403 142.857C159.416 145.368 161.589 144.854 162.364 143.885C163.139 142.916 162.337 142.626 162.6 140.784C162.863 138.942 162.396 140.054 162.012 138.348Z" fill="#A2BFE2"/>
<path d="M142.607 138.553C142.3 137.188 140.613 136.994 139.808 137.067C138.684 137.202 138.66 138.206 138.548 139.696C138.435 141.186 137.985 140.551 138.998 143.062C140.012 145.573 142.185 145.059 142.96 144.09C143.735 143.121 142.933 142.831 143.196 140.989C143.459 139.147 142.992 140.259 142.607 138.553Z" fill="#A2BFE2"/>
<path d="M193.025 131.533L190.825 130.292L188.54 129.213L186.312 128.027L184.044 126.917L181.709 125.935L179.72 124.29L177.315 123.437L175.265 121.905L174.284 120.808L173.593 118.374L171.982 116.381L171.05 114.061L170.414 111.598L168.692 109.658L168.212 107.441L167.225 105.467L166.2 102.612L164.965 99.8539L163.577 97.1721L162.425 94.6855L160.84 92.4379L158.921 91.0718L156.837 90.085L155.108 88.3198L152.702 87.9668L150.337 88.0107L150.202 88.2891L147.958 88.504L145.616 88.6553L143.5 89.6903L141.592 91.0871L139.554 92.4072L137.937 94.6745L137.06 97.3388L135.786 99.5973L134.634 101.913L133.795 104.38L132.313 106.538L131.284 108.914L130.698 111.506L129.24 113.677L128.602 116.243L127.475 118.574L126.776 121.109L125.37 122.269L122.808 122.817L121.031 124.865L118.501 125.474L116.347 126.803L114.291 128.321L112.188 129.748L109.833 130.7L107.548 131.781L105.701 133.568L103.67 135.061L102.229 137.166L101.324 139.55L99.9946 141.745L99.0626 144.216L98.8237 146.867L99.4663 149.45L99.9503 152.031L101.612 154.086L102.647 156.43L104.509 158.129L106.103 160.193L108.512 161.028L110.571 162.552L112.788 163.725L115.149 164.589L117.381 165.727L118.503 168.462L119.543 171.363L118.714 174.338L119.05 176.996L117.85 179.334L117.455 181.844L116.937 184.329L116.666 186.868L116.698 189.473L115.21 191.859L114.739 194.462L114.221 197.056L114.242 199.766L113.754 202.367L113.433 205.002L112.866 207.585L112.357 210.182L111.127 212.622L111.304 215.365L110.979 218.003L110.214 220.547L109.924 223.604L111.754 225.994L113.733 228.134L116.582 228.599L119.074 229.351L121.566 228.862L124.057 228.845L126.549 229.226L129.041 228.768L131.533 229.073L134.025 228.939L136.517 229.386L139.007 228.792L141.496 229.377L143.988 228.329L146.478 229.2L148.97 228.86L151.462 229.277L153.954 229.336L156.446 228.606L158.937 228.877L161.429 228.827L163.921 228.726L166.413 229.062L168.905 228.331L171.397 229.303L173.889 228.63L176.381 229.338L178.873 228.917L181.367 229.241L183.861 228.783L186.701 228.117L188.758 226.053L190.474 223.593L190.746 220.437L190.026 217.887L188.986 215.405L188.844 212.73L188.698 210.057L187.671 207.572L187.039 205.002L186.585 202.395L186.291 199.753L185.807 197.15L185.061 194.606L184.841 191.947L183.844 189.453L184 186.824L183.104 184.421L182.738 181.904L182.603 179.336L181.326 177.014L181.242 174.435L181.318 171.413L181.491 168.326L183.125 165.835L185.203 164.383L187.642 163.695L189.58 161.908L192.013 161.201L194.109 159.838L196.398 158.64L198.057 156.638L199.549 154.492L200.175 151.915L201.086 149.472L200.805 146.845L201.135 144.249L200.15 141.835L199.154 139.53L197.983 137.331L196.958 134.879L195.202 132.943L193.025 131.533ZM189.377 155.437L187.056 156.509L184.385 156.814L182.36 158.537L180.065 159.669L177.782 160.818L176.858 163.289L175.358 165.416L174.605 167.907L174.531 170.521L174.857 173.091L174.483 175.676L175.512 178.318L175.394 181.208L176.63 183.807L176.856 186.622L177.15 189.425L178.205 191.808L177.902 194.484L178.395 196.988L179.646 199.33L179.45 201.981L180.504 204.364L181.166 206.831L181.527 209.362L181.975 211.875L182.609 214.348L182.954 216.885L183.391 219.402L184.243 222.24L181.371 221.58L178.879 222.266L176.387 222.33L173.895 221.543L171.403 222.231L168.911 221.931L166.419 222.444L163.928 221.955L161.438 222.229L158.948 221.692L156.456 222.146L153.966 221.529L151.475 222.251L148.983 221.709L146.491 222.207L143.999 222.167L141.507 222.187L139.015 222.016L136.523 221.611L134.031 221.483L131.539 222.38L129.048 222.398L126.556 222.22L124.064 221.692L121.572 221.409L119.078 222.284L116.487 222.001L117.482 219.499L117.939 216.988L118.173 214.429L118.761 211.945L119.042 209.395L119.691 206.923L120.557 204.498L120.378 201.849L120.957 199.365L121.709 196.915L122.062 194.381L122.155 191.789L123.366 189.436L123.96 186.701L124.258 183.901L124.275 181.042L125.395 178.417L125.362 175.551L125.818 173.089L125.746 170.541L125.383 168.012L124.514 165.622L123.531 163.32L122.646 160.835L120.448 159.531L117.964 158.814L115.7 157.618L113.777 155.669L111.359 154.807L109.125 153.619L107.925 151.327L106.936 149.086L105.777 146.672L106.794 144.194L106.931 141.46L109.043 139.859L111.017 138.414L112.889 136.546L115.022 135.175L117.347 134.178L119.57 132.983L121.618 131.45L124.186 130.91L126.313 129.522L128.282 127.836L130.618 126.176L132.148 123.692L133.294 121.372L134.913 119.28L135.477 116.679L136.276 114.193L137.707 112.011L138.288 109.419L139.839 107.294L141.046 105.005L141.511 102.356L142.627 100.018L143.971 97.9089L145.975 96.5143L148.078 95.556L150.27 94.9048L152.629 94.9684L154.78 96.1678L156.405 98.0383L157.363 100.299L158.84 102.549L160.039 104.939L160.69 107.59L161.577 110.127L162.746 112.53L163.921 114.734L165.46 116.762L165.847 119.343L167.265 121.429L167.721 123.977L169.805 126.209L171.864 128.428L174.307 129.202L176.643 130.18L178.661 131.766L180.995 132.752L182.819 134.715L185.103 135.796L187.604 136.465L189.616 138.068L191.298 139.98L193.494 141.477L194.612 143.951L194.443 146.668L193.798 149.178L192.545 151.343L191.078 153.325L189.379 155.441L189.377 155.437Z" fill="#C3DCFB" stroke="#A2BFE2" stroke-width="1.69251" stroke-miterlimit="10"/>
</g>
<path d="M161.989 194.936L160.039 197.114L157.126 197.869L155.049 199.868L153.837 202.501L153.071 205.24L150.043 207.084L147.813 204.832L145.614 202.911L144.304 200.496L143.021 197.797L140.56 196.314L137.762 195.595L136.638 192.809L138.041 190.572L140.245 188.81L142.479 187.184L143.973 184.836L145.49 182.625L147.559 180.652L150.043 179.584L152.01 180.916L153.334 183.436L155.61 185.265L157.078 187.803L160.279 188.128L161.934 190.79L164.747 192.809L161.989 194.936Z" fill="#4678B7"/>
<path d="M161.989 194.936L160.039 197.114L157.126 197.869L155.049 199.868L153.837 202.501L153.071 205.24L150.043 207.084L147.813 204.832L145.614 202.911L144.304 200.496L143.021 197.797L140.56 196.314L137.762 195.595L136.638 192.809L138.041 190.572L140.245 188.81L142.479 187.184L143.973 184.836L145.49 182.625L147.559 180.652L150.043 179.584L152.01 180.916L153.334 183.436L155.61 185.265L157.078 187.803L160.279 188.128L161.934 190.79L164.747 192.809L161.989 194.936Z" fill="#C3DCFB" stroke="#A2BFE2" stroke-width="1.69251" stroke-miterlimit="10"/>
<path d="M155.013 193.867C153.147 194.817 152.059 195.907 151.112 197.777C150.675 198.64 149.446 198.64 149.009 197.777C148.061 195.907 146.974 194.817 145.107 193.867C144.246 193.429 144.246 192.198 145.107 191.76C146.974 190.81 148.061 189.721 149.009 187.851C149.446 186.987 150.675 186.987 151.112 187.851C152.059 189.721 153.147 190.81 155.013 191.76C155.874 192.198 155.874 193.429 155.013 193.867Z" fill="#286BA8"/>
<path d="M155.013 193.867C153.147 194.817 152.059 195.907 151.112 197.777C150.675 198.64 149.446 198.64 149.009 197.777C148.061 195.907 146.974 194.817 145.107 193.867C144.246 193.429 144.246 192.198 145.107 191.76C146.974 190.81 148.061 189.721 149.009 187.851C149.446 186.987 150.675 186.987 151.112 187.851C152.059 189.721 153.147 190.81 155.013 191.76C155.874 192.198 155.874 193.429 155.013 193.867Z" fill="#A2BFE2"/>
</g>
<g clip-path="url(#clip1_1925_35079)">
<path d="M0.207031 158.145C3.93163 159.702 7.32609 161.849 10.6571 164.082L6.47959 165.605C6.50498 165.075 6.53038 164.544 6.5727 164.018C6.67005 162.435 6.81819 160.856 7.01712 159.286L6.97479 159.766C6.95786 158.993 6.94516 157.453 6.95786 156.685C6.98325 155.39 7.02981 154.058 7.0933 152.759C8.07524 150.994 9.45926 148.702 10.4793 146.933C11.6517 145.074 12.8072 143.207 14.0134 141.369L14.1446 141.25L18.6015 137.24L18.7115 137.138L23.4984 133.48L23.7609 133.276C25.7332 132.461 27.7267 131.676 29.716 130.9C31.7137 130.535 33.7284 130.225 35.7304 129.877C37.2075 129.775 40.2253 129.584 41.7066 129.508L41.749 129.754C40.3015 130.166 37.4191 130.938 35.9674 131.324C34.3929 131.91 32.1454 132.682 30.3339 133.306L30.5667 133.221C28.8272 134.24 27.0961 135.279 25.3438 136.277L25.712 136.03L21.4457 140.287L21.5557 140.185L17.5814 144.675L17.9708 144.166C17.0905 145.974 16.1593 147.756 15.262 149.555C14.5129 151.159 13.459 153.442 12.7056 155.017L13.0484 153.633C13.1246 155.738 13.1331 158.013 13.0569 160.122C12.3966 163.547 11.1565 167.663 10.2169 171.05C6.53461 167.112 2.52221 163.088 0.207031 158.145Z" fill="#FEFF65"/>
</g>
<g clip-path="url(#clip2_1925_35079)">
<path d="M298.349 158.145C294.625 159.702 291.23 161.849 287.899 164.082L292.077 165.605C292.051 165.075 292.026 164.544 291.983 164.018C291.886 162.435 291.738 160.856 291.539 159.286L291.581 159.766C291.598 158.993 291.611 157.453 291.598 156.685C291.573 155.39 291.526 154.058 291.463 152.759C290.481 150.994 289.097 148.702 288.077 146.933C286.904 145.074 285.749 143.207 284.543 141.369L284.412 141.25L279.955 137.24L279.845 137.138L275.058 133.48L274.795 133.276C272.823 132.461 270.829 131.676 268.84 130.9C266.842 130.535 264.828 130.225 262.826 129.877C261.349 129.775 258.331 129.584 256.85 129.508L256.807 129.754C258.255 130.166 261.137 130.938 262.589 131.324C264.163 131.91 266.411 132.682 268.222 133.306L267.989 133.221C269.729 134.24 271.46 135.279 273.212 136.277L272.844 136.03L277.11 140.287L277 140.185L280.975 144.675L280.585 144.166C281.466 145.974 282.397 147.756 283.294 149.555C284.043 151.159 285.097 153.442 285.851 155.017L285.508 153.633C285.432 155.738 285.423 158.013 285.499 160.122C286.16 163.547 287.4 167.663 288.339 171.05C292.022 167.112 296.034 163.088 298.349 158.145Z" fill="#FEFF65"/>
</g>
<defs>
<filter id="filter0_d_1925_35079" x="56.4678" y="0.464517" width="187.027" height="295.213" filterUnits="userSpaceOnUse" color-interpolation-filters="sRGB">
<feFlood flood-opacity="0" result="BackgroundImageFix"/>
<feColorMatrix in="SourceAlpha" type="matrix" values="0 0 0 0 0 0 0 0 0 0 0 0 0 0 0 0 0 0 127 0" result="hardAlpha"/>
<feOffset dy="7.07097"/>
<feGaussianBlur stdDeviation="5.30323"/>
<feComposite in2="hardAlpha" operator="out"/>
<feColorMatrix type="matrix" values="0 0 0 0 0.123511 0 0 0 0 0.195372 0 0 0 0 0.35376 0 0 0 0.4 0"/>
<feBlend mode="normal" in2="BackgroundImageFix" result="effect1_dropShadow_1925_35079"/>
<feBlend mode="normal" in="SourceGraphic" in2="effect1_dropShadow_1925_35079" result="shape"/>
</filter>
<linearGradient id="paint0_linear_1925_35079" x1="243.342" y1="-52.5704" x2="195.111" y2="243.483" gradientUnits="userSpaceOnUse">
<stop stop-color="#46658B"/>
<stop offset="1" stop-color="#35527D" stop-opacity="0"/>
</linearGradient>
<linearGradient id="paint1_linear_1925_35079" x1="56.4724" y1="-52.5704" x2="104.703" y2="243.483" gradientUnits="userSpaceOnUse">
<stop stop-color="#46658B"/>
<stop offset="1" stop-color="#35527D" stop-opacity="0"/>
</linearGradient>
<linearGradient id="paint2_linear_1925_35079" x1="149.98" y1="86.454" x2="149.98" y2="186.586" gradientUnits="userSpaceOnUse">
<stop stop-color="#C3DCFB"/>
<stop offset="1" stop-color="white"/>
</linearGradient>
<clipPath id="clip0_1925_35079">
<rect width="168.819" height="272.577" fill="white" transform="translate(65.3105 4.88281)"/>
</clipPath>
<clipPath id="clip1_1925_35079">
<rect width="41.5419" height="41.5419" fill="white" transform="translate(0.207031 129.508)"/>
</clipPath>
<clipPath id="clip2_1925_35079">
<rect width="41.5419" height="41.5419" fill="white" transform="matrix(-1 0 0 1 298.35 129.508)"/>
</clipPath>
</defs>
</svg>
