<svg width="28" height="28" viewBox="0 0 28 28" fill="none" xmlns="http://www.w3.org/2000/svg">
<path fill-rule="evenodd" clip-rule="evenodd" d="M11.7744 3.94756C11.5565 3.78823 11.3029 3.68469 11.0358 3.64599C10.7687 3.60728 10.4962 3.63459 10.242 3.72552C9.05379 4.16082 7.9502 4.79921 6.98047 5.61224C6.52438 5.99506 6.35703 6.55396 6.40734 7.04834C6.48938 7.87193 6.34391 8.66709 5.94797 9.35177C5.55313 10.0376 4.93625 10.5615 4.18156 10.9016C3.93475 11.0109 3.71848 11.1791 3.55165 11.3913C3.38482 11.6035 3.27251 11.8533 3.22453 12.119C3.00849 13.3638 3.00849 14.6366 3.22453 15.8815C3.32625 16.4688 3.72766 16.8943 4.18156 17.0999C4.93625 17.439 5.55313 17.964 5.94906 18.6486C6.34391 19.3344 6.48938 20.1285 6.40734 20.9521C6.35813 21.4465 6.52438 22.0065 6.98047 22.3882C7.95019 23.2012 9.05378 23.8396 10.242 24.2749C10.496 24.3657 10.7683 24.393 11.0353 24.3543C11.3022 24.3156 11.5556 24.2121 11.7733 24.0529C12.4459 23.5694 13.2083 23.2971 14.0002 23.2971C14.792 23.2971 15.5533 23.5694 16.2259 24.0529C16.6306 24.3438 17.1994 24.4794 17.7583 24.2749C18.9465 23.8396 20.0501 23.2012 21.0198 22.3882C21.4759 22.0065 21.6433 21.4476 21.593 20.9521C21.5109 20.1285 21.6553 19.3333 22.0523 18.6486C22.4472 17.9629 23.0641 17.4401 23.8188 17.0999C24.2716 16.8954 24.6741 16.4688 24.7758 15.8815C24.9918 14.6366 24.9918 13.3638 24.7758 12.119C24.7278 11.8533 24.6155 11.6035 24.4487 11.3913C24.2818 11.1791 24.0656 11.0109 23.8188 10.9016C23.0641 10.5615 22.4472 10.0376 22.0513 9.35177C21.6553 8.66709 21.5109 7.87193 21.593 7.04834C21.6218 6.78038 21.5846 6.50944 21.4847 6.25913C21.3848 6.00882 21.2252 5.78674 21.0198 5.61224C20.0501 4.79921 18.9465 4.16082 17.7583 3.72552C17.5043 3.63478 17.232 3.60757 16.9651 3.64627C16.6982 3.68498 16.4448 3.78841 16.227 3.94756C15.5533 4.4299 14.7909 4.70334 14.0002 4.70334C13.2094 4.70334 12.447 4.43099 11.7744 3.94756ZM10.7189 14.0002C10.7189 13.13 11.0646 12.2954 11.68 11.68C12.2953 11.0647 13.1299 10.719 14.0002 10.719C14.8704 10.719 15.705 11.0647 16.3204 11.68C16.9357 12.2954 17.2814 13.13 17.2814 14.0002C17.2814 14.8705 16.9357 15.7051 16.3204 16.3204C15.705 16.9358 14.8704 17.2815 14.0002 17.2815C13.1299 17.2815 12.2953 16.9358 11.68 16.3204C11.0646 15.7051 10.7189 14.8705 10.7189 14.0002Z" fill="white"/>
</svg>
