<svg width="376" height="267" viewBox="0 0 376 267" fill="none" xmlns="http://www.w3.org/2000/svg">
<rect x="127.635" y="0.887451" width="121" height="35" rx="17.5" fill="white" fill-opacity="0.2"/>
<path d="M151.33 10.8815C151.51 10.8335 151.672 10.8395 151.816 10.8995C151.924 10.9475 152.074 10.9715 152.266 10.9715C152.458 10.9715 152.656 11.0255 152.86 11.1335C153.016 11.2175 153.226 11.3315 153.49 11.4755C153.694 11.5715 153.832 11.6675 153.904 11.7635C153.988 11.8595 154.126 12.0995 154.318 12.4835C154.594 13.0355 154.738 13.4975 154.75 13.8695C154.762 14.2295 154.648 14.6015 154.408 14.9855C154.288 15.1775 154.21 15.3635 154.174 15.5435C154.114 15.8315 153.958 16.0115 153.706 16.0835C153.574 16.1195 153.466 16.1735 153.382 16.2455C153.166 16.4255 152.818 16.5575 152.338 16.6415C152.026 16.7015 151.81 16.7435 151.69 16.7675C151.582 16.7795 151.444 16.7555 151.276 16.6955C151.072 16.6235 150.916 16.5815 150.808 16.5695C150.688 16.5455 150.556 16.4975 150.412 16.4255C150.292 16.3535 150.166 16.2755 150.034 16.1915C149.674 15.9995 149.35 15.6875 149.062 15.2555C148.786 14.8235 148.636 14.4095 148.612 14.0135C148.576 13.6175 148.564 13.3715 148.576 13.2755C148.6 13.1675 148.678 12.9875 148.81 12.7355C148.954 12.4475 149.08 12.2375 149.188 12.1055C149.296 11.9735 149.44 11.8655 149.62 11.7815C149.8 11.6855 149.974 11.5535 150.142 11.3855C150.43 11.0735 150.7 10.9175 150.952 10.9175C151.12 10.9175 151.246 10.9055 151.33 10.8815ZM151.456 12.3935C151.288 12.3575 151.186 12.3395 151.15 12.3395C150.97 12.3635 150.79 12.4715 150.61 12.6635C150.37 12.9035 150.208 13.2035 150.124 13.5635C150.04 13.9115 150.058 14.1995 150.178 14.4275C150.274 14.5955 150.346 14.7455 150.394 14.8775C150.454 15.0575 150.61 15.1475 150.862 15.1475C150.97 15.1475 151.108 15.1895 151.276 15.2735C151.576 15.4295 151.894 15.4235 152.23 15.2555C152.422 15.1475 152.548 15.0935 152.608 15.0935C152.668 15.0935 152.74 15.0455 152.824 14.9495C152.908 14.8535 152.95 14.7695 152.95 14.6975C152.95 14.6255 153.004 14.5115 153.112 14.3555C153.304 14.0675 153.31 13.7195 153.13 13.3115C153.046 13.0955 153.004 12.9695 153.004 12.9335C153.004 12.8015 152.914 12.6935 152.734 12.6095C152.566 12.5255 152.356 12.4775 152.104 12.4655C151.864 12.4655 151.648 12.4415 151.456 12.3935ZM156.028 11.2775C156.124 11.2295 156.19 11.2115 156.226 11.2235C156.274 11.2235 156.358 11.2655 156.478 11.3495C156.61 11.4455 156.706 11.4935 156.766 11.4935C156.826 11.4935 156.892 11.5355 156.964 11.6195C157.036 11.7035 157.078 11.7935 157.09 11.8895C157.114 12.0095 157.144 12.1175 157.18 12.2135C157.216 12.3095 157.234 12.4895 157.234 12.7535V13.1495H157.702C158.014 13.1495 158.23 13.1855 158.35 13.2575C158.47 13.3295 158.572 13.3595 158.656 13.3475C158.812 13.3115 158.908 13.3955 158.944 13.5995C159.004 13.9235 158.92 14.1875 158.692 14.3915C158.488 14.5595 158.242 14.6195 157.954 14.5715C157.594 14.5115 157.33 14.5595 157.162 14.7155C156.994 14.8715 156.946 15.1115 157.018 15.4355C157.078 15.6995 157.066 15.9455 156.982 16.1735C156.922 16.3295 156.892 16.4615 156.892 16.5695C156.892 16.6895 156.808 16.8215 156.64 16.9655C156.472 17.0975 156.316 17.1635 156.172 17.1635C156.028 17.1635 155.89 17.0915 155.758 16.9475C155.638 16.8035 155.578 16.6535 155.578 16.4975C155.578 16.3895 155.542 16.2515 155.47 16.0835C155.386 15.9395 155.344 15.8255 155.344 15.7415C155.344 15.6455 155.386 15.5015 155.47 15.3095C155.542 15.0935 155.572 14.9195 155.56 14.7875C155.536 14.6555 155.548 14.5235 155.596 14.3915C155.644 14.2595 155.65 14.1035 155.614 13.9235C155.578 13.7435 155.578 13.5935 155.614 13.4735C155.662 13.3655 155.662 13.2155 155.614 13.0235C155.578 12.8435 155.578 12.6935 155.614 12.5735C155.662 12.4415 155.668 12.3155 155.632 12.1955C155.572 11.9915 155.578 11.8055 155.65 11.6375C155.722 11.4695 155.848 11.3495 156.028 11.2775ZM154.102 17.6855C154.462 17.6375 154.84 17.6255 155.236 17.6495C155.632 17.6735 155.884 17.7155 155.992 17.7755C156.124 17.8715 156.238 17.9195 156.334 17.9195C156.538 17.9195 156.694 18.0395 156.802 18.2795C156.838 18.3635 156.91 18.5195 157.018 18.7475C157.21 19.1435 157.228 19.5455 157.072 19.9535C156.916 20.3495 156.622 20.6555 156.19 20.8715C156.01 20.9675 155.896 21.0335 155.848 21.0695C155.608 21.2855 155.104 21.3815 154.336 21.3575C154 21.3575 153.622 21.4175 153.202 21.5375C153.094 21.5615 152.836 21.5795 152.428 21.5915C152.08 21.5915 151.864 21.6155 151.78 21.6635C151.696 21.6995 151.642 21.8075 151.618 21.9875C151.594 22.1075 151.606 22.1975 151.654 22.2575C151.702 22.3055 151.81 22.3535 151.978 22.4015C152.194 22.4615 152.332 22.4975 152.392 22.5095C152.512 22.5455 152.704 22.5755 152.968 22.5995C153.232 22.6235 153.448 22.6475 153.616 22.6715C153.76 22.6835 153.934 22.6595 154.138 22.5995C154.342 22.5395 154.57 22.5095 154.822 22.5095C155.086 22.5095 155.338 22.4795 155.578 22.4195C155.842 22.3715 156.04 22.3655 156.172 22.4015C156.34 22.4495 156.484 22.4735 156.604 22.4735C156.748 22.4735 156.838 22.5215 156.874 22.6175C156.922 22.7135 156.976 22.8155 157.036 22.9235C157.276 23.4155 157.048 23.7455 156.352 23.9135C156.184 23.9495 156.022 23.9375 155.866 23.8775C155.71 23.8295 155.542 23.8235 155.362 23.8595C155.194 23.8955 154.882 23.9315 154.426 23.9675C154.03 23.9915 153.724 24.0155 153.508 24.0395C153.352 24.0515 153.208 24.0395 153.076 24.0035C152.944 23.9675 152.752 23.9435 152.5 23.9315C152.248 23.9315 152.068 23.9015 151.96 23.8415C151.864 23.7935 151.678 23.7515 151.402 23.7155C151.15 23.6915 150.976 23.6555 150.88 23.6075C150.796 23.5595 150.598 23.3915 150.286 23.1035C150.166 23.0075 150.046 22.8335 149.926 22.5815C149.818 22.3295 149.764 22.1315 149.764 21.9875C149.764 21.5075 149.836 21.1835 149.98 21.0155C150.076 20.8955 150.148 20.7875 150.196 20.6915C150.304 20.4875 150.454 20.3855 150.646 20.3855C150.742 20.3855 150.88 20.3375 151.06 20.2415C151.192 20.1695 151.276 20.1335 151.312 20.1335C151.36 20.1215 151.45 20.1335 151.582 20.1695C151.738 20.2055 151.966 20.2175 152.266 20.2055C152.578 20.1815 152.83 20.1395 153.022 20.0795C153.178 20.0315 153.394 20.0195 153.67 20.0435C154.054 20.0675 154.36 20.0495 154.588 19.9895C154.816 19.9295 155.026 19.8095 155.218 19.6295C155.41 19.4495 155.47 19.2995 155.398 19.1795C155.326 19.0475 155.146 18.9815 154.858 18.9815C154.666 18.9815 154.504 18.9695 154.372 18.9455C154.228 18.9095 154.048 18.9155 153.832 18.9635C153.664 19.0115 153.424 19.0535 153.112 19.0895C152.848 19.1015 152.638 19.1255 152.482 19.1615C152.35 19.2095 152.14 19.2155 151.852 19.1795C151.564 19.1435 151.318 19.1375 151.114 19.1615C150.898 19.1735 150.742 19.1555 150.646 19.1075C150.55 19.0475 150.454 18.9215 150.358 18.7295C150.262 18.5135 150.22 18.3635 150.232 18.2795C150.256 18.1955 150.358 18.0995 150.538 17.9915C150.73 17.8715 150.928 17.8115 151.132 17.8115C151.348 17.8115 151.54 17.7935 151.708 17.7575C151.888 17.7215 152.08 17.7275 152.284 17.7755C152.488 17.8115 152.668 17.8055 152.824 17.7575C152.992 17.6975 153.196 17.6735 153.436 17.6855C153.688 17.7095 153.91 17.7095 154.102 17.6855ZM164.343 10.7735C164.523 10.6655 164.829 10.7135 165.261 10.9175C165.453 11.0135 165.573 11.0915 165.621 11.1515C165.681 11.2115 165.771 11.3675 165.891 11.6195C166.047 11.9195 166.137 12.1235 166.161 12.2315C166.185 12.3275 166.173 12.4415 166.125 12.5735C166.077 12.7055 166.041 12.9515 166.017 13.3115C166.005 13.7555 165.933 14.0795 165.801 14.2835C165.681 14.4875 165.471 14.6255 165.171 14.6975C165.087 14.7215 164.937 14.7815 164.721 14.8775C164.505 14.9615 164.307 15.0035 164.127 15.0035C163.455 15.0035 162.699 15.0275 161.859 15.0755C161.547 15.0875 161.349 15.1235 161.265 15.1835C161.181 15.2315 161.127 15.3455 161.103 15.5255C161.079 15.6695 161.043 15.7715 160.995 15.8315C160.863 16.0355 160.911 16.2395 161.139 16.4435C161.379 16.6475 161.637 16.7075 161.913 16.6235C162.021 16.5875 162.273 16.5695 162.669 16.5695C163.065 16.5695 163.425 16.5455 163.749 16.4975C164.433 16.4135 164.967 16.4135 165.351 16.4975C165.747 16.5815 165.945 16.7435 165.945 16.9835C165.945 17.0195 165.891 17.1575 165.783 17.3975C165.687 17.6375 165.627 17.7635 165.603 17.7755C165.603 17.7755 165.399 17.7875 164.991 17.8115C164.283 17.8595 163.827 17.8955 163.623 17.9195C162.075 18.0395 161.055 17.9135 160.563 17.5415C160.455 17.4575 160.317 17.3675 160.149 17.2715C159.861 17.1275 159.663 16.8815 159.555 16.5335C159.459 16.1855 159.483 15.8315 159.627 15.4715C159.711 15.2435 159.753 15.0755 159.753 14.9675C159.765 14.7155 159.909 14.4515 160.185 14.1755C160.461 13.8875 160.707 13.7675 160.923 13.8155C161.019 13.8395 161.145 13.8215 161.301 13.7615C161.469 13.7135 161.805 13.6835 162.309 13.6715C162.825 13.6475 163.161 13.6235 163.317 13.5995C163.485 13.5635 163.671 13.5575 163.875 13.5815C164.079 13.5935 164.223 13.5755 164.307 13.5275C164.391 13.4675 164.445 13.3595 164.469 13.2035C164.493 13.0715 164.535 12.9335 164.595 12.7895C164.751 12.4535 164.685 12.2255 164.397 12.1055C164.109 11.9735 163.689 11.9795 163.137 12.1235C162.813 12.2195 162.453 12.2615 162.057 12.2495C161.409 12.2375 161.031 12.2315 160.923 12.2315C160.587 12.2315 160.371 12.2135 160.275 12.1775C160.179 12.1415 160.077 12.0395 159.969 11.8715C159.837 11.6315 159.789 11.4395 159.825 11.2955C159.873 11.1515 160.017 11.0255 160.257 10.9175C160.461 10.8215 160.635 10.7855 160.779 10.8095C160.995 10.8455 161.277 10.8635 161.625 10.8635C161.985 10.8515 162.201 10.8275 162.273 10.7915C162.369 10.7555 162.597 10.7375 162.957 10.7375C163.317 10.7375 163.623 10.7555 163.875 10.7915C164.091 10.8275 164.247 10.8215 164.343 10.7735ZM167.745 11.2955C167.961 11.2115 168.165 11.2415 168.357 11.3855C168.477 11.4815 168.567 11.5415 168.627 11.5655C168.759 11.6015 168.843 11.7515 168.879 12.0155C168.903 12.1355 168.939 12.2795 168.987 12.4475C169.035 12.5795 169.041 12.7595 169.005 12.9875C168.957 13.2755 168.951 13.4675 168.987 13.5635C169.035 13.6475 169.149 13.6895 169.329 13.6895C169.449 13.6895 169.581 13.7255 169.725 13.7975C169.881 13.8575 170.019 13.8815 170.139 13.8695C170.259 13.8455 170.337 13.8635 170.373 13.9235C170.421 13.9715 170.445 14.0855 170.445 14.2655C170.445 14.5415 170.373 14.7455 170.229 14.8775C170.085 15.0095 169.851 15.0755 169.527 15.0755C169.155 15.0755 168.933 15.1175 168.861 15.2015C168.789 15.2735 168.747 15.5315 168.735 15.9755C168.723 16.3595 168.693 16.6475 168.645 16.8395C168.597 17.0195 168.573 17.1695 168.573 17.2895C168.573 17.5775 168.435 17.7215 168.159 17.7215C167.835 17.7335 167.589 17.5895 167.421 17.2895C167.385 17.2415 167.355 17.1875 167.331 17.1275C167.283 16.9595 167.247 16.8695 167.223 16.8575C167.115 16.7975 167.103 16.5455 167.187 16.1015C167.247 15.8375 167.259 15.6395 167.223 15.5075C167.175 15.3635 167.187 15.2195 167.259 15.0755C167.319 14.9315 167.331 14.7815 167.295 14.6255C167.259 14.4695 167.271 14.3315 167.331 14.2115C167.391 14.0915 167.427 13.8875 167.439 13.5995C167.439 13.3115 167.451 13.0955 167.475 12.9515C167.499 12.8195 167.481 12.6755 167.421 12.5195C167.361 12.3395 167.367 12.1055 167.439 11.8175C167.523 11.5175 167.625 11.3435 167.745 11.2955ZM165.549 18.7655C165.693 18.7175 166.017 18.7115 166.521 18.7475C167.025 18.7715 167.343 18.8135 167.475 18.8735C167.643 18.9455 167.769 18.9815 167.853 18.9815C168.045 18.9815 168.213 19.1195 168.357 19.3955C168.501 19.6595 168.579 19.9715 168.591 20.3315C168.603 20.6315 168.627 20.8895 168.663 21.1055C168.699 21.3695 168.699 21.6635 168.663 21.9875C168.639 22.2995 168.585 22.5275 168.501 22.6715C168.417 22.8155 168.387 22.9595 168.411 23.1035C168.435 23.2715 168.417 23.3915 168.357 23.4635C168.309 23.5475 168.183 23.6435 167.979 23.7515C167.727 23.8835 167.529 23.9375 167.385 23.9135C167.253 23.9015 167.073 23.9435 166.845 24.0395C166.653 24.1235 166.479 24.1715 166.323 24.1835C166.179 24.1955 165.885 24.1835 165.441 24.1475C164.997 24.1115 164.685 24.1175 164.505 24.1655C164.217 24.2375 163.965 24.2375 163.749 24.1655C163.605 24.1175 163.353 24.0995 162.993 24.1115C162.729 24.1115 162.567 24.1055 162.507 24.0935C162.447 24.0935 162.375 24.0575 162.291 23.9855C162.171 23.9015 162.045 23.8595 161.913 23.8595C161.709 23.8595 161.457 23.7155 161.157 23.4275C160.857 23.1395 160.707 22.8995 160.707 22.7075C160.707 22.6595 160.653 22.5155 160.545 22.2755C160.389 21.8675 160.365 21.4535 160.473 21.0335C160.509 20.9015 160.515 20.7335 160.491 20.5295C160.467 20.2055 160.569 19.8695 160.797 19.5215C161.025 19.1735 161.253 19.0175 161.481 19.0535C161.637 19.0655 161.787 19.0415 161.931 18.9815C162.039 18.9215 162.195 18.8855 162.399 18.8735C162.603 18.8615 163.185 18.8435 164.145 18.8195C164.973 18.8195 165.441 18.8015 165.549 18.7655ZM166.161 20.0975C165.945 20.0255 165.675 20.0195 165.351 20.0795C165.147 20.1275 164.955 20.1395 164.775 20.1155C164.607 20.0795 164.415 20.0915 164.199 20.1515C163.875 20.2475 163.413 20.3135 162.813 20.3495C162.429 20.3735 162.213 20.4155 162.165 20.4755C162.105 20.5475 162.051 20.7035 162.003 20.9435C161.967 21.1715 161.961 21.3335 161.985 21.4295C162.033 21.7295 162.057 21.8795 162.057 21.8795C162.093 22.0835 162.129 22.2155 162.165 22.2755C162.213 22.3355 162.339 22.4075 162.543 22.4915C162.795 22.5995 163.053 22.6595 163.317 22.6715C164.133 22.6955 164.649 22.7435 164.865 22.8155C164.997 22.8635 165.165 22.8635 165.369 22.8155C165.585 22.7675 165.891 22.7315 166.287 22.7075C166.635 22.6955 166.845 22.6535 166.917 22.5815C167.001 22.4975 167.073 22.2755 167.133 21.9155C167.301 20.7395 167.127 20.1515 166.611 20.1515C166.467 20.1515 166.317 20.1335 166.161 20.0975ZM178.761 12.5735C178.857 12.5015 178.983 12.4715 179.139 12.4835C179.295 12.4955 179.421 12.5435 179.517 12.6275C179.601 12.7115 179.679 12.7535 179.751 12.7535C179.907 12.7535 180.009 12.8135 180.057 12.9335C180.117 13.0415 180.135 13.2275 180.111 13.4915C180.111 13.5155 180.111 13.5455 180.111 13.5815C180.087 13.8335 180.117 13.9835 180.201 14.0315C180.285 14.0675 180.579 14.0915 181.083 14.1035C181.155 14.1035 181.215 14.1035 181.263 14.1035C181.779 14.1155 182.085 14.1335 182.181 14.1575C182.289 14.1695 182.391 14.2235 182.487 14.3195C182.703 14.5355 182.811 14.7395 182.811 14.9315C182.811 15.1355 182.721 15.2675 182.541 15.3275C182.361 15.3875 181.995 15.4055 181.443 15.3815C181.239 15.3695 181.101 15.3815 181.029 15.4175C180.957 15.4655 180.555 15.4895 179.823 15.4895C178.071 15.5255 177.117 15.5675 176.961 15.6155C176.733 15.6755 176.565 15.6815 176.457 15.6335C176.361 15.5855 176.259 15.4595 176.151 15.2555C175.983 14.9435 175.977 14.6975 176.133 14.5175C176.289 14.3375 176.571 14.2535 176.979 14.2655C177.555 14.2775 177.987 14.2295 178.275 14.1215C178.371 14.0855 178.431 14.0195 178.455 13.9235C178.491 13.8155 178.509 13.6295 178.509 13.3655C178.521 13.1015 178.539 12.9215 178.563 12.8255C178.599 12.7295 178.665 12.6455 178.761 12.5735ZM185.277 13.9055C185.469 13.7975 185.667 13.7975 185.871 13.9055C185.955 13.9535 186.039 13.9775 186.123 13.9775C186.255 13.9775 186.351 14.0315 186.411 14.1395C186.435 14.1995 186.465 14.4695 186.501 14.9495C186.549 15.4175 186.561 15.7175 186.537 15.8495C186.501 16.0775 186.471 16.3895 186.447 16.7855C186.435 17.1815 186.441 17.4215 186.465 17.5055C186.501 17.6135 186.495 17.7335 186.447 17.8655C186.399 18.0215 186.369 18.4895 186.357 19.2695C186.357 19.4255 186.369 19.6595 186.393 19.9715C186.429 20.3195 186.435 20.7215 186.411 21.1775C186.387 21.6215 186.345 21.9095 186.285 22.0415C186.249 22.1135 186.129 22.2155 185.925 22.3475C185.697 22.5035 185.493 22.5395 185.313 22.4555C185.145 22.3715 185.061 22.1975 185.061 21.9335C185.061 21.8015 185.031 21.6635 184.971 21.5195C184.827 21.1835 184.773 20.5955 184.809 19.7555C184.833 19.1195 184.785 18.7775 184.665 18.7295C184.485 18.6455 184.155 18.6455 183.675 18.7295C183.387 18.7775 183.213 18.7835 183.153 18.7475C183.093 18.6995 183.045 18.5375 183.009 18.2615C182.985 18.0695 182.979 17.9495 182.991 17.9015C183.015 17.8415 183.075 17.7695 183.171 17.6855C183.351 17.5175 183.483 17.4095 183.567 17.3615C183.663 17.3135 183.789 17.2775 183.945 17.2535C184.149 17.2175 184.299 17.1755 184.395 17.1275C184.707 16.9955 184.875 16.8995 184.899 16.8395C184.935 16.7555 184.965 16.4255 184.989 15.8495C185.025 15.2735 185.031 14.8415 185.007 14.5535C184.995 14.2295 185.085 14.0135 185.277 13.9055ZM178.491 16.5155C178.695 16.4435 178.881 16.4195 179.049 16.4435C179.289 16.4555 179.553 16.4495 179.841 16.4255C180.177 16.4015 180.537 16.5395 180.921 16.8395C181.029 16.9355 181.167 17.0315 181.335 17.1275C181.443 17.1995 181.521 17.2715 181.569 17.3435C181.617 17.4035 181.689 17.5235 181.785 17.7035C181.929 18.0035 182.037 18.2135 182.109 18.3335C182.229 18.5135 182.271 18.8435 182.235 19.3235C182.199 19.8035 182.109 20.1035 181.965 20.2235C181.833 20.3435 181.737 20.5655 181.677 20.8895C181.653 21.0455 181.605 21.1835 181.533 21.3035C181.461 21.4115 181.389 21.4655 181.317 21.4655C181.185 21.4655 181.035 21.5435 180.867 21.6995C180.795 21.7595 180.669 21.8435 180.489 21.9515C180.321 22.0355 180.189 22.1075 180.093 22.1675C179.685 22.4435 179.277 22.4795 178.869 22.2755C178.737 22.2035 178.653 22.1855 178.617 22.2215C178.545 22.2935 178.359 22.2815 178.059 22.1855C177.771 22.0775 177.549 21.9455 177.393 21.7895C177.273 21.6575 177.141 21.5375 176.997 21.4295C176.805 21.2735 176.613 20.9435 176.421 20.4395C176.229 19.9235 176.175 19.5935 176.259 19.4495C176.295 19.3775 176.319 19.2335 176.331 19.0175C176.367 18.7055 176.529 18.2975 176.817 17.7935C177.105 17.2895 177.357 16.9895 177.573 16.8935C177.777 16.7975 178.083 16.6715 178.491 16.5155ZM180.039 17.9735C179.907 17.9135 179.697 17.8835 179.409 17.8835C179.121 17.8715 178.917 17.8955 178.797 17.9555C178.461 18.1235 178.245 18.4115 178.149 18.8195C178.125 18.9155 178.065 19.0355 177.969 19.1795C177.873 19.3355 177.819 19.4615 177.807 19.5575C177.795 19.6535 177.825 19.7735 177.897 19.9175C177.981 20.0615 178.053 20.2415 178.113 20.4575C178.173 20.6375 178.233 20.7515 178.293 20.7995C178.353 20.8475 178.449 20.8595 178.581 20.8355C178.689 20.8115 178.839 20.8235 179.031 20.8715C179.211 20.9075 179.349 20.9135 179.445 20.8895C179.541 20.8655 179.649 20.7935 179.769 20.6735C179.901 20.5535 180.033 20.4635 180.165 20.4035C180.249 20.3675 180.303 20.3315 180.327 20.2955C180.351 20.2595 180.381 20.1755 180.417 20.0435C180.465 19.8635 180.519 19.7015 180.579 19.5575C180.687 19.2935 180.663 19.0355 180.507 18.7835C180.411 18.6155 180.363 18.4835 180.363 18.3875C180.363 18.2315 180.255 18.0935 180.039 17.9735ZM191.518 10.0355C191.662 9.99945 191.89 9.98745 192.202 9.99945C192.514 9.99945 192.718 10.0175 192.814 10.0535C192.922 10.1015 193.066 10.1255 193.246 10.1255C193.438 10.1255 193.6 10.1675 193.732 10.2515C194.02 10.4075 194.314 10.5455 194.614 10.6655C194.746 10.7255 194.878 10.8335 195.01 10.9895C195.154 11.1335 195.256 11.2895 195.316 11.4575C195.52 11.9855 195.67 12.3395 195.766 12.5195C195.862 12.6995 195.91 12.8555 195.91 12.9875C195.91 13.1075 195.862 13.3055 195.766 13.5815C195.646 13.8935 195.574 14.1155 195.55 14.2475C195.502 14.5115 195.4 14.7455 195.244 14.9495C195.112 15.1295 194.92 15.3455 194.668 15.5975C194.428 15.8375 194.278 15.9695 194.218 15.9935C194.134 16.0175 194.104 16.0835 194.128 16.1915C194.152 16.2875 194.176 16.4735 194.2 16.7495C194.224 17.0735 194.278 17.2595 194.362 17.3075C194.458 17.3555 194.764 17.3735 195.28 17.3615C195.7 17.3495 195.952 17.3495 196.036 17.3615C196.12 17.3615 196.216 17.3915 196.324 17.4515C196.468 17.5355 196.588 17.5775 196.684 17.5775C196.828 17.5775 196.918 17.7155 196.954 17.9915C197.002 18.2555 196.96 18.4235 196.828 18.4955C196.432 18.6875 196.186 18.8015 196.09 18.8375C195.994 18.8615 195.874 18.8435 195.73 18.7835C195.61 18.7355 195.394 18.7175 195.082 18.7295C194.758 18.7535 194.476 18.7295 194.236 18.6575C194.044 18.6095 193.912 18.5855 193.84 18.5855C193.78 18.5855 193.642 18.6095 193.426 18.6575C192.73 18.8015 192.154 18.8555 191.698 18.8195C191.422 18.7955 191.224 18.8135 191.104 18.8735C191.008 18.9095 190.924 18.9275 190.852 18.9275C190.792 18.9275 190.642 18.9095 190.402 18.8735C190.162 18.8375 190.006 18.8195 189.934 18.8195C189.862 18.8195 189.754 18.8435 189.61 18.8915C189.43 18.9635 189.232 18.9755 189.016 18.9275C188.776 18.8915 188.596 18.8855 188.476 18.9095C188.236 18.9455 188.056 18.8495 187.936 18.6215C187.828 18.3815 187.846 18.1355 187.99 17.8835C188.074 17.7395 188.176 17.6375 188.296 17.5775C188.428 17.5175 188.62 17.4875 188.872 17.4875C189.208 17.4875 189.436 17.4395 189.556 17.3435C189.688 17.2475 189.766 17.0675 189.79 16.8035C189.814 16.5875 189.862 16.3955 189.934 16.2275C189.982 16.1075 190.006 16.0295 190.006 15.9935C190.006 15.9575 189.988 15.9155 189.952 15.8675C189.784 15.6275 189.7 15.4415 189.7 15.3095C189.7 15.2135 189.652 15.1295 189.556 15.0575C189.34 14.8895 189.178 14.5955 189.07 14.1755C188.974 13.7555 188.98 13.3775 189.088 13.0415C189.148 12.8495 189.178 12.6755 189.178 12.5195C189.178 12.3875 189.214 12.2555 189.286 12.1235C189.346 12.0155 189.442 11.8355 189.574 11.5835C189.682 11.3795 189.808 11.1995 189.952 11.0435C190.108 10.8875 190.252 10.7855 190.384 10.7375C190.612 10.6655 190.864 10.5095 191.14 10.2695C191.284 10.1495 191.41 10.0715 191.518 10.0355ZM192.886 11.4755C192.406 11.4275 192.082 11.4155 191.914 11.4395C191.758 11.4635 191.578 11.5595 191.374 11.7275C191.242 11.8475 191.104 11.9615 190.96 12.0695C190.864 12.1415 190.804 12.1955 190.78 12.2315C190.756 12.2675 190.738 12.3395 190.726 12.4475C190.714 12.6035 190.666 12.7655 190.582 12.9335C190.414 13.2815 190.39 13.6475 190.51 14.0315C190.642 14.4155 190.852 14.6255 191.14 14.6615C191.32 14.6855 191.494 14.7335 191.662 14.8055C191.89 14.9015 192.172 14.9195 192.508 14.8595C192.856 14.7875 193.138 14.6615 193.354 14.4815C193.51 14.3615 193.642 14.2775 193.75 14.2295C193.846 14.1815 193.918 14.1215 193.966 14.0495C194.026 13.9775 194.086 13.8575 194.146 13.6895C194.218 13.4855 194.272 13.3355 194.308 13.2395C194.44 12.9395 194.398 12.6695 194.182 12.4295C194.074 12.3095 194.002 12.1955 193.966 12.0875C193.858 11.7515 193.498 11.5475 192.886 11.4755ZM192.31 16.3355C192.046 16.2515 191.872 16.2275 191.788 16.2635C191.716 16.2875 191.638 16.4135 191.554 16.6415C191.47 16.8695 191.422 17.0195 191.41 17.0915C191.398 17.1515 191.41 17.2235 191.446 17.3075C191.542 17.5355 191.734 17.6015 192.022 17.5055C192.31 17.4095 192.49 17.2235 192.562 16.9475C192.634 16.7195 192.658 16.5815 192.634 16.5335C192.61 16.4735 192.502 16.4075 192.31 16.3355ZM191.23 19.4855C191.626 19.4495 191.98 19.4855 192.292 19.5935C192.484 19.6535 192.682 19.6835 192.886 19.6835C193.09 19.6835 193.336 19.7255 193.624 19.8095C193.912 19.8815 194.14 19.9655 194.308 20.0615C194.476 20.1575 194.656 20.2235 194.848 20.2595C195.052 20.2835 195.238 20.3795 195.406 20.5475C195.61 20.7275 195.742 20.8535 195.802 20.9255C195.862 20.9975 195.904 21.0935 195.928 21.2135C195.976 21.3455 196.036 21.4775 196.108 21.6095C196.276 21.9095 196.354 22.2275 196.342 22.5635C196.342 22.8875 196.246 23.1755 196.054 23.4275C195.982 23.5115 195.916 23.6435 195.856 23.8235C195.796 23.9915 195.724 24.1115 195.64 24.1835C195.568 24.2555 195.46 24.2915 195.316 24.2915C195.172 24.2915 194.974 24.3515 194.722 24.4715C194.278 24.6995 193.738 24.8195 193.102 24.8315C192.67 24.8435 192.358 24.8675 192.166 24.9035C191.962 24.9635 191.794 24.9635 191.662 24.9035C191.518 24.8555 191.326 24.8195 191.086 24.7955C190.606 24.7475 190.258 24.6155 190.042 24.3995C189.958 24.3155 189.826 24.2195 189.646 24.1115C189.442 23.9915 189.226 23.7395 188.998 23.3555C188.77 22.9715 188.656 22.6715 188.656 22.4555C188.656 21.9515 188.692 21.6095 188.764 21.4295C189.064 20.6135 189.418 20.2055 189.826 20.2055C189.97 20.2055 190.222 20.0675 190.582 19.7915C190.822 19.6115 191.038 19.5095 191.23 19.4855ZM192.76 21.0515C192.64 21.0635 192.478 21.0575 192.274 21.0335C192.082 21.0095 191.908 21.0155 191.752 21.0515C191.74 21.0515 191.698 21.0635 191.626 21.0875C191.554 21.0995 191.488 21.1115 191.428 21.1235C191.368 21.1355 191.314 21.1415 191.266 21.1415C190.882 21.2135 190.654 21.3455 190.582 21.5375C190.546 21.6335 190.462 21.7475 190.33 21.8795C190.174 22.0355 190.114 22.1795 190.15 22.3115C190.198 22.4315 190.378 22.6655 190.69 23.0135C190.846 23.1935 190.948 23.2955 190.996 23.3195C191.044 23.3435 191.146 23.3615 191.302 23.3735C191.506 23.3855 191.722 23.4215 191.95 23.4815C192.142 23.5295 192.292 23.5595 192.4 23.5715C192.508 23.5835 192.742 23.5775 193.102 23.5535C193.414 23.5415 193.63 23.5115 193.75 23.4635C193.87 23.4155 193.954 23.3915 194.002 23.3915C194.194 23.3915 194.362 23.2895 194.506 23.0855C194.662 22.8815 194.74 22.6715 194.74 22.4555C194.74 22.2275 194.668 22.0355 194.524 21.8795C194.428 21.7955 194.344 21.6875 194.272 21.5555C194.044 21.1475 193.54 20.9795 192.76 21.0515ZM200.243 12.5555C200.447 12.4475 200.651 12.4655 200.855 12.6095C200.939 12.6815 201.047 12.7355 201.179 12.7715C201.323 12.8075 201.419 12.8795 201.467 12.9875C201.515 13.0955 201.533 13.2695 201.521 13.5095C201.497 13.8215 201.521 14.0015 201.593 14.0495C201.665 14.0855 201.977 14.1035 202.529 14.1035C203.165 14.1035 203.561 14.1515 203.717 14.2475C203.885 14.3315 203.951 14.5235 203.915 14.8235C203.879 15.0395 203.771 15.1955 203.591 15.2915C203.423 15.3875 203.123 15.4535 202.691 15.4895C202.271 15.5255 201.605 15.5375 200.693 15.5255C200.465 15.5135 200.255 15.5315 200.063 15.5795C199.883 15.6275 199.697 15.6335 199.505 15.5975C199.313 15.5735 199.019 15.5915 198.623 15.6515C198.071 15.7475 197.795 15.7175 197.795 15.5615C197.795 15.5375 197.747 15.4715 197.651 15.3635C197.447 15.1115 197.441 14.8595 197.633 14.6075C197.825 14.3555 198.095 14.2535 198.443 14.3015C198.599 14.3255 198.767 14.3135 198.947 14.2655C199.091 14.2295 199.229 14.2115 199.361 14.2115C199.589 14.2115 199.745 14.1395 199.829 13.9955C199.913 13.8515 199.943 13.6115 199.919 13.2755C199.907 13.0475 199.919 12.8915 199.955 12.8075C199.991 12.7115 200.087 12.6275 200.243 12.5555ZM208.109 13.8515C208.277 13.7675 208.475 13.7855 208.703 13.9055C208.847 13.9775 208.937 14.0135 208.973 14.0135C209.117 14.0135 209.189 14.1875 209.189 14.5355C209.189 14.7515 209.213 14.9675 209.261 15.1835C209.309 15.3875 209.321 15.5375 209.297 15.6335C209.261 15.7895 209.225 16.1675 209.189 16.7675C209.153 17.3675 209.135 17.8415 209.135 18.1895C209.135 18.4655 209.111 18.6575 209.063 18.7655C209.027 18.8495 209.009 19.1135 209.009 19.5575C209.009 19.9895 209.033 20.3255 209.081 20.5655C209.141 20.9495 209.129 21.2975 209.045 21.6095C208.973 21.9095 208.841 22.1255 208.649 22.2575C208.421 22.4135 208.217 22.4615 208.037 22.4015C207.857 22.3295 207.767 22.1795 207.767 21.9515C207.767 21.7955 207.731 21.6455 207.659 21.5015C207.599 21.3935 207.563 21.2915 207.551 21.1955C207.551 21.0995 207.563 20.8115 207.587 20.3315C207.623 19.6955 207.623 19.3295 207.587 19.2335C207.551 19.1495 207.545 19.0355 207.569 18.8915C207.605 18.6875 207.599 18.5555 207.551 18.4955C207.503 18.4235 207.371 18.3755 207.155 18.3515C206.663 18.2915 206.417 18.4115 206.417 18.7115C206.417 18.7835 206.363 18.9335 206.255 19.1615C206.135 19.3895 206.087 19.5695 206.111 19.7015C206.183 20.1575 206.189 20.5895 206.129 20.9975C206.069 21.4055 205.961 21.6815 205.805 21.8255C205.565 22.0415 205.337 22.1375 205.121 22.1135C204.917 22.0775 204.815 21.9395 204.815 21.6995C204.815 21.5795 204.785 21.4595 204.725 21.3395C204.641 21.1715 204.617 20.4815 204.653 19.2695C204.665 18.9575 204.677 18.7715 204.689 18.7115C204.725 18.6275 204.713 18.4655 204.653 18.2255C204.605 17.9855 204.599 17.8055 204.635 17.6855C204.659 17.5655 204.683 17.3915 204.707 17.1635C204.731 16.9115 204.761 16.7075 204.797 16.5515C204.845 16.3715 204.851 16.1915 204.815 16.0115C204.779 15.8315 204.779 15.6875 204.815 15.5795C204.851 15.4835 204.869 15.2855 204.869 14.9855C204.857 14.7695 204.857 14.6375 204.869 14.5895C204.893 14.5295 204.953 14.4335 205.049 14.3015C205.193 14.1455 205.301 14.0555 205.373 14.0315C205.457 14.0075 205.607 14.0195 205.823 14.0675C206.063 14.1155 206.207 14.1755 206.255 14.2475C206.315 14.3195 206.339 14.4935 206.327 14.7695C206.315 15.0455 206.327 15.2735 206.363 15.4535C206.399 15.6215 206.405 15.7895 206.381 15.9575C206.345 16.0775 206.339 16.2755 206.363 16.5515C206.399 16.8275 206.441 17.0015 206.489 17.0735C206.525 17.1215 206.615 17.1335 206.759 17.1095C206.915 17.0855 207.041 17.0375 207.137 16.9655C207.269 16.8815 207.371 16.8395 207.443 16.8395C207.587 16.8395 207.695 16.7315 207.767 16.5155C207.839 16.2995 207.845 16.0835 207.785 15.8675C207.749 15.7355 207.755 15.5915 207.803 15.4355C207.851 15.2915 207.857 15.1235 207.821 14.9315C207.785 14.6795 207.791 14.4515 207.839 14.2475C207.887 14.0435 207.977 13.9115 208.109 13.8515ZM200.459 16.3895C200.795 16.3295 201.143 16.3415 201.503 16.4255C201.863 16.4975 202.145 16.6295 202.349 16.8215C202.469 16.9295 202.601 17.0255 202.745 17.1095C202.913 17.2055 203.033 17.3375 203.105 17.5055C203.177 17.6615 203.255 18.0035 203.339 18.5315C203.447 19.1075 203.405 19.6055 203.213 20.0255C203.093 20.2655 203.033 20.4515 203.033 20.5835C203.033 20.9075 202.925 21.1415 202.709 21.2855C202.613 21.3575 202.511 21.4355 202.403 21.5195C202.295 21.6155 201.983 21.7775 201.467 22.0055C201.179 22.1375 200.969 22.2155 200.837 22.2395C200.717 22.2515 200.597 22.2095 200.477 22.1135C200.429 22.0775 200.333 22.0715 200.189 22.0955C199.829 22.1435 199.451 21.9935 199.055 21.6455C198.863 21.4655 198.707 21.3335 198.587 21.2495C198.419 21.1055 198.245 20.8055 198.065 20.3495C197.885 19.8935 197.825 19.5875 197.885 19.4315C197.921 19.3115 197.927 19.1975 197.903 19.0895C197.879 18.9335 197.987 18.5735 198.227 18.0095C198.311 17.7815 198.485 17.5115 198.749 17.1995C199.025 16.8875 199.211 16.7315 199.307 16.7315C199.391 16.7315 199.511 16.7015 199.667 16.6415C199.967 16.5215 200.231 16.4375 200.459 16.3895ZM201.431 17.9375C201.323 17.8895 201.143 17.8595 200.891 17.8475C200.651 17.8235 200.483 17.8355 200.387 17.8835C200.183 17.9795 200.021 18.2015 199.901 18.5495C199.829 18.7655 199.739 18.9695 199.631 19.1615C199.487 19.4255 199.457 19.6475 199.541 19.8275C199.601 19.9235 199.661 20.0735 199.721 20.2775C199.769 20.4575 199.817 20.5715 199.865 20.6195C199.925 20.6675 200.021 20.6795 200.153 20.6555C200.297 20.6315 200.423 20.6435 200.531 20.6915C200.663 20.7515 200.765 20.7755 200.837 20.7635C200.909 20.7515 200.999 20.7035 201.107 20.6195C201.311 20.4755 201.431 20.3915 201.467 20.3675C201.587 20.2715 201.665 20.1995 201.701 20.1515C201.749 20.0915 201.779 20.0135 201.791 19.9175C201.815 19.7855 201.863 19.6475 201.935 19.5035C202.019 19.3475 202.055 19.2215 202.043 19.1255C202.043 19.0175 202.001 18.8795 201.917 18.7115C201.821 18.5315 201.773 18.4055 201.773 18.3335C201.773 18.1895 201.659 18.0575 201.431 17.9375ZM212.932 11.8715C213.1 11.8235 213.418 11.7995 213.886 11.7995C214.354 11.7875 214.654 11.7995 214.786 11.8355C214.846 11.8595 214.942 11.8535 215.074 11.8175C215.362 11.7455 215.608 11.7935 215.812 11.9615C215.92 12.0575 216.01 12.0935 216.082 12.0695C216.226 12.0455 216.358 12.1055 216.478 12.2495C216.61 12.3935 216.718 12.6155 216.802 12.9155C216.886 13.1795 216.91 13.3895 216.874 13.5455C216.85 13.6895 216.724 13.9835 216.496 14.4275C216.412 14.5955 216.388 14.7215 216.424 14.8055C216.46 14.8775 216.592 14.9675 216.82 15.0755C217.048 15.1835 217.276 15.3455 217.504 15.5615C217.708 15.7655 217.912 15.9395 218.116 16.0835C218.296 16.2035 218.404 16.3295 218.44 16.4615C218.476 16.5815 218.434 16.6715 218.314 16.7315C218.254 16.7675 218.158 16.8395 218.026 16.9475C217.726 17.1995 217.378 17.1395 216.982 16.7675C216.862 16.6595 216.724 16.6055 216.568 16.6055C216.424 16.6055 216.31 16.5755 216.226 16.5155C216.202 16.5035 216.136 16.4675 216.028 16.4075C215.932 16.3475 215.866 16.3115 215.83 16.2995C215.65 16.1915 215.506 16.0895 215.398 15.9935C215.146 15.8015 214.918 15.7895 214.714 15.9575C214.618 16.0415 214.474 16.1135 214.282 16.1735C214.09 16.2455 213.91 16.3295 213.742 16.4255C213.298 16.7255 212.902 16.9235 212.554 17.0195C212.242 17.1035 212.05 17.1995 211.978 17.3075C211.822 17.5235 211.564 17.5655 211.204 17.4335C210.844 17.2895 210.664 17.0795 210.664 16.8035C210.664 16.6715 210.79 16.4915 211.042 16.2635C211.306 16.0235 211.51 15.8975 211.654 15.8855C211.738 15.8855 211.84 15.8435 211.96 15.7595C212.092 15.6635 212.254 15.5795 212.446 15.5075C213.142 15.1955 213.592 14.9615 213.796 14.8055C213.952 14.6735 214.084 14.5775 214.192 14.5175C214.288 14.4455 214.402 14.3315 214.534 14.1755C214.666 14.0075 214.786 13.8875 214.894 13.8155C215.11 13.6715 215.194 13.5455 215.146 13.4375C215.11 13.3175 214.948 13.2275 214.66 13.1675C214.372 13.1075 214.138 13.0895 213.958 13.1135C213.79 13.1255 213.568 13.1795 213.292 13.2755C213.124 13.3475 212.896 13.3835 212.608 13.3835C212.332 13.3955 212.116 13.4135 211.96 13.4375C211.66 13.4735 211.432 13.3775 211.276 13.1495C211.132 12.9215 211.138 12.6815 211.294 12.4295C211.342 12.3335 211.492 12.2315 211.744 12.1235C212.008 12.0155 212.212 11.9615 212.356 11.9615C212.524 11.9615 212.716 11.9315 212.932 11.8715ZM219.484 12.3935C219.664 12.2495 219.916 12.2435 220.24 12.3755C220.564 12.4955 220.72 12.6635 220.708 12.8795C220.696 13.2875 220.69 14.1815 220.69 15.5615C220.69 16.9295 220.702 17.6855 220.726 17.8295C220.75 18.0815 220.738 18.2855 220.69 18.4415C220.642 18.6095 220.624 19.0595 220.636 19.7915C220.648 19.9595 220.654 20.1455 220.654 20.3495C220.654 20.5535 220.654 20.7215 220.654 20.8535C220.666 20.9735 220.672 21.0455 220.672 21.0695C220.672 21.2615 220.654 21.5675 220.618 21.9875C220.582 22.3955 220.552 22.6235 220.528 22.6715C220.492 22.7315 220.414 22.7855 220.294 22.8335C220.174 22.8695 220.084 22.9175 220.024 22.9775C219.796 23.1695 219.514 23.1695 219.178 22.9775C219.118 22.9535 219.058 22.8575 218.998 22.6895C218.938 22.5095 218.896 22.3295 218.872 22.1495C218.824 21.7655 218.638 21.6575 218.314 21.8255C218.098 21.9335 217.834 21.9455 217.522 21.8615C217.354 21.8135 217.138 21.8015 216.874 21.8255C216.598 21.8495 216.382 21.8135 216.226 21.7175C216.082 21.6215 216.046 21.4955 216.118 21.3395C216.166 21.2675 216.202 21.1715 216.226 21.0515C216.25 20.8955 216.298 20.7995 216.37 20.7635C216.442 20.7275 216.574 20.7275 216.766 20.7635C217.018 20.8115 217.306 20.8055 217.63 20.7455C217.954 20.6855 218.152 20.6015 218.224 20.4935C218.32 20.3615 218.452 20.2955 218.62 20.2955C219.016 20.2955 219.196 19.8335 219.16 18.9095C219.16 18.7415 219.208 18.4595 219.304 18.0635C219.328 17.9675 219.328 17.8655 219.304 17.7575C219.292 17.6495 219.232 17.4215 219.124 17.0735C219.04 16.8095 219.022 16.6415 219.07 16.5695C219.13 16.4735 219.184 15.9755 219.232 15.0755C219.28 14.1635 219.28 13.5515 219.232 13.2395C219.184 12.8795 219.268 12.5975 219.484 12.3935ZM212.014 18.4055C212.158 18.3335 212.344 18.3335 212.572 18.4055C212.728 18.4535 212.866 18.4655 212.986 18.4415C213.106 18.4295 213.256 18.4355 213.436 18.4595C213.604 18.4955 213.754 18.4895 213.886 18.4415C213.994 18.3935 214.168 18.3695 214.408 18.3695C214.54 18.3695 215.242 18.3695 216.514 18.3695C217.354 18.3695 217.858 18.3755 218.026 18.3875C218.206 18.3875 218.332 18.4115 218.404 18.4595C218.692 18.6755 218.704 18.9155 218.44 19.1795C218.356 19.2755 218.284 19.3775 218.224 19.4855C218.2 19.5695 218.164 19.6235 218.116 19.6475C218.068 19.6595 217.936 19.6835 217.72 19.7195C217.48 19.7555 217.078 19.7555 216.514 19.7195C216.202 19.6955 215.908 19.7075 215.632 19.7555C215.356 19.8155 215.122 19.8455 214.93 19.8455C214.738 19.8575 214.612 19.8935 214.552 19.9535C214.492 20.0135 214.456 20.1455 214.444 20.3495C214.432 20.5535 214.408 20.7035 214.372 20.7995C214.348 20.8715 214.336 21.0875 214.336 21.4475C214.348 21.7955 214.324 22.0355 214.264 22.1675C214.228 22.2875 214.186 22.4255 214.138 22.5815C214.114 22.6655 214.09 22.7255 214.066 22.7615C214.042 22.7855 213.976 22.8095 213.868 22.8335C213.736 22.8575 213.628 22.8935 213.544 22.9415C213.448 22.9895 213.304 22.9415 213.112 22.7975C213.016 22.7255 212.944 22.4255 212.896 21.8975C212.86 21.3575 212.872 20.8955 212.932 20.5115C212.98 20.2115 212.962 20.0135 212.878 19.9175C212.806 19.8095 212.656 19.7915 212.428 19.8635C212.26 19.9115 212.134 19.9235 212.05 19.8995C211.942 19.8875 211.756 19.8635 211.492 19.8275C211.264 19.8155 211.108 19.7855 211.024 19.7375C210.94 19.6775 210.85 19.5455 210.754 19.3415C210.598 19.0535 210.622 18.8075 210.826 18.6035C211.042 18.3995 211.324 18.3335 211.672 18.4055C211.804 18.4415 211.918 18.4415 212.014 18.4055ZM222.783 20.0615C223.035 19.9175 223.353 19.8875 223.737 19.9715C224.133 20.0435 224.385 20.1815 224.493 20.3855C224.637 20.6735 224.661 21.0155 224.565 21.4115C224.481 21.7955 224.325 22.0355 224.097 22.1315C223.965 22.2035 223.881 22.2575 223.845 22.2935C223.797 22.3415 223.629 22.3595 223.341 22.3475C223.053 22.3355 222.849 22.2995 222.729 22.2395C222.297 22.0475 222.087 21.6935 222.099 21.1775C222.111 20.6615 222.339 20.2895 222.783 20.0615ZM225.851 20.0615C226.103 19.9175 226.421 19.8875 226.805 19.9715C227.201 20.0435 227.453 20.1815 227.561 20.3855C227.705 20.6735 227.729 21.0155 227.633 21.4115C227.549 21.7955 227.393 22.0355 227.165 22.1315C227.033 22.2035 226.949 22.2575 226.913 22.2935C226.865 22.3415 226.697 22.3595 226.409 22.3475C226.121 22.3355 225.917 22.2995 225.797 22.2395C225.365 22.0475 225.155 21.6935 225.167 21.1775C225.179 20.6615 225.407 20.2895 225.851 20.0615Z" fill="white"/>
<path d="M189.735 44.7541C188.935 45.8208 187.335 45.8208 186.535 44.7541L183.335 40.4875C182.841 39.8282 183.311 38.8875 184.135 38.8875L192.135 38.8875C192.959 38.8875 193.43 39.8282 192.935 40.4875L189.735 44.7541Z" fill="white" fill-opacity="0.2"/>
<g opacity="0.5">
<g style="mix-blend-mode:plus-lighter" filter="url(#filter0_f_1455_31827)">
<path fill-rule="evenodd" clip-rule="evenodd" d="M201.365 73.4429C190.787 73.8976 172.182 113.778 172.182 113.778L172.176 113.779C172.176 113.779 123.792 133.43 121.877 144.688C119.962 155.945 149.546 165.652 149.546 165.652C150.039 169.051 150.289 171.893 150.376 174.262C150.313 174.306 150.253 174.356 150.197 174.41L147.637 176.865C147.336 177.153 146.935 177.306 146.518 177.319C140.057 177.513 126.36 182.313 129.442 195.09C130.403 198.466 134.829 205.108 144.966 205.939C145.831 206.01 146.508 206.72 146.436 207.585C146.15 211.041 145.728 216.753 151.422 220.895C151.937 221.27 152.219 221.895 152.148 222.528C151.591 227.463 152.574 236.07 160.446 238.067C160.555 238.094 160.669 238.109 160.781 238.111L183.342 238.581C186.228 238.641 192.03 237.353 192.148 231.716L192.265 226.067C192.281 225.299 192.923 224.692 193.69 224.719C194.399 224.743 194.97 225.301 195.066 226.004C195.672 230.455 198.089 237.171 202.012 238.108C202.153 238.13 202.299 238.153 202.45 238.177C206.585 238.831 214.547 240.09 222.665 237.802C223.482 237.572 224.417 237.391 225.389 237.203C228.844 236.534 232.759 235.776 233.463 232.401C233.868 229.431 234.485 222.569 233.884 217.849C233.826 217.394 233.948 216.934 234.256 216.594C234.728 216.073 235.279 215.506 235.87 214.898C238.45 212.246 241.786 208.816 242.605 205.011C242.787 204.163 243.496 203.47 244.36 203.389C248.415 203.011 255.23 200.91 259.162 194.497C259.202 194.431 259.236 194.363 259.266 194.292C260.393 191.548 261.583 186.428 257.494 181.774C252.936 176.589 243.362 176.899 236.436 177.124C233.966 177.204 231.833 177.273 230.384 177.078C243.177 174.275 273.588 166.554 274.082 156.394C274.708 143.521 228.03 119.156 228.03 119.156C220.952 91.0857 211.943 72.9883 201.365 73.4429Z" fill="white"/>
</g>
</g>
<path d="M174.856 151.567C174.256 150.747 173.306 150.256 172.29 150.243L168.397 150.19C167.534 150.178 166.709 150.54 166.133 151.183C165.249 152.171 165.132 153.64 165.832 154.766C166.325 155.559 167.162 156.091 168.09 156.19L172.035 156.609C172.94 156.705 173.843 156.404 174.509 155.784C175.672 154.7 175.842 152.917 174.904 151.632L174.856 151.567Z" fill="#727272"/>
<path d="M212.34 150.658C213.056 149.937 214.069 149.594 215.076 149.733L218.933 150.266C219.787 150.384 220.549 150.867 221.021 151.588C221.747 152.698 221.642 154.168 220.781 155.176C220.175 155.886 219.267 156.286 218.335 156.244L214.371 156.066C213.462 156.025 212.615 155.592 212.05 154.879C211.062 153.632 211.163 151.844 212.283 150.715L212.34 150.658Z" fill="#727272"/>
<path d="M208.774 141.752C208.615 139.533 205.885 139.391 204.711 139.745C202.906 140.154 202.739 141.879 202.205 144.38C201.82 146.896 201.17 145.907 202.211 149.949C203.253 153.991 206.807 152.818 208.204 151.094C209.601 149.37 208.464 149.031 209.185 145.851C210.056 142.685 209.046 144.678 208.743 141.865L208.774 141.752Z" fill="#3B3B3B"/>
<path d="M182.838 141.339C182.68 139.12 179.949 138.979 178.775 139.332C176.97 139.742 176.804 141.466 176.269 143.967C175.735 146.469 175.234 145.494 176.276 149.536C177.318 153.578 180.871 152.406 182.268 150.682C183.666 148.957 182.528 148.618 183.249 145.438C184.12 142.272 183.111 144.265 182.807 141.452L182.838 141.339Z" fill="#3B3B3B"/>
<path d="M194.85 150.966C194.038 150.468 193.488 150.049 192.481 149.989C192.024 149.961 191.641 150.001 191.194 150.077C190.5 150.195 189.82 150.226 189.127 150.344C188.386 150.47 187.517 150.742 186.91 151.14" stroke="#3B3B3B" stroke-width="2.58465" stroke-linecap="round"/>
<path d="M227.896 144.218C223.389 143.418 225.598 137.846 227.669 134.744C228.104 134.093 229.001 134.069 229.408 134.738C231.42 138.043 233.14 145.149 227.896 144.218Z" fill="#E6E6E6"/>
<mask id="mask0_1455_31827" style="mask-type:alpha" maskUnits="userSpaceOnUse" x="128" y="155" width="19" height="46">
<rect x="127.568" y="157.083" width="8.68542" height="45.3035" rx="2.44458" transform="rotate(-14.6554 127.568 157.083)" fill="#676767"/>
</mask>
<g mask="url(#mask0_1455_31827)">
<path d="M141.506 187.923L148.47 192.043L135.913 154.076L124.63 159.275L133.265 187.236H137.188L141.506 187.923Z" fill="#555555"/>
</g>
<path d="M134.618 188.876C136.451 187.305 139.803 185.262 144.832 189.662C144.832 189.662 150.175 195.162 146.403 198.305" stroke="#555555" stroke-width="2.35714" stroke-linecap="round"/>
<path d="M145.639 118.968C136.983 120.784 117.459 125.809 104.004 129.077C101.164 129.766 99.4177 132.628 100.117 135.465L106.246 160.313C106.939 163.121 109.772 164.839 112.582 164.156L153.573 154.189C156.424 153.496 158.153 150.6 157.411 147.761L150.749 122.287C150.135 119.939 148.014 118.469 145.639 118.968Z" fill="#5D5D5D"/>
<path d="M124.31 134.001L128.141 133.424C128.346 133.394 128.554 133.393 128.758 133.425C129.674 133.569 131.08 133.827 131.181 133.992C131.283 134.158 132.365 135.193 133.053 135.84C133.194 135.973 133.317 136.125 133.417 136.291L134.652 138.349C134.976 138.888 135.524 139.253 136.145 139.344L136.532 139.4C137.101 139.484 137.61 139.797 137.941 140.267L138.244 140.696C138.655 141.279 138.741 142.032 138.472 142.693L138.36 142.968C138.256 143.224 138.102 143.457 137.907 143.653L134.992 146.593C134.703 146.885 134.334 147.085 133.932 147.169L126.862 148.643L122.134 149.246C121.345 149.346 120.567 148.991 120.125 148.329L119.72 147.719C119.401 147.241 119.332 146.638 119.535 146.1C119.796 145.404 120.46 144.943 121.203 144.942L123.987 144.936C124.172 144.935 124.357 144.91 124.536 144.861L130.524 143.222C131.008 143.089 131.267 142.562 131.075 142.098C130.951 141.796 130.661 141.594 130.335 141.582L129.304 141.543C129.048 141.534 128.794 141.571 128.552 141.653L125.398 142.723C125.173 142.799 124.936 142.837 124.698 142.834L122.915 142.811C122.013 142.8 121.219 142.212 120.945 141.351L120.571 140.175C120.39 139.606 120.46 138.986 120.765 138.472L122.819 135.005C123.14 134.463 123.688 134.094 124.31 134.001Z" fill="white"/>
<path d="M131.724 149.718L129.413 150.084C128.51 150.226 128.156 151.338 128.81 151.977C128.99 152.154 129.226 152.264 129.478 152.289L131.542 152.492C131.975 152.535 132.41 152.441 132.788 152.225L133.841 151.623C134.106 151.47 134.304 151.222 134.392 150.929C134.66 150.042 133.863 149.199 132.963 149.418L131.724 149.718Z" fill="white"/>
<path d="M123.414 129.846L123.466 129.721C123.628 129.333 123.937 129.023 124.326 128.861C124.785 128.668 125.309 128.701 125.741 128.95L126.198 129.213C126.715 129.511 127.033 130.063 127.031 130.66C127.027 131.451 126.466 132.13 125.69 132.283L125.444 132.331C124.776 132.462 124.092 132.21 123.669 131.678C123.257 131.159 123.159 130.458 123.414 129.846Z" fill="white"/>
<path d="M133.455 141.312C134.728 141.959 135.977 142.665 137.501 143.608C139.041 144.542 141.298 146.377 142.869 147.506C143.048 147.633 143.282 147.866 143.385 148.032C143.65 148.445 144.167 149.015 144.376 149.112C144.471 149.163 144.593 149.268 144.646 149.345C144.728 149.475 144.728 149.489 144.624 149.462C144.531 149.439 144.491 149.493 144.416 149.742C144.335 149.99 144.353 150.067 144.479 150.131L144.636 150.207L144.441 150.241L144.251 150.264L144.421 150.443C144.767 150.805 144.666 150.876 144.129 150.676C143.664 150.491 143.55 150.488 143.333 150.653C143.197 150.752 143.052 150.918 143.009 151.027C142.942 151.196 142.885 151.187 142.595 150.988C142.306 150.803 142.223 150.784 142.077 150.921C141.917 151.067 141.86 151.058 141.594 150.813C141.43 150.664 141.204 150.532 141.091 150.529C140.977 150.525 140.572 150.266 140.202 149.951C139.471 149.325 136.762 147.226 134.71 146.06C133.986 145.66 133.151 145.16 132.851 144.956C132.551 144.753 131.938 144.425 131.493 144.22C131.054 144.017 130.686 143.801 130.674 143.754C130.663 143.708 130.575 143.701 130.483 143.734C130.396 143.769 130.292 143.728 130.254 143.657C130.123 143.423 126.041 141.84 123.782 141.15C122.553 140.773 121.444 140.443 121.329 140.397C121.209 140.364 120.731 140.229 120.263 140.112C119.795 139.996 118.895 139.721 118.264 139.512C114.026 138.049 113.412 137.874 112.776 137.984C112.473 138.031 112.295 137.793 112.415 137.491C112.473 137.347 112.979 136.849 114.817 135.15C115.038 134.944 115.171 134.913 115.498 134.96C116.602 135.148 118.013 135.556 119.734 136.199C121.476 136.837 122.18 137.075 125.244 138.085C126.958 138.642 132.455 140.802 133.455 141.312Z" fill="#E53D33"/>
<defs>
<filter id="filter0_f_1455_31827" x="117.388" y="69.0346" width="161.101" height="174.481" filterUnits="userSpaceOnUse" color-interpolation-filters="sRGB">
<feFlood flood-opacity="0" result="BackgroundImageFix"/>
<feBlend mode="normal" in="SourceGraphic" in2="BackgroundImageFix" result="shape"/>
<feGaussianBlur stdDeviation="2.2" result="effect1_foregroundBlur_1455_31827"/>
</filter>
</defs>
</svg>
