<svg width="20" height="20" viewBox="0 0 20 20" fill="none" xmlns="http://www.w3.org/2000/svg">
<g clip-path="url(#clip0_1432_30194)">
<path d="M9.32787 3.24906L10.7836 2.94141L14.7306 4.20954L17.662 5.59773L18.3174 6.79583L17.5245 7.71129L14.5555 8.95691L10.6986 10.4051L9.21281 10.6828L5.29085 9.34461L3.81261 8.46417L3.80761 11.2731L4.11026 14.0244L5.03823 15.5627L3.33988 16.9959L1.93417 15.5627L2.61451 14.037L3.06474 11.0355L2.73457 8.00144L2.44943 7.77382L1.86914 6.79583L2.51947 5.96292L5.36089 4.41714L9.32787 3.24906Z" fill="#69A8F6"/>
<path d="M8.88707 11.4584L4.98012 9.75L4.75 10.0101L4.78002 12.2888L5.78302 13.662L10.0026 14.1697L14.1697 13.5619L14.9501 12.2513L15.0426 10.0101L15.0602 9.84255L11.0907 11.3808L8.88707 11.4584Z" fill="#69A8F6"/>
</g>
<defs>
<clipPath id="clip0_1432_30194">
<rect width="20" height="20" fill="white"/>
</clipPath>
</defs>
</svg>
