<svg width="54" height="54" viewBox="0 0 54 54" fill="none" xmlns="http://www.w3.org/2000/svg">
<path d="M22.9604 25.388L23.352 25.301V24.8999V16.7057L23.5472 8.40754L26.5572 5.30635L32.9368 5.49967L32.952 5.50013L32.9671 5.49967L39.5671 5.29967L39.5746 5.29944L39.5822 5.29898L45.874 4.91767L47.8638 8.35467L48.4513 14.9148L48.2522 21.585L48.2518 21.5962L48.252 21.6075L48.352 28.2075L48.3524 28.2344L48.3557 28.2611L49.248 35.4987L48.2759 43.081L42.9267 49.0033L36.6821 49.0994L30.1195 48.2045L30.0782 48.1989L30.0366 48.2001L23.5594 48.3994L16.9822 48.0008L16.9479 47.9987L16.9136 48.0014L10.6352 48.4843L4.94361 43.0773L4.75427 38.2491L6.30078 31.773L11.1699 27.5723L17.528 26.5941L17.5443 26.5916L17.5604 26.588L22.9604 25.388Z" fill="#C3DCFB" stroke="#89ABD4"/>
<path d="M24.7522 11.6997L23.1445 11.6286C23.1445 11.5286 23.1521 14.8998 23.1521 14.8998H24.8521V11.8998L24.7522 11.6997ZM35.9521 14.8998L37.5521 13.3998L35.9521 11.6997V14.8998ZM24.7522 14.8998L30.3521 15.0998L35.9521 14.8998V11.6997H30.3521H24.7522V14.8998Z" fill="#6C8AAE"/>
<path d="M35.8517 19.6005H30.2517L24.7517 19.5005H23.252L23.306 22.8005H24.7517H30.2517L35.8517 22.9005L37.4517 21.3005L35.8517 19.6005Z" fill="#6C8AAE"/>
<path d="M4.47852 43.2464L11.9231 43.7H19.3528H26.8355L34.2528 44.1L41.7528 44.5L48.7809 43.103L48.2528 47.9L43.7528 49.6C43.7528 49.6 39.6791 49.6554 37.0195 49.6C34.4778 49.5469 30.4439 49.3 30.4439 49.3L23.4992 49.4324L16.6528 49.3L10.0767 49.1501L5.45278 48.3L4.47852 43.2464Z" fill="#637B98"/>
</svg>
