<svg width="28" height="28" viewBox="0 0 28 28" fill="none" xmlns="http://www.w3.org/2000/svg">
<path fill-rule="evenodd" clip-rule="evenodd" d="M4.66602 7.00016C4.66602 6.35583 5.18835 5.8335 5.83268 5.8335H18.666C19.3103 5.8335 19.8327 6.35583 19.8327 7.00016C19.8327 7.6445 19.3103 8.16683 18.666 8.16683H5.83268C5.18835 8.16683 4.66602 7.6445 4.66602 7.00016ZM4.66602 11.6668C4.66602 11.0225 5.18835 10.5002 5.83268 10.5002H15.166C15.8103 10.5002 16.3327 11.0225 16.3327 11.6668C16.3327 12.3112 15.8103 12.8335 15.166 12.8335H5.83268C5.18835 12.8335 4.66602 12.3112 4.66602 11.6668ZM5.83268 15.1668C5.18835 15.1668 4.66602 15.6892 4.66602 16.3335C4.66602 16.9778 5.18835 17.5002 5.83268 17.5002H10.4993C11.1437 17.5002 11.666 16.9778 11.666 16.3335C11.666 15.6892 11.1437 15.1668 10.4993 15.1668H5.83268ZM20.2402 11.1395C20.6258 10.73 21.1487 10.5 21.694 10.5C21.964 10.5 22.2313 10.5565 22.4808 10.6662C22.7302 10.7759 22.9568 10.9368 23.1477 11.1395C23.3387 11.3423 23.4901 11.583 23.5934 11.8479C23.6967 12.1128 23.7499 12.3967 23.7499 12.6834C23.7499 12.9702 23.6967 13.2541 23.5934 13.519C23.4901 13.7839 23.3387 14.0246 23.1477 14.2274L15.4101 22.4449C15.3149 22.546 15.1956 22.6177 15.065 22.6524L12.589 23.3098C12.3359 23.377 12.0681 23.2982 11.8836 23.1023C11.6991 22.9063 11.6249 22.6219 11.6882 22.3531L12.3072 19.7235C12.3399 19.5848 12.4074 19.4581 12.5026 19.357L20.2402 11.1395Z" fill="white"/>
</svg>
