<svg width="54" height="54" viewBox="0 0 54 54" fill="none" xmlns="http://www.w3.org/2000/svg">
<path d="M27.0464 6.47536C27.0571 6.47578 27.0678 6.47585 27.0785 6.47557L35.6915 6.25311L37.7991 7.99423L39.1574 9.84793L33.5434 10.3484H27.2108L20.6157 10.0502L14.7355 9.13142C14.8054 9.03479 14.8871 8.92449 14.9771 8.80718C15.279 8.41388 15.6528 7.97171 15.988 7.69059C16.409 7.33752 17.05 6.94133 17.6069 6.62449C17.8812 6.46843 18.1278 6.33571 18.3056 6.24208C18.3781 6.20396 18.439 6.17239 18.4855 6.14844H18.556L27.0464 6.47536ZM38.8936 14.8294L38.8936 14.8295L38.905 14.8285L39.5602 14.7742L40.3691 21.6072L40.369 21.6072L40.3702 21.6163L41.3702 28.9163L41.3704 28.9172L42.3704 36.1172C42.3712 36.123 42.3721 36.1287 42.3731 36.1344C42.3736 36.1375 42.3742 36.1407 42.3748 36.1439L43.7458 43.1946L43.0159 44.9281L42.1828 46.4091L40.941 47.3198C40.919 47.316 40.8956 47.3119 40.871 47.3076C40.7039 47.2782 40.4821 47.2381 40.2611 47.1951C40.0381 47.1518 39.8236 47.1069 39.6681 47.0681C39.6154 47.0549 39.5755 47.0438 39.5474 47.0353C39.4671 46.9805 39.3701 46.9484 39.2656 46.9484H32.8272L30.5978 46.3911L28.4882 44.6331L29.1634 37.4955C29.1683 37.4437 29.1651 37.3913 29.1538 37.3405L26.9823 27.5214C26.929 27.2801 26.7074 27.114 26.4608 27.1305C26.2142 27.1469 26.0167 27.3411 25.9959 27.5873L25.1674 37.4064C25.1662 37.4204 25.1656 37.4344 25.1656 37.4484V44.6268L23.8373 47.1949L21.0179 47.6497L14.7342 47.843L13.378 46.758C13.3183 46.7103 13.2486 46.6769 13.1741 46.6603L11.7656 46.3474V44.8484C11.7656 44.7497 11.7364 44.6532 11.6817 44.5711L10.7846 43.2255L11.6619 36.1096C11.6635 36.0961 11.6646 36.0826 11.6652 36.069L11.9639 28.8L13.1588 21.6306C13.1605 21.6204 13.1619 21.6101 13.163 21.5997L13.8841 14.6072L20.3009 15.4442C20.3298 15.448 20.3589 15.4492 20.388 15.4479L27.0768 15.1484H33.5656C33.5756 15.1484 33.5856 15.1481 33.5956 15.1475L38.8936 14.8294Z" fill="#C3DCFB" stroke="#89ABD4" stroke-linejoin="round"/>
<path d="M14.006 9.24756L20.3004 9.74822L26.8004 10.3482H33.2374L39.7004 10.0482L40.0004 14.2482L33.4754 14.9482L26.8004 15.2456L20.1004 14.9482L13.4004 14.4482L14.006 9.24756Z" fill="#637B98"/>
</svg>
