<svg width="24" height="24" viewBox="0 0 24 24" fill="none" xmlns="http://www.w3.org/2000/svg">
<g clip-path="url(#clip0_369_19038)">
<path fill-rule="evenodd" clip-rule="evenodd" d="M15.7035 5.21265C15.3054 4.9286 14.8837 4.76144 14.4745 4.70142C13.7229 4.59118 12.9137 4.82516 12.2148 5.54C11.8287 5.9349 11.1955 5.94205 10.8006 5.5559C10.4058 5.1698 10.3987 4.53669 10.7847 4.1418C11.9077 2.99332 13.3473 2.51468 14.7647 2.72258C15.5551 2.83851 16.3062 3.16244 16.9699 3.66146C16.9053 3.09498 16.6237 2.613 16.1946 2.36521C15.7163 2.08907 15.5524 1.47748 15.8286 0.99919C16.1047 0.5209 16.7163 0.357022 17.1946 0.633165C18.7675 1.54129 19.2042 3.30155 18.8706 4.85298C21.1789 5.4592 22.9998 7.5553 22.9998 10.1754C22.9998 10.7277 22.552 11.1754 21.9998 11.1754C21.4475 11.1754 20.9998 10.7277 20.9998 10.1754C20.9998 8.9301 20.344 7.8614 19.393 7.24315C19.6971 8.669 19.3581 10.2178 18.3034 11.3553C17.9279 11.7603 17.2952 11.7842 16.8902 11.4087C16.4852 11.0332 16.4613 10.4004 16.8368 9.99545C17.6468 9.1219 17.7149 7.7234 17.0385 6.70145C16.4968 7.0127 15.9558 7.59385 15.4769 8.47905C14.8343 9.66685 14.3803 11.2827 14.2528 13.1192C15.9374 13.331 17.3398 13.8217 18.475 14.5634C20.046 15.5899 21.024 17.0444 21.5383 18.704C21.7018 19.2315 21.4067 19.7917 20.8792 19.9552C20.3517 20.1187 19.7915 19.8235 19.628 19.296C19.2337 18.0237 18.5147 16.9783 17.3811 16.2377C16.235 15.4889 14.5849 15 12.25 15C9.91665 15 8.1808 15.4885 6.9328 16.2532C5.6948 17.0119 4.88189 18.0749 4.43124 19.3364C4.24545 19.8565 3.67321 20.1275 3.15312 19.9417C2.63303 19.7559 2.36202 19.1837 2.54782 18.6636C3.14452 16.9933 4.24224 15.5563 5.8878 14.5479C6.72575 14.0345 7.691 13.6408 8.7836 13.379C9.1213 9.41875 11.9542 6.17035 15.7035 5.21265ZM8.6591 21.5014C7.39435 21.5014 6.34035 20.6557 6.31895 20.6385C5.754 20.1658 4.9589 20.1689 4.39635 20.563C4.28858 20.6268 3.88683 20.8571 3.3484 21.0751C2.76435 21.3116 2.09655 21.5014 1.5 21.5014C0.947715 21.5014 0.5 21.9492 0.5 22.5014C0.5 23.0537 0.947715 23.5014 1.5 23.5014H22.5C23.0523 23.5014 23.5 23.0537 23.5 22.5014C23.5 21.9492 23.0523 21.5014 22.5 21.5014C21.9035 21.5014 21.2356 21.3116 20.6516 21.0751C20.1132 20.8571 19.7114 20.6268 19.6036 20.563C19.0411 20.1689 18.2461 20.1657 17.6812 20.6384C17.6597 20.6556 16.6056 21.5014 15.3409 21.5014C14.0762 21.5014 13.0222 20.6557 13.0007 20.6385C12.4236 20.1556 11.5765 20.1555 10.9993 20.6384C10.978 20.6556 9.92385 21.5014 8.6591 21.5014ZM19.6132 20.5697C19.6145 20.5706 19.6146 20.5707 19.6132 20.5697V20.5697Z" fill="white"/>
</g>
<defs>
<clipPath id="clip0_369_19038">
<rect width="24" height="24" fill="white"/>
</clipPath>
</defs>
</svg>
