<svg width="21" height="21" viewBox="0 0 21 21" fill="none" xmlns="http://www.w3.org/2000/svg">
<path fill-rule="evenodd" clip-rule="evenodd" d="M10.7118 3.66113C11.264 3.66113 11.7118 4.10885 11.7118 4.66113V9.49447H16.5451C17.0974 9.49447 17.5451 9.94218 17.5451 10.4945C17.5451 11.0468 17.0974 11.4945 16.5451 11.4945H11.7118V16.3278C11.7118 16.8801 11.264 17.3278 10.7118 17.3278C10.1595 17.3278 9.71175 16.8801 9.71175 16.3278V11.4945H4.87842C4.32613 11.4945 3.87842 11.0468 3.87842 10.4945C3.87842 9.94218 4.32613 9.49447 4.87842 9.49447H9.71175V4.66113C9.71175 4.10885 10.1595 3.66113 10.7118 3.66113Z" fill="#17191F"/>
</svg>
