<svg width="24" height="24" viewBox="0 0 24 24" fill="none" xmlns="http://www.w3.org/2000/svg">
<path fill-rule="evenodd" clip-rule="evenodd" d="M1.92041 9.25714C1.92041 6.3537 4.27411 4 7.17755 4H16.3204C19.2238 4 21.5776 6.3537 21.5776 9.25714V14.7429C21.5776 17.6463 19.2238 20 16.3204 20H7.17755C4.27411 20 1.92041 17.6463 1.92041 14.7429V9.25714ZM6.71367 8.65732C6.3823 8.4088 5.9122 8.47595 5.66367 8.80732C5.41514 9.1387 5.4823 9.6088 5.81367 9.85732L10.0994 13.0716C11.0772 13.8049 12.4216 13.8049 13.3994 13.0716L17.6851 9.85732C18.0165 9.6088 18.0836 9.1387 17.8351 8.80732C17.5866 8.47595 17.1165 8.4088 16.7851 8.65732L12.4994 11.8716C12.0549 12.2049 11.4438 12.2049 10.9994 11.8716L6.71367 8.65732Z" fill="white"/>
<circle cx="20.5" cy="18.5" r="3.5" fill="#F2544A"/>
</svg>
