<svg width="28" height="28" viewBox="0 0 28 28" fill="none" xmlns="http://www.w3.org/2000/svg">
<path d="M15.47 3.84992C15.6526 3.7193 15.8662 3.63887 16.0896 3.61665C16.313 3.59443 16.5384 3.63121 16.7431 3.72331C16.9478 3.81541 17.1248 3.95961 17.2564 4.14151C17.388 4.3234 17.4696 4.53664 17.493 4.75992L17.5 4.89292V23.1069C17.5001 23.3314 17.4412 23.552 17.3294 23.7467C17.2175 23.9414 17.0566 24.1033 16.8626 24.2163C16.6686 24.3293 16.4483 24.3894 16.2238 24.3907C15.9993 24.3919 15.7784 24.3342 15.5831 24.2234L15.4711 24.1511L7.79331 18.6666H4.66665C4.07797 18.6668 3.51099 18.4444 3.07934 18.0442C2.6477 17.6439 2.3833 17.0953 2.33915 16.5083L2.33331 16.3333V11.6666C2.33313 11.0779 2.55545 10.5109 2.95573 10.0793C3.356 9.64764 3.90463 9.38324 4.49165 9.33909L4.66665 9.33325H7.79331L15.47 3.84992ZM22.9448 7.91342C23.802 8.6787 24.4876 9.6166 24.9567 10.6656C25.4258 11.7145 25.6677 12.8508 25.6666 13.9999C25.6677 15.149 25.4258 16.2853 24.9567 17.3343C24.4876 18.3832 23.802 19.3211 22.9448 20.0864C22.8309 20.1903 22.6976 20.2706 22.5526 20.3226C22.4075 20.3746 22.2536 20.3974 22.0996 20.3896C21.9457 20.3819 21.7949 20.3437 21.6558 20.2772C21.5167 20.2108 21.3922 20.1175 21.2894 20.0027C21.1866 19.8878 21.1075 19.7538 21.0568 19.6082C21.0061 19.4627 20.9848 19.3086 20.994 19.1547C21.0032 19.0009 21.0428 18.8504 21.1105 18.7119C21.1782 18.5735 21.2727 18.4498 21.3885 18.3481C22.0012 17.8016 22.4913 17.1317 22.8265 16.3822C23.1617 15.6328 23.3344 14.8209 23.3333 13.9999C23.3333 12.2733 22.5843 10.7216 21.3885 9.65175C21.2727 9.55002 21.1782 9.42636 21.1105 9.28791C21.0428 9.14946 21.0032 8.99896 20.994 8.84512C20.9848 8.69128 21.0061 8.53713 21.0568 8.39159C21.1075 8.24605 21.1866 8.11199 21.2894 7.99717C21.3922 7.88235 21.5167 7.78903 21.6558 7.72261C21.7949 7.65619 21.9457 7.61798 22.0996 7.61019C22.2536 7.60241 22.4075 7.62519 22.5526 7.67724C22.6976 7.72928 22.8309 7.80956 22.9448 7.91342ZM20.6115 10.5221C21.101 10.9593 21.4927 11.495 21.7607 12.0942C22.0287 12.6933 22.167 13.3424 22.1666 13.9988C22.1666 15.3824 21.5646 16.6249 20.6115 17.4778C20.3902 17.6742 20.1026 17.7793 19.8068 17.7717C19.511 17.7641 19.2291 17.6444 19.0183 17.4368C18.8074 17.2292 18.6833 16.9492 18.6711 16.6536C18.6589 16.3579 18.7595 16.0687 18.9525 15.8444L19.0551 15.7394C19.5335 15.3101 19.8333 14.6906 19.8333 13.9999C19.8347 13.4025 19.6057 12.8275 19.194 12.3946L19.0551 12.2604C18.9394 12.1587 18.8449 12.035 18.7772 11.8966C18.7095 11.7581 18.6699 11.6076 18.6607 11.4538C18.6515 11.2999 18.6728 11.1458 18.7235 11.0003C18.7742 10.8547 18.8532 10.7207 18.956 10.6058C19.0588 10.491 19.1834 10.3977 19.3225 10.3313C19.4615 10.2649 19.6124 10.2266 19.7663 10.2189C19.9202 10.2111 20.0742 10.2339 20.2192 10.2859C20.3643 10.338 20.4976 10.4182 20.6115 10.5221Z" fill="#7B8696"/>
</svg>
