<svg width="87" height="36" viewBox="0 0 87 36" fill="none" xmlns="http://www.w3.org/2000/svg">
<rect width="87" height="36" rx="18" fill="white" fill-opacity="0.05"/>
<path d="M16.8483 10.256C16.9443 10.22 17.0463 10.22 17.1543 10.256C17.2743 10.28 17.3643 10.328 17.4243 10.4C17.4843 10.484 17.5863 10.538 17.7303 10.562C17.8623 10.598 17.9463 10.64 17.9823 10.688C18.0183 10.736 18.0483 10.886 18.0723 11.138C18.1083 11.414 18.1503 11.57 18.1983 11.606C18.2463 11.63 18.5463 11.642 19.0983 11.642C19.6503 11.63 20.0043 11.606 20.1603 11.57C20.2683 11.558 20.3523 11.576 20.4123 11.624C20.4843 11.672 20.6103 11.81 20.7903 12.038C20.9343 12.218 20.9943 12.38 20.9703 12.524C20.9463 12.668 20.8443 12.758 20.6643 12.794C20.5443 12.818 20.4063 12.86 20.2503 12.92C20.1183 12.968 20.0283 12.992 19.9803 12.992C19.9443 12.992 19.8663 12.974 19.7463 12.938C19.5903 12.89 19.3803 12.872 19.1163 12.884C18.8643 12.908 18.6423 12.902 18.4503 12.866C18.1623 12.806 17.5563 12.788 16.6323 12.812C15.7203 12.836 15.0903 12.89 14.7423 12.974C14.4543 13.034 14.2383 13.052 14.0943 13.028C13.9503 13.004 13.8423 12.932 13.7703 12.812C13.7103 12.692 13.6443 12.608 13.5723 12.56C13.4163 12.452 13.3563 12.296 13.3923 12.092C13.4283 11.888 13.5363 11.756 13.7163 11.696C13.9083 11.636 14.5503 11.576 15.6423 11.516C16.0263 11.492 16.2723 11.438 16.3803 11.354C16.5003 11.258 16.5603 11.072 16.5603 10.796C16.5603 10.52 16.6563 10.34 16.8483 10.256ZM16.5423 13.514C16.8183 13.442 17.0463 13.448 17.2263 13.532C17.3103 13.58 17.4723 13.604 17.7123 13.604C18.0963 13.604 18.5703 13.724 19.1343 13.964C19.3623 14.072 19.5543 14.138 19.7103 14.162C19.9263 14.198 20.1003 14.282 20.2323 14.414C20.3763 14.546 20.4603 14.714 20.4843 14.918C20.5083 15.098 20.5563 15.248 20.6283 15.368C20.7243 15.536 20.7423 15.776 20.6823 16.088C20.6343 16.388 20.5323 16.658 20.3763 16.898C20.2683 17.066 20.2143 17.204 20.2143 17.312C20.2143 17.42 20.1903 17.504 20.1423 17.564C20.1063 17.624 20.0223 17.69 19.8903 17.762C19.7463 17.846 19.6263 17.93 19.5303 18.014C19.3023 18.218 19.0683 18.356 18.8283 18.428C18.7443 18.44 18.6303 18.476 18.4863 18.536C18.1863 18.68 17.7003 18.758 17.0283 18.77C16.3563 18.77 15.8883 18.704 15.6243 18.572C15.4083 18.476 15.2223 18.392 15.0663 18.32C14.9343 18.272 14.8323 18.194 14.7603 18.086C14.6883 17.966 14.5923 17.846 14.4723 17.726C14.2803 17.558 14.1483 17.33 14.0763 17.042C14.0163 16.742 14.0223 16.448 14.0943 16.16C14.1423 15.956 14.1663 15.782 14.1663 15.638C14.1543 15.374 14.2503 15.128 14.4543 14.9C14.6463 14.684 14.7783 14.438 14.8503 14.162C14.8743 14.018 14.9343 13.922 15.0303 13.874C15.1263 13.814 15.2883 13.772 15.5163 13.748C15.8163 13.724 15.9783 13.7 16.0023 13.676C16.0383 13.664 16.1103 13.64 16.2183 13.604C16.3503 13.568 16.4583 13.538 16.5423 13.514ZM17.5503 14.738C17.2983 14.606 16.9923 14.618 16.6323 14.774C16.2843 14.918 16.0503 15.134 15.9303 15.422C15.8823 15.542 15.7923 15.698 15.6603 15.89C15.5523 16.07 15.4863 16.214 15.4623 16.322C15.4383 16.43 15.4563 16.538 15.5163 16.646C15.5763 16.766 15.6303 16.916 15.6783 17.096C15.7983 17.48 16.0623 17.618 16.4703 17.51C16.5903 17.474 16.7703 17.474 17.0103 17.51C17.3703 17.558 17.6943 17.468 17.9823 17.24C18.1143 17.144 18.2403 17.078 18.3603 17.042C18.6003 16.958 18.7203 16.796 18.7203 16.556C18.7203 16.448 18.7683 16.328 18.8643 16.196C18.9483 16.064 18.9903 15.974 18.9903 15.926C18.9903 15.878 18.9423 15.8 18.8463 15.692C18.7503 15.584 18.6603 15.452 18.5763 15.296C18.5043 15.128 18.4203 15.02 18.3243 14.972C18.0723 14.852 17.8743 14.792 17.7303 14.792C17.6583 14.792 17.5983 14.774 17.5503 14.738ZM14.6343 19.292C14.7543 19.22 14.9763 19.22 15.3003 19.292C15.4443 19.328 15.6483 19.322 15.9123 19.274C16.2003 19.238 16.4643 19.244 16.7043 19.292C16.9563 19.34 17.3163 19.352 17.7843 19.328C18.2283 19.304 18.5283 19.292 18.6843 19.292C18.9843 19.316 19.5483 19.316 20.3763 19.292C20.8683 19.28 21.1923 19.298 21.3483 19.346C21.4803 19.394 21.5823 19.412 21.6543 19.4C21.8103 19.364 21.9423 19.49 22.0503 19.778C22.1703 20.054 22.1703 20.252 22.0503 20.372C21.9543 20.468 21.7563 20.558 21.4563 20.642C21.1683 20.714 20.9343 20.732 20.7543 20.696C20.5143 20.66 20.1843 20.654 19.7643 20.678C19.3443 20.69 19.0623 20.72 18.9183 20.768C18.7503 20.816 18.5883 20.822 18.4323 20.786C18.2763 20.762 18.1143 20.756 17.9463 20.768C17.7783 20.792 17.5803 20.786 17.3523 20.75C17.1243 20.714 16.9443 20.726 16.8123 20.786C16.5843 20.894 16.2183 20.924 15.7143 20.876C15.0183 20.804 14.5683 20.792 14.3643 20.84C14.1843 20.876 14.0403 20.864 13.9323 20.804C13.8363 20.756 13.6803 20.72 13.4643 20.696C13.2723 20.684 13.1463 20.66 13.0863 20.624C13.0263 20.588 12.9483 20.492 12.8523 20.336C12.6603 19.988 12.6783 19.73 12.9063 19.562C13.1463 19.394 13.5843 19.316 14.2203 19.328C14.4363 19.34 14.5743 19.328 14.6343 19.292ZM13.8063 21.236C13.9383 21.14 14.0823 21.164 14.2383 21.308C14.3343 21.392 14.4363 21.452 14.5443 21.488C14.7123 21.548 14.7603 21.728 14.6883 22.028C14.6523 22.172 14.6763 22.334 14.7603 22.514C14.8323 22.682 14.8683 22.79 14.8683 22.838C14.8683 22.994 15.0483 23.114 15.4083 23.198C15.5523 23.222 15.7323 23.264 15.9483 23.324C16.0923 23.348 16.2123 23.354 16.3083 23.342C16.4283 23.318 16.5663 23.33 16.7223 23.378C16.8903 23.414 17.0403 23.408 17.1723 23.36C17.2923 23.324 17.4663 23.3 17.6943 23.288C17.9463 23.276 18.1443 23.258 18.2883 23.234C18.4683 23.21 18.8703 23.204 19.4943 23.216C20.1783 23.228 20.5383 23.234 20.5743 23.234C20.7783 23.222 20.9043 23.336 20.9523 23.576C21.0003 23.72 21.0423 23.804 21.0783 23.828C21.1983 23.936 21.2163 24.074 21.1323 24.242C21.0603 24.41 20.9403 24.494 20.7723 24.494C20.6283 24.494 20.4843 24.542 20.3403 24.638C20.1963 24.734 20.0703 24.77 19.9623 24.746C19.8303 24.71 19.4403 24.698 18.7923 24.71C18.1563 24.734 17.7363 24.764 17.5323 24.8C17.2923 24.848 17.0943 24.86 16.9383 24.836C16.6743 24.8 16.3983 24.8 16.1103 24.836C15.9543 24.86 15.8223 24.848 15.7143 24.8C15.6183 24.752 15.5103 24.734 15.3903 24.746C15.1503 24.782 14.8983 24.68 14.6343 24.44C14.5383 24.356 14.4063 24.284 14.2383 24.224C13.9983 24.164 13.7643 23.954 13.5363 23.594C13.3203 23.234 13.2243 22.934 13.2483 22.694C13.2723 22.562 13.2843 22.388 13.2843 22.172C13.2963 22.016 13.3503 21.842 13.4463 21.65C13.5543 21.458 13.6743 21.32 13.8063 21.236ZM27.0227 10.796C27.0947 10.784 27.1667 10.784 27.2387 10.796C27.3227 10.808 27.4847 10.814 27.7247 10.814C28.1207 10.802 28.6127 10.802 29.2007 10.814C29.8367 10.838 30.2627 10.862 30.4787 10.886C30.5387 10.898 30.6467 10.982 30.8027 11.138C30.9587 11.282 31.0367 11.378 31.0367 11.426C31.0367 11.486 31.0067 11.582 30.9467 11.714C30.8867 11.846 30.8327 11.942 30.7847 12.002C30.7367 12.062 30.5747 12.086 30.2987 12.074C30.0347 12.074 29.7827 12.092 29.5427 12.128C28.9067 12.248 28.4327 12.266 28.1207 12.182C27.9527 12.146 27.7547 12.14 27.5267 12.164C26.7707 12.248 26.2667 12.284 26.0147 12.272C25.6907 12.248 25.4627 12.284 25.3307 12.38C25.1987 12.476 25.1567 12.638 25.2047 12.866C25.2527 13.01 25.2587 13.124 25.2227 13.208C25.1147 13.472 25.1567 13.676 25.3487 13.82C25.5527 13.952 25.8527 13.988 26.2487 13.928C26.4527 13.904 26.6327 13.904 26.7887 13.928C27.3887 14 28.0847 13.994 28.8767 13.91C29.3447 13.862 29.6807 13.856 29.8847 13.892C30.1007 13.928 30.2687 13.928 30.3887 13.892C30.5327 13.856 30.6947 13.922 30.8747 14.09C31.0667 14.258 31.1627 14.426 31.1627 14.594C31.1627 14.762 31.0007 14.918 30.6767 15.062C30.3647 15.194 30.0467 15.248 29.7227 15.224C29.5307 15.2 29.3207 15.218 29.0927 15.278C28.6127 15.386 27.9107 15.44 26.9867 15.44C26.0627 15.44 25.5347 15.386 25.4027 15.278C25.3187 15.206 25.1927 15.182 25.0247 15.206C24.8087 15.218 24.5687 15.11 24.3047 14.882C24.2447 14.834 24.1547 14.75 24.0347 14.63C23.7947 14.438 23.6747 14.21 23.6747 13.946C23.6747 13.838 23.6447 13.736 23.5847 13.64C23.5127 13.532 23.4767 13.394 23.4767 13.226C23.4887 13.058 23.5307 12.896 23.6027 12.74C23.6867 12.584 23.7167 12.416 23.6927 12.236C23.6687 12.044 23.7047 11.876 23.8007 11.732C23.8847 11.6 23.9627 11.462 24.0347 11.318C24.0947 11.174 24.1547 11.09 24.2147 11.066C24.2867 11.042 24.4967 11.024 24.8447 11.012C25.2407 11.012 25.5347 10.982 25.7267 10.922C25.9307 10.862 26.1647 10.844 26.4287 10.868C26.7047 10.88 26.8547 10.874 26.8787 10.85C26.9147 10.826 26.9627 10.808 27.0227 10.796ZM30.6047 16.142C30.7247 16.118 30.8687 16.112 31.0367 16.124C31.2167 16.136 31.3547 16.166 31.4507 16.214C31.5467 16.262 31.6787 16.298 31.8467 16.322C32.0267 16.346 32.1587 16.442 32.2427 16.61C32.3267 16.778 32.3327 16.952 32.2607 17.132C32.2007 17.3 32.0807 17.402 31.9007 17.438C31.7807 17.45 31.6367 17.498 31.4687 17.582C31.1927 17.702 30.9527 17.714 30.7487 17.618C30.5927 17.546 30.3527 17.534 30.0287 17.582C29.8847 17.606 29.7467 17.6 29.6147 17.564C29.4707 17.516 29.3147 17.522 29.1467 17.582C28.9787 17.642 28.7927 17.648 28.5887 17.6C28.3967 17.54 28.2767 17.522 28.2287 17.546C28.0967 17.618 27.7787 17.66 27.2747 17.672C26.9987 17.672 26.8367 17.696 26.7887 17.744C26.7407 17.78 26.6267 17.786 26.4467 17.762C26.2667 17.738 26.0147 17.726 25.6907 17.726C25.3787 17.726 25.1387 17.738 24.9707 17.762C24.7907 17.786 24.6287 17.78 24.4847 17.744C24.3287 17.696 24.0947 17.678 23.7827 17.69C23.4947 17.69 23.3027 17.672 23.2067 17.636C23.1107 17.6 23.0447 17.522 23.0087 17.402C22.9727 17.282 22.9427 17.216 22.9187 17.204C22.8587 17.168 22.8467 17.096 22.8827 16.988C22.9187 16.88 22.9847 16.766 23.0807 16.646L23.2787 16.43L24.0707 16.412C24.5987 16.4 24.9407 16.37 25.0967 16.322C25.2527 16.286 25.4207 16.286 25.6007 16.322C25.8527 16.382 26.2007 16.418 26.6447 16.43C27.0887 16.43 27.3707 16.406 27.4907 16.358C27.6347 16.298 27.7907 16.28 27.9587 16.304C28.1387 16.328 28.2587 16.322 28.3187 16.286C28.4027 16.238 28.9787 16.208 30.0467 16.196C30.3227 16.196 30.5087 16.178 30.6047 16.142ZM25.4927 18.446C25.6007 18.41 26.1527 18.404 27.1487 18.428C28.1567 18.44 28.8167 18.47 29.1287 18.518C29.6687 18.59 30.0467 18.68 30.2627 18.788C30.4907 18.884 30.6587 19.034 30.7667 19.238C30.8507 19.418 30.8987 19.562 30.9107 19.67C30.9227 19.778 30.9047 19.964 30.8567 20.228C30.8567 20.288 30.8447 20.39 30.8207 20.534C30.7847 20.786 30.6227 20.954 30.3347 21.038C30.2027 21.086 30.0287 21.158 29.8127 21.254C29.3327 21.47 28.9187 21.56 28.5707 21.524C28.3787 21.5 28.2287 21.5 28.1207 21.524C27.9647 21.572 27.8147 21.608 27.6707 21.632C27.5027 21.668 27.3107 21.722 27.0947 21.794C26.8907 21.854 26.6027 21.884 26.2307 21.884C25.9187 21.872 25.7267 21.896 25.6547 21.956C25.5827 22.004 25.5467 22.136 25.5467 22.352C25.5467 22.448 25.5587 22.514 25.5827 22.55C25.6187 22.574 25.7327 22.622 25.9247 22.694C26.2727 22.802 26.7047 22.868 27.2207 22.892C27.7487 22.916 28.1267 22.886 28.3547 22.802C28.5227 22.742 28.7627 22.712 29.0747 22.712C29.3987 22.712 29.6267 22.688 29.7587 22.64C29.8907 22.604 30.0227 22.598 30.1547 22.622C30.3707 22.67 30.5207 22.676 30.6047 22.64C30.6647 22.616 30.7307 22.646 30.8027 22.73C30.8867 22.814 30.9287 22.892 30.9287 22.964C30.9287 23.048 30.9647 23.144 31.0367 23.252C31.1327 23.432 31.1507 23.576 31.0907 23.684C31.0307 23.792 30.8747 23.9 30.6227 24.008C30.3827 24.116 30.1667 24.158 29.9747 24.134C29.7707 24.122 29.5847 24.134 29.4167 24.17C29.2247 24.206 28.9427 24.224 28.5707 24.224C28.1987 24.236 27.8927 24.26 27.6527 24.296C27.4247 24.344 27.2267 24.338 27.0587 24.278C26.9027 24.23 26.7707 24.224 26.6627 24.26C26.4227 24.332 26.1767 24.314 25.9247 24.206C25.7807 24.146 25.6367 24.11 25.4927 24.098C25.1447 24.062 24.9287 23.954 24.8447 23.774C24.8207 23.69 24.7427 23.624 24.6107 23.576C24.5027 23.528 24.4007 23.456 24.3047 23.36C24.2207 23.276 24.1787 23.192 24.1787 23.108C24.1787 23.048 24.1067 22.91 23.9627 22.694C23.8667 22.538 23.8067 22.436 23.7827 22.388C23.7707 22.328 23.7707 22.25 23.7827 22.154C23.8067 22.01 23.8187 21.872 23.8187 21.74C23.8067 21.536 23.8787 21.326 24.0347 21.11C24.2027 20.894 24.3587 20.786 24.5027 20.786C24.5987 20.786 24.7367 20.738 24.9167 20.642C25.0367 20.57 25.1447 20.528 25.2407 20.516C25.3367 20.504 25.5827 20.492 25.9787 20.48C26.5547 20.468 26.9387 20.438 27.1307 20.39C27.3707 20.354 27.5687 20.354 27.7247 20.39C28.0007 20.474 28.2827 20.426 28.5707 20.246C29.0147 19.994 29.1587 19.838 29.0027 19.778C28.9427 19.754 28.8227 19.742 28.6427 19.742C28.4267 19.73 28.2527 19.706 28.1207 19.67C27.9767 19.622 27.7787 19.628 27.5267 19.688C27.2267 19.76 26.6567 19.796 25.8167 19.796C24.9767 19.784 24.5267 19.742 24.4667 19.67C24.2747 19.43 24.2507 19.172 24.3947 18.896C24.5507 18.608 24.7847 18.47 25.0967 18.482C25.2887 18.494 25.4207 18.482 25.4927 18.446ZM41.5702 13.334C41.7142 13.274 41.8822 13.28 42.0742 13.352C42.2062 13.4 42.3142 13.424 42.3982 13.424C42.7462 13.424 42.8662 14.15 42.7582 15.602C42.7102 16.406 42.6862 17.06 42.6862 17.564C42.6862 17.804 42.6562 17.99 42.5962 18.122C42.5242 18.254 42.5002 18.404 42.5242 18.572C42.5722 18.872 42.5962 19.394 42.5962 20.138C42.6082 20.882 42.5962 21.29 42.5602 21.362C42.5362 21.41 42.4342 21.5 42.2542 21.632C42.0862 21.764 41.9722 21.836 41.9122 21.848C41.8522 21.86 41.7562 21.836 41.6242 21.776C41.4922 21.704 41.3902 21.632 41.3182 21.56C41.2702 21.488 41.2342 21.368 41.2102 21.2C41.1982 21.02 41.1562 20.864 41.0842 20.732C41.0242 20.624 40.9822 20.318 40.9582 19.814C40.9462 19.298 40.9642 18.932 41.0122 18.716C41.0362 18.584 41.0302 18.446 40.9942 18.302C40.9582 18.146 40.9582 17.996 40.9942 17.852C41.0302 17.708 41.0242 17.546 40.9762 17.366C40.9282 17.186 40.9282 16.994 40.9762 16.79C41.0842 16.406 41.1442 15.752 41.1562 14.828C41.1682 14.252 41.1862 13.928 41.2102 13.856C41.2462 13.748 41.3002 13.64 41.3722 13.532C41.4562 13.424 41.5222 13.358 41.5702 13.334ZM35.2522 13.55C35.3602 13.502 35.5702 13.484 35.8822 13.496C36.2062 13.508 36.4402 13.538 36.5842 13.586C36.6922 13.61 36.8182 13.616 36.9622 13.604C37.2142 13.568 37.4302 13.64 37.6102 13.82C37.7422 13.928 37.8562 14 37.9522 14.036C38.0602 14.072 38.1562 14.138 38.2402 14.234C38.3242 14.318 38.3782 14.408 38.4022 14.504C38.4022 14.504 38.4082 14.54 38.4202 14.612C38.4322 14.672 38.4442 14.714 38.4562 14.738C38.4682 14.81 38.5102 14.894 38.5822 14.99C38.6302 15.062 38.6602 15.152 38.6722 15.26C38.6842 15.368 38.6962 15.728 38.7082 16.34C38.7202 16.484 38.7142 16.592 38.6902 16.664C38.6662 16.736 38.5822 16.892 38.4382 17.132C38.2342 17.48 38.0902 17.744 38.0062 17.924C37.8982 18.128 37.7482 18.326 37.5562 18.518C37.3762 18.71 37.2442 18.884 37.1602 19.04C37.1002 19.148 37.0042 19.256 36.8722 19.364C36.7522 19.46 36.4402 19.694 35.9362 20.066C35.7202 20.222 35.5522 20.354 35.4322 20.462C35.3122 20.57 35.1742 20.66 35.0182 20.732C34.8622 20.804 34.7482 20.876 34.6762 20.948C34.4602 21.14 34.2022 21.194 33.9022 21.11C33.6142 21.026 33.4342 20.846 33.3622 20.57C33.3142 20.378 33.3742 20.156 33.5422 19.904C33.7102 19.64 33.8962 19.49 34.1002 19.454C34.3042 19.406 34.5742 19.238 34.9102 18.95C35.0782 18.782 35.2582 18.644 35.4502 18.536C35.7982 18.32 36.1222 18.002 36.4222 17.582C36.7342 17.15 36.9202 16.76 36.9802 16.412C37.0042 16.22 37.0342 16.106 37.0702 16.07C37.1062 16.022 37.1242 15.92 37.1242 15.764C37.1362 15.536 37.0522 15.368 36.8722 15.26C36.6922 15.152 36.4102 15.098 36.0262 15.098C34.8982 15.11 34.1722 15.152 33.8482 15.224C33.6082 15.272 33.4282 15.272 33.3082 15.224C33.2002 15.164 33.1342 15.032 33.1102 14.828C33.0622 14.492 33.0382 14.294 33.0382 14.234C33.0382 14.162 33.0742 14.09 33.1462 14.018C33.2662 13.862 33.4162 13.76 33.5962 13.712C33.7882 13.652 34.0642 13.622 34.4242 13.622C34.8442 13.622 35.1202 13.598 35.2522 13.55ZM50.5976 11.714C50.8256 11.57 50.9576 11.498 50.9936 11.498C51.0296 11.486 51.1196 11.498 51.2636 11.534C51.4076 11.582 51.5876 11.714 51.8036 11.93C51.9836 12.122 52.0856 12.254 52.1096 12.326C52.1336 12.398 52.1276 12.542 52.0916 12.758C52.0556 12.926 52.0556 13.178 52.0916 13.514C52.1276 13.838 52.1756 14.09 52.2356 14.27C52.2956 14.438 52.3076 14.66 52.2716 14.936C52.2356 15.212 52.2356 15.404 52.2716 15.512C52.3436 15.704 52.3316 15.914 52.2356 16.142C52.1876 16.262 52.1576 16.562 52.1456 17.042C52.1456 17.51 52.1696 17.936 52.2176 18.32C52.2416 18.548 52.2416 18.734 52.2176 18.878C52.1816 19.07 52.1576 19.298 52.1456 19.562C52.1096 19.886 52.0556 20.168 51.9836 20.408C51.9356 20.6 51.9116 20.726 51.9116 20.786C51.9116 20.834 51.9296 20.918 51.9656 21.038C52.0256 21.23 52.0496 21.38 52.0376 21.488C52.0256 21.584 51.9656 21.74 51.8576 21.956C51.7496 22.184 51.6596 22.328 51.5876 22.388C51.5276 22.436 51.4196 22.46 51.2636 22.46C51.0716 22.46 50.9096 22.424 50.7776 22.352C50.6576 22.268 50.5976 22.166 50.5976 22.046C50.5976 22.01 50.5496 21.902 50.4536 21.722C50.3576 21.542 50.3156 21.416 50.3276 21.344C50.3636 21.248 50.3936 21.044 50.4176 20.732C50.4416 20.42 50.4536 20.18 50.4536 20.012C50.4296 19.016 50.4476 18.38 50.5076 18.104C50.5556 17.96 50.5676 17.81 50.5436 17.654C50.5196 17.546 50.5196 17.288 50.5436 16.88C50.5676 16.472 50.5916 16.226 50.6156 16.142C50.6396 16.082 50.6276 15.956 50.5796 15.764C50.5316 15.572 50.5136 15.26 50.5256 14.828C50.5256 14.444 50.5136 14.21 50.4896 14.126C50.4656 14.042 50.3876 13.994 50.2556 13.982C50.0396 13.946 49.8476 13.796 49.6796 13.532C49.5236 13.256 49.4876 13.022 49.5716 12.83C49.6436 12.662 49.7816 12.464 49.9856 12.236C50.2016 12.008 50.4056 11.834 50.5976 11.714ZM56.755 11.588C56.899 11.528 57.085 11.546 57.313 11.642C57.469 11.714 57.769 11.756 58.213 11.768C58.525 11.768 58.729 11.774 58.825 11.786C58.921 11.798 59.053 11.84 59.221 11.912C59.497 12.032 59.689 12.116 59.797 12.164C59.929 12.212 60.127 12.356 60.391 12.596C60.655 12.824 60.817 12.992 60.877 13.1C60.913 13.196 61.009 13.412 61.165 13.748C61.333 14.096 61.423 14.306 61.435 14.378C61.459 14.462 61.513 14.546 61.597 14.63C61.717 14.738 61.807 14.822 61.867 14.882C61.987 15.002 62.107 15.212 62.227 15.512C62.347 15.8 62.389 16.004 62.353 16.124C62.281 16.412 62.293 16.64 62.389 16.808C62.437 16.904 62.449 16.994 62.425 17.078C62.401 17.162 62.383 17.402 62.371 17.798C62.371 18.194 62.329 18.47 62.245 18.626C62.173 18.77 62.125 18.914 62.101 19.058C62.053 19.37 61.957 19.664 61.813 19.94C61.729 20.084 61.675 20.222 61.651 20.354C61.615 20.462 61.561 20.558 61.489 20.642C61.429 20.714 61.237 20.894 60.913 21.182C60.541 21.506 60.247 21.668 60.031 21.668C59.959 21.668 59.809 21.722 59.581 21.83C59.365 21.938 59.209 22.034 59.113 22.118C58.801 22.382 58.333 22.496 57.709 22.46C57.097 22.424 56.551 22.25 56.071 21.938C55.915 21.83 55.759 21.758 55.603 21.722C55.363 21.674 55.105 21.566 54.829 21.398C54.565 21.218 54.433 21.074 54.433 20.966C54.433 20.942 54.343 20.828 54.163 20.624C53.911 20.336 53.761 20.084 53.713 19.868C53.689 19.772 53.623 19.622 53.515 19.418C53.419 19.214 53.359 19.022 53.335 18.842C53.311 18.65 53.269 18.494 53.209 18.374C53.149 18.254 53.125 18.122 53.137 17.978C53.161 17.822 53.149 17.678 53.101 17.546C53.053 17.402 53.053 17.264 53.101 17.132C53.173 16.928 53.179 16.718 53.119 16.502C53.071 16.358 53.101 16.07 53.209 15.638C53.329 15.194 53.449 14.906 53.569 14.774C53.617 14.714 53.683 14.6 53.767 14.432C53.863 14.252 53.995 14.036 54.163 13.784C54.343 13.532 54.475 13.364 54.559 13.28C54.643 13.208 54.739 13.076 54.847 12.884C55.063 12.536 55.309 12.242 55.585 12.002C55.873 11.762 56.125 11.642 56.341 11.642C56.557 11.642 56.695 11.624 56.755 11.588ZM58.411 13.478C58.063 13.322 57.619 13.316 57.079 13.46C56.539 13.604 56.143 13.838 55.891 14.162C55.747 14.342 55.579 14.48 55.387 14.576C55.123 14.708 54.991 14.876 54.991 15.08C54.991 15.164 54.955 15.302 54.883 15.494C54.751 15.83 54.661 16.196 54.613 16.592C54.577 16.988 54.595 17.312 54.667 17.564C54.775 17.984 54.853 18.38 54.901 18.752C54.925 18.956 55.027 19.184 55.207 19.436C55.387 19.676 55.609 19.886 55.873 20.066C56.233 20.318 56.449 20.456 56.521 20.48C56.605 20.504 56.773 20.516 57.025 20.516C57.325 20.504 57.571 20.522 57.763 20.57C58.063 20.654 58.393 20.654 58.753 20.57C59.113 20.486 59.401 20.348 59.617 20.156C59.749 20.048 59.887 19.952 60.031 19.868C60.151 19.796 60.229 19.724 60.265 19.652C60.313 19.568 60.337 19.454 60.337 19.31C60.337 19.166 60.391 19.01 60.499 18.842C60.607 18.674 60.673 18.512 60.697 18.356C60.709 18.212 60.739 18.038 60.787 17.834C60.835 17.642 60.853 17.516 60.841 17.456C60.841 17.42 60.853 17.27 60.877 17.006C60.925 16.466 60.847 16.04 60.643 15.728C60.559 15.608 60.505 15.494 60.481 15.386C60.409 15.182 60.199 14.906 59.851 14.558C59.659 14.366 59.461 14.162 59.257 13.946C59.113 13.79 58.963 13.688 58.807 13.64C58.663 13.58 58.531 13.526 58.411 13.478ZM66.2282 11.606C66.3122 11.546 66.4202 11.522 66.5522 11.534C66.6842 11.546 66.8042 11.594 66.9122 11.678C66.9962 11.75 67.0922 11.786 67.2002 11.786C67.3562 11.786 67.4582 11.828 67.5062 11.912C67.5542 11.996 67.5842 12.182 67.5962 12.47C67.6202 12.758 67.6502 12.926 67.6862 12.974C67.7342 13.022 67.9082 13.046 68.2082 13.046C68.8202 13.07 69.1982 13.064 69.3422 13.028C69.4622 13.004 69.5642 13.04 69.6482 13.136C69.6602 13.148 69.6962 13.19 69.7562 13.262C69.8282 13.334 69.8762 13.382 69.9002 13.406C70.0922 13.61 70.1582 13.778 70.0982 13.91C70.0382 14.042 69.8462 14.162 69.5222 14.27C69.3182 14.342 69.1322 14.36 68.9642 14.324C68.7842 14.288 68.6162 14.294 68.4602 14.342C68.2922 14.402 68.0582 14.408 67.7582 14.36C67.4582 14.324 66.7322 14.312 65.5802 14.324C64.6802 14.336 64.1402 14.336 63.9602 14.324C63.7922 14.312 63.7082 14.258 63.7082 14.162C63.7082 14.138 63.6602 14.072 63.5642 13.964C63.3842 13.748 63.3782 13.538 63.5462 13.334C63.7262 13.13 64.0022 13.028 64.3742 13.028C64.3982 13.028 64.4342 13.028 64.4822 13.028C65.2262 13.028 65.6582 13.004 65.7782 12.956C65.8982 12.896 65.9582 12.698 65.9582 12.362C65.9582 12.35 65.9582 12.338 65.9582 12.326C65.9582 12.074 65.9702 11.918 65.9942 11.858C66.0302 11.786 66.1082 11.702 66.2282 11.606ZM72.2042 13.28C72.2762 13.232 72.3662 13.208 72.4742 13.208C72.5822 13.196 72.6782 13.214 72.7622 13.262C72.8342 13.298 72.9182 13.322 73.0142 13.334C73.1582 13.334 73.2482 13.37 73.2842 13.442C73.3322 13.502 73.3682 13.646 73.3922 13.874C73.4642 14.786 73.4822 16.724 73.4462 19.688C73.4462 19.832 73.4522 20.402 73.4642 21.398C73.4642 22.226 73.4402 22.748 73.3922 22.964C73.3442 23.18 73.2182 23.336 73.0142 23.432C72.8942 23.504 72.7982 23.558 72.7262 23.594C72.6422 23.642 72.5822 23.666 72.5462 23.666C72.5222 23.666 72.4562 23.642 72.3482 23.594C72.1922 23.534 72.0962 23.48 72.0602 23.432C72.0242 23.384 72.0062 23.306 72.0062 23.198C72.0062 23.054 71.9822 22.922 71.9342 22.802C71.8862 22.67 71.8742 22.496 71.8982 22.28C71.9222 22.004 71.9222 21.56 71.8982 20.948C71.8862 20.48 71.9042 20.216 71.9522 20.156C72.0002 20.108 72.0062 19.952 71.9702 19.688C71.9222 19.424 71.9102 19.268 71.9342 19.22C71.9462 19.16 71.9762 19.064 72.0242 18.932C72.0722 18.812 72.0662 18.578 72.0062 18.23C71.9342 17.87 71.9042 17.636 71.9162 17.528C71.9162 17.372 71.9222 17.138 71.9342 16.826C71.9462 16.49 71.9642 16.22 71.9882 16.016C72.0122 15.836 71.9942 15.662 71.9342 15.494C71.8862 15.326 71.8802 15.182 71.9162 15.062C71.9522 14.93 71.9582 14.732 71.9342 14.468C71.9102 14.132 71.9162 13.88 71.9522 13.712C71.9882 13.532 72.0722 13.388 72.2042 13.28ZM65.8142 15.116C66.1142 15.02 66.3122 14.966 66.4082 14.954C66.5042 14.93 66.6002 14.936 66.6962 14.972C66.7922 15.02 66.9542 15.05 67.1822 15.062C67.3622 15.086 67.5902 15.158 67.8662 15.278C68.1542 15.386 68.3882 15.512 68.5682 15.656C68.6642 15.728 68.8142 15.812 69.0182 15.908C69.2942 16.028 69.4322 16.22 69.4322 16.484C69.4322 16.532 69.4802 16.7 69.5762 16.988C69.7802 17.6 69.7322 18.116 69.4322 18.536C69.3722 18.62 69.3362 18.746 69.3242 18.914C69.2762 19.226 69.1322 19.412 68.8922 19.472C68.7482 19.508 68.5802 19.61 68.3882 19.778C67.8602 20.198 67.5242 20.426 67.3802 20.462C67.2602 20.486 67.1882 20.528 67.1642 20.588C67.1402 20.636 67.1522 20.72 67.2002 20.84C67.2482 20.972 67.2662 21.134 67.2542 21.326C67.2302 21.47 67.2242 21.56 67.2362 21.596C67.2482 21.62 67.2962 21.644 67.3802 21.668C67.4882 21.704 67.6922 21.728 67.9922 21.74C68.2922 21.74 68.5022 21.722 68.6222 21.686C68.7662 21.65 68.9402 21.65 69.1442 21.686C69.3362 21.722 69.5702 21.728 69.8462 21.704C70.0742 21.692 70.2242 21.698 70.2962 21.722C70.3802 21.746 70.4702 21.818 70.5662 21.938C70.6742 22.082 70.6862 22.268 70.6022 22.496C70.5182 22.712 70.3802 22.856 70.1882 22.928C69.8882 23.048 69.6302 23.09 69.4142 23.054C69.1382 23.018 68.7602 23.03 68.2802 23.09C67.9442 23.15 67.6862 23.162 67.5062 23.126C67.3382 23.09 67.1102 23.09 66.8222 23.126C66.5222 23.174 66.2582 23.174 66.0302 23.126C65.7902 23.09 65.4062 23.102 64.8782 23.162C64.6982 23.186 64.5482 23.174 64.4282 23.126C64.3082 23.09 64.1402 23.072 63.9242 23.072C63.4082 23.084 63.1502 22.868 63.1502 22.424C63.1502 22.28 63.2222 22.112 63.3662 21.92C63.3782 21.896 63.4622 21.884 63.6182 21.884C63.7502 21.884 63.8882 21.866 64.0322 21.83C64.1762 21.782 64.3142 21.776 64.4462 21.812C64.5782 21.848 64.6982 21.842 64.8062 21.794C64.9262 21.746 65.0762 21.71 65.2562 21.686C65.4002 21.65 65.4962 21.608 65.5442 21.56C65.6042 21.512 65.6342 21.428 65.6342 21.308C65.6342 21.2 65.6762 21.086 65.7602 20.966C65.8322 20.846 65.8682 20.762 65.8682 20.714C65.8562 20.666 65.7182 20.564 65.4542 20.408C65.2022 20.252 65.0342 20.174 64.9502 20.174C64.9022 20.174 64.7162 20.03 64.3922 19.742C64.0802 19.442 63.9002 19.244 63.8522 19.148C63.7922 19.04 63.7262 18.842 63.6542 18.554C63.5942 18.254 63.5702 18.056 63.5822 17.96C63.6542 17.492 63.7142 17.18 63.7622 17.024C63.8222 16.856 63.9422 16.64 64.1222 16.376C64.2782 16.136 64.3862 15.956 64.4462 15.836C64.6022 15.548 64.8062 15.38 65.0582 15.332C65.2142 15.32 65.4662 15.248 65.8142 15.116ZM67.3262 16.466C66.9182 16.358 66.5522 16.364 66.2282 16.484C65.9162 16.604 65.6942 16.82 65.5622 17.132C65.5142 17.252 65.4302 17.414 65.3102 17.618C65.2022 17.798 65.1422 17.954 65.1302 18.086C65.1182 18.206 65.1482 18.344 65.2202 18.5C65.3042 18.668 65.3522 18.794 65.3642 18.878C65.4002 19.01 65.4662 19.112 65.5622 19.184C65.6582 19.244 65.7602 19.25 65.8682 19.202C65.9162 19.166 66.0482 19.178 66.2642 19.238C66.4682 19.298 66.6542 19.31 66.8222 19.274C66.9902 19.238 67.1042 19.16 67.1642 19.04C67.2722 18.824 67.3862 18.716 67.5062 18.716C67.5662 18.716 67.6262 18.68 67.6862 18.608C67.7582 18.524 67.8062 18.428 67.8302 18.32C67.8662 18.2 67.9322 18.098 68.0282 18.014C68.1602 17.906 68.2322 17.768 68.2442 17.6C68.2562 17.432 68.1962 17.282 68.0642 17.15C67.9802 17.054 67.9262 16.958 67.9022 16.862C67.8782 16.694 67.6862 16.562 67.3262 16.466Z" fill="white" fill-opacity="0.7"/>
</svg>
