<svg width="20" height="20" viewBox="0 0 20 20" fill="none" xmlns="http://www.w3.org/2000/svg">
<g clip-path="url(#clip0_1432_30192)">
<path fill-rule="evenodd" clip-rule="evenodd" d="M12.5627 2.50259L12.092 2.54138L10.7522 2.77416L9.73059 3.67164L9.09434 4.83294L7.72613 4.92087L5.82512 5.19503L4.21121 6.23218L4.19052 6.18821L2.95163 5.0295L4.19052 3.80872L4.20086 3.907L5.0311 4.25875L5.48889 4.71913L6.06566 4.25875L5.39837 3.18798L4.19052 2.89831L4.17759 2.80261L2.62833 3.49059L1.88086 5.0295L2.35417 6.28391L3.44305 7.08052L2.52229 8.72806L2.34383 10.5825L2.26365 10.9498L2.5585 12.7732L3.40942 14.413L2.93094 15.4605L3.36287 17.183L3.87756 17.4184L4.35605 17.7417L5.98548 17.2192L6.60881 16.4873L7.72872 16.6295L9.19779 16.6838H10.6669L11.7816 16.5002L12.3739 17.2477L14.0525 17.7831L14.5232 17.4339L15.0482 17.2115L15.4181 15.4786L14.9888 14.4156L15.7181 12.9025L16.0828 13.0008L17.4665 11.7542L17.4251 10.4273L17.3812 9.10826L16.0828 7.86161L15.5319 7.92369L14.637 6.63566L13.4524 5.63989L13.2972 3.49577L13.0774 3.00435L13.0257 2.8052H13.0127L13.0153 2.80002L13.0748 2.77416L12.9972 2.80261L12.9817 2.81295L12.5679 2.5L12.5627 2.50259ZM12.2239 7.49952L12.8317 8.0737L12.7567 8.40993L12.2239 9.01256L11.6885 8.40993L11.6083 8.0737L12.2239 7.49952ZM8.33652 7.16329L8.81759 6.63566L8.32359 6.07958L7.827 6.15718L6.30361 6.39771L5.06472 7.30812L4.99489 8.04525L5.73977 8.00387L5.78374 8.02456L7.85028 7.14001L8.33394 7.15811L8.33652 7.16329Z" fill="#E98C8C"/>
</g>
<defs>
<clipPath id="clip0_1432_30192">
<rect width="20" height="20" fill="white"/>
</clipPath>
</defs>
</svg>
