<svg width="141" height="140" viewBox="0 0 141 140" fill="none" xmlns="http://www.w3.org/2000/svg">
<g opacity="0.8">
<path fill-rule="evenodd" clip-rule="evenodd" d="M40.6981 47.5282C40.6983 36.4946 43.6153 14.6126 55.2816 15.3533C66.9478 16.094 83.6757 35.4143 90.5813 44.9819C102.888 47.6439 127.085 55.4677 125.418 65.4674C123.752 75.467 110.835 80.9761 104.585 82.4807C107.865 86.8401 113.266 96.508 108.636 100.304L108.632 100.304C108.63 100.307 108.629 100.311 108.627 100.314C106.781 102.286 97.6388 105.146 92.7889 105.397C88.3024 105.629 83.4401 103.802 83.1709 99.312L81.1658 99.2339L54.3941 98.0995L37.5577 99.2339L35.4497 92.8813C35.1094 90.7876 34.6331 85.7764 35.4497 82.4807C30.0803 83.225 18.6609 82.7852 15.9383 75.0713C12.5351 65.4289 29.7239 52.7691 40.6981 47.5282Z" fill="white"/>
<g filter="url(#filter0_f_1541_33780)">
<path d="M45.5047 112.665C49.6171 114.305 54.327 115.01 57.8748 115.834C60.98 116.555 64.1428 116.96 67.2553 117.622C67.7566 117.729 68.1579 118.251 67.9387 118.756C67.441 119.902 65.0398 120.131 64.0325 120.354C62.2836 120.741 60.4861 121.091 58.6877 121.135C54.7501 121.233 50.7357 120.813 46.811 120.551C45.1407 120.439 43.4739 120.215 41.8186 119.974C40.8538 119.833 39.8221 119.509 38.8404 119.509C38.328 119.509 38.4239 120.136 38.5095 120.452C38.6526 120.982 39.3045 121.23 39.7612 121.424C40.711 121.827 41.7248 122.2 42.7178 122.487C43.3901 122.681 44.1041 122.897 43.9479 123.719C43.8039 124.476 42.2577 124.29 41.7754 124.317C39.6416 124.437 37.5612 124.564 35.4234 124.564C33.6663 124.564 31.4055 124.936 29.7332 124.254C28.2892 123.665 26.604 123.084 25.043 122.923C24.42 122.859 23.5292 122.72 23 122.41" stroke="url(#paint0_linear_1541_33780)" stroke-width="3.1169" stroke-linecap="round"/>
</g>
<path d="M45.7053 108.989C44.4402 108.258 42.4906 105.735 41.6739 104.565C41.5363 102.876 47.8015 99.6215 47.8714 103.326C47.9413 107.03 47.2866 109.904 45.7053 108.989Z" fill="#CBCBCB"/>
<path d="M47.3179 108.088C46.7325 107.57 46.0021 108.218 45.71 108.607C45.6113 110.639 46.6491 111.788 47.5134 111.509C48.3778 111.231 48.0497 108.735 47.3179 108.088Z" fill="#737373"/>
<path d="M38.7825 71.2304C35.8475 71.2546 33.7881 72.5623 33.1253 73.2132C35.5947 82.3238 40.6303 100.928 41.0175 102.458C41.4047 103.989 41.1888 105.079 42.542 104.368C45.3633 102.883 47.1839 103.101 47.5919 102.792C47.9999 102.484 47.9632 101.926 47.8939 101.686L38.7825 71.2304Z" fill="#A2A2A2"/>
<path d="M48.4129 95.8432C46.3659 102.207 34.0009 102.862 34 94.2235C33.9998 91.778 34.122 90.4823 35.0001 89.165C36 87.665 37.396 87.1733 38.3256 86.7449C39.9009 86.0187 41.9765 85.7664 43 85.665C46.7059 85.665 50.272 90.0631 48.4129 95.8432Z" fill="white"/>
<path d="M99.7364 89.9454C96.1673 88.3641 88.1189 86.9697 84.4785 94.0425" stroke="#D5DCE4" stroke-width="2" stroke-linecap="round"/>
<path d="M48.4128 95.8436C49.8662 91.3252 48.4555 88.2625 46.0001 87.1406" stroke="#D5DCE4" stroke-width="2" stroke-linecap="round"/>
<path d="M63.4557 78.0801C62.9223 77.7428 63.0625 77.4897 61.8548 77.2046C61.5734 77.0979 61.2856 77.13 61.0037 77.1309C60.3422 77.1331 59.6729 77.1303 59.027 77.2933C58.5082 77.4243 58.0731 77.6823 57.5999 77.9642C57.5222 78.0106 57.3473 78.1787 57.3189 78.3025" stroke="#424139" stroke-width="2" stroke-linecap="round"/>
<path d="M50.4234 75.5918C50.058 75.1429 49.504 74.8896 48.9235 74.906L46.5785 74.9723C46.0854 74.9862 45.6211 75.2111 45.3036 75.5896C44.8049 76.1844 44.7649 77.0371 45.206 77.6712L45.2213 77.6933C45.5251 78.1301 46.0124 78.404 46.545 78.4372L48.9294 78.5861C49.448 78.6184 49.9565 78.4267 50.3258 78.0596C50.9868 77.4026 51.0444 76.3546 50.4589 75.6354L50.4234 75.5918Z" fill="#DCDCDC"/>
<path d="M71.6886 73.8933C72.0833 73.4693 72.6527 73.2525 73.2304 73.3064L75.5671 73.5245C76.0578 73.5703 76.5057 73.8246 76.7968 74.2227C77.2545 74.8485 77.237 75.7022 76.7541 76.3065L76.7372 76.3277C76.4047 76.7437 75.9004 76.9853 75.3671 76.984L72.9766 76.9782C72.4574 76.9769 71.9632 76.7528 71.6197 76.3628C71.0043 75.6643 71.0174 74.6145 71.6501 73.9347L71.6886 73.8933Z" fill="#DCDCDC"/>
<path d="M70.5459 69.4916C70.247 68.168 68.6076 67.9797 67.8253 68.051C66.7332 68.1814 66.7099 69.1552 66.6006 70.6001C66.4914 72.0449 66.0538 71.429 67.0388 73.8644C68.0237 76.2997 70.1354 75.8009 70.8887 74.8612C71.6419 73.9214 70.8621 73.6402 71.1179 71.8539C71.3736 70.0676 70.9195 71.1462 70.5459 69.4916Z" fill="#424139"/>
<path d="M52.3916 70.5454C52.0927 69.2217 50.4533 69.0334 49.671 69.1047C48.5789 69.2351 48.5556 70.2089 48.4463 71.6538C48.3371 73.0986 47.8995 72.4827 48.8845 74.9181C49.8694 77.3535 51.9811 76.8547 52.7344 75.9149C53.4876 74.9751 52.7079 74.6939 52.9636 72.9076C53.2193 71.1213 52.7652 72.1999 52.3916 70.5454Z" fill="#424139"/>
</g>
<path d="M105.466 19.0141L105.896 14.3904C105.965 13.6481 106.858 13.3104 107.401 13.8212L110.206 16.4597C110.434 16.6746 110.758 16.7543 111.061 16.6697L115.236 15.5003C115.958 15.2981 116.594 16.0202 116.302 16.711L114.9 20.028C114.789 20.2905 114.81 20.5901 114.956 20.8348L117.236 24.6611C117.569 25.2211 117.212 25.9387 116.564 26.0094L111.532 26.5583C111.35 26.5782 111.178 26.6532 111.041 26.7734L107.875 29.5326C107.382 29.9622 106.61 29.7359 106.427 29.1083L105.423 25.6638C105.346 25.3996 105.152 25.1856 104.896 25.0833L101.257 23.6253C100.569 23.3496 100.495 22.4046 101.132 22.0251L105.033 19.7003C105.279 19.5539 105.44 19.2989 105.466 19.0141Z" fill="url(#paint1_linear_1541_33780)"/>
<defs>
<filter id="filter0_f_1541_33780" x="19.8828" y="109.548" width="51.2346" height="18.2341" filterUnits="userSpaceOnUse" color-interpolation-filters="sRGB">
<feFlood flood-opacity="0" result="BackgroundImageFix"/>
<feBlend mode="normal" in="SourceGraphic" in2="BackgroundImageFix" result="shape"/>
<feGaussianBlur stdDeviation="0.779224" result="effect1_foregroundBlur_1541_33780"/>
</filter>
<linearGradient id="paint0_linear_1541_33780" x1="26.7717" y1="123.767" x2="68" y2="118.665" gradientUnits="userSpaceOnUse">
<stop stop-color="#737373" stop-opacity="0"/>
<stop offset="1" stop-color="#737373"/>
</linearGradient>
<linearGradient id="paint1_linear_1541_33780" x1="104.896" y1="13.2621" x2="113.855" y2="28.2975" gradientUnits="userSpaceOnUse">
<stop stop-color="#DCD9BD"/>
<stop offset="1" stop-color="#979580"/>
</linearGradient>
</defs>
</svg>
