<svg width="24" height="24" viewBox="0 0 24 24" fill="none" xmlns="http://www.w3.org/2000/svg">
<path fill-rule="evenodd" clip-rule="evenodd" d="M16.2188 4.94808V5.16089C17.4366 5.27225 18.6494 5.43238 19.8544 5.64089C19.9454 5.65665 20.0323 5.69017 20.1104 5.73955C20.1884 5.78892 20.2559 5.85318 20.3091 5.92866C20.3623 6.00414 20.4001 6.08935 20.4204 6.17944C20.4406 6.26953 20.443 6.36272 20.4272 6.4537C20.4114 6.54468 20.3779 6.63167 20.3285 6.70969C20.2792 6.78772 20.2149 6.85526 20.1394 6.90845C20.0639 6.96164 19.9787 6.99944 19.8886 7.0197C19.7986 7.03996 19.7054 7.04227 19.6144 7.02651L19.4184 6.9937L18.4763 19.2468C18.4219 19.9533 18.1029 20.6133 17.5831 21.0947C17.0632 21.5762 16.3808 21.8437 15.6722 21.8437H8.32876C7.62019 21.8437 6.93774 21.5762 6.41787 21.0947C5.898 20.6133 5.57902 19.9533 5.52469 19.2468L4.58157 6.9937L4.38563 7.02651C4.20189 7.05834 4.01302 7.01587 3.86059 6.90845C3.70816 6.80102 3.60464 6.63745 3.57282 6.4537C3.54099 6.26996 3.58346 6.08109 3.69089 5.92866C3.79831 5.77623 3.96189 5.67271 4.14563 5.64089C5.35057 5.43213 6.56343 5.272 7.78126 5.16089V4.94808C7.78126 3.48183 8.91844 2.22933 10.4213 2.18151C11.4738 2.14783 12.5272 2.14783 13.5797 2.18151C15.0825 2.22933 16.2188 3.48183 16.2188 4.94808ZM10.4663 3.58683C11.4888 3.55412 12.5121 3.55412 13.5347 3.58683C14.2406 3.60933 14.8125 4.2037 14.8125 4.94808V5.05401C12.9392 4.94024 11.0608 4.94024 9.18751 5.05401V4.94808C9.18751 4.2037 9.75844 3.60933 10.4663 3.58683ZM10.1334 9.16026C10.1299 9.06793 10.1082 8.9772 10.0695 8.89326C10.0309 8.80932 9.97609 8.73381 9.90828 8.67104C9.84046 8.60828 9.76095 8.55948 9.67427 8.52744C9.5876 8.49541 9.49547 8.48076 9.40313 8.48433C9.3108 8.4879 9.22007 8.50962 9.13613 8.54825C9.05219 8.58689 8.97668 8.64167 8.91391 8.70949C8.85114 8.77731 8.80235 8.85682 8.77031 8.94349C8.73827 9.03017 8.72362 9.1223 8.72719 9.21464L9.05251 17.6521C9.05972 17.8385 9.14066 18.0144 9.27753 18.141C9.41441 18.2677 9.59599 18.3348 9.78235 18.3276C9.96871 18.3204 10.1446 18.2395 10.2712 18.1026C10.3979 17.9657 10.465 17.7841 10.4578 17.5978L10.1334 9.16026ZM15.2709 9.21464C15.2778 9.12053 15.2657 9.026 15.2352 8.93668C15.2048 8.84736 15.1567 8.76508 15.0938 8.69474C15.0309 8.6244 14.9545 8.56744 14.8691 8.52725C14.7838 8.48706 14.6912 8.46447 14.5969 8.46082C14.5026 8.45717 14.4085 8.47254 14.3203 8.506C14.2321 8.53947 14.1515 8.59035 14.0834 8.65562C14.0152 8.72088 13.9609 8.7992 13.9236 8.8859C13.8864 8.9726 13.867 9.0659 13.8666 9.16026L13.5413 17.5978C13.534 17.7842 13.6012 17.966 13.728 18.1029C13.8547 18.2399 14.0307 18.3209 14.2172 18.3281C14.4037 18.3353 14.5854 18.2681 14.7223 18.1414C14.8593 18.0146 14.9403 17.8386 14.9475 17.6521L15.2709 9.21464Z" fill="white"/>
</svg>
